<?xml version="1.0" encoding="UTF-8"?><svg xmlns="http://www.w3.org/2000/svg" viewBox="0 0 112.25 112.25"><defs><style>.d{fill:none;}</style></defs><g id="a"/><g id="b"><g id="c"><g><g><path d="M75.72,45.94c-.94,2.66-3.07,5.14-6.23,7.17-4.56,2.94-10.91,4.63-17.42,4.63s-12.85-1.69-17.41-4.63c-3.6-2.32-5.84-5.21-6.53-8.29v24.04c0,.39,.13,.78,.36,1.09,.85,4.09,3.73,7.58,7.76,10.02,4.31,2.62,9.92,4.16,16.07,4.16s11.75-1.54,16.07-4.16c2.95-1.79,5.26-4.13,6.63-6.87l.71-27.16Z"/><path d="M28.38,42.82c0,3.64,2.33,7.15,6.55,9.87,4.48,2.89,10.73,4.55,17.14,4.55s12.66-1.66,17.14-4.55c4.22-2.72,6.55-6.23,6.55-9.88,0-.06,.02-1.18,.03-1.85-1.11-3.38-3.64-6.3-7.04-8.45-4.36-2.75-10.13-4.38-16.45-4.38h0c-6.32,0-12.08,1.62-16.45,4.38-3.99,2.52-6.79,6.09-7.49,10.24,0,.03,0,.05,0,.08Zm16.7-4.79c1.9-1.06,4.33-1.64,7-1.64s5.1,.58,7,1.64c1.9,1.06,3.36,2.75,3.36,4.78s-1.46,3.7-3.36,4.77c-1.9,1.06-4.33,1.66-7,1.66s-5.1-.59-7-1.66c-1.9-1.06-3.36-2.74-3.36-4.77s1.46-3.72,3.36-4.78Z"/><path d="M82.22,49.76c-1.34,0-1.83-.1-2.66-.99-.84-.89-1.92-2.91-3.16-6.62-.02-.05-.05-.1-.07-.15l-.83,31.6c.41,.61,.83,1.17,1.27,1.65,1.44,1.54,3.07,2.36,4.75,3.02l2.61,1.01v-29.51h-1.91Z"/></g><rect class="d" width="112.25" height="112.25"/></g></g></g></svg>