<?xml version="1.0" encoding="UTF-8"?><svg xmlns="http://www.w3.org/2000/svg" viewBox="0 0 112.25 112.25"><defs><style>.d{fill:none;}</style></defs><g id="a"/><g id="b"><g id="c"><g><g><g><path d="M26.9,24.52v-1.87c0-.82,.67-1.49,1.49-1.49h8.25v-3.35h5.91v17.88h-5.91v-3.35h-8.25c-.82,0-1.49-.67-1.49-1.49v-1.87h-2.4v-4.47h2.4Z"/><rect x="3.92" y="25.64" width="20.03" height="2.23"/><path d="M95.99,85.3l-.99,.18c-.06,.01-.12-.03-.13-.09l-.89-4.75h0c-1.21,.23-2.38-.57-2.61-1.79l-.18-.96-1.75,.33c-1.46,.27-2.87-.69-3.14-2.15l-4.81-25.79h0l-6.07,1.13c-.82,.15-1.62-.39-1.77-1.22l-1.13-6.06h-18.67V17.31h36.61c2.82,0,5.11,2.29,5.11,5.11v5.83l8.3,44.53c.27,1.46-.69,2.87-2.15,3.14l-1.75,.33h0l.19,.99c.22,1.2-.55,2.35-1.75,2.6h-.04l.9,4.83-1.1,.2-2.19,.42Z"/><path d="M52.79,44.13c-5.04,0-9.13-4.09-9.13-9.13V17.31h9.13v26.82Z"/></g><path d="M96.65,83.29c.49-.09,.95,.23,1.04,.72l.31,1.67c.9,4.86,5.49,8.1,10.33,7.4-.28,.74-.99,1.33-1.87,1.87-4.95-.26-9.28-3.86-10.22-8.95l-.31-1.67c-.09-.49,.23-.95,.72-1.04Z"/></g><rect class="d" x="0" y="0" width="112.25" height="112.25"/></g></g></g></svg>