<?xml version="1.0" encoding="UTF-8"?><svg id="Livello_2" xmlns="http://www.w3.org/2000/svg" viewBox="0 0 112.25 112.25"><defs><style>.cls-1,.cls-2{fill:none;}.cls-2{stroke:#000;stroke-linecap:round;stroke-miterlimit:10;stroke-width:.75px;}</style></defs><g id="TOOLS_MATERIALS"><g><g><path class="cls-2" d="M54.35,59.42l1.25-.72c.25-.15,.5-.35,.71-.61,.29-.36,.51-.81,.64-1.33,.14-.55,.18-1.11,.16-1.61-.01-.46-.05-.82-.14-1.29-.1-.54-.27-1.19-.55-1.92-.35-.91-.85-1.83-1.41-2.64-.59-.85-1.17-1.45-1.6-1.84-.49-.45-.81-.68-1.18-.92-.28-.18-.57-.34-.97-.57l-.38-.22-.23-.13-.28-.16-.04-.02c-.93-.54-1.86-1.07-2.79-1.61-.22-.13-.45-.26-.67-.39-.2-.12-.45-.25-.76-.48-.2-.15-.42-.34-.63-.56-.33-.34-.55-.66-.69-.9-.15-.24-.25-.45-.34-.64-.16-.37-.23-.6-.29-.87-.13-.6-.11-1.16,.05-1.57,.4,.05,.78,.22,1.06,.38,.1,.06,.18,.1,.3,.17l.15,.09,.26,.15c.15,.08,.29,.17,.44,.25l.32,.18,.39,.23,.8,.46c3.15,1.82,3.65,2.12,4.08,2.31,.23,.1,.49,.2,.71,.26,.29,.08,.55,.12,.76,.14,.39,.02,.65-.02,.9-.11,.11-.04,.21-.09,.31-.14l1.27-.74h0c.32-.19,.58-.46,.77-.82,.48-.89,.51-2.28,.09-3.72-.35-1.21-1.03-2.45-1.87-3.43-.32-.37-.65-.7-.99-1-.24-.2-.46-.37-.66-.52-.29-.21-.58-.38-1.01-.63-.23-.13-.49-.28-.87-.5-.43-.25-.99-.57-1.52-.88l-.75-.43-.35-.2-.22-.13-.33-.19c-1.25-.72-1.72-.97-2.03-1.21-.17-.13-.31-.25-.48-.42-.59-.6-1.07-1.44-1.28-2.25-.18-.69-.17-1.36,.01-1.83,.2,.03,.41,.09,.62,.19,.12,.06,.21,.1,.57,.31,.15,.09,.36,.21,.61,.35l.82,.47c.41,.24,.84,.49,1.23,.71,.83,.48,1.37,.79,1.74,1.01,.63,.36,.77,.47,1.01,.65,.18,.14,.46,.37,.79,.73,.18,.19,.38,.42,.58,.68,.2,.26,.34,.47,.47,.67,.19,.3,.32,.56,.48,.85,.15,.27,.33,.59,.62,.99,.25,.36,.59,.78,.97,1.18,.51,.52,1.04,.96,1.6,1.28,.68,.39,1.23,.53,1.67,.57,.54,.05,.98-.06,1.27-.21,.05-.02,.09-.04,.13-.07l.7-.4c.31-.11,.78-.19,1.45,0,.17,.05,.32,.1,.46,.16,.21,.09,.43,.21,.83,.44,.29,.17,.7,.4,1.1,.64,.55,.32,1.1,.63,1.65,.95l.03,.02,.6,.34,.12,.07c.48,.28,.81,.47,1.06,.61,.32,.19,.5,.31,.68,.46,.2,.16,.43,.39,.6,.58,.3,.35,.46,.62,.62,.91,.26,.49,.43,1.03,.51,1.47,.09,.57,.06,1.07-.1,1.45-.14-.02-.27-.06-.41-.11-.22-.08-.5-.24-.96-.5-.24-.14-.52-.3-.88-.51-.16-.09-.33-.19-.51-.29l-.3-.17-1.56-.9c-.43-.25-.87-.5-1.2-.69-1.1-.63-1.29-.74-1.49-.84-.36-.18-.81-.36-1.25-.45-.62-.13-1.2-.06-1.66,.2h0l-1.27,.73h0c-.16,.09-.31,.21-.44,.36-.58,.64-.82,1.75-.66,3.02,.16,1.24,.7,2.63,1.5,3.79,.35,.51,.71,.96,1.28,1.5,.32,.3,.71,.62,1.14,.91,.11,.07,.21,.14,.33,.22,.13,.08,.36,.21,1.52,.88l.87,.5c.55,.32,1.19,.69,1.66,.96l.54,.31,.48,.28c.21,.12,.39,.22,.55,.32,.29,.17,.52,.3,.71,.41,.38,.24,.6,.42,.88,.7,.19,.19,.38,.4,.51,.58,.3,.4,.44,.66,.56,.91,.14,.29,.22,.51,.27,.69,.07,.24,.12,.47,.15,.7,.06,.46,.01,.88-.12,1.21h0c-.25-.03-.52-.12-.75-.23-.16-.07-.31-.15-.44-.23-.11-.06-.18-.1-.36-.21-.42-.24-1.27-.73-2-1.15l-1.07-.62-.27-.16-.75-.43-.32-.19c-.17-.1-.35-.2-.51-.3-.45-.26-.88-.45-1.46-.58-.48-.11-1.12-.17-1.77,.06-.13,.05-.26,.11-.39,.18l-1.16,.67h0l-.11,.07h0c-.15,.09-.3,.2-.45,.33-.28,.26-.54,.61-.73,1.07-.21,.5-.31,1.07-.34,1.66-.05,1.07,.14,2.19,.59,3.44,.25,.68,.58,1.42,1.01,2.14,.51,.86,1.11,1.62,1.69,2.22,.57,.59,1.08,.98,1.45,1.23,.22,.15,.38,.24,.5,.31,.06,.03,.13,.07,.23,.13,.18,.1,.36,.21,.54,.31,.6,.35,1.23,.71,1.74,1.01,1.33,.77,2.01,1.16,2.38,1.37,.24,.14,.34,.2,.41,.24,.07,.04,.17,.1,.28,.18,.2,.14,.45,.33,.72,.6,.23,.23,.45,.49,.62,.73,.39,.56,.6,1.06,.72,1.5,.15,.52,.19,1.03,.12,1.45-.02,.14-.06,.27-.11,.39-.08,0-.16-.03-.24-.04-.14-.03-.26-.07-.39-.13-.32-.13-.91-.48-2.89-1.62-.72-.42-1.62-.94-2.76-1.59l-.37-.21c-.13-.08-.25-.14-.37-.21-.26-.15-.52-.29-.81-.42-.27-.12-.54-.21-.77-.27-.45-.12-.79-.13-1.06-.11-.3,.03-.57,.11-.82,.26h0l-1.27,.73h0c-.49,.28-.84,.79-1.01,1.46-.29,1.09-.12,2.58,.49,4.02,.49,1.17,1.26,2.27,2.12,3.11,.56,.54,1.21,1,1.57,1.22,.09,.05,.14,.08,.22,.13,.15,.08,.44,.25,.83,.48,.64,.37,1.56,.9,2.56,1.48l.62,.36,.29,.17,.4,.23c.2,.12,.38,.22,.54,.31,.68,.39,.97,.57,1.23,.77,.22,.18,.47,.42,.69,.69,.32,.39,.59,.86,.78,1.34,.18,.46,.27,.89,.3,1.26,.03,.43-.01,.82-.13,1.13-.19-.03-.4-.1-.57-.17-.16-.07-.31-.15-.43-.22-.05-.03-.11-.06-.17-.1l-.21-.12c-1.62-.94-10-5.77-10.71-6.18-1.51-.87-3.01-1.74-4.52-2.61l-.6-.35-.28-.16-.22-.13c-.5-.29-1.91-1.11-3.17-1.83-.66-.38-1.27-.73-1.69-.98-.24-.14-.41-.23-.5-.29-.26-.15-.42-.23-.73-.48-.18-.14-.39-.34-.62-.6-.22-.26-.39-.51-.52-.73-.17-.29-.27-.51-.36-.76-.26-.67-.35-1.34-.27-1.91,.02-.15,.06-.3,.12-.44,.15,.02,.34,.07,.56,.17,.16,.07,.29,.14,.72,.39,.6,.34,1.77,1.02,4.37,2.52l.42,.24,.28,.16,.22,.13c.14,.08,.16,.09,.23,.13,.18,.11,.47,.27,.83,.42,.33,.14,.71,.27,1.09,.33,.46,.07,.84,.03,1.14-.06,.13-.04,.25-.09,.36-.16,.13-.07,.24-.16,.35-.26l.92-.48c.46-.27,.81-.74,.99-1.37,.34-1.15,.13-2.8-.57-4.35-.23-.5-.49-.98-.82-1.45-.23-.34-.51-.69-.83-1.04-.3-.32-.66-.66-.97-.91-.37-.3-.7-.53-1.16-.8-.23-.13-.48-.28-.79-.45l-.76-.44-.6-.35c-.37-.21-.88-.51-1.52-.88l-.79-.46c-.14-.08-.3-.17-.38-.22l-.25-.14c-.37-.21-.74-.41-1.11-.65-.4-.26-.74-.56-1.01-.85-.46-.49-.75-.99-.97-1.48-.38-.88-.47-1.81-.23-2.42,.09,.01,.2,.03,.31,.06,.32,.09,.61,.23,.86,.38,.11,.06,.18,.1,.34,.19,.51,.29,1.77,1.02,2.65,1.53l.95,.55c1.15,.67,1.52,.88,1.77,1,.19,.09,.35,.16,.52,.22,.44,.16,.83,.23,1.16,.25,.2,.01,.36,0,.54-.01,.29-.03,.65-.11,1.02-.32h.02Zm-1.45,32.58l6.36,3.67c.15,.09,.32,.12,.49,.11,.17,0,.33-.06,.47-.15h0c.4-.24,.77-.45,1.1-.64l.37-.21c.24-.14,.49-.28,.73-.42,.66-.38,1.32-.76,1.99-1.15l-.04-.02h.02l.09,.06,.51,.29,.49,.28,.48,.28,.48,.28,.41,.24,.39,.22,.24,.14,.21,.12,.2,.11,.15,.09,.13,.08,.11,.06,.09,.05s.09,.05,.13,.07c.03,.02,.07,.04,.1,.06,.04,.02,.07,.04,.11,.06,.05,.02,.09,.05,.14,.07,.1,.05,.2,.09,.3,.12,.07,.03,.14,.05,.21,.07,.04,.01,.08,.02,.12,.03,.05,.01,.09,.02,.14,.03,.03,0,.07,.01,.1,.02,.05,0,.11,.02,.16,.02,.03,0,.07,0,.1,.01,.04,0,.07,0,.11,0,.04,0,.08,0,.12,0,.05,0,.1,0,.15,0,.06,0,.11-.01,.17-.02,.09-.01,.18-.03,.26-.06,.05-.01,.1-.03,.14-.05,.06-.02,.11-.05,.16-.07,.03-.02,.06-.03,.09-.05l1.27-.74,.03-.02s.08-.05,.11-.08c.05-.04,.1-.08,.15-.12,.05-.05,.1-.09,.15-.14,.05-.06,.1-.12,.15-.18,.03-.05,.07-.1,.1-.15,.04-.06,.07-.12,.1-.18,.04-.07,.07-.15,.1-.23,.03-.07,.05-.13,.07-.21,.02-.08,.05-.16,.06-.24,.02-.07,.03-.14,.04-.21,.01-.07,.02-.14,.03-.21,0-.07,.01-.14,.02-.21,0-.04,0-.08,0-.13,0-.04,0-.07,0-.11,0-.04,0-.07,0-.11v-.28s0-.07,0-.11v-.53c0-.06,0-.12,0-.19v-2.6c0-.06,0-.12,0-.18v-.53s0-.08,0-.12v-.2s0-.09,0-.13c0-.03,0-.07,0-.1,0-.04,0-.08,0-.12,0-.05,0-.09,0-.14,0-.07-.01-.13-.02-.2,0-.09-.02-.17-.03-.26-.01-.08-.03-.16-.04-.25-.02-.1-.04-.21-.07-.31-.02-.1-.05-.19-.07-.29-.03-.11-.06-.21-.1-.32-.03-.1-.07-.2-.11-.31-.03-.09-.07-.19-.11-.28-.05-.12-.1-.25-.16-.37-.05-.11-.1-.22-.16-.33-.05-.09-.1-.19-.15-.28-.04-.08-.09-.16-.13-.23-.07-.11-.13-.22-.2-.33-.05-.08-.1-.16-.16-.24-.06-.09-.13-.18-.19-.27-.07-.09-.13-.18-.2-.26-.06-.07-.11-.14-.17-.2-.06-.07-.12-.14-.19-.21-.05-.05-.09-.1-.14-.15-.06-.07-.13-.13-.19-.19-.05-.05-.09-.09-.14-.13-.06-.05-.12-.11-.18-.16-.06-.05-.11-.1-.17-.14-.06-.05-.12-.1-.19-.14-.08-.06-.16-.12-.24-.17-.04-.03-.09-.06-.13-.08-.04-.02-.07-.05-.11-.07-.03-.02-.07-.04-.1-.06-.04-.02-.08-.05-.12-.07l-.08-.05-.09-.05-.11-.06-.1-.06-.13-.08-.17-.1-.17-.1-.25-.14-.23-.13-.25-.14-.28-.16-.31-.18-.37-.21-.4-.23-.28-.16-.32-.18-.28-.16-.23-.13-.22-.13-.39-.22-.19-.11-.17-.1-.15-.09-.13-.08-.15-.09-.15-.09-.13-.07-.14-.08-.12-.07-.11-.06-.11-.06-.1-.06-.09-.05s-.08-.04-.12-.07c-.03-.02-.07-.04-.1-.06-.04-.02-.07-.05-.11-.07-.04-.03-.08-.05-.12-.08-.07-.05-.13-.09-.2-.14-.08-.06-.17-.13-.25-.2-.05-.05-.11-.09-.16-.14-.06-.06-.12-.11-.17-.17-.06-.06-.11-.12-.16-.17-.07-.07-.13-.15-.19-.23-.05-.06-.1-.13-.14-.19-.05-.07-.1-.14-.14-.21-.04-.06-.08-.12-.12-.18-.03-.05-.06-.11-.09-.16-.03-.06-.06-.11-.09-.17-.03-.06-.06-.13-.09-.19-.03-.06-.06-.13-.08-.19-.03-.07-.05-.13-.08-.2-.02-.06-.04-.13-.06-.19-.02-.06-.04-.12-.05-.18-.02-.06-.03-.13-.05-.19-.02-.07-.03-.15-.04-.22-.01-.08-.02-.16-.03-.23,0-.08-.01-.16-.01-.24,0-.08,0-.15,0-.23,0-.07,.01-.15,.02-.22,.01-.07,.02-.14,.04-.2,.01-.05,.03-.11,.05-.16,0-.02,.02-.04,.02-.06,.04,0,.09,.01,.13,.02,.06,.01,.12,.03,.18,.04,.06,.02,.12,.04,.18,.06,.08,.03,.16,.06,.23,.09,.06,.02,.11,.05,.17,.08,.04,.02,.08,.04,.12,.06,.03,.02,.07,.04,.1,.06,.04,.02,.09,.05,.13,.08l.08,.05,.09,.05,.12,.07,.11,.06,.14,.08,.11,.07,.14,.08,.1,.06,.14,.08,.14,.08,.15,.08,.21,.12,.29,.17,.26,.15,.21,.12,.29,.17,.21,.12,.19,.11,.19,.11,.22,.13,.24,.14,.26,.15,.2,.12,.28,.16,.22,.13,.19,.11,.25,.14,.2,.11,.17,.1,.13,.08,.14,.08,.1,.06c.05,.03,.11,.06,.16,.09,.03,.02,.07,.04,.1,.06,.04,.02,.08,.05,.12,.07,.06,.03,.12,.06,.18,.09,.09,.05,.18,.09,.28,.13,.1,.04,.2,.08,.3,.12,.1,.04,.21,.07,.31,.1,.1,.03,.21,.06,.31,.08,.1,.02,.2,.04,.3,.05,.1,.01,.19,.02,.29,.02,.1,0,.19,0,.28,0,.09,0,.17-.02,.25-.04,.08-.02,.16-.04,.24-.06,.08-.03,.16-.06,.23-.09,.04-.02,.07-.04,.11-.06l1.27-.74s.07-.04,.11-.07c.07-.05,.14-.11,.21-.17,.07-.06,.13-.13,.19-.2,.06-.07,.12-.15,.17-.24,.05-.09,.1-.18,.15-.27,.04-.08,.08-.17,.11-.26,.03-.1,.07-.2,.09-.31,.04-.15,.06-.3,.09-.46,.02-.17,.03-.34,.04-.52,0-.2,0-.4-.02-.61-.02-.21-.05-.42-.08-.64-.03-.16-.07-.33-.11-.5-.03-.14-.07-.27-.11-.41-.05-.15-.1-.3-.15-.45-.06-.15-.12-.3-.18-.46-.06-.14-.13-.29-.2-.43-.07-.14-.14-.27-.21-.41-.07-.13-.14-.25-.22-.38-.07-.12-.15-.24-.23-.36-.08-.11-.16-.23-.24-.34-.08-.11-.17-.22-.25-.32-.09-.11-.18-.22-.28-.33-.09-.11-.19-.21-.29-.31-.1-.1-.2-.2-.3-.29-.1-.1-.21-.19-.32-.28-.1-.09-.2-.17-.31-.25-.1-.08-.2-.16-.31-.23-.1-.07-.2-.14-.29-.2-.07-.04-.14-.09-.2-.13-.04-.02-.07-.04-.11-.07-.04-.02-.08-.04-.11-.07l-.11-.06-.1-.06-.15-.09-.17-.1-.18-.1-.23-.13-.27-.16-.19-.11-.22-.13-.26-.15-.22-.13-.24-.14-.22-.13-.23-.14-.19-.11-.24-.14-.23-.13-.19-.11-.22-.13-.18-.1-.15-.08-.1-.06-.13-.07-.09-.05-.12-.07-.11-.06-.13-.08-.11-.06-.11-.06-.09-.05s-.07-.04-.11-.06c-.03-.02-.06-.04-.1-.06-.03-.02-.07-.04-.1-.07-.04-.03-.08-.05-.12-.08-.05-.04-.11-.08-.16-.11-.08-.05-.15-.11-.23-.17-.06-.05-.12-.1-.18-.15-.08-.07-.16-.14-.24-.22-.08-.08-.17-.16-.25-.25-.08-.08-.15-.17-.22-.25-.07-.09-.14-.17-.21-.26-.07-.09-.14-.18-.2-.28-.06-.09-.13-.19-.19-.28-.06-.1-.12-.19-.17-.29-.05-.1-.11-.19-.16-.29-.05-.1-.1-.2-.14-.3-.05-.11-.09-.22-.14-.32-.05-.11-.09-.23-.13-.34-.04-.13-.08-.25-.12-.38-.03-.11-.06-.22-.08-.33-.03-.11-.05-.22-.07-.33-.03-.15-.05-.3-.06-.45-.02-.17-.03-.33-.03-.49,0-.19,0-.37,.02-.55,.01-.14,.03-.27,.06-.4,.02-.1,.04-.2,.07-.29,.02-.08,.05-.15,.08-.23,.03-.07,.06-.15,.1-.22,.03-.05,.06-.1,.09-.15,.07,0,.13,0,.2,0,.08,0,.16,.02,.24,.03,.08,.01,.16,.03,.25,.06,.06,.02,.13,.04,.19,.06,.08,.03,.16,.06,.23,.09,.05,.02,.11,.05,.16,.07,.05,.02,.1,.05,.15,.07,.04,.02,.07,.04,.11,.06,.03,.02,.07,.04,.1,.05,.04,.02,.08,.04,.12,.07l.09,.05,.11,.06,.1,.06,.15,.09,.11,.06,.15,.08,.09,.05,.13,.07,.11,.06,.14,.08,.29,.17,.18,.11,.28,.16,.23,.13,.2,.11,.21,.12,.23,.13,.21,.12,.25,.15,.25,.14,.24,.14,.19,.11,.28,.16,.24,.14,.17,.1,.2,.11,.17,.1,.1,.06,.1,.06s.07,.04,.11,.06c.04,.02,.07,.04,.11,.06,.06,.03,.11,.06,.17,.09,.11,.06,.22,.11,.34,.16,.1,.04,.19,.08,.28,.12,.1,.04,.2,.07,.3,.1,.11,.03,.22,.06,.32,.09,.11,.02,.21,.04,.31,.06,.1,.01,.2,.02,.3,.03,.1,0,.19,0,.28,0,.09,0,.18-.02,.27-.04,.09-.02,.17-.04,.25-.07,.08-.03,.16-.06,.23-.09,.04-.02,.07-.04,.11-.06l1.27-.74s.08-.05,.12-.07c.08-.05,.15-.11,.22-.17,.07-.07,.14-.14,.2-.22,.07-.08,.13-.17,.18-.27,.05-.09,.1-.19,.15-.29,.04-.1,.08-.2,.11-.3,.04-.14,.08-.28,.1-.43,.03-.18,.05-.37,.06-.56,.01-.25,0-.51-.01-.78-.02-.21-.05-.43-.09-.65-.03-.17-.07-.34-.11-.52-.04-.15-.08-.3-.13-.45-.05-.16-.11-.32-.17-.48-.06-.16-.12-.31-.19-.47-.07-.15-.14-.3-.22-.46-.08-.15-.16-.29-.24-.44-.08-.14-.16-.27-.25-.41-.08-.12-.16-.24-.24-.36-.08-.11-.16-.22-.25-.33-.09-.11-.18-.23-.28-.34-.09-.11-.19-.22-.29-.32-.1-.1-.2-.2-.3-.3-.1-.1-.21-.19-.31-.28-.1-.09-.2-.17-.3-.25-.1-.08-.2-.16-.3-.23-.1-.07-.2-.14-.29-.21-.07-.05-.14-.09-.21-.14-.05-.03-.1-.06-.15-.09-.04-.02-.07-.04-.11-.06-.04-.02-.08-.04-.11-.07l-.1-.06-.1-.06-.14-.08-.14-.08-.16-.09-.2-.11-.22-.13-.17-.1-.18-.1-.22-.13-.2-.12-.34-.19-.19-.11-.19-.11-.19-.11-.16-.09-.17-.1-.19-.11-.38-.22-.21-.12-.17-.1-.15-.09-.14-.08-.14-.08-.15-.09-.19-.11-.15-.09-.13-.07-.12-.07-.11-.07-.11-.07-.11-.06-.11-.06-.1-.06-.1-.06-.09-.05s-.08-.04-.11-.07c-.05-.03-.09-.06-.13-.08-.05-.03-.09-.06-.14-.09-.05-.03-.09-.07-.14-.1-.05-.04-.1-.08-.15-.12-.05-.04-.1-.09-.15-.13-.05-.04-.1-.09-.15-.14-.05-.05-.1-.09-.14-.14-.05-.05-.09-.1-.14-.15-.05-.06-.1-.11-.15-.17-.05-.06-.1-.12-.15-.19-.05-.07-.1-.13-.15-.2-.05-.07-.09-.14-.14-.21-.04-.06-.08-.13-.11-.19-.04-.06-.07-.12-.1-.18-.04-.07-.07-.14-.1-.2-.04-.08-.07-.15-.1-.23-.03-.08-.06-.16-.09-.24-.03-.09-.06-.17-.08-.26-.02-.08-.04-.17-.06-.25-.02-.09-.04-.18-.05-.27-.01-.09-.02-.17-.03-.25,0-.07,0-.13,0-.2,0-.06,0-.12,0-.18,0-.07,.01-.14,.02-.2,0-.06,.02-.13,.04-.19,.01-.06,.03-.11,.05-.17,0-.03,.02-.06,.03-.08,.02,0,.04,0,.06,0,.06,0,.11,.02,.17,.03,.08,.02,.16,.04,.24,.07,.05,.02,.1,.03,.15,.05,.06,.02,.12,.05,.17,.08,.05,.02,.09,.04,.14,.07,.03,.02,.07,.03,.1,.05,.03,.02,.06,.03,.08,.05l.08,.05,.06,.04,.07,.04,.07,.04,.08,.05,.07,.04,.07,.04,.07,.04,.07,.04,.11,.06,.12,.07,.14,.08,.14,.08,.17,.1,.22,.13,.19,.11,.17,.1,.21,.12,.26,.15,.28,.16,.27,.15,.28,.16,.32,.18,.33,.19,.38,.22,.4,.23,.29,.17,.28,.16,.23,.13,.23,.13,.21,.12,.13,.08,.11,.06,.11,.07,.09,.05,.1,.06,.11,.06,.07,.04,.07,.04,.08,.04s.06,.03,.09,.05c.03,.02,.06,.03,.09,.05,.04,.02,.08,.04,.12,.06,.05,.02,.1,.05,.15,.07,.05,.02,.1,.04,.15,.06,.05,.02,.11,.04,.16,.06,.05,.02,.1,.03,.15,.05,.05,.01,.1,.03,.15,.04,.04,.01,.09,.02,.13,.03,.08,.01,.15,.03,.23,.03,.05,0,.09,0,.14,.01,.05,0,.1,0,.15,0,.05,0,.11,0,.16,0,.06,0,.11-.01,.17-.02,.07-.01,.14-.03,.21-.05,.05-.02,.11-.03,.16-.05,.05-.02,.1-.04,.16-.07,.04-.02,.08-.04,.12-.06l1.27-.74h.02s.08-.06,.12-.09c.05-.04,.1-.07,.15-.11,.05-.05,.1-.09,.15-.14,.05-.06,.1-.12,.15-.18,.04-.05,.07-.1,.11-.16,.04-.06,.07-.12,.1-.18,.04-.08,.07-.15,.1-.24,.03-.07,.05-.13,.07-.2,.02-.08,.04-.16,.06-.24,.02-.07,.03-.14,.04-.21,.01-.07,.02-.13,.03-.2,0-.07,.01-.14,.02-.22,0-.04,0-.08,0-.12,0-.04,0-.07,0-.11,0-.04,0-.07,0-.11v-.09s0-.06,0-.09v-.1s0-.08,0-.12v-.51c0-.06,0-.13,0-.19v-2.58c0-.06,0-.12,0-.18v-.52s0-.08,0-.12v-.19s0-.06,0-.1c0-.03,0-.07,0-.1,0-.04,0-.08,0-.11,0-.04,0-.08,0-.12,0-.06,0-.13-.01-.19,0-.07-.01-.14-.02-.21-.01-.1-.03-.19-.04-.29-.02-.09-.03-.18-.05-.27-.02-.09-.04-.18-.07-.28-.03-.1-.05-.2-.08-.3-.04-.13-.08-.25-.12-.38-.03-.08-.06-.17-.09-.25-.03-.09-.07-.18-.11-.27-.05-.11-.1-.22-.15-.34-.05-.11-.1-.21-.16-.32-.04-.08-.08-.16-.13-.24-.04-.07-.08-.13-.11-.2-.05-.09-.1-.18-.16-.26-.04-.07-.09-.14-.13-.21-.05-.08-.11-.16-.16-.24-.08-.11-.16-.22-.24-.32-.06-.08-.12-.15-.18-.23-.04-.05-.08-.1-.12-.14-.05-.05-.09-.11-.14-.16-.03-.03-.06-.07-.1-.1-.04-.04-.07-.07-.11-.11-.04-.04-.08-.08-.13-.12-.03-.03-.07-.06-.1-.09-.04-.04-.08-.07-.11-.1-.04-.03-.07-.06-.11-.1-.07-.06-.14-.12-.21-.17-.08-.06-.16-.12-.23-.17-.05-.04-.11-.07-.16-.11-.04-.03-.08-.05-.12-.07-.03-.02-.07-.04-.1-.06-.04-.02-.08-.05-.12-.07l-.09-.05-.09-.05-.12-.07-.14-.08-.17-.1-.17-.1-.25-.14-.25-.14-.35-.2-.41-.24-.49-.28-.48-.27-.49-.28-.51-.3h-.02c-.07-.05-.14-.1-.21-.16-.05-.04-.1-.09-.16-.13-.05-.04-.09-.09-.14-.14-.07-.08-.14-.17-.2-.26-.07-.1-.12-.21-.17-.32-.02-.06-.04-.11-.06-.17-.01-.04-.02-.09-.03-.13,0-.03-.01-.07-.01-.1,0-.04,0-.08,0-.12,0-.29-.2-.64-.45-.78l-6.36-3.67-6.36-3.67c-.12-.07-.24-.08-.32-.03-.31,.18-.65,.37-1.02,.59l-.12,.07-.08-.05-.51-.29-.49-.28-.48-.28-.48-.28-.41-.23c-.13-.07-.25-.15-.38-.22l-.24-.14-.21-.12-.19-.11-.15-.09-.13-.07-.11-.06-.09-.05s-.09-.05-.13-.07c-.03-.02-.07-.04-.1-.06-.04-.02-.07-.04-.11-.06-.04-.02-.09-.04-.13-.06-.08-.04-.17-.08-.25-.11-.06-.02-.13-.05-.19-.07-.05-.01-.09-.03-.13-.04-.04-.01-.08-.02-.11-.03-.04,0-.07-.02-.11-.03-.03,0-.07-.01-.1-.02-.05,0-.11-.02-.16-.02-.03,0-.07,0-.1,0-.04,0-.07,0-.11,0-.04,0-.08,0-.11,0-.05,0-.1,0-.15,0-.06,0-.12,.01-.18,.02-.09,.01-.17,.04-.26,.06-.05,.01-.09,.03-.14,.05-.06,.02-.11,.05-.16,.07-.03,.01-.06,.03-.08,.04l-1.27,.74-.04,.02s-.08,.05-.12,.08c-.05,.04-.1,.08-.15,.12-.05,.05-.1,.1-.15,.15-.05,.06-.1,.12-.15,.19-.03,.05-.07,.09-.1,.14-.04,.07-.08,.14-.11,.21-.04,.08-.07,.16-.1,.25-.02,.06-.05,.13-.07,.2-.02,.08-.04,.15-.06,.23-.02,.07-.03,.15-.04,.22,0,.06-.02,.12-.02,.19,0,.06-.01,.12-.01,.18,0,.04,0,.08,0,.12,0,.04,0,.07,0,.11,0,.04,0,.07,0,.11v.09s0,.06,0,.09v.1s0,.08,0,.12v4.31s0,.09,0,.13c0,.03,0,.07,0,.1,0,.04,0,.08,0,.12,0,.05,0,.09,0,.14,0,.06,.01,.13,.02,.2,0,.08,.02,.16,.03,.25,.01,.08,.03,.16,.04,.24,.02,.1,.04,.21,.07,.31,.02,.09,.05,.19,.07,.28,.03,.11,.06,.21,.09,.32,.03,.11,.07,.21,.11,.32,.03,.09,.07,.18,.1,.27,.04,.11,.09,.22,.14,.32,.05,.11,.1,.21,.15,.32,.05,.1,.1,.2,.15,.3,.04,.08,.09,.16,.13,.24,.04,.07,.09,.15,.13,.22,.05,.09,.11,.18,.17,.26,.05,.07,.1,.15,.15,.22,.08,.11,.15,.21,.23,.32,.06,.08,.12,.15,.17,.22,.05,.07,.11,.13,.16,.2,.05,.06,.1,.12,.16,.18,.05,.05,.09,.1,.14,.15,.06,.07,.13,.13,.19,.2,.04,.04,.09,.08,.13,.12,.05,.05,.1,.09,.16,.14,.05,.04,.1,.09,.16,.13,.05,.04,.1,.08,.15,.12,.06,.04,.11,.08,.17,.12,.05,.04,.11,.07,.16,.11,.04,.02,.07,.05,.11,.07,.03,.02,.06,.04,.1,.06,.03,.02,.06,.03,.09,.05l.08,.04,.07,.04,.07,.04,.08,.05,.08,.05,.09,.05,.14,.08,.11,.06,.14,.08,.17,.1,.17,.1,.19,.11,.22,.13,.3,.17,.28,.16,.36,.21,.37,.21,.33,.19,.35,.2,.27,.16,.27,.15,.28,.16,.26,.15,.28,.16,.2,.11,.16,.1,.15,.09,.16,.09,.21,.12,.12,.07,.11,.06,.07,.04,.11,.06,.06,.04,.11,.07,.06,.04,.07,.04,.06,.04,.07,.04s.05,.03,.08,.05c.03,.02,.06,.04,.09,.06,.04,.03,.08,.05,.12,.08,.05,.03,.09,.06,.14,.1,.05,.04,.11,.08,.16,.12,.05,.04,.1,.08,.16,.13,.07,.06,.15,.13,.22,.2,.06,.05,.11,.11,.16,.16,.06,.07,.13,.14,.19,.21,.06,.07,.13,.15,.19,.23,.05,.06,.1,.13,.14,.19,.05,.07,.1,.14,.14,.21,.04,.06,.07,.12,.11,.18,.03,.06,.06,.11,.1,.17,.03,.06,.07,.13,.1,.19,.03,.07,.07,.14,.1,.21,.03,.07,.06,.14,.08,.21,.03,.07,.05,.14,.07,.21,.02,.06,.04,.13,.05,.19,.02,.07,.03,.13,.05,.2,.02,.07,.03,.15,.04,.22,.01,.08,.02,.15,.03,.23,0,.07,.01,.15,.01,.22,0,.06,0,.12,0,.19,0,.07,0,.13-.01,.19,0,.08-.02,.15-.04,.22-.02,.07-.04,.15-.06,.21,0,.03-.02,.05-.03,.08-.05,0-.09-.01-.14-.02-.05,0-.1-.02-.15-.03-.05-.01-.1-.03-.15-.05-.05-.02-.1-.04-.16-.06-.05-.02-.1-.04-.15-.06-.05-.02-.09-.04-.14-.06-.04-.02-.09-.05-.14-.07-.04-.02-.09-.05-.14-.08h-.02l-.09-.06-.1-.06-.1-.06-.11-.06-.11-.06-.11-.06-.11-.06-.11-.07-.12-.07-.13-.08-.17-.1-.17-.1-.14-.08-.14-.08-.15-.09-.16-.09-.18-.11-.26-.15-.27-.15-.18-.11-.16-.09-.17-.1-.18-.11-.19-.11-.19-.11-.25-.14-.19-.11-.23-.13-.19-.11-.17-.1-.18-.11-.21-.12-.17-.1-.17-.1-.16-.09-.1-.06-.1-.06s-.08-.04-.12-.07c-.04-.02-.07-.04-.11-.06-.05-.03-.09-.05-.14-.07-.08-.04-.15-.08-.23-.11-.1-.05-.19-.09-.29-.13-.1-.04-.2-.08-.3-.11-.1-.03-.2-.06-.3-.09-.1-.03-.2-.05-.3-.07-.1-.02-.2-.03-.3-.04-.1,0-.19-.01-.29-.01-.1,0-.19,0-.28,.02-.09,.01-.17,.03-.25,.05-.08,.02-.16,.05-.24,.08-.08,.03-.16,.07-.23,.11h-.01l-1.27,.74c-.08,.04-.15,.09-.22,.15-.08,.06-.15,.13-.21,.2-.07,.07-.13,.15-.19,.24-.07,.1-.13,.2-.18,.31-.05,.09-.09,.19-.12,.29-.04,.11-.07,.22-.1,.34-.04,.17-.07,.35-.09,.54-.03,.26-.04,.54-.02,.83,.01,.22,.03,.44,.07,.67,.03,.19,.07,.39,.11,.59,.03,.14,.07,.29,.12,.44,.05,.16,.1,.31,.15,.47,.06,.16,.12,.33,.19,.49,.06,.15,.13,.3,.21,.45,.07,.14,.15,.29,.23,.43,.08,.14,.16,.27,.24,.4,.08,.12,.16,.25,.25,.37,.08,.11,.16,.23,.25,.34,.08,.11,.17,.22,.26,.33,.09,.11,.19,.22,.29,.33,.1,.11,.19,.21,.3,.31,.1,.1,.2,.2,.31,.29,.1,.1,.21,.19,.32,.28,.1,.08,.2,.16,.3,.24,.09,.07,.19,.14,.28,.21,.09,.06,.18,.12,.27,.18,.06,.04,.12,.08,.18,.11,.04,.02,.07,.04,.11,.06,.06,.03,.12,.07,.17,.1l.1,.06,.15,.09,.17,.1,.2,.12,.18,.11,.25,.14,.22,.12,.19,.11,.24,.14,.22,.13,.29,.17,.21,.12,.23,.13,.2,.12,.35,.2,.23,.13,.18,.11,.34,.2,.13,.08,.11,.07,.11,.06,.1,.06,.1,.06,.1,.06,.11,.06,.14,.08,.1,.06,.1,.06,.09,.05s.07,.04,.1,.06c.03,.02,.06,.04,.1,.06,.03,.02,.07,.04,.1,.07,.04,.03,.08,.05,.12,.08,.05,.04,.11,.07,.16,.11,.07,.05,.14,.1,.21,.16,.06,.05,.12,.1,.18,.15,.07,.06,.14,.12,.21,.19,.08,.08,.17,.16,.25,.25,.08,.08,.15,.16,.22,.25,.07,.08,.14,.17,.21,.26,.07,.09,.14,.18,.2,.27,.06,.09,.13,.18,.18,.27,.06,.09,.12,.19,.17,.28,.06,.1,.11,.19,.16,.29,.05,.1,.1,.2,.15,.29,.05,.11,.1,.21,.14,.32,.05,.11,.09,.23,.13,.34,.04,.13,.09,.25,.12,.38,.03,.11,.06,.22,.09,.33,.03,.11,.05,.22,.07,.33,.03,.14,.05,.28,.07,.42,.02,.16,.03,.32,.04,.47,0,.18,0,.35,0,.52,0,.14-.02,.28-.05,.42-.02,.12-.04,.23-.07,.33-.02,.08-.05,.16-.08,.24-.03,.08-.06,.15-.09,.22-.04,.08-.08,.15-.12,.23h0s-.08,0-.12,0c-.07,0-.14,0-.22-.02-.08-.01-.16-.03-.25-.05-.07-.02-.15-.04-.22-.06-.06-.02-.12-.04-.19-.07-.06-.02-.13-.05-.19-.08-.06-.03-.12-.06-.19-.09-.04-.02-.08-.04-.12-.06-.03-.02-.07-.04-.1-.06-.05-.03-.09-.05-.14-.08l-.09-.05-.1-.06-.1-.06-.14-.08-.11-.07-.1-.06-.11-.06-.1-.06-.11-.06-.13-.07-.14-.08-.23-.14-.19-.11-.2-.12-.2-.12-.25-.14-.2-.11-.24-.14-.21-.12-.29-.17-.23-.13-.26-.15-.18-.11-.21-.12-.24-.14-.19-.11-.19-.11-.16-.09-.14-.08-.1-.06s-.08-.05-.12-.07c-.03-.02-.07-.04-.1-.06-.04-.02-.08-.04-.11-.06-.06-.03-.11-.06-.17-.09-.08-.04-.15-.07-.23-.11-.09-.04-.18-.08-.27-.12-.1-.04-.2-.08-.3-.11-.11-.03-.21-.06-.31-.09-.11-.03-.21-.05-.31-.06-.1-.02-.19-.03-.29-.03-.1,0-.19,0-.28,0-.09,0-.18,.01-.26,.03-.08,.01-.16,.03-.24,.05-.08,.02-.16,.05-.23,.08-.07,.03-.13,.06-.19,.1l-1.27,.74-.03,.02c-.08,.05-.15,.1-.22,.16-.07,.06-.14,.12-.2,.19-.06,.07-.12,.15-.18,.23-.06,.09-.12,.18-.17,.28-.04,.09-.08,.18-.12,.27-.04,.1-.07,.2-.1,.31-.04,.16-.08,.33-.1,.51-.03,.2-.04,.4-.04,.62,0,.2,0,.4,.03,.61,.02,.17,.04,.35,.07,.52,.03,.16,.06,.32,.1,.49,.03,.13,.07,.26,.11,.39,.04,.14,.09,.28,.14,.43,.06,.16,.12,.31,.18,.47,.06,.14,.12,.28,.19,.42,.06,.14,.13,.27,.21,.41,.07,.13,.14,.25,.22,.38,.07,.12,.15,.24,.23,.37,.08,.12,.16,.23,.24,.34,.08,.11,.16,.22,.25,.33,.09,.11,.18,.22,.28,.33,.09,.11,.19,.21,.29,.31,.1,.1,.2,.2,.3,.29,.1,.1,.21,.19,.31,.28,.1,.09,.21,.18,.31,.26,.1,.08,.21,.16,.31,.24,.09,.06,.18,.13,.27,.19,.06,.04,.13,.08,.19,.12,.05,.03,.09,.06,.14,.09,.03,.02,.07,.04,.1,.06,.04,.02,.08,.05,.12,.07l.1,.06,.11,.06,.13,.08,.16,.09,.19,.11,.21,.12,.2,.12,.18,.11,.22,.13,.24,.14,.2,.11,.22,.13,.24,.14,.23,.13,.19,.11,.18,.11,.21,.12,.23,.14,.23,.13,.23,.13,.37,.21,.23,.13,.15,.09,.12,.07,.14,.08,.1,.06,.12,.07,.11,.06,.13,.08,.12,.07,.12,.07,.09,.05,.08,.05s.08,.05,.13,.07c.03,.02,.07,.04,.1,.06,.04,.02,.08,.05,.11,.07,.04,.03,.09,.06,.13,.09,.07,.05,.15,.11,.22,.17,.07,.06,.15,.12,.22,.18,.06,.05,.11,.1,.17,.16,.06,.06,.13,.12,.19,.19,.06,.06,.12,.13,.18,.2,.05,.06,.11,.13,.16,.19,.05,.06,.1,.13,.14,.19,.05,.06,.09,.13,.13,.19,.04,.06,.08,.12,.11,.18,.03,.06,.06,.11,.09,.17,.03,.06,.06,.12,.09,.17,.03,.06,.06,.13,.09,.19,.03,.06,.06,.13,.08,.19,.03,.07,.05,.13,.07,.2,.02,.06,.04,.13,.06,.19,.02,.06,.03,.12,.05,.18,.02,.07,.03,.13,.05,.2,.02,.08,.03,.16,.04,.24,.01,.08,.02,.16,.03,.24,0,.08,0,.16,0,.24,0,.08,0,.16-.01,.23,0,.07-.02,.14-.03,.21-.01,.06-.03,.12-.04,.18l-.06,.17h0c-.05,0-.11-.02-.17-.03-.05-.01-.11-.02-.16-.04-.06-.02-.12-.04-.17-.06-.07-.02-.13-.05-.2-.08-.06-.02-.11-.05-.17-.08-.04-.02-.08-.04-.12-.06-.04-.02-.07-.04-.1-.06-.05-.03-.09-.05-.14-.08l-.09-.05-.09-.05-.14-.08-.1-.06-.13-.08-.14-.08-.13-.07-.14-.08-.17-.1-.14-.08-.15-.09-.16-.09-.2-.11-.27-.16-.25-.14-.22-.13-.25-.14-.28-.16-.28-.16-.28-.16-.4-.23-.43-.25-.35-.2-.24-.14-.27-.16-.29-.17-.17-.1-.15-.09-.13-.07-.11-.07-.11-.06-.1-.06-.09-.05s-.08-.05-.13-.07c-.03-.02-.07-.04-.1-.06-.04-.02-.07-.04-.11-.06-.04-.02-.08-.04-.13-.06-.05-.02-.1-.05-.15-.07-.08-.03-.15-.06-.22-.09-.06-.02-.12-.04-.18-.06-.06-.02-.11-.03-.17-.05-.05-.01-.09-.02-.14-.03-.09-.02-.19-.03-.28-.04-.05,0-.09,0-.14,0-.07,0-.13,0-.19,0-.06,0-.11,0-.17,.01-.07,0-.14,.02-.2,.04-.06,.01-.13,.03-.19,.05-.05,.02-.1,.04-.15,.06-.06,.03-.12,.06-.18,.09h0l-1.27,.74-.12,.08s-.1,.07-.14,.11c-.05,.04-.1,.09-.15,.14-.06,.06-.11,.12-.16,.19-.04,.05-.07,.1-.1,.15-.04,.06-.07,.12-.1,.18-.04,.07-.07,.15-.1,.23-.03,.07-.05,.14-.07,.21-.03,.08-.05,.16-.07,.25-.02,.07-.03,.14-.04,.21-.01,.07-.02,.14-.03,.21,0,.06-.01,.13-.02,.2,0,.04,0,.09,0,.13,0,.04,0,.07,0,.11,0,.03,0,.07,0,.1,0,.03,0,.07,0,.1v.19s0,.07,0,.1v2.68c0,.09,0,.17,0,.25v.41c0,.06,0,.11,0,.17v.54s0,.07,0,.11v.19s0,.06,0,.1c0,.03,0,.07,0,.1,0,.04,0,.07,0,.11,0,.04,0,.08,0,.13,0,.07,0,.14,.02,.21,0,.07,.02,.15,.03,.22,.01,.09,.03,.18,.04,.27,.02,.09,.03,.18,.05,.27,.02,.09,.04,.19,.07,.28,.03,.11,.06,.23,.1,.34,.03,.11,.07,.22,.11,.33,.03,.09,.06,.18,.1,.26,.04,.1,.08,.2,.12,.29,.05,.11,.1,.22,.15,.34,.05,.1,.1,.21,.16,.31,.04,.07,.08,.15,.12,.22,.04,.07,.08,.14,.12,.21,.05,.08,.1,.16,.15,.24,.04,.07,.09,.14,.14,.21,.05,.07,.1,.15,.15,.22,.09,.13,.19,.26,.29,.38,.05,.07,.11,.13,.16,.2,.04,.05,.08,.09,.12,.14,.04,.05,.08,.09,.13,.14,.03,.04,.07,.07,.1,.11,.05,.06,.11,.11,.16,.16,.03,.03,.07,.07,.1,.1,.06,.05,.11,.1,.17,.15,.04,.03,.08,.07,.12,.1,.06,.05,.11,.09,.17,.14,.07,.06,.15,.11,.22,.17,.06,.04,.11,.08,.17,.11,.04,.03,.08,.05,.12,.08,.04,.02,.07,.04,.11,.06,.04,.02,.07,.04,.11,.06l.1,.06,.09,.05,.15,.08,.13,.08,.18,.1,.18,.1,.27,.15,.26,.15,.34,.2,.38,.22,.47,.27,.48,.27,.49,.28,.51,.29h.02c.05,.04,.1,.08,.16,.11,.06,.04,.12,.09,.18,.14,.05,.04,.09,.09,.13,.13,.06,.07,.12,.14,.17,.21,.03,.04,.05,.07,.08,.11l-1.28,.74-1.15-.66-.82,.48c-.11,.06-.19,.12-.19,.26v1.45c0,.1,0,.2,0,.3h0c0,.17,.03,.33,.11,.48,.08,.15,.19,.28,.34,.37h0l6.36,3.67Z"/><g><line class="cls-2" x1="46.31" y1="21.43" x2="60.02" y2="28.86"/><line class="cls-2" x1="64.21" y1="93.12" x2="64.37" y2="93.21"/><line class="cls-2" x1="63.59" y1="93.12" x2="63.58" y2="93.7"/><line class="cls-2" x1="63.39" y1="92.65" x2="64.21" y2="93.12"/><line class="cls-2" x1="60.72" y1="29.74" x2="60.72" y2="31.07"/><line class="cls-2" x1="63.39" y1="28.2" x2="60.72" y2="29.74"/><line class="cls-2" x1="60.72" y1="31.07" x2="59.89" y2="31.54"/><path class="cls-2" d="M50.04,19.02l-.08-.05-.51-.29-.49-.28-.48-.28-.48-.28-.41-.23c-.13-.07-.25-.15-.38-.22l-.24-.14-.21-.12-.19-.11-.15-.09-.13-.07-.11-.06-.09-.05s-.09-.05-.13-.07c-.03-.02-.07-.04-.1-.06-.04-.02-.07-.04-.11-.06-.04-.02-.09-.04-.13-.06-.08-.04-.17-.08-.25-.11-.06-.02-.13-.05-.19-.07-.05-.01-.09-.03-.13-.04-.04-.01-.08-.02-.11-.03-.04,0-.07-.02-.11-.03-.03,0-.07-.01-.1-.02-.05,0-.11-.02-.16-.02-.03,0-.07,0-.1,0-.04,0-.07,0-.11,0-.04,0-.08,0-.11,0-.05,0-.1,0-.15,0-.06,0-.12,.01-.18,.02-.09,.01-.17,.04-.26,.06-.05,.01-.09,.03-.14,.05-.06,.02-.11,.05-.16,.07-.03,.01-.06,.03-.08,.04"/><line class="cls-2" x1="63.64" y1="28.05" x2="63.39" y2="28.2"/><path class="cls-2" d="M53.77,71.66h0c-.05,0-.11-.02-.17-.03-.05-.01-.11-.02-.16-.04-.06-.02-.12-.04-.17-.06-.07-.02-.13-.05-.2-.08-.06-.02-.11-.05-.17-.08-.04-.02-.08-.04-.12-.06-.04-.02-.07-.04-.1-.06-.05-.03-.09-.05-.14-.08l-.09-.05-.09-.05-.14-.08-.1-.06-.13-.08-.14-.08-.13-.07-.14-.08-.17-.1-.14-.08-.15-.09-.16-.09-.2-.11-.27-.16-.25-.14-.22-.13-.25-.14-.28-.16-.28-.16-.28-.16-.4-.23-.43-.25-.35-.2-.24-.14-.27-.16-.29-.17-.17-.1-.15-.09-.13-.07-.11-.07-.11-.06-.1-.06-.09-.05s-.08-.05-.13-.07c-.03-.02-.07-.04-.1-.06-.04-.02-.07-.04-.11-.06-.04-.02-.08-.04-.13-.06-.05-.02-.1-.05-.15-.07-.08-.03-.15-.06-.22-.09-.06-.02-.12-.04-.18-.06-.06-.02-.11-.03-.17-.05-.05-.01-.09-.02-.14-.03-.09-.02-.19-.03-.28-.04-.05,0-.09,0-.14,0-.07,0-.13,0-.19,0-.06,0-.11,0-.17,.01-.07,0-.14,.02-.2,.04-.06,.01-.13,.03-.19,.05-.05,.02-.1,.04-.15,.06-.06,.03-.12,.06-.18,.09h0l-1.27,.74"/><path class="cls-2" d="M49.53,84.93s-.05-.08-.08-.11c-.05-.08-.11-.15-.17-.21-.04-.05-.09-.09-.13-.13-.06-.05-.12-.1-.18-.14-.05-.04-.1-.07-.16-.1h-.02l-.51-.31-.49-.28-.48-.27-.47-.27-.38-.22-.34-.2-.26-.15-.27-.15-.18-.1-.18-.1-.13-.08-.15-.08-.09-.05-.1-.06s-.07-.04-.11-.06c-.04-.02-.07-.04-.11-.06-.04-.03-.08-.05-.12-.08-.06-.04-.11-.08-.17-.11-.07-.05-.15-.11-.22-.17-.06-.05-.12-.09-.17-.14-.04-.03-.08-.07-.12-.1-.06-.05-.11-.1-.17-.15-.03-.03-.07-.07-.1-.1-.06-.05-.11-.11-.16-.16-.03-.04-.07-.07-.1-.11-.04-.05-.08-.09-.13-.14-.04-.05-.08-.09-.12-.14-.06-.06-.11-.13-.16-.2-.1-.12-.2-.25-.29-.38-.05-.07-.1-.15-.15-.22-.05-.07-.09-.14-.14-.21-.05-.08-.1-.16-.15-.24-.04-.07-.08-.14-.12-.21-.04-.07-.08-.15-.12-.22-.05-.1-.11-.21-.16-.31-.05-.11-.11-.22-.15-.34-.04-.1-.08-.2-.12-.29-.03-.09-.07-.17-.1-.26-.04-.11-.08-.22-.11-.33-.04-.11-.07-.23-.1-.34-.02-.09-.05-.19-.07-.28-.02-.09-.04-.18-.05-.27-.02-.09-.03-.18-.04-.27,0-.07-.02-.15-.03-.22,0-.07-.01-.14-.02-.21,0-.04,0-.09,0-.13,0-.04,0-.07,0-.11,0-.03,0-.07,0-.1,0-.03,0-.06,0-.1v-.19s0-.07,0-.11v-.54c0-.06,0-.11,0-.17v-.41c0-.08,0-.17,0-.25v-2.68s0-.07,0-.1v-.19s0-.07,0-.1c0-.03,0-.07,0-.1,0-.04,0-.07,0-.11,0-.04,0-.09,0-.13,0-.07,.01-.13,.02-.2,0-.07,.02-.14,.03-.21,.01-.07,.03-.14,.04-.21,.02-.09,.04-.17,.07-.25,.02-.07,.05-.14,.07-.21,.03-.08,.07-.15,.1-.23,.03-.06,.07-.12,.1-.18,.03-.05,.07-.1,.1-.15,.05-.07,.11-.13,.16-.19,.05-.05,.1-.1,.15-.14,.05-.04,.09-.07,.14-.11,.04-.03,.08-.05,.12-.08h0c.06-.04,.12-.07,.18-.09,.05-.02,.1-.04,.15-.06,.06-.02,.12-.04,.19-.05,.07-.02,.13-.03,.2-.04,.06,0,.11-.01,.17-.01,.06,0,.13,0,.19,0,.05,0,.09,0,.14,0,.09,0,.18,.02,.28,.04,.05,0,.09,.02,.14,.03,.06,.01,.11,.03,.17,.05,.06,.02,.12,.04,.18,.06,.07,.03,.15,.06,.22,.09,.05,.02,.1,.04,.15,.07,.04,.02,.08,.04,.13,.06,.04,.02,.07,.04,.11,.06,.03,.02,.07,.04,.1,.06,.04,.02,.08,.05,.13,.07l.09,.05,.1,.06,.11,.06,.11,.07,.13,.07,.15,.09,.17,.1,.29,.17,.27,.16,.24,.14,.35,.2,.43,.25,.4,.23,.28,.16,.28,.16,.28,.16,.25,.14,.22,.13,.25,.14,.27,.16,.2,.11,.16,.09,.15,.09,.14,.08,.17,.1,.14,.08,.13,.07,.14,.08,.13,.08,.1,.06,.14,.08,.09,.05,.09,.05s.09,.05,.14,.08c.03,.02,.07,.04,.1,.06,.04,.02,.08,.04,.12,.06,.06,.03,.11,.05,.17,.08,.07,.03,.13,.06,.2,.08,.06,.02,.12,.04,.17,.06,.05,.02,.11,.03,.16,.04,.06,.01,.11,.02,.17,.03,.06,0,.12,.01,.18,.01,.06,0,.11,0,.17,0,.05,0,.1-.01,.15-.02,.05-.01,.09-.02,.14-.04,.04-.01,.07-.03,.11-.05,.02,0,.04-.02,.05-.03,.01,0,.03-.02,.04-.03,.03-.02,.07-.04,.1-.07,.03-.03,.07-.06,.1-.09,.03-.03,.06-.06,.08-.1,.03-.03,.05-.07,.07-.11,.02-.04,.04-.07,.06-.11,.01-.03,.03-.06,.04-.1v-.03s.04-.1,.06-.15c.02-.06,.03-.12,.04-.18,.01-.07,.02-.13,.03-.21,0-.07,.01-.15,.01-.23,0-.08,0-.16,0-.24,0-.08-.01-.16-.03-.24-.01-.08-.03-.16-.04-.24-.01-.07-.03-.13-.05-.2-.02-.06-.03-.12-.05-.18-.02-.06-.04-.13-.06-.19-.02-.07-.05-.13-.07-.2-.03-.06-.05-.13-.08-.19-.03-.06-.06-.13-.09-.19-.03-.06-.06-.11-.09-.17-.03-.06-.06-.11-.09-.17-.04-.06-.07-.12-.11-.18-.04-.06-.09-.13-.13-.19-.05-.06-.09-.13-.14-.19-.05-.06-.1-.13-.16-.19-.06-.07-.12-.13-.18-.2-.06-.06-.12-.13-.19-.19-.06-.05-.11-.11-.17-.16-.07-.06-.15-.13-.22-.18-.07-.06-.15-.11-.22-.17-.04-.03-.09-.06-.13-.09-.04-.02-.08-.05-.11-.07-.03-.02-.07-.04-.1-.06-.04-.03-.09-.05-.13-.07l-.08-.05-.09-.05-.12-.07-.12-.07-.13-.08-.11-.06-.12-.07-.1-.06-.14-.08-.12-.07-.15-.09-.23-.13-.37-.21-.23-.13-.23-.13-.23-.14-.21-.12-.18-.11-.19-.11-.23-.13-.24-.14-.22-.13-.2-.11-.24-.14-.22-.13-.18-.11-.2-.12-.21-.12-.19-.11-.16-.09-.13-.08-.11-.06-.1-.06s-.08-.05-.12-.07c-.03-.02-.07-.04-.1-.06-.05-.03-.09-.06-.14-.09-.06-.04-.13-.08-.19-.12-.09-.06-.18-.12-.27-.19-.1-.08-.21-.15-.31-.24-.11-.08-.21-.17-.31-.26-.11-.09-.21-.19-.31-.28-.1-.1-.2-.19-.3-.29-.1-.1-.2-.21-.29-.31-.09-.11-.19-.22-.28-.33-.09-.11-.17-.22-.25-.33-.08-.11-.16-.23-.24-.34-.08-.12-.16-.24-.23-.37-.08-.13-.15-.25-.22-.38-.07-.14-.14-.27-.21-.41-.07-.14-.13-.28-.19-.42-.07-.16-.13-.31-.18-.47-.05-.14-.1-.28-.14-.43-.04-.13-.07-.26-.11-.39-.04-.16-.07-.33-.1-.49-.03-.18-.05-.35-.07-.52-.02-.21-.03-.41-.03-.61,0-.21,.01-.42,.04-.62,.02-.18,.06-.35,.1-.51,.03-.11,.06-.21,.1-.31,.04-.09,.08-.19,.12-.27,.05-.1,.11-.19,.17-.28,.06-.08,.12-.16,.18-.23,.06-.07,.13-.13,.2-.19,.07-.06,.14-.11,.22-.16l.03-.02"/><path class="cls-2" d="M44.49,70.32c-.06,.14-.1,.29-.12,.44-.08,.56,0,1.24,.27,1.91,.09,.25,.19,.46,.36,.76,.13,.22,.3,.47,.52,.73,.22,.26,.44,.45,.62,.6,.31,.25,.47,.34,.73,.48,.1,.06,.27,.15,.5,.29,.42,.24,1.04,.6,1.69,.98,1.26,.73,2.67,1.54,3.17,1.83l.22,.13,.28,.16,.6,.35c1.51,.87,3.01,1.74,4.52,2.61,.71,.41,9.09,5.25,10.71,6.18l.21,.12c.06,.04,.11,.07,.17,.1,.12,.07,.27,.15,.43,.22,.18,.08,.39,.14,.57,.17"/><path class="cls-2" d="M58.47,70.22c-.49,.28-.84,.79-1.01,1.46-.29,1.09-.12,2.58,.49,4.02,.49,1.17,1.26,2.27,2.12,3.11,.56,.54,1.21,1,1.57,1.22,.09,.05,.14,.08,.22,.13,.15,.08,.44,.25,.83,.48,.64,.37,1.56,.9,2.56,1.48l.62,.36,.29,.17,.4,.23c.2,.12,.38,.22,.54,.31,.68,.39,.97,.57,1.23,.77,.22,.18,.47,.42,.69,.69,.32,.39,.59,.86,.78,1.34,.18,.46,.27,.89,.3,1.26,.03,.43-.01,.82-.13,1.13-.02,.04-.04,.09-.06,.13-.07,.15-.17,.27-.28,.38-.04,.04-.09,.08-.16,.11-.1,.06-.24,.11-.41,.13-.21,.02-.45-.01-.63-.07-.33-.1-.52-.21-.74-.34-.07-.04-.16-.09-.23-.13l-.26-.15c-.42-.24-1.14-.66-2.02-1.17-3.07-1.77-8.04-4.64-8.58-4.96-.55-.32-3.41-1.97-7.54-4.35-1.07-.62-2.25-1.3-3.42-1.98-.1-.06-.19-.11-.3-.17-.11-.07-.28-.18-.49-.35-.2-.17-.41-.35-.71-.72-.21-.27-.47-.67-.64-1.04-.28-.61-.4-1.16-.42-1.67-.01-.39,.04-.75,.17-1.03,.1-.22,.25-.42,.47-.55,.03-.02,.06-.03,.09-.05,.15-.07,.31-.1,.5-.09,.06,0,.12,0,.19,.02,.15,.02,.34,.07,.56,.17,.16,.07,.29,.14,.72,.39,.6,.34,1.77,1.02,4.37,2.52l.42,.24,.28,.16,.22,.13c.14,.08,.16,.09,.23,.13,.18,.11,.47,.27,.83,.42,.33,.14,.71,.27,1.09,.33,.46,.07,.84,.03,1.14-.06,.13-.04,.25-.09,.36-.16,.22-.13,.41-.3,.57-.51,.6-.8,.74-2.17,.39-3.65-.3-1.25-.96-2.56-1.81-3.62-.28-.35-.64-.74-1.12-1.15-.22-.19-.47-.39-.71-.56-.29-.2-.54-.35-.8-.5-.12-.07-.23-.13-.36-.21l-.44-.26c-.77-.45-1.44-.83-2.01-1.16-1.14-.66-1.91-1.1-2.44-1.41-.68-.39-.97-.57-1.16-.72-.14-.1-.29-.23-.45-.39-.2-.2-.41-.42-.65-.75-.19-.27-.42-.65-.58-1.06-.22-.54-.33-1.09-.32-1.57,.01-.52,.15-1,.53-1.28,.03-.02,.06-.05,.1-.07"/><path class="cls-2" d="M63.59,93.12c.04-.22-.03-.37-.2-.47"/><path class="cls-2" d="M64.4,93.23c-.66,.38-1.32,.76-1.99,1.15-.24,.14-.49,.28-.73,.42l-.37,.21c-.33,.19-.69,.4-1.1,.63h0c-.15,.09-.3,.14-.47,.15-.17,0-.34-.03-.49-.11l-6.36-3.67-6.36-3.67"/><path class="cls-2" d="M46.54,88.34c-.15-.09-.27-.21-.34-.37-.07-.15-.11-.31-.11-.48h0c0-.1,0-.2,0-.3v-1.45"/><path class="cls-2" d="M60.36,33.84c.31-.11,.78-.19,1.45,0,.17,.05,.32,.1,.46,.16,.21,.09,.43,.21,.83,.44,.29,.17,.7,.4,1.1,.64,.55,.32,1.1,.63,1.65,.95l.03,.02,.6,.34,.12,.07c.48,.28,.81,.47,1.06,.61,.32,.19,.5,.31,.68,.46,.2,.16,.43,.39,.6,.58,.3,.35,.46,.62,.62,.91,.26,.49,.43,1.03,.51,1.47,.09,.57,.06,1.07-.1,1.45"/><path class="cls-2" d="M58.46,31.24c-.22,1.41-1.36,1.68-2.51,1.02"/><path class="cls-2" d="M59.89,72.54s-.05,.03-.07,.04c-.03,.02-.07,.05-.1,.07-.03,.03-.06,.06-.09,.09-.03,.03-.06,.07-.08,.1-.03,.04-.05,.07-.07,.11-.02,.04-.04,.07-.06,.11-.02,.04-.04,.08-.05,.13-.02,.05-.03,.1-.05,.16-.02,.06-.03,.13-.04,.2-.01,.07-.02,.14-.02,.22,0,.07,0,.15,0,.23,0,.08,0,.16,.01,.24,0,.08,.02,.15,.03,.23,.01,.07,.03,.15,.04,.22,.01,.06,.03,.13,.05,.19,.02,.06,.03,.12,.05,.18,.02,.06,.04,.13,.06,.19,.02,.07,.05,.13,.08,.2,.03,.06,.05,.13,.08,.19,.03,.06,.06,.13,.09,.19,.03,.06,.06,.11,.09,.17,.03,.05,.06,.11,.09,.16,.04,.06,.08,.12,.12,.18,.05,.07,.09,.14,.14,.21,.05,.06,.09,.13,.14,.19,.06,.08,.12,.15,.19,.23,.05,.06,.11,.12,.16,.17,.06,.06,.11,.11,.17,.17,.05,.05,.11,.1,.16,.14,.08,.07,.17,.14,.25,.2,.07,.05,.13,.1,.2,.14,.04,.03,.08,.05,.12,.08,.04,.02,.07,.05,.11,.07,.03,.02,.07,.04,.1,.06,.04,.02,.08,.05,.12,.07l.09,.05,.1,.06,.11,.06,.11,.06,.12,.07,.14,.08,.13,.07,.15,.09,.15,.09,.13,.08,.15,.09,.17,.1,.19,.11,.39,.22,.22,.13,.23,.13,.28,.16,.32,.18,.28,.16,.4,.23,.37,.21,.31,.18,.28,.16,.25,.14,.23,.13,.25,.14,.17,.1,.17,.1,.13,.08,.1,.06,.11,.06,.09,.05,.08,.05s.08,.05,.12,.07c.03,.02,.07,.04,.1,.06,.04,.02,.07,.04,.11,.07,.04,.03,.09,.05,.13,.08,.08,.05,.16,.11,.24,.17,.06,.05,.12,.09,.19,.14,.06,.05,.11,.09,.17,.14,.06,.05,.12,.1,.18,.16,.05,.04,.09,.09,.14,.13,.06,.06,.13,.13,.19,.19,.05,.05,.09,.1,.14,.15,.06,.07,.13,.14,.19,.21,.06,.07,.11,.14,.17,.2,.07,.09,.14,.17,.2,.26,.07,.09,.13,.18,.19,.27,.05,.08,.11,.16,.16,.24,.07,.11,.14,.22,.2,.33,.05,.08,.09,.16,.13,.23,.05,.09,.1,.19,.15,.28,.06,.11,.11,.22,.16,.33,.06,.12,.11,.24,.16,.37,.04,.09,.07,.19,.11,.28,.04,.1,.07,.2,.11,.31,.03,.11,.07,.21,.1,.32,.03,.1,.05,.19,.07,.29,.02,.1,.05,.21,.07,.31,.02,.08,.03,.17,.04,.25,.01,.09,.02,.17,.03,.26,0,.07,.01,.14,.02,.2,0,.05,0,.09,0,.14,0,.04,0,.08,0,.12,0,.04,0,.07,0,.1,0,.04,0,.09,0,.13v.2s0,.08,0,.12v4.02s0,.07,0,.11v.28s0,.07,0,.11c0,.04,0,.07,0,.11,0,.04,0,.08,0,.13,0,.07-.01,.14-.02,.21,0,.07-.02,.14-.03,.21-.01,.07-.03,.14-.04,.21-.02,.08-.04,.16-.06,.24-.02,.07-.05,.14-.07,.21-.03,.08-.07,.16-.1,.23-.03,.06-.06,.12-.1,.18-.03,.05-.06,.1-.1,.15-.05,.07-.1,.13-.15,.18-.05,.05-.1,.1-.15,.14-.05,.04-.1,.08-.15,.12-.04,.03-.08,.05-.11,.08l-.03,.02"/><path class="cls-2" d="M60.13,55.71l-.05,.03c-.05,.03-.11,.07-.15,.11-.05,.05-.11,.09-.15,.15-.05,.06-.1,.12-.14,.18-.05,.07-.09,.14-.13,.22-.04,.07-.07,.14-.1,.22-.03,.07-.06,.15-.08,.23-.03,.09-.05,.19-.07,.29-.03,.13-.05,.26-.06,.4-.02,.17-.02,.36-.02,.55,0,.16,.01,.33,.03,.49,.02,.15,.04,.3,.06,.45,.02,.11,.04,.22,.07,.33,.03,.11,.05,.22,.08,.33,.04,.12,.07,.25,.12,.38,.04,.11,.08,.23,.13,.34,.04,.11,.09,.22,.14,.32,.05,.1,.09,.2,.14,.3,.05,.1,.1,.2,.16,.29,.05,.1,.11,.19,.17,.29,.06,.1,.12,.19,.19,.28,.06,.09,.13,.18,.2,.28,.07,.09,.14,.18,.21,.26,.07,.09,.15,.17,.22,.25,.08,.09,.16,.17,.25,.25,.08,.08,.16,.15,.24,.22,.06,.05,.12,.1,.18,.15,.07,.06,.15,.12,.23,.17,.05,.04,.11,.08,.16,.11,.04,.03,.08,.06,.12,.08,.03,.02,.07,.04,.1,.07,.03,.02,.06,.04,.1,.06,.04,.02,.07,.04,.11,.06l.09,.05,.11,.06,.11,.06,.13,.08,.11,.06,.12,.07,.09,.05,.13,.07,.1,.06,.15,.08,.18,.1,.22,.13,.19,.11,.23,.13,.24,.14,.19,.11,.23,.14,.22,.13,.24,.14,.22,.13,.26,.15,.22,.13,.19,.11,.27,.16,.23,.13,.18,.1,.17,.1,.15,.09,.1,.06,.11,.06s.08,.04,.11,.07c.04,.02,.07,.04,.11,.07,.07,.04,.14,.08,.2,.13,.1,.06,.2,.13,.29,.2,.1,.07,.21,.15,.31,.23,.1,.08,.21,.16,.31,.25,.11,.09,.21,.19,.32,.28,.1,.1,.2,.19,.3,.29,.1,.1,.2,.2,.29,.31,.1,.11,.19,.22,.28,.33,.09,.11,.17,.21,.25,.32,.08,.11,.16,.22,.24,.34,.08,.12,.16,.24,.23,.36,.08,.13,.15,.25,.22,.38,.07,.14,.15,.27,.21,.41,.07,.14,.14,.29,.2,.43,.07,.15,.13,.31,.18,.46,.06,.15,.11,.3,.15,.45,.04,.14,.08,.27,.11,.41,.04,.17,.08,.33,.11,.5,.04,.22,.07,.43,.08,.64,.02,.21,.02,.41,.02,.61,0,.18-.02,.35-.04,.52-.02,.16-.05,.31-.09,.46-.03,.11-.06,.21-.09,.31-.03,.09-.07,.18-.11,.26-.04,.1-.09,.19-.15,.27-.05,.08-.11,.16-.17,.24-.06,.07-.12,.14-.19,.2-.07,.06-.14,.12-.21,.17-.04,.02-.07,.05-.11,.07"/><path class="cls-2" d="M71.18,95.84s-.06,.03-.09,.05c-.05,.03-.11,.05-.16,.07-.05,.02-.09,.03-.14,.05-.08,.03-.17,.05-.26,.06-.06,0-.11,.02-.17,.02-.05,0-.1,0-.15,0-.04,0-.08,0-.12,0-.04,0-.07,0-.11,0-.03,0-.07,0-.1-.01-.05,0-.11-.01-.16-.02-.03,0-.07-.01-.1-.02-.05,0-.09-.02-.14-.03-.04-.01-.08-.02-.12-.03-.07-.02-.14-.05-.21-.07-.1-.04-.2-.08-.3-.12-.05-.02-.09-.04-.14-.07-.04-.02-.07-.04-.11-.06-.03-.02-.07-.04-.1-.06-.04-.02-.09-.05-.13-.07l-.09-.05-.11-.06-.13-.08-.15-.09-.2-.11-.21-.12-.24-.14-.39-.22-.41-.24-.48-.28-.48-.28-.49-.28-.51-.29-.09-.05"/><path class="cls-2" d="M60.67,72.4h-.06c-.06-.01-.11-.01-.17-.01-.05,0-.1,0-.15,.01-.05,0-.1,.02-.14,.03-.04,.01-.09,.03-.13,.04-.04,.01-.07,.03-.1,.05l-.03,.02"/><line class="cls-2" x1="59.89" y1="72.54" x2="59.89" y2="72.54"/><path class="cls-2" d="M69.96,41.94c-.02,.06-.05,.12-.08,.18-.1,.18-.2,.32-.41,.44"/><path class="cls-2" d="M70.22,73.85c-.11,.27-.27,.47-.49,.6"/><path class="cls-2" d="M69.46,42.55s-.04,.02-.07,.03c-.17,.08-.44,.12-.67,.09-.36-.05-.64-.18-.86-.3-.1-.06-.18-.1-.29-.16-.08-.05-.14-.08-.23-.13-.14-.08-.22-.13-.33-.19l-.21-.12-.19-.11-.36-.21-.22-.13c-.14-.08-.48-.28-.9-.52-.68-.39-1.56-.9-2.13-1.23l-.59-.34c-.72-.41-1.21-.7-1.76-.88-.38-.13-.83-.21-1.18-.21-.41,0-.73,.1-1.01,.26"/><path class="cls-2" d="M69.73,57.26h0c-.33,.19-.79,.17-1.18,.05-.25-.08-.45-.17-.66-.29-.12-.06-.26-.15-.4-.23l-.24-.14-.75-.44c-1.27-.73-3.01-1.74-3.75-2.17-.14-.08-.24-.14-.31-.18-.07-.04-.16-.09-.28-.15-.22-.11-.52-.24-.86-.34-.44-.13-.98-.21-1.46-.15-.36,.04-.69,.14-1,.32"/><path class="cls-2" d="M69.73,74.45s-.04,.02-.06,.03c-.27,.13-.65,.15-1.06,.04-.17-.05-.33-.11-.5-.19-.17-.08-.4-.22-.63-.35-.24-.14-.47-.27-.64-.37-.22-.13-.44-.25-.66-.38l-.49-.28-.78-.45-.13-.08-.23-.13-.46-.27c-.78-.45-1.36-.79-1.81-1.04-.83-.48-1.21-.66-1.58-.79-.24-.08-.51-.16-.77-.19-.51-.07-.98-.01-1.37,.19-.03,.01-.05,.03-.08,.04"/><line class="cls-2" x1="58.47" y1="38.4" x2="59.74" y2="37.67"/><path class="cls-2" d="M46.09,23.94v-1.32"/><path class="cls-2" d="M46.87,20.85c.41-.23,.77-.45,1.1-.63l.37-.21c.24-.14,.49-.28,.73-.42l.37-.21c.2-.12,.41-.24,.61-.35"/><path class="cls-2" d="M42.01,53.41c.06-.04,.13-.07,.19-.1,.07-.03,.15-.06,.23-.08,.08-.02,.16-.04,.24-.05,.08-.01,.17-.02,.26-.03,.09,0,.19,0,.28,0,.09,0,.19,.02,.29,.03,.1,.02,.21,.04,.31,.06,.1,.03,.21,.05,.31,.09,.1,.03,.2,.07,.3,.11,.09,.04,.18,.07,.27,.12,.08,.03,.15,.07,.23,.11,.06,.03,.11,.06,.17,.09,.04,.02,.08,.04,.11,.06,.03,.02,.07,.04,.1,.06,.04,.02,.08,.05,.12,.07l.1,.06,.14,.08,.16,.09,.19,.11,.19,.11,.24,.14,.21,.12,.18,.11,.26,.15,.23,.13,.29,.17,.21,.12,.24,.14,.2,.11,.25,.14,.2,.12,.2,.12,.19,.11,.23,.14,.14,.08,.13,.07,.11,.06,.1,.06,.11,.06,.1,.06,.11,.07,.14,.08,.1,.06,.1,.06,.09,.05s.09,.05,.14,.08c.03,.02,.07,.04,.1,.06,.04,.02,.08,.04,.12,.06,.06,.03,.12,.06,.19,.09,.06,.03,.13,.06,.19,.08,.06,.02,.13,.05,.19,.07,.07,.02,.15,.04,.22,.06,.08,.02,.17,.04,.25,.05,.07,.01,.15,.02,.22,.02,.07,0,.15,0,.22,0,.07,0,.14-.02,.21-.03,.06-.01,.13-.03,.19-.05,.06-.02,.12-.05,.18-.08,.02-.01,.04-.02,.06-.03"/><path class="cls-2" d="M42.01,36.22h.01c.07-.05,.15-.09,.23-.12,.08-.03,.15-.06,.24-.08,.08-.02,.16-.04,.25-.05,.09-.01,.18-.02,.28-.02,.09,0,.19,0,.29,.01,.1,0,.2,.02,.3,.04,.1,.02,.2,.04,.3,.07,.1,.03,.2,.06,.3,.09,.1,.03,.2,.07,.3,.11,.1,.04,.19,.08,.29,.13,.08,.04,.15,.07,.23,.11,.05,.02,.09,.05,.14,.07,.04,.02,.07,.04,.11,.06,.04,.02,.08,.04,.12,.07l.1,.06,.1,.06,.16,.09,.17,.1,.17,.1,.21,.12,.18,.11,.17,.1,.19,.11,.23,.13,.19,.11,.25,.14,.19,.11,.19,.11,.18,.11,.17,.1,.16,.09,.18,.11,.27,.15,.26,.15,.18,.11,.16,.09,.15,.09,.14,.08,.14,.08,.17,.1,.17,.1,.13,.08,.12,.07,.11,.07,.11,.06,.11,.06,.11,.06,.11,.06,.1,.06,.1,.06,.09,.05h.02"/><path class="cls-2" d="M41.99,17.15s.05-.03,.08-.04c.05-.03,.11-.05,.16-.07,.05-.02,.09-.03,.14-.05,.08-.03,.17-.05,.26-.06,.06,0,.12-.02,.18-.02,.05,0,.1,0,.15,0,.04,0,.07,0,.11,0,.04,0,.07,0,.11,0,.03,0,.07,0,.1,0,.05,0,.11,.01,.16,.02,.03,0,.07,.01,.1,.02,.04,0,.07,.02,.11,.03,.04,0,.07,.02,.11,.03,.04,.01,.09,.03,.13,.04,.06,.02,.13,.04,.19,.07,.08,.03,.17,.07,.25,.11,.04,.02,.09,.04,.13,.06,.04,.02,.07,.04,.11,.06,.03,.02,.07,.04,.1,.06,.04,.02,.09,.05,.13,.07l.09,.05,.11,.06,.13,.07,.15,.09,.19,.11,.21,.12,.24,.14,.38,.22,.41,.23,.48,.28,.48,.28,.49,.28,.51,.29,.08,.05"/><path class="cls-2" d="M43.44,55.73c.12-.07,.27-.13,.48-.14,.09,0,.19,0,.3,0"/><path class="cls-2" d="M54.7,42.76c.52-.31,.89-.88,1.05-1.62,.26-1.18,0-2.8-.72-4.28-.33-.7-.73-1.33-1.31-2.01-.32-.38-.72-.78-1.13-1.12-.35-.29-.73-.55-.99-.72-.09-.06-.15-.09-.26-.16-.23-.14-.74-.43-2.04-1.18l-1.08-.63-.47-.27-.33-.19-.33-.19c-.26-.15-.49-.28-.69-.4-.85-.49-1.24-.71-1.54-.95-.23-.18-.43-.36-.72-.73-.16-.2-.35-.48-.5-.76-.17-.32-.29-.62-.37-.88-.11-.37-.18-.74-.19-1.08-.02-.63,.14-1.17,.47-1.47,.05-.05,.11-.09,.17-.12"/><path class="cls-2" d="M54.33,59.44c.13-.07,.25-.16,.37-.27,.44-.38,.78-.96,.97-1.64,.14-.53,.18-1.05,.18-1.5,0-.26-.02-.48-.04-.7-.02-.24-.06-.52-.12-.84-.1-.5-.26-1.11-.52-1.79-.28-.73-.64-1.45-1.06-2.13-.38-.61-.78-1.14-1.14-1.55-.39-.45-.72-.76-1-1.01-.49-.43-.86-.69-1.3-.95-.36-.21-.79-.46-1.21-.7-.87-.5-1.73-1-2.6-1.5-.34-.2-.71-.41-.99-.57-.57-.33-.86-.5-1.16-.75-.21-.17-.46-.41-.65-.62-.3-.34-.47-.61-.61-.85-.19-.33-.31-.61-.38-.81-.15-.4-.23-.79-.25-1.16-.03-.57,.11-1.06,.34-1.35,.08-.1,.18-.18,.28-.24"/><line class="cls-2" x1="55.98" y1="73.85" x2="54.7" y2="74.58"/><path class="cls-2" d="M58.99,93.34c.25,.14,.65,.14,.9,0"/><path class="cls-2" d="M55.95,32.84c1.43,.83,2.81,.43,3.03-1.31"/><path class="cls-2" d="M63.39,27.25s0,.06,0,.1c0,.05,.01,.1,.02,.15,0,.04,.02,.09,.03,.13,.02,.06,.04,.13,.07,.19,.05,.12,.12,.24,.2,.35,.05,.08,.11,.15,.17,.21,.04,.05,.09,.09,.13,.13,.06,.05,.12,.1,.18,.14,.05,.04,.1,.07,.16,.1"/><line class="cls-2" x1="58.99" y1="31.54" x2="52.64" y2="27.87"/><path class="cls-2" d="M65.63,28.02c-.07-.04-.14-.09-.21-.14-.05-.04-.1-.09-.16-.13-.05-.04-.09-.09-.14-.14-.07-.08-.14-.17-.2-.26-.07-.1-.12-.21-.17-.32-.02-.06-.04-.11-.06-.17-.01-.04-.02-.09-.03-.13,0-.03-.01-.07-.01-.1,0-.04,0-.08,0-.12"/><path class="cls-2" d="M61.83,46.21l.09,.05,.1,.06,.1,.06,.11,.06,.11,.06,.11,.07,.11,.07,.12,.07,.13,.07,.15,.09,.19,.11,.15,.09,.14,.08,.14,.08,.15,.09,.17,.1,.21,.12,.38,.22,.19,.11,.17,.1,.16,.09,.19,.11,.19,.11,.19,.11,.34,.19,.2,.12,.22,.13,.18,.1,.17,.1,.22,.13,.2,.11,.16,.09,.14,.08,.14,.08,.1,.06,.1,.06s.08,.04,.11,.07c.04,.02,.07,.04,.11,.06,.05,.03,.1,.06,.15,.09,.07,.05,.14,.09,.21,.14,.1,.07,.2,.14,.29,.21,.1,.07,.2,.15,.3,.23,.1,.08,.2,.17,.3,.25,.11,.09,.21,.19,.31,.28,.1,.1,.2,.2,.3,.3,.1,.11,.2,.21,.29,.32,.1,.11,.19,.22,.28,.34,.09,.11,.17,.22,.25,.33,.08,.12,.17,.24,.24,.36,.09,.14,.17,.27,.25,.41,.08,.15,.16,.29,.24,.44,.08,.15,.15,.3,.22,.46,.07,.16,.13,.31,.19,.47,.06,.16,.12,.32,.17,.48,.05,.15,.09,.3,.13,.45,.04,.17,.08,.35,.11,.52,.04,.22,.07,.44,.09,.65,.02,.27,.03,.53,.01,.78-.01,.2-.03,.38-.06,.56-.03,.15-.06,.29-.1,.43-.03,.11-.07,.21-.11,.3-.04,.1-.09,.2-.15,.29-.06,.09-.12,.18-.18,.27-.06,.08-.13,.15-.2,.22-.07,.06-.14,.12-.22,.17-.04,.03-.08,.05-.12,.07"/><path class="cls-2" d="M64.38,28.77l.51,.3,.49,.28,.48,.27,.49,.28,.41,.24,.35,.2,.25,.14,.25,.14,.17,.1,.17,.1,.14,.08,.12,.07,.09,.05,.09,.05s.08,.05,.12,.07c.03,.02,.07,.04,.1,.06,.04,.02,.08,.05,.12,.07,.05,.04,.11,.07,.16,.11,.08,.06,.16,.11,.23,.17,.07,.05,.14,.11,.21,.17,.04,.03,.07,.06,.11,.1,.04,.03,.08,.07,.11,.1,.03,.03,.07,.06,.1,.09,.04,.04,.08,.08,.13,.12,.04,.04,.07,.07,.11,.11,.03,.03,.07,.07,.1,.1,.05,.05,.09,.1,.14,.16,.04,.05,.08,.09,.12,.14,.06,.07,.12,.15,.18,.23,.08,.1,.16,.21,.24,.32,.06,.08,.11,.16,.16,.24,.05,.07,.09,.14,.13,.21,.05,.09,.11,.17,.16,.26,.04,.07,.08,.13,.11,.2,.04,.08,.09,.16,.13,.24,.06,.11,.11,.21,.16,.32,.05,.11,.1,.22,.15,.34,.04,.09,.07,.18,.11,.27,.03,.08,.06,.17,.09,.25,.04,.12,.08,.25,.12,.38,.03,.1,.06,.2,.08,.3,.02,.09,.05,.18,.07,.28,.02,.09,.04,.18,.05,.27,.02,.1,.03,.2,.04,.29,0,.07,.02,.14,.02,.21,0,.06,.01,.13,.01,.19,0,.04,0,.08,0,.12,0,.04,0,.08,0,.11,0,.03,0,.07,0,.1,0,.03,0,.06,0,.1v.19s0,.08,0,.12v3.29c0,.06,0,.13,0,.19v.51s0,.08,0,.12v.1s0,.06,0,.09v.09s0,.07,0,.11c0,.04,0,.07,0,.11,0,.04,0,.08,0,.12,0,.07-.01,.15-.02,.22,0,.07-.02,.14-.03,.2-.01,.07-.02,.14-.04,.21-.02,.08-.04,.16-.06,.24-.02,.07-.04,.14-.07,.2-.03,.08-.07,.16-.1,.24-.03,.06-.07,.13-.1,.18-.03,.05-.07,.11-.11,.16-.05,.06-.1,.13-.15,.18-.05,.05-.1,.1-.15,.14-.05,.04-.1,.08-.15,.11-.04,.03-.08,.05-.12,.08h-.02"/><line class="cls-2" x1="49.53" y1="84.93" x2="49.78" y2="84.79"/><line class="cls-2" x1="56.58" y1="88.72" x2="49.78" y2="84.79"/><path class="cls-2" d="M60.67,72.4s-.02,.04-.02,.06c-.02,.05-.03,.1-.05,.16-.02,.06-.03,.13-.04,.2-.01,.07-.02,.14-.02,.22,0,.07,0,.15,0,.23,0,.08,0,.16,.01,.24,0,.08,.02,.15,.03,.23,.01,.07,.03,.15,.04,.22,.01,.06,.03,.13,.05,.19,.02,.06,.03,.12,.05,.18,.02,.06,.04,.13,.06,.19,.02,.07,.05,.13,.08,.2,.03,.06,.05,.13,.08,.19,.03,.06,.06,.13,.09,.19,.03,.06,.06,.11,.09,.17,.03,.05,.06,.11,.09,.16,.04,.06,.08,.12,.12,.18,.05,.07,.09,.14,.14,.21,.05,.06,.09,.13,.14,.19,.06,.08,.12,.15,.19,.23,.05,.06,.11,.12,.16,.17,.06,.06,.11,.11,.17,.17,.05,.05,.11,.1,.16,.14,.08,.07,.17,.14,.25,.2,.07,.05,.13,.1,.2,.14,.04,.03,.08,.05,.12,.08,.04,.02,.07,.05,.11,.07,.03,.02,.07,.04,.1,.06,.04,.02,.08,.05,.12,.07l.09,.05,.1,.06,.11,.06,.11,.06,.12,.07,.14,.08,.13,.07,.15,.09,.15,.09,.13,.08,.15,.09,.17,.1,.19,.11,.39,.22,.22,.13,.23,.13,.28,.16,.32,.18,.28,.16,.4,.23,.37,.21,.31,.18,.28,.16,.25,.14,.23,.13,.25,.14,.17,.1,.17,.1,.13,.08,.1,.06,.11,.06,.09,.05,.08,.05s.08,.05,.12,.07c.03,.02,.07,.04,.1,.06,.04,.02,.07,.04,.11,.07,.04,.03,.09,.05,.13,.08,.08,.05,.16,.11,.24,.17,.06,.05,.12,.09,.19,.14,.06,.05,.11,.09,.17,.14,.06,.05,.12,.1,.18,.16,.05,.04,.09,.09,.14,.13,.06,.06,.13,.13,.19,.19,.05,.05,.09,.1,.14,.15,.06,.07,.13,.14,.19,.21,.06,.07,.11,.14,.17,.2,.07,.09,.14,.17,.2,.26,.07,.09,.13,.18,.19,.27,.05,.08,.11,.16,.16,.24,.07,.11,.14,.22,.2,.33,.05,.08,.09,.16,.13,.23,.05,.09,.1,.19,.15,.28,.06,.11,.11,.22,.16,.33,.06,.12,.11,.24,.16,.37,.04,.09,.07,.19,.11,.28,.04,.1,.07,.2,.11,.31,.03,.11,.07,.21,.1,.32,.03,.1,.05,.19,.07,.29,.02,.1,.05,.21,.07,.31,.02,.08,.03,.17,.04,.25,.01,.09,.02,.17,.03,.26,0,.07,.01,.14,.02,.2,0,.05,0,.09,0,.14,0,.04,0,.08,0,.12,0,.04,0,.07,0,.1,0,.04,0,.09,0,.13v.2s0,.08,0,.12v.53c0,.06,0,.12,0,.18v2.6c0,.06,0,.12,0,.19v.53s0,.07,0,.11v.28s0,.07,0,.11c0,.04,0,.07,0,.11,0,.04,0,.08,0,.13,0,.07-.01,.14-.02,.21,0,.07-.02,.14-.03,.21-.01,.07-.03,.14-.04,.21-.02,.08-.04,.16-.06,.24-.02,.07-.05,.14-.07,.21-.03,.08-.07,.16-.1,.23-.03,.06-.06,.12-.1,.18-.03,.05-.06,.1-.1,.15-.05,.07-.1,.13-.15,.18-.05,.05-.1,.1-.15,.14-.05,.04-.1,.08-.15,.12-.04,.03-.08,.05-.11,.08l-.03,.02"/><path class="cls-2" d="M60.86,55.52s-.06,.1-.09,.15c-.04,.07-.07,.14-.1,.22-.03,.07-.06,.15-.08,.23-.03,.09-.05,.19-.07,.29-.03,.13-.05,.26-.06,.4-.02,.17-.02,.36-.02,.55,0,.16,.01,.33,.03,.49,.02,.15,.04,.3,.06,.45,.02,.11,.04,.22,.07,.33,.03,.11,.05,.22,.08,.33,.04,.12,.07,.25,.12,.38,.04,.11,.08,.23,.13,.34,.04,.11,.09,.22,.14,.32,.05,.1,.09,.2,.14,.3,.05,.1,.1,.2,.16,.29,.05,.1,.11,.19,.17,.29,.06,.1,.12,.19,.19,.28,.06,.09,.13,.18,.2,.28,.07,.09,.14,.18,.21,.26,.07,.09,.15,.17,.22,.25,.08,.09,.16,.17,.25,.25,.08,.08,.16,.15,.24,.22,.06,.05,.12,.1,.18,.15,.07,.06,.15,.12,.23,.17,.05,.04,.11,.08,.16,.11,.04,.03,.08,.06,.12,.08,.03,.02,.07,.04,.1,.07,.03,.02,.06,.04,.1,.06,.04,.02,.07,.04,.11,.06l.09,.05,.11,.06,.11,.06,.13,.08,.11,.06,.12,.07,.09,.05,.13,.07,.1,.06,.15,.08,.18,.1,.22,.13,.19,.11,.23,.13,.24,.14,.19,.11,.23,.14,.22,.13,.24,.14,.22,.13,.26,.15,.22,.13,.19,.11,.27,.16,.23,.13,.18,.1,.17,.1,.15,.09,.1,.06,.11,.06s.08,.04,.11,.07c.04,.02,.07,.04,.11,.07,.07,.04,.14,.08,.2,.13,.1,.06,.2,.13,.29,.2,.1,.07,.21,.15,.31,.23,.1,.08,.21,.16,.31,.25,.11,.09,.21,.19,.32,.28,.1,.1,.2,.19,.3,.29,.1,.1,.2,.2,.29,.31,.1,.11,.19,.22,.28,.33,.09,.11,.17,.21,.25,.32,.08,.11,.16,.22,.24,.34,.08,.12,.16,.24,.23,.36,.08,.13,.15,.25,.22,.38,.07,.14,.15,.27,.21,.41,.07,.14,.14,.29,.2,.43,.07,.15,.13,.31,.18,.46,.06,.15,.11,.3,.15,.45,.04,.14,.08,.27,.11,.41,.04,.17,.08,.33,.11,.5,.04,.22,.07,.43,.08,.64,.02,.21,.02,.41,.02,.61,0,.18-.02,.35-.04,.52-.02,.16-.05,.31-.09,.46-.03,.11-.06,.21-.09,.31-.03,.09-.07,.18-.11,.26-.04,.1-.09,.19-.15,.27-.05,.08-.11,.16-.17,.24-.06,.07-.12,.14-.19,.2-.07,.06-.14,.12-.21,.17-.04,.02-.07,.05-.11,.07"/><path class="cls-2" d="M60.86,55.52h-.02c-.07,0-.14,.01-.21,.02-.07,.01-.13,.03-.19,.04-.06,.02-.12,.04-.18,.07-.04,.02-.08,.04-.12,.06"/><path class="cls-2" d="M60.67,40.59s-.02,.05-.03,.08c-.02,.05-.03,.11-.05,.17-.01,.06-.03,.12-.04,.19,0,.07-.02,.13-.02,.2,0,.06,0,.12,0,.18,0,.07,0,.13,0,.2,0,.08,.01,.17,.03,.25,.01,.09,.03,.18,.05,.27,.02,.08,.04,.17,.06,.25,.02,.09,.05,.17,.08,.26,.03,.08,.06,.16,.09,.24,.03,.08,.06,.15,.1,.23,.03,.07,.06,.14,.1,.2,.03,.06,.07,.12,.1,.18,.04,.06,.07,.13,.11,.19,.04,.07,.09,.14,.14,.21,.05,.07,.1,.13,.15,.2,.05,.06,.1,.13,.15,.19,.05,.06,.1,.11,.15,.17,.05,.05,.09,.1,.14,.15,.05,.05,.1,.1,.14,.14,.05,.05,.1,.09,.15,.14,.05,.04,.1,.09,.15,.13,.05,.04,.1,.08,.15,.12,.04,.03,.09,.07,.14,.1,.04,.03,.09,.06,.14,.09,.04,.03,.09,.06,.13,.08,.04,.02,.07,.04,.11,.07"/><path class="cls-2" d="M60.68,40.59s-.08,0-.11,0c-.07,0-.13,0-.19,0-.05,0-.1,.01-.15,.02-.05,.01-.11,.03-.16,.04-.04,.01-.08,.03-.12,.05-.02,0-.04,.02-.06,.03"/><path class="cls-2" d="M70.22,56.66c-.11,.27-.27,.48-.49,.6"/><line class="cls-2" x1="58.96" y1="53.48" x2="60.12" y2="52.81"/><line class="cls-2" x1="58.47" y1="70.22" x2="59.74" y2="69.49"/><line class="cls-2" x1="60.36" y1="33.84" x2="59.66" y2="34.24"/><path class="cls-2" d="M52.92,28.04c.2,1.79,1.43,3.88,3.03,4.8"/><path class="cls-2" d="M50.04,19.02l.12-.07c.38-.22,.72-.41,1.02-.59"/><path class="cls-2" d="M53.58,56.73h0c.04-.07,.09-.15,.12-.23,.03-.07,.06-.14,.09-.22,.03-.08,.05-.16,.08-.24,.03-.11,.05-.22,.07-.33,.02-.13,.04-.27,.05-.42,.01-.17,.01-.34,0-.52,0-.15-.02-.31-.04-.47-.02-.14-.04-.28-.07-.42-.02-.11-.04-.22-.07-.33-.03-.11-.06-.22-.09-.33-.04-.13-.08-.25-.12-.38-.04-.11-.08-.23-.13-.34-.04-.11-.09-.21-.14-.32-.05-.1-.09-.2-.15-.29-.05-.1-.1-.19-.16-.29-.06-.1-.11-.19-.17-.28-.06-.09-.12-.18-.18-.27-.07-.09-.13-.18-.2-.27-.07-.09-.14-.17-.21-.26-.07-.08-.15-.17-.22-.25-.08-.08-.16-.17-.25-.25-.07-.06-.14-.13-.21-.19-.06-.05-.12-.1-.18-.15-.07-.06-.14-.11-.21-.16-.05-.04-.11-.08-.16-.11-.04-.03-.08-.06-.12-.08-.03-.02-.07-.04-.1-.07-.03-.02-.06-.04-.1-.06-.03-.02-.07-.04-.1-.06l-.09-.05-.1-.06-.1-.06-.14-.08-.11-.06-.1-.06-.1-.06-.1-.06-.11-.06-.11-.07-.13-.08-.34-.2-.18-.11-.23-.13-.35-.2-.2-.12-.23-.13-.21-.12-.29-.17-.22-.13-.24-.14-.19-.11-.22-.12-.25-.14-.18-.11-.2-.12-.17-.1-.15-.09-.1-.06c-.06-.03-.12-.07-.17-.1-.04-.02-.07-.04-.11-.06-.06-.04-.12-.07-.18-.11-.09-.06-.18-.12-.27-.18-.1-.07-.19-.14-.28-.21-.1-.08-.2-.16-.3-.24-.11-.09-.21-.18-.32-.28-.1-.09-.21-.19-.31-.29-.1-.1-.2-.2-.3-.31-.1-.11-.19-.22-.29-.33-.09-.11-.18-.22-.26-.33-.09-.11-.17-.23-.25-.34-.09-.12-.17-.25-.25-.37-.08-.13-.16-.27-.24-.4-.08-.14-.16-.29-.23-.43-.07-.15-.14-.3-.21-.45-.07-.16-.13-.33-.19-.49-.06-.16-.11-.31-.15-.47-.04-.15-.08-.29-.12-.44-.05-.2-.09-.4-.11-.59-.03-.23-.06-.45-.07-.67-.01-.29,0-.57,.02-.83,.02-.19,.05-.37,.09-.54,.03-.12,.06-.23,.1-.34,.04-.1,.08-.2,.12-.29,.05-.11,.11-.21,.18-.31,.06-.08,.12-.16,.19-.24,.07-.07,.14-.14,.21-.2,.07-.05,.14-.1,.22-.15"/><path class="cls-2" d="M53.58,56.73s-.08,0-.12,0c-.07,0-.14,0-.22-.02-.08-.01-.16-.03-.25-.05-.07-.02-.15-.04-.22-.06-.06-.02-.12-.04-.19-.07-.06-.02-.13-.05-.19-.08-.06-.03-.12-.06-.19-.09-.04-.02-.08-.04-.12-.06-.03-.02-.07-.04-.1-.06-.05-.03-.09-.05-.14-.08l-.09-.05-.1-.06-.1-.06-.14-.08-.11-.07-.1-.06-.11-.06-.1-.06-.11-.06-.13-.07-.14-.08-.23-.14-.19-.11-.2-.12-.2-.12-.25-.14-.2-.11-.24-.14-.21-.12-.29-.17-.23-.13-.26-.15-.18-.11-.21-.12-.24-.14-.19-.11-.19-.11-.16-.09-.14-.08-.1-.06s-.08-.05-.12-.07c-.03-.02-.07-.04-.1-.06-.04-.02-.08-.04-.11-.06-.06-.03-.11-.06-.17-.09-.08-.04-.15-.07-.23-.11-.09-.04-.18-.08-.27-.12-.1-.04-.2-.08-.3-.11-.11-.03-.21-.06-.31-.09-.11-.03-.21-.05-.31-.06-.1-.02-.19-.03-.29-.03-.1,0-.19,0-.28,0-.09,0-.18,.01-.26,.03-.08,.01-.16,.03-.24,.05-.08,.02-.16,.05-.23,.08-.07,.03-.13,.06-.19,.1"/><line class="cls-2" x1="53.28" y1="72.26" x2="53.28" y2="72.26"/><path class="cls-2" d="M53.77,39.85s.02-.05,.03-.08c.02-.07,.04-.14,.06-.21,.02-.07,.03-.15,.04-.22,0-.06,.01-.13,.01-.19,0-.06,0-.12,0-.19,0-.07,0-.14-.01-.22,0-.07-.02-.15-.03-.23-.01-.07-.03-.15-.04-.22-.01-.07-.03-.13-.05-.2-.02-.06-.04-.13-.05-.19-.02-.07-.04-.14-.07-.21-.03-.07-.05-.14-.08-.21-.03-.07-.06-.14-.1-.21-.03-.06-.06-.13-.1-.19-.03-.06-.06-.11-.1-.17-.03-.06-.07-.12-.11-.18-.05-.07-.09-.14-.14-.21-.05-.06-.09-.13-.14-.19-.06-.08-.12-.15-.19-.23-.06-.07-.12-.14-.19-.21-.05-.06-.11-.11-.16-.16-.07-.07-.15-.14-.22-.2-.05-.04-.1-.09-.16-.13-.05-.04-.11-.08-.16-.12-.05-.03-.09-.07-.14-.1-.04-.03-.08-.05-.12-.08-.03-.02-.06-.04-.09-.06-.03-.02-.05-.03-.08-.05l-.07-.04-.06-.04-.07-.04-.06-.04-.11-.07-.06-.04-.11-.06-.07-.04-.11-.06-.12-.07-.21-.12-.16-.09-.15-.09-.16-.1-.2-.11-.28-.16-.26-.15-.28-.16-.27-.15-.27-.16-.35-.2-.33-.19-.37-.21-.36-.21-.28-.16-.3-.17-.22-.13-.19-.11-.17-.1-.17-.1-.14-.08-.11-.06-.14-.08-.09-.05-.08-.05-.08-.05-.07-.04-.07-.04-.08-.04s-.06-.03-.09-.05c-.03-.02-.06-.04-.1-.06-.04-.02-.07-.05-.11-.07-.05-.04-.11-.07-.16-.11-.06-.04-.11-.08-.17-.12-.05-.04-.1-.08-.15-.12-.05-.04-.1-.09-.16-.13-.05-.05-.1-.09-.16-.14-.04-.04-.09-.08-.13-.12-.07-.06-.13-.13-.19-.2-.05-.05-.09-.1-.14-.15-.05-.06-.1-.12-.16-.18-.06-.06-.11-.13-.16-.2-.06-.07-.12-.15-.17-.22-.08-.1-.16-.21-.23-.32-.05-.07-.1-.15-.15-.22-.06-.09-.11-.18-.17-.26-.05-.07-.09-.15-.13-.22-.04-.08-.09-.16-.13-.24-.05-.1-.1-.2-.15-.3-.05-.11-.1-.21-.15-.32-.05-.11-.09-.22-.14-.32-.04-.09-.07-.18-.1-.27-.04-.1-.07-.21-.11-.32-.03-.11-.07-.21-.09-.32-.03-.09-.05-.19-.07-.28-.02-.1-.05-.21-.07-.31-.02-.08-.03-.16-.04-.24-.01-.08-.02-.17-.03-.25,0-.07-.01-.13-.02-.2,0-.05,0-.09,0-.14,0-.04,0-.08,0-.12,0-.04,0-.07,0-.1,0-.04,0-.09,0-.13v-4.31s0-.08,0-.12v-.1s0-.06,0-.09v-.09s0-.07,0-.11c0-.04,0-.07,0-.11,0-.04,0-.08,0-.12,0-.06,0-.12,.01-.18,0-.06,.01-.13,.02-.19,.01-.08,.02-.15,.04-.22,.02-.08,.04-.16,.06-.23,.02-.07,.04-.14,.07-.2,.03-.09,.07-.17,.1-.25,.04-.07,.07-.14,.11-.21,.03-.05,.06-.1,.1-.14,.05-.07,.1-.13,.15-.19,.05-.05,.1-.1,.15-.15,.05-.04,.1-.08,.15-.12,.04-.03,.08-.05,.12-.08l.04-.02"/><path class="cls-2" d="M53.77,39.85s-.09-.01-.14-.02c-.05,0-.1-.02-.15-.03-.05-.01-.1-.03-.15-.05-.05-.02-.1-.04-.16-.06-.05-.02-.1-.04-.15-.06-.05-.02-.09-.04-.14-.06-.04-.02-.09-.05-.14-.07-.04-.02-.09-.05-.14-.08"/><path class="cls-2" d="M44.48,23.88c-.18,.47-.19,1.14-.01,1.83,.21,.81,.69,1.65,1.28,2.25,.16,.17,.31,.29,.48,.42,.31,.24,.78,.49,2.03,1.21l.33,.19,.22,.13,.35,.2,.75,.43c.53,.31,1.09,.63,1.52,.88,.38,.22,.64,.37,.87,.5,.43,.25,.71,.42,1.01,.63,.2,.14,.42,.31,.66,.52,.34,.3,.68,.63,.99,1,.84,.98,1.52,2.22,1.87,3.43,.42,1.44,.38,2.83-.09,3.72-.19,.36-.45,.63-.77,.81"/><path class="cls-2" d="M44.48,23.88c.2,.03,.41,.09,.62,.19,.12,.06,.21,.1,.57,.31,.15,.09,.36,.21,.61,.35l.82,.47c.41,.24,.84,.49,1.23,.71,.83,.48,1.37,.79,1.74,1.01,.63,.36,.77,.47,1.01,.65,.18,.14,.46,.37,.79,.73,.18,.19,.38,.42,.58,.68,.2,.26,.34,.47,.47,.67,.19,.3,.32,.56,.48,.85,.15,.27,.33,.59,.62,.99,.25,.36,.59,.78,.97,1.18,.51,.52,1.04,.96,1.6,1.28"/><path class="cls-2" d="M44.23,38.4c-.16,.42-.19,.97-.05,1.57,.06,.27,.12,.5,.29,.87,.08,.19,.19,.4,.34,.64,.14,.23,.37,.55,.69,.9,.21,.22,.43,.41,.63,.56,.31,.23,.56,.37,.76,.48,.22,.13,.45,.26,.67,.39,.93,.54,1.86,1.07,2.79,1.61l.04,.02,.28,.16,.23,.13,.38,.22c.4,.23,.69,.39,.97,.57,.37,.24,.69,.47,1.18,.92,.43,.39,1.01,.99,1.6,1.84,.57,.81,1.06,1.74,1.41,2.64,.29,.74,.46,1.39,.55,1.92,.09,.47,.13,.83,.14,1.29,.01,.5-.02,1.07-.16,1.61-.14,.52-.36,.97-.64,1.33-.21,.26-.46,.47-.71,.61"/><path class="cls-2" d="M44.23,38.4c.4,.05,.78,.22,1.06,.38,.1,.06,.18,.1,.3,.17l.15,.09,.26,.15c.15,.08,.29,.17,.44,.25l.32,.18,.39,.23,.8,.46c3.15,1.82,3.65,2.12,4.08,2.31,.23,.1,.49,.2,.71,.26,.29,.08,.55,.12,.76,.14,.39,.02,.65-.02,.9-.11,.11-.04,.21-.09,.31-.14"/><path class="cls-2" d="M44.22,55.59c-.24,.61-.16,1.54,.23,2.42,.21,.5,.51,.99,.97,1.48,.26,.29,.6,.59,1.01,.85,.37,.24,.74,.43,1.11,.65l.25,.14c.09,.05,.24,.14,.38,.22l.79,.46c.64,.37,1.15,.67,1.52,.88l.6,.35,.76,.44c.3,.17,.56,.32,.79,.45,.45,.27,.79,.5,1.16,.8,.31,.25,.67,.58,.97,.91,.33,.35,.6,.71,.83,1.04,.33,.48,.59,.95,.82,1.45,.7,1.54,.91,3.19,.57,4.35-.18,.63-.53,1.1-.99,1.37"/><path class="cls-2" d="M44.22,55.59c.09,.01,.2,.03,.31,.06,.32,.09,.61,.23,.86,.38,.11,.06,.18,.1,.34,.19,.51,.29,1.77,1.02,2.65,1.53l.95,.55c1.15,.67,1.52,.88,1.77,1,.19,.09,.35,.16,.52,.22,.44,.16,.83,.23,1.16,.25,.2,.01,.36,0,.54-.01,.29-.03,.65-.11,1.02-.32"/><line class="cls-2" x1="48.25" y1="85.67" x2="49.53" y2="84.93"/><line class="cls-2" x1="48.25" y1="85.67" x2="47.1" y2="85.01"/><path class="cls-2" d="M71.16,76.77s-.07,.04-.11,.06c-.07,.04-.15,.07-.23,.09-.08,.03-.16,.05-.24,.06-.08,.02-.17,.03-.25,.04-.09,0-.18,.01-.28,0-.09,0-.19,0-.29-.02-.1-.01-.2-.03-.3-.05-.1-.02-.21-.05-.31-.08-.1-.03-.21-.06-.31-.1-.1-.04-.2-.08-.3-.12-.09-.04-.18-.08-.28-.13-.06-.03-.12-.06-.18-.09-.04-.02-.08-.04-.12-.07-.03-.02-.07-.04-.1-.06-.05-.03-.11-.06-.16-.09l-.1-.06-.14-.08-.13-.08-.17-.1-.2-.11-.25-.14-.19-.11-.22-.13-.28-.16-.2-.12-.26-.15-.24-.14-.22-.13-.19-.11-.19-.11-.21-.12-.29-.17-.21-.12-.26-.15-.29-.17-.21-.12-.15-.08-.14-.08-.14-.08-.1-.06-.14-.08-.11-.07-.14-.08-.11-.06-.12-.07-.09-.05-.08-.05s-.09-.05-.13-.08c-.03-.02-.07-.04-.1-.06-.04-.02-.08-.04-.12-.06-.06-.03-.11-.05-.17-.08-.08-.03-.16-.07-.23-.09-.06-.02-.12-.04-.18-.06-.06-.02-.12-.03-.18-.04-.05,0-.09-.02-.13-.02"/><path class="cls-2" d="M71.16,59.58s-.07,.04-.11,.06c-.07,.04-.15,.07-.23,.09-.08,.03-.16,.05-.25,.07-.09,.02-.17,.03-.27,.04-.09,0-.19,0-.28,0-.1,0-.2-.01-.3-.03-.1-.01-.21-.03-.31-.06-.11-.02-.21-.05-.32-.09-.1-.03-.2-.07-.3-.1-.09-.04-.19-.07-.28-.12-.11-.05-.22-.1-.34-.16-.06-.03-.11-.06-.17-.09-.04-.02-.07-.04-.11-.06-.04-.02-.07-.04-.11-.06l-.1-.06-.1-.06-.17-.1-.2-.11-.17-.1-.24-.14-.28-.16-.19-.11-.24-.14-.25-.14-.25-.15-.21-.12-.23-.13-.21-.12-.2-.11-.23-.13-.28-.16-.18-.11-.29-.17-.14-.08-.11-.06-.13-.07-.09-.05-.15-.08-.11-.06-.15-.09-.1-.06-.11-.06-.09-.05s-.08-.04-.12-.07c-.03-.02-.07-.04-.1-.05-.04-.02-.07-.04-.11-.06-.05-.03-.1-.05-.15-.07-.05-.02-.11-.05-.16-.07-.08-.03-.16-.06-.23-.09-.06-.02-.13-.04-.19-.06-.08-.02-.17-.04-.25-.06-.08-.01-.16-.03-.24-.03-.07,0-.13,0-.2,0"/><line class="cls-2" x1="72.45" y1="95.1" x2="71.18" y2="95.84"/><line class="cls-2" x1="72.43" y1="76.04" x2="71.16" y2="76.77"/><line class="cls-2" x1="72.43" y1="58.84" x2="71.16" y2="59.58"/><path class="cls-2" d="M59.89,40.72s-.03,.02-.04,.03c-.03,.02-.07,.05-.1,.07-.04,.03-.07,.06-.1,.1-.03,.03-.06,.07-.09,.11-.03,.04-.05,.08-.07,.12-.02,.04-.04,.08-.06,.12-.02,.04-.04,.09-.05,.14-.02,.05-.03,.11-.05,.17-.01,.06-.03,.12-.04,.19,0,.07-.02,.13-.02,.2,0,.06,0,.12,0,.18,0,.07,0,.13,0,.2,0,.08,.01,.17,.03,.25,.01,.09,.03,.18,.05,.27,.02,.08,.04,.17,.06,.25,.02,.09,.05,.17,.08,.26,.03,.08,.06,.16,.09,.24,.03,.08,.06,.15,.1,.23,.03,.07,.06,.14,.1,.2,.03,.06,.07,.12,.1,.18,.04,.06,.07,.13,.11,.19,.04,.07,.09,.14,.14,.21,.05,.07,.1,.13,.15,.2,.05,.06,.1,.13,.15,.19,.05,.06,.1,.11,.15,.17,.05,.05,.09,.1,.14,.15,.05,.05,.1,.1,.14,.14,.05,.05,.1,.09,.15,.14,.05,.04,.1,.09,.15,.13,.05,.04,.1,.08,.15,.12,.04,.03,.09,.07,.14,.1,.04,.03,.09,.06,.14,.09,.04,.03,.09,.06,.13,.08,.04,.02,.07,.04,.11,.07"/><path class="cls-2" d="M71.18,45.11s-.08,.04-.12,.06c-.05,.02-.1,.05-.16,.07-.05,.02-.1,.04-.16,.05-.07,.02-.14,.04-.21,.05-.05,0-.11,.02-.17,.02-.05,0-.11,0-.16,0-.05,0-.1,0-.15,0-.05,0-.09,0-.14-.01-.08,0-.15-.02-.23-.03-.04,0-.09-.02-.13-.03-.05-.01-.1-.02-.15-.04-.05-.01-.1-.03-.15-.05-.05-.02-.11-.04-.16-.06-.05-.02-.1-.04-.15-.06-.05-.02-.1-.05-.15-.07-.04-.02-.08-.04-.12-.06-.03-.02-.06-.03-.09-.05-.03-.02-.06-.03-.09-.05l-.08-.04-.07-.04-.07-.04-.11-.06-.1-.06-.09-.05-.11-.07-.11-.06-.13-.08-.21-.12-.23-.13-.23-.13-.28-.16-.29-.17-.4-.23-.38-.22-.33-.19-.32-.18-.28-.16-.27-.15-.28-.16-.26-.15-.21-.12-.17-.1-.19-.11-.22-.13-.17-.1-.14-.08-.14-.08-.12-.07-.11-.06-.07-.04-.07-.04-.07-.04-.07-.04-.08-.05-.07-.04-.07-.04-.06-.04-.08-.05s-.06-.03-.08-.05c-.03-.02-.07-.04-.1-.05-.05-.02-.09-.05-.14-.07-.06-.03-.12-.05-.17-.08-.05-.02-.1-.04-.15-.05-.08-.03-.16-.05-.24-.07-.06-.01-.11-.02-.17-.03h-.06"/><line class="cls-2" x1="72.45" y1="44.37" x2="71.18" y2="45.11"/><path class="cls-2" d="M59.74,37.67c.46-.26,1.04-.33,1.66-.2,.44,.09,.89,.27,1.25,.45,.2,.1,.39,.21,1.49,.84,.33,.19,.77,.44,1.2,.69l1.56,.9,.3,.17c.18,.1,.35,.2,.51,.29,.35,.2,.64,.37,.88,.51,.46,.27,.74,.42,.96,.5,.14,.05,.27,.09,.41,.11"/><path class="cls-2" d="M58.47,38.4c-.16,.1-.31,.22-.44,.36-.58,.64-.82,1.75-.66,3.02,.16,1.24,.7,2.63,1.5,3.79,.35,.51,.71,.96,1.28,1.5,.32,.3,.71,.62,1.14,.91,.11,.07,.21,.14,.33,.22,.13,.08,.36,.21,1.52,.88l.87,.5c.55,.32,1.19,.69,1.66,.96l.54,.31,.48,.28c.21,.12,.39,.22,.55,.32,.29,.17,.52,.3,.71,.41,.38,.24,.6,.42,.88,.7,.19,.19,.38,.4,.51,.58,.3,.4,.44,.66,.56,.91,.14,.29,.22,.51,.27,.69,.07,.24,.12,.47,.15,.7,.06,.46,.01,.88-.12,1.21"/><path class="cls-2" d="M60.12,52.81c.12-.07,.25-.13,.39-.18,.65-.24,1.29-.17,1.77-.06,.58,.13,1,.33,1.46,.58,.17,.09,.34,.2,.51,.3l.32,.19,.75,.43,.27,.16,1.07,.62c.73,.42,1.58,.91,2,1.15,.19,.11,.26,.15,.36,.21,.13,.08,.28,.16,.44,.23,.23,.1,.5,.19,.75,.23h0"/><path class="cls-2" d="M58.84,53.55c-.15,.09-.3,.2-.45,.33-.28,.26-.54,.61-.73,1.07-.21,.5-.31,1.07-.34,1.66-.05,1.07,.14,2.19,.59,3.44,.25,.68,.58,1.42,1.01,2.14,.51,.86,1.11,1.62,1.69,2.22,.57,.59,1.08,.98,1.45,1.23,.22,.15,.38,.24,.5,.31,.06,.03,.13,.07,.23,.13,.18,.1,.36,.21,.54,.31,.6,.35,1.23,.71,1.74,1.01,1.33,.77,2.01,1.16,2.38,1.37,.24,.14,.34,.2,.41,.24,.07,.04,.17,.1,.28,.18,.2,.14,.45,.33,.72,.6,.23,.23,.45,.49,.62,.73,.39,.56,.6,1.06,.72,1.5,.15,.52,.19,1.03,.12,1.45-.02,.14-.06,.27-.11,.39"/><path class="cls-2" d="M59.74,69.49c.24-.14,.52-.23,.82-.26,.28-.03,.61-.01,1.06,.11,.23,.06,.5,.16,.77,.27,.29,.13,.55,.27,.81,.42,.12,.07,.24,.14,.37,.21l.37,.21c1.14,.66,2.04,1.18,2.76,1.59,1.97,1.14,2.56,1.49,2.89,1.62,.13,.05,.25,.09,.39,.13,.08,.02,.16,.03,.24,.04"/><line class="cls-2" x1="58.84" y1="53.55" x2="58.95" y2="53.49"/><path class="cls-2" d="M46.09,22.19h0c0-.26,.08-.53,.22-.77"/><path class="cls-2" d="M46.09,23.94c0,.14,.08,.2,.19,.26"/><path class="cls-2" d="M46.09,85.74c0,.14,.08,.2,.19,.26"/><path class="cls-2" d="M46.31,21.43c.07-.12,.15-.23,.25-.33,.09-.1,.2-.18,.31-.24h0"/><path class="cls-2" d="M51.18,18.36c.08-.05,.19-.04,.32,.03"/><path class="cls-2" d="M46.54,88.34h0"/><path class="cls-2" d="M46.09,22.62c0-.14,0-.29,0-.43"/><path class="cls-2" d="M53.04,57.27s.07-.04,.11-.07c.06-.04,.11-.08,.16-.13,.05-.05,.1-.1,.15-.16,.05-.06,.09-.12,.13-.18"/><line class="cls-2" x1="42.01" y1="53.41" x2="43.29" y2="52.67"/><line class="cls-2" x1="42.01" y1="36.22" x2="43.29" y2="35.48"/><path class="cls-2" d="M53.28,40.45s.04-.02,.05-.03c.04-.02,.07-.05,.11-.08,.04-.03,.07-.07,.11-.11,.03-.04,.07-.08,.1-.13,.03-.05,.06-.1,.09-.16,.01-.03,.03-.06,.04-.09"/><line class="cls-2" x1="41.99" y1="17.15" x2="43.27" y2="16.41"/><path class="cls-2" d="M43.71,24c.22-.12,.49-.16,.78-.12"/><path class="cls-2" d="M43.44,38.54c.2-.11,.42-.16,.67-.15,.04,0,.08,0,.12,.01"/><line class="cls-2" x1="43.44" y1="55.73" x2="43.5" y2="55.69"/><line class="cls-2" x1="55.98" y1="42.03" x2="54.7" y2="42.77"/><line class="cls-2" x1="55.61" y1="58.7" x2="54.35" y2="59.42"/><line class="cls-2" x1="60.72" y1="92.87" x2="59.89" y2="93.34"/><path class="cls-2" d="M58.99,31.54c.25,.14,.65,.14,.9,0"/><line class="cls-2" x1="52.64" y1="89.67" x2="58.99" y2="93.34"/><line class="cls-2" x1="63.39" y1="92.65" x2="60.72" y2="94.19"/><path class="cls-2" d="M64.21,25.73c.25,.14,.45,.49,.45,.78"/><line class="cls-2" x1="57.86" y1="22.06" x2="64.21" y2="25.73"/><line class="cls-2" x1="60.72" y1="92.87" x2="53.91" y2="88.94"/><line class="cls-2" x1="60.72" y1="94.19" x2="60.72" y2="92.87"/><path class="cls-2" d="M65.66,28.04h-.02"/><path class="cls-2" d="M65.66,28.04l.51,.3,.49,.28,.48,.27,.49,.28,.41,.24,.35,.2,.25,.14,.25,.14,.17,.1,.17,.1,.14,.08,.12,.07,.09,.05,.09,.05s.08,.05,.12,.07c.03,.02,.07,.04,.1,.06,.04,.02,.08,.05,.12,.07,.05,.04,.11,.07,.16,.11,.08,.06,.16,.11,.23,.17,.07,.05,.14,.11,.21,.17,.04,.03,.07,.06,.11,.1,.04,.03,.08,.07,.11,.1,.03,.03,.07,.06,.1,.09,.04,.04,.08,.08,.13,.12,.04,.04,.07,.07,.11,.11,.03,.03,.07,.07,.1,.1,.05,.05,.09,.1,.14,.16,.04,.05,.08,.09,.12,.14,.06,.07,.12,.15,.18,.23,.08,.1,.16,.21,.24,.32,.06,.08,.11,.16,.16,.24,.05,.07,.09,.14,.13,.21,.05,.09,.11,.17,.16,.26,.04,.07,.08,.13,.11,.2,.04,.08,.09,.16,.13,.24,.06,.11,.11,.21,.16,.32,.05,.11,.1,.22,.15,.34,.04,.09,.07,.18,.11,.27,.03,.08,.06,.17,.09,.25,.04,.12,.08,.25,.12,.38,.03,.1,.06,.2,.08,.3,.02,.09,.05,.18,.07,.28,.02,.09,.04,.18,.05,.27,.02,.1,.03,.2,.04,.29,0,.07,.02,.14,.02,.21,0,.06,.01,.13,.01,.19,0,.04,0,.08,0,.12,0,.04,0,.08,0,.11,0,.03,0,.07,0,.1,0,.03,0,.06,0,.1v.19s0,.08,0,.12v.52c0,.06,0,.12,0,.18v2.58c0,.06,0,.13,0,.19v.51s0,.08,0,.12v.1s0,.06,0,.09v.09s0,.07,0,.11c0,.04,0,.07,0,.11,0,.04,0,.08,0,.12,0,.07-.01,.15-.02,.22,0,.07-.02,.14-.03,.2-.01,.07-.02,.14-.04,.21-.02,.08-.04,.16-.06,.24-.02,.07-.04,.14-.07,.2-.03,.08-.07,.16-.1,.24-.03,.06-.07,.13-.1,.18-.03,.05-.07,.11-.11,.16-.05,.06-.1,.13-.15,.18-.05,.05-.1,.1-.15,.14-.05,.04-.1,.08-.15,.11-.04,.03-.08,.05-.12,.08h-.02"/><path class="cls-2" d="M63.11,45.48l.09,.05,.1,.06,.1,.06,.11,.06,.11,.06,.11,.07,.11,.07,.12,.07,.13,.07,.15,.09,.19,.11,.15,.09,.14,.08,.14,.08,.15,.09,.17,.1,.21,.12,.38,.22,.19,.11,.17,.1,.16,.09,.19,.11,.19,.11,.19,.11,.34,.19,.2,.12,.22,.13,.18,.1,.17,.1,.22,.13,.2,.11,.16,.09,.14,.08,.14,.08,.1,.06,.1,.06s.08,.04,.11,.07c.04,.02,.07,.04,.11,.06,.05,.03,.1,.06,.15,.09,.07,.05,.14,.09,.21,.14,.1,.07,.2,.14,.29,.21,.1,.07,.2,.15,.3,.23,.1,.08,.2,.17,.3,.25,.11,.09,.21,.19,.31,.28,.1,.1,.2,.2,.3,.3,.1,.11,.2,.21,.29,.32,.1,.11,.19,.22,.28,.34,.09,.11,.17,.22,.25,.33,.08,.12,.17,.24,.24,.36,.09,.14,.17,.27,.25,.41,.08,.15,.16,.29,.24,.44,.08,.15,.15,.3,.22,.46,.07,.16,.13,.31,.19,.47,.06,.16,.12,.32,.17,.48,.05,.15,.09,.3,.13,.45,.04,.17,.08,.35,.11,.52,.04,.22,.07,.44,.09,.65,.02,.27,.03,.53,.01,.78-.01,.2-.03,.38-.06,.56-.03,.15-.06,.29-.1,.43-.03,.11-.07,.21-.11,.3-.04,.1-.09,.2-.15,.29-.06,.09-.12,.18-.18,.27-.06,.08-.13,.15-.2,.22-.07,.06-.14,.12-.22,.17-.04,.03-.08,.05-.12,.07"/><path class="cls-2" d="M56.58,33.94c.68,.39,1.23,.53,1.67,.57,.54,.05,.98-.06,1.27-.21,.05-.02,.09-.04,.13-.07"/><line class="cls-2" x1="63.39" y1="92.65" x2="56.58" y2="88.72"/><path class="cls-2" d="M64.38,93.22h-.02"/><path class="cls-2" d="M64.36,28.76h.02"/><line class="cls-2" x1="46.28" y1="85.48" x2="47.1" y2="85.01"/><path class="cls-2" d="M46.28,85.48c-.11,.06-.19,.12-.19,.26"/><line class="cls-2" x1="46.28" y1="86" x2="52.64" y2="89.67"/><path class="cls-2" d="M55.95,32.25c-1.31-.76-2.32-2.46-2.51-3.92"/><line class="cls-2" x1="51.5" y1="18.39" x2="57.86" y2="22.06"/><line class="cls-2" x1="52.64" y1="27.87" x2="46.28" y2="24.2"/><line class="cls-2" x1="53.91" y1="88.94" x2="48.25" y2="85.67"/><path class="cls-2" d="M52.61,39.42h-.02l-.09-.06-.1-.06-.1-.06-.11-.06-.11-.06-.11-.06-.11-.06-.11-.07-.12-.07-.13-.08-.17-.1-.17-.1-.14-.08-.14-.08-.15-.09-.16-.09-.18-.11-.26-.15-.27-.15-.18-.11-.16-.09-.17-.1-.18-.11-.19-.11-.19-.11-.25-.14-.19-.11-.23-.13-.19-.11-.17-.1-.18-.11-.21-.12-.17-.1-.17-.1-.16-.09-.1-.06-.1-.06s-.08-.04-.12-.07c-.04-.02-.07-.04-.11-.06-.05-.03-.09-.05-.14-.07-.08-.04-.15-.08-.23-.11-.1-.05-.19-.09-.29-.13-.1-.04-.2-.08-.3-.11-.1-.03-.2-.06-.3-.09-.1-.03-.2-.05-.3-.07-.1-.02-.2-.03-.3-.04-.1,0-.19-.01-.29-.01-.1,0-.19,0-.28,.02-.09,.01-.17,.03-.25,.05-.08,.02-.16,.05-.24,.08-.08,.03-.16,.07-.23,.11h-.01"/><path class="cls-2" d="M51.34,40.15s.09,.05,.14,.08c.05,.03,.09,.05,.14,.07,.05,.02,.09,.04,.14,.06,.05,.02,.1,.04,.15,.06,.05,.02,.11,.04,.16,.06,.05,.02,.1,.03,.15,.05,.05,.01,.1,.02,.15,.03,.05,0,.1,.02,.15,.02,.05,0,.1,0,.15,.01,.05,0,.1,0,.15,0,.05,0,.1-.01,.15-.02,.05-.01,.1-.02,.15-.04,.04-.01,.08-.03,.12-.05,.02,0,.03-.02,.05-.03"/></g></g><rect class="cls-1" y="0" width="112.25" height="112.25"/></g></g></svg>