<?xml version="1.0" encoding="UTF-8"?><svg xmlns="http://www.w3.org/2000/svg" viewBox="0 0 112.25 112.25"><defs><style>.d{fill:none;}</style></defs><g id="a"/><g id="b"><g id="c"><g><path d="M15.74,73.32c-.12,1.87,1.36,3.9,1.43,3.99l16.82,22.99,7.57-7.57-11.89-16.24-.84,.62h0l.84-.62c-1.05-1.43-1.78-3.66,.69-6.13,1.47-1.47,3.86-1.47,5.33,0l11.72,11.72c1.33,1.33,3.49,1.33,4.82,0,.96-.96,1.22-2.35,.79-3.55h0l.61-1.35,1.53-.69,.69-1.53,1.52-.69,.69-1.53,1.52-.69,.69-1.52,1.52-.69,.68-1.52,1.52-.68,.69-1.52,1.52-.69,.69-1.52,1.52-.69,.69-1.52,1.52-.69,.68-1.52,1.52-.69,.69-1.52,1.52-.68,.68-1.52,1.52-.68,.69-1.52,1.52-.68,.68-1.52,1.52-.68,.68-1.52,1.52-.68,.68-1.52,1.52-.69,.68-1.52,1.52-.68,.68-1.52,1.52-.68,.68-1.52,1.52-.68,.68-1.52,1.52-.68,.68-1.52,1.52-.68,.68-1.52,1.52-.68,.68-1.52,1.52-.68,.52-1.19c.69-.06,1.36-.34,1.89-.86,1.18-1.18,1.18-3.1,0-4.29l-6.8-6.8c-6.69-6.69-17.57-6.69-24.26,0L35.44,54.38l-1.15-1.15-16.36,16.36c-.06,.05-2.06,1.8-2.18,3.73ZM77.13,21.27c4.32-4.32,11.36-4.32,15.69,0l5.07,5.07-48.28,48.28-9.1-9.1c-1.47-1.47-1.47-3.86,0-5.33l.37-.37-1.15-1.15L77.13,21.27Z"/><rect class="d" y="0" width="112.25" height="112.25"/></g></g></g></svg>