<?xml version="1.0" encoding="UTF-8"?>
<svg id="Layer_1" data-name="Layer 1" xmlns="http://www.w3.org/2000/svg" viewBox="0 0 295.67 84.33">
  <defs>
    <style>
      .cls-1 {
        fill: #fff;
      }

      .cls-2 {
        fill: #010101;
      }
    </style>
  </defs>
  <g>
    <circle class="cls-1" cx="42.11" cy="42.21" r="28.84"/>
    <path class="cls-2" d="m41.77,10.21c8.95,0,16.57,3.12,22.86,9.37,3.01,3.01,5.29,6.45,6.86,10.31,1.56,3.87,2.34,7.97,2.34,12.31s-.77,8.49-2.31,12.31c-1.54,3.83-3.82,7.21-6.83,10.14-3.12,3.08-6.67,5.45-10.63,7.09-3.96,1.64-8.06,2.46-12.28,2.46s-8.28-.81-12.14-2.43c-3.87-1.62-7.33-3.96-10.4-7.03s-5.4-6.52-7-10.37-2.4-7.9-2.4-12.17.81-8.3,2.43-12.2c1.62-3.9,3.97-7.4,7.06-10.49,6.09-6.21,13.58-9.31,22.46-9.31Zm.12,5.77c-7.31,0-13.47,2.55-18.46,7.66-2.51,2.55-4.45,5.42-5.8,8.6-1.35,3.18-2.03,6.51-2.03,9.97s.68,6.73,2.03,9.91c1.35,3.18,3.29,6.02,5.8,8.52,2.51,2.5,5.35,4.4,8.51,5.72,3.16,1.31,6.48,1.97,9.94,1.97s6.75-.67,9.97-2c3.22-1.33,6.12-3.26,8.71-5.77,4.99-4.88,7.48-10.99,7.48-18.34,0-3.54-.65-6.9-1.94-10.06-1.29-3.16-3.18-5.98-5.65-8.46-5.15-5.14-11.34-7.71-18.57-7.71Zm-.4,20.92l-4.29,2.23c-.46-.95-1.02-1.62-1.68-2-.67-.38-1.29-.57-1.86-.57-2.86,0-4.29,1.89-4.29,5.66,0,1.71.36,3.08,1.08,4.11.72,1.03,1.79,1.54,3.2,1.54,1.87,0,3.18-.92,3.94-2.74l3.94,2c-.84,1.56-2,2.79-3.49,3.69-1.48.9-3.12,1.34-4.91,1.34-2.86,0-5.16-.88-6.91-2.63-1.75-1.75-2.63-4.19-2.63-7.31s.89-5.47,2.66-7.26c1.77-1.79,4.01-2.69,6.72-2.69,3.96,0,6.8,1.54,8.51,4.63Zm18.46,0l-4.23,2.23c-.46-.95-1.02-1.62-1.69-2-.67-.38-1.31-.57-1.91-.57-2.86,0-4.29,1.89-4.29,5.66,0,1.71.36,3.08,1.09,4.11.72,1.03,1.79,1.54,3.2,1.54,1.87,0,3.18-.92,3.94-2.74l4,2c-.88,1.56-2.06,2.79-3.54,3.69-1.49.9-3.1,1.34-4.86,1.34-2.9,0-5.21-.88-6.94-2.63-1.74-1.75-2.6-4.19-2.6-7.31s.88-5.47,2.66-7.26c1.77-1.79,4.01-2.69,6.71-2.69,3.96,0,6.78,1.54,8.46,4.63Z"/>
  </g>
  <g>
    <circle class="cls-1" cx="253.28" cy="42.26" r="29.1"/>
    <path class="cls-2" d="m253.78,10.12c8.95,0,16.53,3.11,22.74,9.31,6.21,6.17,9.31,13.73,9.31,22.69s-3.05,16.46-9.15,22.51c-6.44,6.32-14.08,9.49-22.91,9.49s-16.15-3.14-22.51-9.43c-6.29-6.28-9.43-13.81-9.43-22.57s3.14-16.28,9.43-22.68c6.21-6.21,13.71-9.32,22.51-9.32Zm.11,5.77c-7.28,0-13.43,2.57-18.46,7.72-5.22,5.3-7.83,11.47-7.83,18.51s2.59,13.26,7.77,18.4c5.18,5.18,11.35,7.77,18.51,7.77s13.33-2.61,18.63-7.83c5.03-4.88,7.54-10.99,7.54-18.34s-2.55-13.48-7.66-18.51c-5.07-5.15-11.24-7.72-18.51-7.72Zm-14.29,21.71c.61-3.92,2.19-6.96,4.74-9.11,2.55-2.15,5.66-3.23,9.31-3.23,5.03,0,9.03,1.62,12,4.86,2.97,3.24,4.46,7.39,4.46,12.46s-1.54,9-4.63,12.26c-3.09,3.26-7.09,4.89-12,4.89-3.62,0-6.74-1.08-9.37-3.26-2.63-2.17-4.21-5.26-4.74-9.26h8.06c.19,3.89,2.53,5.83,7.03,5.83,2.25,0,4.06-.97,5.43-2.91,1.37-1.94,2.06-4.53,2.06-7.77s-.63-5.97-1.88-7.74c-1.26-1.77-3.07-2.66-5.43-2.66-4.27,0-6.67,1.89-7.2,5.66h2.34l-6.34,6.34-6.34-6.34h2.51Z"/>
  </g>
  <g>
    <circle class="cls-1" cx="112.63" cy="42.46" r="28.28"/>
    <path class="cls-2" d="m112.44,10.15c8.99,0,16.57,3.09,22.74,9.26,6.21,6.21,9.31,13.79,9.31,22.74s-3.05,16.48-9.15,22.46c-6.48,6.36-14.11,9.54-22.91,9.54s-16.15-3.14-22.51-9.43c-6.29-6.29-9.43-13.81-9.43-22.57s3.14-16.34,9.43-22.74c6.17-6.17,13.68-9.26,22.51-9.26Zm.11,5.77c-7.28,0-13.43,2.55-18.46,7.66-5.22,5.33-7.83,11.52-7.83,18.57s2.59,13.22,7.77,18.4c5.18,5.18,11.35,7.77,18.51,7.77s13.33-2.61,18.63-7.83c5.03-4.84,7.54-10.95,7.54-18.34s-2.55-13.47-7.66-18.57c-5.1-5.1-11.28-7.66-18.51-7.66Zm8.57,18.28v13.08h-3.66v15.54h-9.94v-15.54h-3.66v-13.09c0-.57.2-1.06.6-1.46.4-.4.89-.6,1.46-.6h13.14c.53,0,1.01.2,1.43.6.42.4.63.89.63,1.46Zm-13.09-8.23c0-3.01,1.49-4.51,4.46-4.51s4.46,1.5,4.46,4.51-1.49,4.46-4.46,4.46-4.46-1.49-4.46-4.46Z"/>
  </g>
  <g>
    <circle class="cls-1" cx="183.14" cy="42.36" r="29.47"/>
    <path class="cls-2" d="m183.11,10.12c8.99,0,16.57,3.09,22.74,9.26,6.21,6.17,9.31,13.75,9.31,22.74s-3.05,16.48-9.15,22.46c-6.47,6.36-14.11,9.54-22.91,9.54s-16.19-3.16-22.51-9.49c-6.29-6.29-9.43-13.79-9.43-22.51s3.14-16.34,9.43-22.74c6.17-6.17,13.68-9.26,22.51-9.26Zm-24.74,23.37c-.95,2.63-1.43,5.5-1.43,8.63,0,7.09,2.59,13.22,7.77,18.4,5.22,5.14,11.39,7.72,18.51,7.72s13.41-2.61,18.63-7.83c1.87-1.79,3.33-3.66,4.4-5.6l-12.06-5.37c-.42,2.02-1.44,3.67-3.06,4.94-1.62,1.28-3.53,2.01-5.74,2.2v4.92h-3.71v-4.92c-3.54-.04-6.78-1.31-9.71-3.83l4.4-4.46c2.09,1.94,4.48,2.91,7.14,2.91,1.1,0,2.05-.25,2.83-.74.78-.49,1.17-1.31,1.17-2.46,0-.8-.29-1.45-.86-1.94l-3.08-1.32-3.77-1.72-5.09-2.23-16.34-7.31Zm24.86-17.66c-7.28,0-13.43,2.57-18.46,7.71-1.26,1.26-2.44,2.69-3.54,4.29l12.23,5.49c.53-1.68,1.54-3.02,3.03-4.03,1.48-1.01,3.22-1.57,5.2-1.69v-4.92h3.72v4.91c2.93.15,5.6,1.14,8,2.97l-4.17,4.29c-1.79-1.26-3.62-1.89-5.49-1.89-.99,0-1.88.19-2.66.57-.78.38-1.17,1.03-1.17,1.94,0,.27.1.53.28.8l4.06,1.83,2.8,1.26,5.14,2.28,16.4,7.31c.53-2.25.8-4.53.8-6.86,0-7.35-2.55-13.54-7.66-18.57-5.07-5.14-11.24-7.71-18.51-7.71Z"/>
  </g>
</svg>