<svg xmlns="http://www.w3.org/2000/svg" viewBox="0 0 112.25 112.25"><defs><style>.cls-1{fill:none;}</style></defs><g id="Livello_2" data-name="Livello 2"><g id="TOOLS_MATERIALS" data-name="TOOLS MATERIALS"><rect class="cls-1" width="112.25" height="112.25"/><path d="M101.57,63.2c1.87-2.52,1.64-5.75-.59-7.2h0a82.93,82.93,0,0,0-89.7,0c-2.23,1.45-2.46,4.67-.59,7.2s4.77,3.44,6.66,2.23A71.74,71.74,0,0,1,95,65.35h0C96.85,66.56,99.73,65.68,101.57,63.2Zm-5.94,1.1c-1.26-.8-1.33-3.07-.15-5.1s3.42-3.07,4.83-2.15,1.43,3.36.06,5.29S96.89,65.12,95.63,64.3Z"/></g></g></svg>