<svg xmlns="http://www.w3.org/2000/svg" viewBox="0 0 112.25 112.25"><defs><style>.cls-1{fill:none;}</style></defs><g id="Livello_2" data-name="Livello 2"><g id="TOOLS_MATERIALS" data-name="TOOLS MATERIALS"><path d="M71.77,70.83a1,1,0,0,1-1,1H34.18a1,1,0,1,1,0-2H70.77A1,1,0,0,1,71.77,70.83Z"/><path d="M71.77,67.18a1,1,0,0,1-1,1H34.18a1,1,0,0,1,0-2H70.77A1,1,0,0,1,71.77,67.18Z"/><path d="M71.77,63.53a1,1,0,0,1-1,1H34.18a1,1,0,0,1,0-2H70.77A1,1,0,0,1,71.77,63.53Z"/><path d="M71.77,59.88a1,1,0,0,1-1,1H34.18a1,1,0,0,1,0-2H70.77A1,1,0,0,1,71.77,59.88Z"/><path d="M71.77,56.23a1,1,0,0,1-1,1H34.18a1,1,0,0,1,0-2H70.77A1,1,0,0,1,71.77,56.23Z"/><path d="M71.77,52.58a1,1,0,0,1-1,1H34.18a1,1,0,1,1,0-2H70.77A1,1,0,0,1,71.77,52.58Z"/><path d="M71.77,48.93a1,1,0,0,1-1,1H34.18a1,1,0,0,1,0-2H70.77A1,1,0,0,1,71.77,48.93Z"/><path d="M71.77,45.28a1,1,0,0,1-1,1H34.18a1,1,0,0,1,0-2H70.77A1,1,0,0,1,71.77,45.28Z"/><path d="M71.77,41.64a1,1,0,0,1-1,1H34.18a1,1,0,1,1,0-2H70.77A1,1,0,0,1,71.77,41.64Z"/><path d="M84.75,33.34a2,2,0,0,1-2,2H22.19a2,2,0,0,1,0-4H82.75A2,2,0,0,1,84.75,33.34Z"/><path d="M84.75,75.48a2,2,0,0,1-2,2H22.19a2,2,0,1,1,0-4H82.75A2,2,0,0,1,84.75,75.48Z"/><path d="M100.43,67.19a1,1,0,0,1-1,1H97.54A12.28,12.28,0,0,1,85.27,55.92V49.26A10.28,10.28,0,0,0,75,39H34.18a1,1,0,0,1,0-2H75A12.28,12.28,0,0,1,87.27,49.26v6.66A10.29,10.29,0,0,0,97.54,66.19h1.89A1,1,0,0,1,100.43,67.19Z"/><rect class="cls-1" width="112.25" height="112.25"/></g></g></svg>