<svg xmlns="http://www.w3.org/2000/svg" viewBox="0 0 112.25 112.25"><defs><style>.cls-1{fill:none;}</style></defs><g id="Livello_2" data-name="Livello 2"><g id="TOOLS_MATERIALS" data-name="TOOLS MATERIALS"><path d="M39.71,73.58a1,1,0,0,1-1-1V16a1,1,0,0,1,2,0V72.58A1,1,0,0,1,39.71,73.58Z"/><path d="M43.35,73.58a1,1,0,0,1-1-1V16a1,1,0,0,1,2,0V72.58A1,1,0,0,1,43.35,73.58Z"/><path d="M47,73.58a1,1,0,0,1-1-1V16a1,1,0,0,1,2,0V72.58A1,1,0,0,1,47,73.58Z"/><path d="M50.65,73.58a1,1,0,0,1-1-1V16a1,1,0,0,1,2,0V72.58A1,1,0,0,1,50.65,73.58Z"/><path d="M54.3,73.58a1,1,0,0,1-1-1V16a1,1,0,1,1,2,0V72.58A1,1,0,0,1,54.3,73.58Z"/><path d="M58,73.58a1,1,0,0,1-1-1V16a1,1,0,1,1,2,0V72.58A1,1,0,0,1,58,73.58Z"/><path d="M61.6,73.58a1,1,0,0,1-1-1V16a1,1,0,0,1,2,0V72.58A1,1,0,0,1,61.6,73.58Z"/><path d="M65.25,73.58a1,1,0,0,1-1-1V16a1,1,0,1,1,2,0V72.58A1,1,0,0,1,65.25,73.58Z"/><path d="M68.9,73.58a1,1,0,0,1-1-1V16a1,1,0,1,1,2,0V72.58A1,1,0,0,1,68.9,73.58Z"/><path d="M77.2,78.57a2,2,0,0,1-2-2V12a2,2,0,0,1,4,0V76.57A2,2,0,0,1,77.2,78.57Z"/><path d="M35.06,78.57a2,2,0,0,1-2-2V12a2,2,0,0,1,4,0V76.57A2,2,0,0,1,35.06,78.57Z"/><path d="M43.34,102.25a1,1,0,0,1-1-1v-1.9A12.29,12.29,0,0,1,54.61,87.08h6.66A10.29,10.29,0,0,0,71.55,76.81V16a1,1,0,1,1,2,0V76.81A12.29,12.29,0,0,1,61.27,89.08H54.61A10.29,10.29,0,0,0,44.34,99.35v1.9A1,1,0,0,1,43.34,102.25Z"/><rect class="cls-1" width="112.25" height="112.25"/></g></g></svg>