<?xml version="1.0" encoding="UTF-8"?><svg id="Livello_2" xmlns="http://www.w3.org/2000/svg" viewBox="0 0 112.25 112.25"><defs><style>.cls-1,.cls-2{fill:none;}.cls-2{stroke:#000;stroke-linecap:round;stroke-miterlimit:10;stroke-width:.75px;}</style></defs><g id="TOOLS_MATERIALS"><g><g><path class="cls-2" d="M31.38,73.43c-.49-.1-.93,.01-1.23,.32-.09,.1-.18,.21-.24,.34h0"/><line class="cls-2" x1="84.59" y1="56.79" x2="84.59" y2="56.79"/><path class="cls-2" d="M84.59,56.1c0,.23,0,.46,0,.69"/><path class="cls-2" d="M29.53,75.05c-.12-.18-.24-.37-.35-.57-.24-.42-.45-.85-.64-1.29-.13-.3-.24-.6-.34-.9-.05-.16-.1-.32-.15-.48-.13-.47-.23-.94-.3-1.41-.07-.46-.1-.92-.1-1.38,0-.04,0-.08,0-.13,.02-1.09,.24-2.14,.73-3.12,.08-.16,.17-.32,.26-.48,.09-.15,.19-.3,.3-.44,.1-.14,.21-.28,.33-.41,.03-.03,.06-.07,.09-.1,.42-.47,.92-.87,1.47-1.19l.03-.02c4.88-2.82,9.76-5.64,14.64-8.45,1.88-1.08,3.75-2.17,5.63-3.25h.01c.45-.22,.89-.49,1.24-.84,.89-.89,1.26-2.3,1.23-3.56"/><path class="cls-2" d="M29.38,76.14c0-.36,.05-.72,.14-1.06v-.02c.03-.09,.05-.17,.08-.26,.03-.08,.06-.16,.09-.24l.03-.06c.05-.13,.11-.26,.18-.39"/><path class="cls-2" d="M29.38,76.14h0c0-.25,.04-.47,.12-.66,.08-.19,.19-.34,.34-.44,.14-.1,.32-.15,.51-.15,.19,0,.4,.05,.61,.15,.21,.1,.43,.24,.64,.43,.21,.18,.4,.41,.58,.65,.17,.25,.32,.51,.44,.79,.12,.28,.2,.56,.24,.83,.04,.27,.05,.52,.02,.75-.03,.23-.11,.43-.22,.58-.11,.15-.25,.26-.42,.32-.17,.06-.36,.07-.56,.02-.11-.02-.23-.06-.34-.11-.1-.04-.2-.1-.3-.16-.22-.14-.44-.33-.64-.56-.19-.22-.37-.47-.52-.73-.15-.26-.27-.54-.35-.82-.08-.28-.13-.55-.14-.8,0-.03,0-.05,0-.08Z"/><path class="cls-2" d="M30.39,76.72c0,.4,.14,.68,.38,.98,.18,.22,.58,.58,.91,.38,.44-.25,.18-.92,0-1.23-.18-.31-.63-.87-1.07-.62-.21,.12-.22,.28-.22,.49Z"/><path class="cls-2" d="M35.8,79.28c.4,.94,1.25,1.66,2.09,2.14,1.99,1.15,4.71,1.41,6.91,1.06,1.2-.19,2.29-.51,3.34-1.16,.95-.59,1.92-1.39,1.92-2.65"/><path class="cls-2" d="M35.82,93.84c.25,1.04,1.21,1.85,2.07,2.34,1.99,1.15,4.71,1.41,6.91,1.06,1.2-.19,2.29-.51,3.34-1.16,.95-.59,1.92-1.14,1.92-2.4"/><path class="cls-2" d="M69.31,72.65c4.01,.23,7.56-1.24,9.96-4.56,2.26-3.12,3.02-7.18,3.06-10.86l.72,.42,1.53-.85h0v-.7"/><path class="cls-2" d="M50.05,91.83c0,.25-.04,.49-.11,.72-.67,2.17-3.7,3.07-5.51,3.3-2.1,.26-4.65-.02-6.54-1.11-.82-.48-1.67-1.21-1.98-2.19-.07-.24-.11-.47-.11-.72"/><path class="cls-2" d="M35.8,85.03c0,.25,.04,.49,.11,.72,.3,.98,1.15,1.71,1.98,2.19,1.9,1.09,4.44,1.37,6.54,1.11,1.81-.23,4.84-1.13,5.51-3.3,.07-.24,.11-.47,.11-.72"/><path class="cls-2" d="M35.81,86.8c0,1.33,1.07,2,2.08,2.58,1.99,1.15,4.71,1.41,6.91,1.06,1.2-.19,2.29-.51,3.34-1.16,.95-.59,1.91-1.18,1.91-2.24"/><line class="cls-2" x1="83.06" y1="57.64" x2="83.06" y2="56.95"/><path class="cls-2" d="M40.85,20.38c-.13,.26-.26,.53-.37,.8"/><path class="cls-2" d="M46.83,74.65c-.07-.08-.08-.17-.06-.27,.02-.1,.07-.18,.11-.27-.06,.13-.11,.25-.12,.34,0,.07,0,.13,.05,.18,.02,.02,.03,.04,.06,.05,.05,.03,.11,.06,.2,.08,.08,.01,.17,.02,.29,0,.02,0,.04,0,.07,0,.17-.03,.38-.09,.62-.23h0c.09-.05,.17-.11,.24-.16,.16-.12,.3-.24,.43-.38,.14-.14,.27-.29,.39-.43,.11-.13,.21-.25,.31-.36,.13-.15,.26-.3,.38-.44,.15-.17,.29-.33,.4-.47,.05-.07,.1-.13,.15-.2-.07,.11-.16,.2-.24,.3-.08,.1-.17,.19-.25,.29-.17,.19-.33,.39-.49,.59-.32,.39-.67,.79-1.08,1.09-.27,.19-.6,.36-.93,.4-.16,.02-.41,.01-.54-.12Z"/><path class="cls-2" d="M50.92,70.58c-.05,.27-.12,.53-.21,.78-.05,.13-.1,.25-.15,.38-.06,.14-.11,.23-.19,.36,.1-.14,.17-.29,.24-.44,.07-.16,.12-.31,.17-.47,.1-.32,.17-.65,.21-.98,.04-.3,.07-.7,.06-1,0-.17-.03-.33-.08-.5-.06-.17-.14-.3-.26-.43-.14-.15-.3-.27-.5-.34-.31-.11-.65-.07-.94,.06-.52,.23-.92,.71-1.18,1.19-.27,.5-.42,1.06-.5,1.62-.04,.28-.05,.57-.07,.85-.01,.28-.03,.57-.07,.85-.04,.28-.12,.55-.22,.82-.1,.27-.21,.53-.33,.79,.09-.2,.13-.24,.21-.45,.06-.15,.12-.31,.17-.47,.1-.32,.16-.64,.21-.97,.03-.2,.04-.4,.05-.6,0-.1,0-.2,0-.3,0-.1,0-.2,.01-.3,.03-.39,.12-.81,.25-1.18,.09-.26,.2-.5,.33-.74,.25-.45,.63-.89,1.13-1.1,.24-.1,.51-.14,.77-.09,.26,.05,.49,.17,.67,.37,.2,.22,.31,.5,.34,.79,.01,.13,0,.31,0,.44,0,.15-.01,.29-.03,.44l-.09,.66Z"/><path class="cls-2" d="M31.34,79.28c.27,.12,.56,.21,.85,.28,.48,.11,.97,.14,1.45,.12,.23,0,.46-.03,.68-.06,.17-.02,.35-.05,.52-.09,.19-.04,.78-.2,.96-.25v5.75c0,.25,.04,.49,.11,.72,.11,.72-.1,.8-.1,1.05,0,1.78,0,3.24,0,5.03,0,.25,.04,.49,.11,.72,.22,1.07-.09,1.12-.04,1.3v-.06c-.05,.19-.07,.44-.07,.63,0,1.33,1.08,2.33,2.09,2.91,2,1.15,4.71,1.41,6.91,1.06,1.2-.19,2.29-.51,3.34-1.16,.95-.59,1.92-1.55,1.92-2.81,0-.39,0-.36,0-.75,0-.25-.2-.42-.11-1.13,.07-.24,.11-.47,.11-.72v-4.78c0-.25-.26-.41-.11-1.3,.07-.24,.11-.47,.11-.72v-6.36c0-.23-.23-.56-.19-.65l.08-.23c.07-.24,.11-.47,.11-.72,0-.57,0-1.13,0-1.7,0-.11,0-.22,0-.33,0-.18,0-.36,.03-.54v-.06c.02-.12,.03-.24,.06-.35,.07-.37,.2-.74,.42-1.09,.07-.11,.14-.21,.23-.31,.16-.19,.36-.38,.59-.56,.22-.17,.44-.32,.66-.45,.17-.1,.33-.2,.48-.29l.08-.05c1.8-1.04,3.6-2.08,5.4-3.12,.71-.41,1.42-.82,2.12-1.23,.17-.1,.32-.19,.46-.26,.08-.04,.15-.08,.21-.12,.4-.29,.86-.54,1.34-.67,1.21-.33,2.63,.04,3.7,.68"/><path class="cls-2" d="M57.69,14.91l-1.68,.32-.02,1.34-.02,.02c1.39,.49,2.72,1.11,3.94,1.8,.1,.06,.2,.11,.3,.17,.1,.06,.2,.12,.3,.18,11.98,7.11,21.66,23.86,21.82,37.79l.72,.42,1.53-.85"/><path class="cls-2" d="M57.22,14.75l-1.75,.27v1.39h-.05c-2.08-.68-4.27-1.03-6.45-.8-4.07,.42-7.12,2.76-8.93,6.35"/><line class="cls-2" x1="56.01" y1="15.23" x2="55.48" y2="15.02"/><path class="cls-2" d="M35.8,79.28c.22,.17,1.57,.8,1.82,.92,1.78,.84,4.66,1.04,6.81,.89,1.82-.13,4.84-1.13,5.51-3.3"/><path class="cls-2" d="M57.98,68.23c.63,.44,1.28,.85,1.94,1.25,.2,.12,.4,.23,.6,.35,2.65,1.49,5.7,2.65,8.8,2.82l1.81,.1c4.15,.23,7.82-1.29,10.3-4.72,2.34-3.23,3.12-7.43,3.16-11.23v-.69c-.16-14.55-10.42-32.28-23.17-39.44-3.32-1.86-7.35-3.29-11.31-2.88-4.21,.43-7.37,2.85-9.24,6.56l-.82,1.62c-1.4,2.77-1.92,5.99-1.95,9.03,0,.23,0,.46,0,.69,.09,7.99,3.29,16.4,7.4,23"/></g><rect class="cls-1" width="112.25" height="112.25"/></g></g></svg>