<?xml version="1.0" encoding="UTF-8"?><svg xmlns="http://www.w3.org/2000/svg" viewBox="0 0 112.25 112.25"><defs><style>.d{fill:none;}</style></defs><g id="a"/><g id="b"><g id="c"><g><path d="M105.67,35.5l-20.52-20.52c-.58-.58-1.59-.52-2.26,.15l-1.24,1.24-7.51,7.51c-.66,.66-.73,1.67-.15,2.26l4.79,4.98c.62,.64,.54,1.73-.18,2.44l-1.79,1.79-.8-.8-.71,.71,.8,.8-.71,.71-.8-.8-.71,.71,.8,.8-.71,.71-.8-.8-.71,.71,.8,.8-.71,.71-.8-.8-.71,.71,.8,.8-.71,.71-.8-.8-.71,.71,.8,.8-.71,.71-.8-.8-.71,.71,.8,.8-.71,.71-.8-.8-.71,.71,.8,.8-.71,.71-.8-.8-.71,.71,.8,.8-.71,.71-.8-.8-.71,.71,.8,.8-.71,.71-.8-.8-.71,.71,.8,.8-.71,.71-.8-.8-.71,.71,.8,.8-.71,.71-.8-.8-.71,.71,.8,.8-.71,.71-.8-.8-.71,.71,.8,.8-.71,.71-.8-.8-.71,.71,.8,.8-.71,.71-.8-.8-.71,.71,.8,.8-.71,.71-.8-.8-.71,.71,.8,.8-.71,.71-.8-.8-.71,.71,.8,.8-.71,.71-.8-.8-.71,.71,.8,.8-.71,.71-.8-.8-.71,.71,.8,.8-.71,.71-.8-.8-.71,.71,.8,.8-.71,.71-.8-.8-.71,.71,.8,.8-.71,.71-.8-.8-.71,.71,.8,.8-.71,.71-.8-.8-.71,.71,.8,.8-.71,.71-.8-.8-.71,.71,.8,.8-.71,.71-.8-.8-.71,.71,.8,.8-.71,.71-.8-.8-.71,.71,.8,.8-.71,.71-.8-.8-.71,.71,.8,.8-.71,.71-.8-.8-.71,.71,.8,.8-.71,.71-.8-.8-.71,.71,.8,.8-.71,.71-.8-.8-.71,.71,.8,.8-.71,.71-.8-.8-.71,.71,.8,.8-.71,.71-.8-.8-.71,.71,.8,.8-.71,.71-.8-.8-.71,.71,.8,.8-.71,.71-.8-.8-.71,.71,.8,.8-.71,.71-.8-.8-.71,.71,.8,.8-.71,.71-.8-.8-.71,.71,.8,.8-.71,.71-.8-.8-.71,.71,.8,.8-.71,.71-.8-.8-.71,.71,.8,.8-.47,.47,.36,4.66,3.47,3.47,4.66,.36,1.89-1.89,.8,.8,.71-.71-.8-.8,.71-.71,.8,.8,.71-.71-.8-.8,.71-.71,.8,.8,.71-.71-.8-.8,.71-.71,.8,.8,.71-.71-.8-.8,.71-.71,.8,.8,.71-.71-.8-.8,.71-.71,.8,.8,.71-.71-.8-.8,.71-.71,.8,.8,.71-.71-.8-.8,.71-.71,.8,.8,.71-.71-.8-.8,.71-.71,.8,.8,.71-.71-.8-.8,.71-.71,.8,.8,.71-.71-.8-.8,.71-.71,.8,.8,.71-.71-.8-.8,.71-.71,.8,.8,.71-.71-.8-.8,.71-.71,.8,.8,.71-.71-.8-.8,.71-.71,.8,.8,.71-.71-.8-.8,.71-.71,.8,.8,.71-.71-.8-.8,.71-.71,.8,.8,.71-.71-.8-.8,.71-.71,.8,.8,.71-.71-.8-.8,.71-.71,.8,.8,.71-.71-.8-.8,.71-.71,.8,.8,.71-.71-.8-.8,.71-.71,.8,.8,.71-.71-.8-.8,.71-.71,.8,.8,.71-.71-.8-.8,.71-.71,.8,.8,.71-.71-.8-.8,.71-.71,.8,.8,.71-.71-.8-.8,.71-.71,.8,.8,.71-.71-.8-.8,.71-.71,.8,.8,.71-.71-.8-.8,.71-.71,.8,.8,.71-.71-.8-.8,.71-.71,.8,.8,.71-.71-.8-.8,.71-.71,.8,.8,.71-.71-.8-.8,.71-.71,.8,.8,.71-.71-.8-.8,.71-.71,.8,.8,.71-.71-.8-.8,.71-.71,.8,.8,.71-.71-.8-.8,.71-.71,.8,.8,.71-.71-.8-.8,.71-.71,.8,.8,.71-.71-.8-.8,.71-.71,.8,.8,.71-.71-.8-.8,.71-.71,.8,.8,.71-.71-.8-.8,.71-.71,.8,.8,.71-.71-.8-.8,.71-.71,.8,.8,.71-.71-.8-.8,.71-.71,.8,.8,.71-.71-.8-.8,.48-.48c.72-.72,1.82-.79,2.46-.16l4.86,4.86c.58,.58,1.59,.52,2.26-.15l7.51-7.51,1.24-1.24c.66-.66,.73-1.67,.15-2.26Z"/><rect class="d" y="0" width="112.25" height="112.25"/></g></g></g></svg>