<?xml version="1.0" encoding="UTF-8"?><svg xmlns="http://www.w3.org/2000/svg" viewBox="0 0 112.25 112.25"><defs><style>.d{fill:none;}</style></defs><g id="a"/><g id="b"><g id="c"><g><path d="M56.13,16.73c-21.72,0-39.39,17.67-39.39,39.39,0,21.72,17.67,39.39,39.39,39.39s39.39-17.67,39.39-39.39S77.85,16.73,56.13,16.73Zm-28.02,27.16c-.17,.68-.78,1.13-1.45,1.13-.12,0-.25-.02-.37-.05-.8-.21-1.29-1.02-1.08-1.83,1.25-4.88,4.19-9.28,8.52-12.73,.65-.52,1.59-.41,2.11,.24,.52,.65,.41,1.59-.24,2.11-3.86,3.09-6.38,6.83-7.48,11.13Zm28.02,35.74c-12.96,0-23.5-10.54-23.5-23.5s10.54-23.5,23.5-23.5,23.5,10.54,23.5,23.5-10.54,23.5-23.5,23.5Z"/><rect class="d" y="0" width="112.25" height="112.25"/></g></g></g></svg>