<?xml version="1.0" encoding="UTF-8"?>
<svg id="Livello_2" xmlns="http://www.w3.org/2000/svg" viewBox="0 0 112.25 112.25">
  <defs>
    <style>
      .cls-1, .cls-2 {
        fill: none;
      }

      .cls-2 {
        stroke: #000;
        stroke-miterlimit: 10;
        stroke-width: 4px;
      }
    </style>
  </defs>
  <g id="TOOLS_MATERIALS">
    <g>
      <rect class="cls-1" x="0" width="112.25" height="112.25"/>
      <circle class="cls-2" cx="50.23" cy="62.52" r="15.44"/>
      <path class="cls-2" d="M22.9,48.5c-5.92,11.54-4.05,26.06,5.62,35.72,1.78,1.78,3.73,3.3,5.8,4.55,11.81,7.17,27.42,5.65,37.62-4.55,4.32-4.32,7.09-9.61,8.29-15.17"/>
      <path class="cls-2" d="M34.79,35.97c-2.24,1.3-4.35,2.92-6.27,4.84-2.32,2.32-4.19,4.92-5.62,7.69"/>
      <path class="cls-2" d="M44.05,32.44c-3.22.66-6.35,1.84-9.26,3.53"/>
      <path class="cls-2" d="M52.98,93.1l-2.88,5.83c-.73,1.48-2.41,2.23-3.99,1.78l-9.62-2.69c-1.55-.43-2.59-1.88-2.5-3.49l.32-5.75"/>
      <path class="cls-2" d="M77.69,76.25l3.45,5.51c.87,1.4.63,3.22-.58,4.33l-7.34,6.77c-1.18,1.09-2.96,1.21-4.28.29l-4.72-3.29"/>
      <path class="cls-2" d="M22.48,49.38l-3.56-5.44c-.9-1.38-.7-3.2.49-4.35l7.19-6.92c1.16-1.11,2.94-1.27,4.27-.38l4.79,3.19"/>
      <path class="cls-2" d="M24.49,79.26l-6.5.19c-1.65.05-3.09-1.08-3.44-2.69l-2.12-9.76c-.34-1.57.45-3.17,1.92-3.84l5.23-2.41"/>
      <path class="cls-2" d="M75.13,53.12l-15.48-15.48c-3.58,1.27-7.44.87-10.75-1.11-6.24-3.73-8.26-10.76-5.92-16.62.14-.35.61-.44.88-.17l5.73,5.73c.07.07.17.12.27.15l7.42,1.56c.38.08.71-.25.64-.63l-1.48-7.51c-.02-.1-.07-.2-.15-.28l-5.64-5.64c-.27-.27-.18-.75.18-.89,4.76-1.73,10.37-.77,14.18,3.04,3.87,3.87,4.94,9.38,3.1,14.18l15.16,15.16c3.71-1.51,7.77-1.15,11.24.93,6.24,3.73,8.26,10.76,5.92,16.62-.14.35-.61.44-.88.17l-5.73-5.73c-.07-.07-.17-.12-.27-.15l-7.42-1.56c-.38-.08-.71.25-.64.63l1.48,7.51c.02.1.07.2.15.28l5.64,5.64c.27.27.18.75-.18.89-4.76,1.73-10.37.77-14.18-3.04s-4.97-8.94-3.27-13.68Z"/>
    </g>
  </g>
</svg>