<?xml version="1.0" encoding="UTF-8"?><svg id="Livello_2" xmlns="http://www.w3.org/2000/svg" viewBox="0 0 112.25 112.25"><defs><style>.cls-1,.cls-2{fill:none;}.cls-2{stroke:#000;stroke-linecap:round;stroke-miterlimit:10;stroke-width:.75px;}</style></defs><g id="TOOLS_MATERIALS"><g><ellipse class="cls-2" cx="82.25" cy="41.66" rx="1.59" ry="2.74" transform="translate(-9.92 43.83) rotate(-28.21)"/><path class="cls-2" d="M83.91,43.75c-.78,.42-1.98-.33-2.7-1.66-.58-1.08-.66-2.22-.25-2.83"/><g><line class="cls-2" x1="42.11" y1="59.91" x2="42.11" y2="65.84"/><path class="cls-2" d="M34.21,63.34c.58,.07,1.15,.08,1.73,.05"/><path class="cls-2" d="M29.29,59.55c-.05,.35-.02,.67,.09,1"/><line class="cls-2" x1="29.39" y1="60.56" x2="29.39" y2="78.23"/><path class="cls-2" d="M34.21,74.07c-1.57,.18-4.19,.93-4.83,2.78"/><line class="cls-2" x1="34.21" y1="63.34" x2="34.21" y2="81.01"/><path class="cls-2" d="M29.39,60.56c-.38-.27-.76-.55-1.13-.83"/><path class="cls-2" d="M35.65,63.99c-.48-.21-.97-.43-1.44-.65"/><path class="cls-2" d="M29.39,78.23c-4.25-2.97-8.27-7.52-8.27-13.27"/><path class="cls-2" d="M93.27,64.96c0,6.13-4.54,10.87-9.12,13.84-4.78,3.1-10.57,5.01-16.09,6.02-10.79,1.97-23.73,1.02-33.85-3.81"/><path class="cls-2" d="M36,63.73c1.78-.09,4.27-.69,5.5-2.25,.68-.86,.82-1.87,.25-2.84-.52-.89-1.46-1.49-2.35-1.87-1.82-.78-4.08-.94-6-.59-1.63,.29-4.36,1.26-4.69,3.35"/><path class="cls-2" d="M89.41,55.89c-3.65-4.56-9.49-7.53-14.8-9.26-5.56-1.81-11.6-2.64-17.42-2.64-5.82,0-11.86,.83-17.42,2.64-5.31,1.73-11.14,4.69-14.8,9.25"/><path class="cls-2" d="M28.72,59.52c-5.88-4.56-9.35-11.42-5.25-18.62,1.64-2.89,4.19-5.22,6.89-7.02,3.23-2.15,6.64-3.61,10.33-4.73,12.62-3.83,29.65-3.19,41.48,3.58,3.2,1.83,6.32,4.31,8.35,7.51,1.82,2.87,2.63,6.13,1.91,9.53-.69,3.29-2.67,6.08-5.04,8.3-2.79,2.6-6.23,4.54-9.72,5.96-12.46,5.08-29.27,5.02-41.66-.3"/><path class="cls-2" d="M28.26,59.72c-5.98-4.64-9.5-11.61-5.34-18.93,1.67-2.93,4.25-5.31,7-7.14,3.28-2.19,6.75-3.67,10.5-4.81,12.83-3.89,30.13-3.24,42.16,3.64,3.25,1.86,6.43,4.38,8.49,7.63,1.85,2.92,2.67,6.23,1.94,9.69-.71,3.34-2.71,6.18-5.13,8.43-2.83,2.65-6.33,4.62-9.88,6.06-12.66,5.16-29.75,5.1-42.34-.31"/><path class="cls-2" d="M35.95,63.4c1.63-.08,3.9-.63,5.03-2.06,.62-.79,.75-1.71,.23-2.6-.47-.81-1.33-1.36-2.15-1.71-1.66-.72-3.73-.86-5.48-.54-1.49,.27-3.99,1.15-4.28,3.06"/><line class="cls-2" x1="93.27" y1="47.32" x2="93.27" y2="64.96"/><line class="cls-2" x1="21.12" y1="64.96" x2="21.12" y2="47.39"/><rect class="cls-1" width="112.25" height="112.25"/></g></g></g></svg>