<?xml version="1.0" encoding="UTF-8"?><svg xmlns="http://www.w3.org/2000/svg" viewBox="0 0 112.25 112.25"><defs><style>.d{fill:none;}</style></defs><g id="a"/><g id="b"><g id="c"><g><g><g><path d="M27.89,72.23c-.66-.65-.67-1.72-.01-2.38l.38-.38-.89-.88,2.66-2.69,8.89,8.79-2.66,2.69-.89-.88-.38,.38c-.65,.66-1.72,.67-2.38,.01l-4.72-4.67Z"/><polygon points="30.11 76.49 10.73 96.1 7.18 96.14 28.33 74.73 30.11 76.49"/><path d="M83.26,22.27l1.02,1.01-6.51,6.59c.51,1.7,.12,3.6-1.21,4.95l-35.37,35.79,.89,.88-2.66,2.69-8.89-8.79,2.66-2.69,.89,.88L69.45,27.79c1.26-1.28,3.04-1.72,4.67-1.34l6.6-6.68,.75,.74"/></g><path d="M103.63,26.05l-4.62-4.8c-3.93-4.08-10.44-4.2-14.52-.27l-1.36,1.31c-.4,.38-1.03,.37-1.41-.03s-.37-1.03,.03-1.41l1.36-1.31c4.87-4.69,12.66-4.55,17.35,.32l4.62,4.8"/></g><rect class="d" x="0" width="112.25" height="112.25"/></g></g></g></svg>