<svg xmlns="http://www.w3.org/2000/svg" viewBox="0 0 1200 838.83"><title>hero vero SPK M </title><g id="Layer_27" data-name="Layer 27"><path d="M776.13,509.45H421.49a4.6,4.6,0,0,0-4.6,4.6V747.26H780.74V514.05A4.6,4.6,0,0,0,776.13,509.45ZM613.06,714a17,17,0,0,1-6.45,5.44,18,18,0,0,1-7.86,1.82,17.67,17.67,0,0,1-13.35-6.14,17.22,17.22,0,0,1-3.9-8A17.64,17.64,0,1,1,613.06,714Z"/><path d="M569.15-265.72v597.1h0V505.44h59.28V-260.32"/><circle cx="598.79" cy="703.61" r="12.61"/></g><g id="Layer_1" data-name="Layer 1"><path d="M1381.15-215.46C1472.5-366,1513.24-515.95,1513.24-701.61v-760.8c0-196.85-46-354.79-149.16-512.14C1087.67-2397.18,521-2515.72,98.34-2239.3A914.37,914.37,0,0,0-166-1975.11c-103.45,157.45-149.57,315.6-149.57,512.7v760.8c0,185.49,40.66,335.31,131.87,485.78A913.92,913.92,0,0,0,565,224.63V-892A238.94,238.94,0,0,1,333.74-710.64h0c-132-.4-238.68-107.69-238.32-239.68v-67.36a1,1,0,0,1,1-1h0c-1.73-7.19-12.4-15.27-17.07-18.82-2.87-2.19-5.7-4.13-8.55-6.2-4.65-3.35-9.44-6.82-13.95-10.56-19.21-15.91-22.73-31.3-11.32-49.94h0a1,1,0,0,1,.16-.64l3.72-5.58-.18-3.12h0a1,1,0,0,1,.14-.72l5.93-8.89a77.37,77.37,0,0,1-13.54-108.59,77.37,77.37,0,0,1,108.59-13.54,77.36,77.36,0,0,1,29.86,61.1,77.77,77.77,0,0,1-29.84,61l5.91,8.89h0a1.1,1.1,0,0,1,.12.54h0l-.16,3.28,3.72,5.58a1.1,1.1,0,0,1,.12.83c11.26,18.59,7.85,33.88-11.09,49.59-4.59,3.82-9.49,7.33-14.22,10.74-2.79,2.07-5.58,4-8.26,6.1-4.84,3.65-15.54,11.77-17.28,19h0a1,1,0,0,1,1,1v67.36c-.28,123.88,99.9,224.54,223.78,224.85h0C458-725.6,558.23-826.19,558-950.07v-.48c3.06-167.14,5.13-321.35,6.33-471.44a1,1,0,0,1,1-1c-.27-3.31-.52-6.61-.77-9.92-.64-8.66-1.28-17.58-1.61-26.63h-14.4a16.27,16.27,0,0,1-3-.52,14.85,14.85,0,0,1-2.52-.91H526.91a12.4,12.4,0,0,1-12.41-12.38c0-.24,0-.48,0-.72v-192.14a116.1,116.1,0,0,1-32.2-77.84h-2.76a1.07,1.07,0,0,1-1.1-1,1.41,1.41,0,0,1,0-.41v-2.38a1,1,0,0,1,0-.35,1,1,0,0,1,.91-1h.68A118.71,118.71,0,0,1,598.72-1867h0a118.7,118.7,0,0,1,118.7,117.78h.48a1.08,1.08,0,0,1,1.11,1,.72.72,0,0,1,0,.41v2.48a.53.53,0,0,1,0,.35,1,1,0,0,1-.9,1h-3a117.07,117.07,0,0,1-23.76,67.89c9.19,4.4,17.44,9.86,23.27,18.6a5.34,5.34,0,0,1,.57,1h0l.19.44v.23a22,22,0,0,1-4.75,22.72c-5.95,6.45-14.74,9.45-21,10.81h-.22a1,1,0,0,1-.64-.23,1,1,0,0,1-.36-.62h-.31l-1,.19-2.07.33a85.19,85.19,0,0,1-9,.89v3.7h4.72a1,1,0,0,1,1,1h0v5h.33a1,1,0,0,1,1,1v23.29a1,1,0,0,1-1,1h-.33V-1473a12.5,12.5,0,0,1-6,9.92,14.31,14.31,0,0,1-7.94,1.86H654.59a14.48,14.48,0,0,1-2.6,1,15.69,15.69,0,0,1-3,.52H634.65c-.33,9.15-1,18.39-1.61,26.63-.17,2.32-.35,4.63-.54,7l-.23,3a1.1,1.1,0,0,1,.73.29,1.08,1.08,0,0,1,.31.72c1.19,150.1,3.26,304.3,6.3,471.42-.47,123.9,99.59,224.71,223.48,225.18h.17c123.88-.31,224.06-101,223.78-224.85v-67.36a1,1,0,0,1,1-1h0c-1.74-7.21-12.4-15.33-17.15-18.91-2.87-2.06-5.66-4.13-8.45-6.2-4.73-3.41-9.63-6.92-14.22-10.74-18.94-15.79-22.35-31.14-11.09-49.59a1.1,1.1,0,0,1,.12-.83l3.72-5.58-.17-3.28h0a1.22,1.22,0,0,1,.17-.56h0l5.91-8.89a77.77,77.77,0,0,1-29.84-61,77.4,77.4,0,0,1,77.35-77.42,77.4,77.4,0,0,1,77.42,77.36,77.35,77.35,0,0,1-29.86,61.09l5.89,8.83a.74.74,0,0,1,.12.29.81.81,0,0,1,0,.31h0l-.18,3.28,3.71,5.58a1,1,0,0,1,.17.64h0c11.36,18.6,7.89,34-11.32,49.94-4.51,3.74-9.32,7.21-14,10.56-2.83,2.07-5.66,4.13-8.45,6.2-4.78,3.62-15.42,11.7-17.15,18.89h0a1,1,0,0,1,1,1v67.36c.36,132-106.33,239.29-238.32,239.69h0A239,239,0,0,1,632.52-892V224.63a914,914,0,0,0,748.59-440.11Z"/></g></svg>