<svg xmlns="http://www.w3.org/2000/svg" viewBox="0 0 1200 400"><defs><style>.cls-1,.cls-2{fill:none;stroke:#000;stroke-linecap:round;stroke-linejoin:round;}.cls-1{stroke-width:0.75px;}.cls-2{stroke-width:0.35px;}</style></defs><title>SPK M </title><g id="SPK-P_cable_base_print" data-name="SPK-P cable base print"><path class="cls-1" d="M525.42,171.47l-121.2-69.9a4.3,4.3,0,0,1-1.9-2.1,2.56,2.56,0,0,1,.6-2.5,4,4,0,0,1,1.2-1c.3-.2.4-.2.7-.4a2.65,2.65,0,0,0,.6-.5,2.72,2.72,0,0,0,.9-2.4,3.45,3.45,0,0,0-1.7-2.2c-.1,0-.1-.1-.2-.1h-.1a4.35,4.35,0,0,0-.7-.4c-.9-.5-1.9-1.1-2.8-1.6-7.5-4.3-15-8.7-22.6-13s-15-8.7-22.6-13a4.35,4.35,0,0,0-.7-.4,5.78,5.78,0,0,0-1.7-.6,10.42,10.42,0,0,0-4.3-.2,7.34,7.34,0,0,0-2,.5,6.89,6.89,0,0,0-.8.3c-.1.1-.2.1-.4.2a.1.1,0,0,0-.1.1h0c-1.9,1.1-3.7,2.2-5.6,3.2l-45.3,26.1-121.2,69.9c-10.2,5.9-20.4,11.8-30.7,17.7-5.1,2.9-10.2,5.9-15.3,8.8-2.6,1.5-5.1,2.9-7.7,4.4a.1.1,0,0,0-.1.1.35.35,0,0,0-.2.1c-.1.1-.3.2-.4.3a2.34,2.34,0,0,0-.7.7,2.52,2.52,0,0,0-.6,1.7,3.49,3.49,0,0,0,.6,1.7,4.62,4.62,0,0,0,.7.7c.1.1.3.2.4.3s.1.1.2.1l.6.3c1.3.8,2.7,1.5,4,2.3,2.7,1.5,5.4,3.1,8.1,4.7l16.2,9.3c10.8,6.2,21.5,12.4,32.3,18.6l121.2,69.9c10.8,6.2,21.5,12.4,32.3,18.6,5.4,3.1,10.8,6.2,16.1,9.3l7.8,4.5h0a.35.35,0,0,1,.2.1c.2.1.3.2.5.2a5.64,5.64,0,0,0,1.2.4,13.52,13.52,0,0,0,2.9.4,9.25,9.25,0,0,0,2.9-.4,5.64,5.64,0,0,0,1.2-.4c.2-.1.3-.2.5-.3a.35.35,0,0,0,.2-.1h0c.9-.5,1.8-1,2.6-1.5,2.6-1.5,5.1-2.9,7.7-4.4,5.1-2.9,10.2-5.9,15.3-8.8l30.6-17.7,121.2-69.9,45.3-26.1c1-.6,2.1-1.2,3.1-1.8h.1c.1-.1.2-.1.3-.2a2.65,2.65,0,0,0,.6-.5,4.44,4.44,0,0,0,.8-1.1,2.75,2.75,0,0,0-.4-2.5,5.24,5.24,0,0,0-1.1-1c-.1,0-.1-.1-.2-.1-.3-.2-.6-.3-.9-.5-7.5-4.3-15-8.7-22.5-13s-15-8.7-22.5-13c-.9-.5-1.9-1.1-2.8-1.6-.1,0-.2-.1-.3-.1a.1.1,0,0,1-.1-.1c-.1,0-.1-.1-.2-.1a5.78,5.78,0,0,0-1.7-.6,7.61,7.61,0,0,0-2.1-.3,11.83,11.83,0,0,0-4.2.5,6.89,6.89,0,0,0-.8.3c-.1.1-.3.1-.4.2s-.2.1-.3.2a8.65,8.65,0,0,1-1.7.7,12.58,12.58,0,0,1-4.3.4,11.8,11.8,0,0,1-2-.4,14,14,0,0,0-1.6-1Z"/><line class="cls-2" x1="322.02" y1="207.57" x2="322.02" y2="221.27"/><path class="cls-1" d="M303.72,215.57a26.73,26.73,0,0,0,4,.1"/><path class="cls-1" d="M292.42,206.77a4.53,4.53,0,0,0,.2,2.3"/><line class="cls-1" x1="292.62" y1="209.07" x2="292.62" y2="249.97"/><path class="cls-1" d="M303.72,240.37c-3.6.4-9.7,2.2-11.1,6.4"/><line class="cls-1" x1="303.72" y1="215.57" x2="303.72" y2="256.37"/><path class="cls-1" d="M292.62,209.07c-.9-.6-1.8-1.3-2.6-1.9"/><path class="cls-1" d="M307.12,217.07l-3.3-1.5"/><path class="cls-1" d="M292.62,250c-9.8-6.9-19.1-17.4-19.1-30.7"/><path class="cls-1" d="M440.22,178.07l-.1,41.2c0,14.2-10.5,25.1-21.1,32-11,7.2-24.4,11.6-37.2,13.9-24.9,4.6-54.8,2.4-78.2-8.8"/><path class="cls-2" d="M307.92,216.47c4.1-.2,9.9-1.6,12.7-5.2a5.57,5.57,0,0,0,.6-6.6,11.32,11.32,0,0,0-5.4-4.3,25.35,25.35,0,0,0-13.9-1.4c-3.8.7-10.1,2.9-10.8,7.8"/><path class="cls-2" d="M431.22,198.27c-8.4-10.5-21.9-17.4-34.2-21.4a135.51,135.51,0,0,0-80.4,0c-12.3,4-25.7,10.8-34.2,21.4"/><path class="cls-2" d="M291,206.77c-13.6-10.5-21.6-26.3-12.1-42.9,3.8-6.6,9.7-12,15.9-16.2a87.62,87.62,0,0,1,23.9-10.9c29.2-8.8,68.5-7.3,95.8,8.2,7.4,4.2,14.6,9.9,19.3,17.3,4.2,6.6,6.1,14.1,4.4,21.9-1.6,7.6-6.2,14-11.7,19.1A71.23,71.23,0,0,1,404,217c-28.8,11.7-67.6,11.6-96.2-.7"/><path class="cls-1" d="M290,207.17c-13.8-10.7-21.9-26.8-12.3-43.8,3.9-6.8,9.8-12.3,16.2-16.5a88.36,88.36,0,0,1,24.2-11.1c29.6-9,69.6-7.5,97.4,8.4,7.5,4.3,14.8,10.1,19.6,17.6,4.3,6.7,6.2,14.4,4.5,22.4-1.6,7.7-6.3,14.3-11.8,19.5a73.46,73.46,0,0,1-22.8,14c-29.2,11.9-68.7,11.8-97.8-.7"/><path class="cls-1" d="M307.72,215.67c3.8-.2,9-1.4,11.6-4.7a5.12,5.12,0,0,0,.5-6,10.91,10.91,0,0,0-5-4,22,22,0,0,0-12.7-1.2c-3.4.6-9.2,2.7-9.9,7.1"/><line class="cls-1" x1="273.52" y1="219.27" x2="273.52" y2="178.67"/><path class="cls-1" d="M1010.42,171.47l-121.2-69.9a4.3,4.3,0,0,1-1.9-2.1,2.56,2.56,0,0,1,.6-2.5,4,4,0,0,1,1.2-1c.3-.2.4-.2.7-.4a2.65,2.65,0,0,0,.6-.5,2.72,2.72,0,0,0,.9-2.4,3.45,3.45,0,0,0-1.7-2.2c-.1,0-.1-.1-.2-.1h-.1a4.35,4.35,0,0,0-.7-.4c-.9-.5-1.9-1.1-2.8-1.6-7.5-4.3-15-8.7-22.6-13s-15-8.7-22.5-13a4.35,4.35,0,0,0-.7-.4,5.78,5.78,0,0,0-1.7-.6,10.42,10.42,0,0,0-4.3-.2,7.34,7.34,0,0,0-2,.5,6.89,6.89,0,0,0-.8.3c-.1.1-.3.1-.4.2a.1.1,0,0,0-.1.1h0c-1.9,1.1-3.7,2.2-5.6,3.2l-45.3,26.1-121.2,69.9c-10.2,5.9-20.4,11.8-30.7,17.7-5.1,2.9-10.2,5.9-15.3,8.8-2.6,1.5-5.1,2.9-7.7,4.4a.1.1,0,0,0-.1.1.35.35,0,0,0-.2.1c-.1.1-.3.2-.4.3a2.34,2.34,0,0,0-.7.7,2.52,2.52,0,0,0-.6,1.7,3.49,3.49,0,0,0,.6,1.7,4.62,4.62,0,0,0,.7.7c.1.1.3.2.4.3s.1.1.2.1l.6.3c1.3.8,2.7,1.5,4,2.3,2.7,1.5,5.4,3.1,8.1,4.7l16.2,9.3c10.8,6.2,21.5,12.4,32.3,18.6l121.2,69.9c10.8,6.2,21.5,12.4,32.3,18.6,5.4,3.1,10.8,6.2,16.1,9.3l7.8,4.5h0a.35.35,0,0,1,.2.1c.2.1.3.2.5.2a5.64,5.64,0,0,0,1.2.4,13.52,13.52,0,0,0,2.9.4,9.25,9.25,0,0,0,2.9-.4,5.64,5.64,0,0,0,1.2-.4c.2-.1.3-.2.5-.3a.35.35,0,0,0,.2-.1h0c.9-.5,1.8-1,2.6-1.5,2.5-1.5,5.1-2.9,7.7-4.4,5.1-2.9,10.2-5.9,15.3-8.8l30.6-17.7,121.2-69.9,45.3-26.1c1.1-.6,2.1-1.2,3.1-1.8h.1c.1-.1.2-.1.3-.2a2.65,2.65,0,0,0,.6-.5,4.44,4.44,0,0,0,.8-1.1,2.75,2.75,0,0,0-.4-2.5,5.24,5.24,0,0,0-1.1-1c-.1,0-.1-.1-.2-.1-.3-.2-.6-.3-.9-.5-7.5-4.3-15-8.7-22.5-13s-15-8.7-22.5-13c-.9-.5-1.9-1.1-2.8-1.6-.1,0-.2-.1-.3-.1a.1.1,0,0,1-.1-.1c-.1,0-.1-.1-.2-.1a4.92,4.92,0,0,0-1.7-.6,7.61,7.61,0,0,0-2.1-.3,11.83,11.83,0,0,0-4.2.5,6.89,6.89,0,0,0-.8.3c-.1.1-.2.1-.4.2s-.2.1-.3.2a8.65,8.65,0,0,1-1.7.7,12.58,12.58,0,0,1-4.3.4,11.8,11.8,0,0,1-2-.4c-.7-.4-1.2-.7-1.7-1Z"/><line class="cls-2" x1="806.92" y1="207.57" x2="806.92" y2="221.27"/><path class="cls-1" d="M788.72,215.57a26.73,26.73,0,0,0,4,.1"/><path class="cls-1" d="M777.32,206.77a6,6,0,0,0,.2,2.3"/><line class="cls-1" x1="777.52" y1="209.07" x2="777.52" y2="249.97"/><path class="cls-1" d="M788.72,240.37c-3.6.4-9.7,2.2-11.2,6.4"/><line class="cls-1" x1="788.72" y1="215.57" x2="788.72" y2="256.37"/><path class="cls-1" d="M777.52,209.07c-.9-.6-1.8-1.3-2.6-1.9"/><path class="cls-1" d="M792,217.07l-3.3-1.5"/><path class="cls-1" d="M777.52,250c-9.8-6.9-19.1-17.4-19.1-30.7"/><path class="cls-1" d="M925.12,178.07l-.1,41.2c0,14.2-10.5,25.1-21.1,32-11,7.2-24.4,11.6-37.1,13.9-24.9,4.6-54.8,2.4-78.2-8.8"/><path class="cls-2" d="M792.82,216.47c4.1-.2,9.9-1.6,12.7-5.2a5.57,5.57,0,0,0,.6-6.6,11.32,11.32,0,0,0-5.4-4.3,25.35,25.35,0,0,0-13.9-1.4c-3.8.7-10.1,2.9-10.8,7.8"/><path class="cls-2" d="M916.22,198.27c-8.4-10.5-21.9-17.4-34.2-21.4a135.51,135.51,0,0,0-80.4,0c-12.3,4-25.7,10.8-34.2,21.4"/><path class="cls-2" d="M776,206.77c-13.6-10.5-21.6-26.3-12.1-43,3.8-6.7,9.7-12,15.9-16.2a87.62,87.62,0,0,1,23.9-10.9c29.2-8.8,68.5-7.4,95.8,8.3,7.4,4.2,14.6,10,19.3,17.3,4.2,6.6,6.1,14.1,4.4,22-1.6,7.6-6.2,14-11.7,19.1-6.4,6-14.4,10.5-22.4,13.8-28.8,11.7-67.6,11.6-96.2-.7"/><path class="cls-1" d="M774.92,207.17c-13.8-10.7-21.9-26.8-12.3-43.8,3.8-6.8,9.8-12.3,16.2-16.5a88.36,88.36,0,0,1,24.2-11.1c29.6-9,69.6-7.5,97.4,8.4,7.5,4.3,14.8,10.1,19.6,17.6,4.3,6.7,6.2,14.4,4.5,22.4-1.6,7.7-6.3,14.3-11.8,19.5a73.46,73.46,0,0,1-22.8,14c-29.2,11.9-68.7,11.8-97.8-.7"/><path class="cls-1" d="M792.72,215.67c3.8-.2,9-1.4,11.6-4.7a5.12,5.12,0,0,0,.5-6,10.91,10.91,0,0,0-5-4,22,22,0,0,0-12.7-1.2c-3.4.6-9.2,2.7-9.9,7.1"/><line class="cls-1" x1="758.52" y1="219.27" x2="758.52" y2="178.67"/></g></svg>