<?xml version="1.0" encoding="utf-8"?>
<!-- Generator: Adobe Illustrator 23.0.0, SVG Export Plug-In . SVG Version: 6.00 Build 0)  -->
<svg version="1.1" id="Capa_1" xmlns="http://www.w3.org/2000/svg" xmlns:xlink="http://www.w3.org/1999/xlink" x="0px" y="0px"
	 viewBox="0 0 1200 755.8" style="enable-background:new 0 0 1200 755.8;" xml:space="preserve">
<style type="text/css">
	.st0{fill:none;stroke:#FF0005;stroke-width:5.93;stroke-linecap:square;}
	.st1{fill:none;stroke:#0000FF;stroke-width:5.93;stroke-linecap:square;}
	.st2{fill:#0000FF;}
	.st3{fill:none;stroke:#000000;stroke-width:0.75;stroke-miterlimit:10;}
	.st4{fill:none;stroke:#000000;stroke-width:0.75;stroke-linecap:round;stroke-linejoin:round;}
	.st5{fill:none;stroke:#000000;stroke-width:0.35;stroke-linecap:round;stroke-linejoin:round;}
	.st6{fill:none;stroke:#000000;stroke-width:0.41;stroke-linecap:round;stroke-linejoin:round;}
	.st7{fill:#FF0005;stroke:#FF0005;stroke-width:0.75;stroke-miterlimit:10;}
	.st8{fill:#0000FF;stroke:#0000FF;stroke-width:0.75;stroke-miterlimit:10;}
	.st9{fill:#0000FF;stroke:#0000FF;stroke-width:0.75;stroke-linecap:round;stroke-linejoin:round;}
	.st10{fill:none;}
</style>
<title>SPK L</title>
<g id="SPK-P_step_cable_base_holes">
	<path class="st0" d="M284.3,405.4c-0.5-7.7-13.4-17.3-19.8-22.3c-8.6-6.7-17.8-12.8-26.4-19.6c-19.7-15.8-29.3-30.5-15.9-53.8"/>
	<path class="st1" d="M292,405.4c0.5-7.7,13.4-17.3,19.8-22.3c8.6-6.7,17.8-12.8,26.4-19.6c19.7-15.8,30.4-31.8,15.7-53.8"/>
	<path class="st2" d="M962.5,223.5c-5.7,6.2-14.3,9.7-22.2,11.4c0,0.2,0-0.2,0-0.3v-13.9c4.4-1,8.6-2.9,12.2-5.5
		c4-3.1,6-6.7,3.4-11.6c-0.7-0.8-1.3-1.5-2.1-2.3c-1-1-2.1-1.9-3.2-2.8c-1.4-1.1-2.8-2.1-4.3-3c-1.7-1.1-3.6-2.1-5.7-3.2
		c-1.5-0.8-3.1-1.5-4.7-2.3s-3.5-1.6-5.3-2.4v-12c0-0.7,0-1.3-0.1-2c3.4,1.4,6.8,2.8,10.2,4.4c1.3,0.6,2.6,1.2,3.9,1.9
		c9,4.6,16.4,9.8,22.1,18.5c0.2,0.3,0.4,0.7,0.5,1l0.3,0.7C970.4,208.2,968.5,217.3,962.5,223.5z"/>
	<path class="st3" d="M944.5,179.9c-1.3-0.7-2.6-1.3-3.9-1.9c-3.3-1.6-6.7-3-10.2-4.4c0.1,0.7,0.1,1.3,0.1,2v12
		c1.8,0.8,3.6,1.5,5.3,2.4c1.7,0.8,3.2,1.5,4.7,2.3c2.1,1.1,4,2.1,5.7,3.2c1.5,0.9,2.9,1.9,4.3,3c1.1,0.9,2.2,1.8,3.2,2.8
		c0.7,0.7,1.4,1.5,2.1,2.3c2.6,5,0.7,8.5-3.4,11.6c-3.6,2.7-7.8,4.6-12.2,5.5v1.2c-1.7-0.3-3.3-0.6-5-0.9l-2.3-0.3l-1.2-0.1
		c-2.4-0.3-4.8-0.4-7.2-0.5v5c3,0.1,6,0.3,9.1,0.6c0.8,0.1,1.7,0.2,2.5,0.4c0.7,0.1,1.3,0.3,2,0.4c0.4,0.1,0.8,0.2,1.1,0.3l1,0.3
		v1.6c-0.7,0.3-1.4,0.5-2.2,0.6c-0.7,0.2-1.3,0.3-2,0.4c-0.8,0.1-1.7,0.3-2.5,0.4l-1.4,0.1c-2.5,0.2-5.1,0.3-7.6,0.5v11.1h6v6.7h1.5
		v25.2h-1.5V393c0,3.2,0.3,6.2-1.1,9.3c-1.5,3.2-4.2,5.6-7.6,6.7c-2.4,0.7-7.6,0.5-9.9,0.5H902c-0.9,0.4-1.9,0.8-2.9,1.1
		c-1,0.3-2,0.4-3,0.5c-0.3,0-0.6,0-0.8,0h-15.7c0-0.5,0-1.1,0-1.6c0-0.3,0-0.5,0-0.8c0-1.5,0.1-3.1,0.1-4.6h-5c0,1.8,0,3.6-0.1,5.5
		c0,0.7,0,1.3-0.1,2c-0.5,13.9-1.6,27.7-2.7,41.6h5h1.2c0.4,47.2,0.8,94.3,1.3,141.5h-14c-0.5-47.1-1-94.3-1.3-141.4h1.2h5
		c-0.3-4-0.6-8-0.9-12c-0.1-2-0.3-4-0.4-6c-0.3-4.8-0.7-9.7-0.9-14.5c-0.1-1.3-0.1-2.5-0.2-3.8c-0.2-3.6-0.3-7.2-0.4-10.8
		c0-0.7,0-1.3,0-2h-5c0,1.5,0,3.1,0.1,4.6c0.1,2.7,0.2,5.4,0.3,8.1H821c0.1-2.7,0.3-5.4,0.3-8.1c0-1.5,0.1-3.1,0.1-4.6h-5
		c0,0.7,0,1.3,0,2c0,3.6-0.2,7.2-0.4,10.8c-0.1,1.3-0.1,2.5-0.2,3.8c-0.3,4.8-0.6,9.7-0.9,14.5l-0.3,4.5c0,0.5-0.1,1-0.1,1.5
		c-0.3,4-0.6,8-0.9,12h5h1.2c-0.4,47.1-0.8,94.3-1.4,141.4h-14c0.5-47.2,1-94.3,1.4-141.5h1.2h5c-1.1-13.8-2.2-27.7-2.7-41.5
		c0-0.7,0-1.3-0.1-2c-0.1-1.8-0.1-3.6-0.1-5.5h-5c0,1.5,0,3.1,0.1,4.6v0.8c0,0.5,0,1.1,0,1.6h-15.7c-0.3,0-0.6,0-0.8,0
		c-1-0.1-2-0.3-3-0.5c-1-0.3-2-0.6-2.9-1.1h-17.3c-6,0.2-11.3-4-12.5-9.9c-0.3-1.7-0.3-15.6-0.3-17.2V193.9"/>
	<line class="st4" x1="872.2" y1="414.7" x2="872.2" y2="414.7"/>
	<path class="st3" d="M952.5,215.2c-3.6,2.7-7.8,4.6-12.2,5.5v1.2c-1.7-0.3-3.3-0.6-5-0.9l-2.3-0.3l-1.2-0.1
		c-2.4-0.3-4.8-0.4-7.2-0.5v-5.3h6v-19.4c1.8-1.7,3.6-3.5,5.3-5.3c1.7,0.8,3.2,1.5,4.7,2.3c2.1,1.1,4,2.1,5.7,3.2
		c1.5,0.9,2.9,1.9,4.3,3c1.1,0.9,2.2,1.8,3.2,2.8c0.7,0.7,1.4,1.5,2.1,2.3C958.5,208.5,956.5,212.1,952.5,215.2z"/>
	<line class="st4" x1="872.2" y1="414.4" x2="872.2" y2="414.5"/>
	<line class="st4" x1="872.2" y1="414.5" x2="872.2" y2="414.5"/>
	<line class="st4" x1="872.2" y1="414.5" x2="872.2" y2="414.6"/>
	<line class="st4" x1="872.2" y1="414.6" x2="872.2" y2="414.6"/>
	<line class="st4" x1="872.2" y1="414.6" x2="872.2" y2="414.7"/>
	<path class="st3" d="M924.6,225c3,0.1,6,0.3,9.1,0.6c0.8,0.1,1.7,0.2,2.5,0.4c0.7,0.1,1.3,0.3,2,0.4c0.4,0.1,0.8,0.2,1.1,0.3l1,0.3
		v1.6c-0.7,0.3-1.4,0.5-2.2,0.6c-0.7,0.2-1.3,0.3-2,0.4c-0.8,0.1-1.7,0.3-2.5,0.4l-1.4,0.1c-2.5,0.2-5.1,0.3-7.6,0.5"/>
	<line class="st3" x1="924.6" y1="230.7" x2="924.6" y2="225"/>
	<line class="st5" x1="930.6" y1="185" x2="928.8" y2="185"/>
	<line class="st4" x1="928.8" y1="212" x2="930.6" y2="212"/>
	<line class="st5" x1="930.6" y1="248.5" x2="928.8" y2="248.5"/>
	<line class="st5" x1="928.8" y1="273.8" x2="930.6" y2="273.8"/>
	<line class="st5" x1="897.4" y1="253.2" x2="897.4" y2="269.1"/>
	<path class="st4" d="M879.7,409.5h22.4"/>
	<path class="st4" d="M876.9,453h-5"/>
	<path class="st4" d="M870.3,453.1h-5"/>
	<path class="st3" d="M874.6,411.5c-0.5,13.9-1.6,27.7-2.7,41.6h-1.5c-0.3-4-0.6-8-0.9-12c-0.1-2-0.3-4-0.4-6
		c-0.3-4.8-0.7-9.7-0.9-14.5c-0.1-1.3-0.1-2.5-0.2-3.8h2.3c1.1,0,2-0.9,2-2v-0.1l0,0v-0.1c0-0.3,0.1-0.6,0.2-0.9
		c0.1-0.3,0.3-0.6,0.5-0.9c0.2-0.3,0.5-0.5,0.8-0.8c0.2-0.1,0.3-0.2,0.5-0.3C874.2,411.6,874.4,411.5,874.6,411.5z"/>
	<path class="st3" d="M816,416.8c-0.1,1.3-0.1,2.5-0.2,3.8c-0.3,4.8-0.6,9.7-0.9,14.5l-0.3,4.5c0,0.5-0.1,1-0.1,1.5
		c-0.3,4-0.6,8-0.9,12H812c-1.1-13.8-2.2-27.7-2.7-41.5c0.4,0.1,0.7,0.3,1,0.5c0.3,0.2,0.5,0.5,0.8,0.8c0.2,0.3,0.4,0.6,0.5,0.9
		c0,0.2,0.1,0.3,0.1,0.5c0,0.2,0.1,0.3,0.1,0.5v0l0,0l0,0l0,0c0,1.1,0.9,2,2,2L816,416.8z"/>
	<path class="st4" d="M813.5,453.1h5"/>
	<path class="st4" d="M811.9,453.1h-5"/>
	<path class="st5" d="M806.2,384.1c1.8,0.3,3.2,1.6,3.8,3.3"/>
	<path class="st4" d="M781.7,409.5h22.4"/>
	<line class="st4" x1="751.7" y1="175.6" x2="751.7" y2="193.9"/>
	<path class="st4" d="M805.9,162.8"/>
	<path class="st4" d="M877.9,162.7"/>
	<polyline class="st5" points="860.7,167.8 873.5,179.1 873.5,250.7 808.9,250.7 808.9,179 822.7,167.8 	"/>
	<path class="st5" d="M839,167.8c-0.4,0.7-0.2,1.5,0.5,1.9c0.7,0.4,1.5,0.2,1.9-0.5c0.3-0.5,0.3-1,0-1.5"/>
	<path class="st5" d="M835.9,167.8c-0.4,2.3,1.2,4.6,3.5,5c2.3,0.4,4.6-1.2,5-3.5c0.1-0.5,0.1-1,0-1.4"/>
	<path class="st4" d="M813.6,157.1c-1.1,0-2,0.9-2,2l0,0v0.1l0,0v0.1l0,0l0,0l0,0v8.5c0,0.2,0.2,0,0.3,0h60.1c0.1,0,0.3,0.2,0.3,0
		V159c0-1.1-0.9-2-2-2L813.6,157.1z"/>
	<line class="st5" x1="817.9" y1="384.1" x2="817.9" y2="393.5"/>
	<line class="st5" x1="819.5" y1="393.5" x2="819.5" y2="384.1"/>
	<path class="st5" d="M819.5,384.1c1.8,0.3,3.2,1.6,3.8,3.3"/>
	<path class="st5" d="M823.3,387.4c0.8,2.5-0.7,5.2-3.2,6c-0.2,0.1-0.4,0.1-0.6,0.1"/>
	<path class="st5" d="M817.9,384.1c0.5-0.1,1.1-0.1,1.6,0"/>
	<path class="st5" d="M819.5,393.5c-0.5,0.1-1.1,0.1-1.6,0"/>
	<path class="st5" d="M817.9,393.5c-2.6-0.4-4.4-2.9-3.9-5.5c0.3-2,1.9-3.6,3.9-3.9"/>
	<line class="st5" x1="798.5" y1="373.6" x2="798.5" y2="380.7"/>
	<line class="st5" x1="798.5" y1="380.7" x2="825.6" y2="380.7"/>
	<line class="st5" x1="825.6" y1="380.7" x2="825.6" y2="396.9"/>
	<line class="st5" x1="825.6" y1="396.9" x2="798.5" y2="396.9"/>
	<line class="st5" x1="798.5" y1="396.9" x2="798.5" y2="380.7"/>
	<line class="st5" x1="804.6" y1="384.1" x2="804.6" y2="393.5"/>
	<line class="st5" x1="806.2" y1="393.5" x2="806.2" y2="384.1"/>
	<path class="st5" d="M810,387.4c0.8,2.5-0.7,5.2-3.2,6c-0.2,0.1-0.4,0.1-0.6,0.1"/>
	<path class="st5" d="M804.6,384.1c0.5-0.1,1.1-0.1,1.6,0"/>
	<path class="st5" d="M806.2,393.5c-0.5,0.1-1.1,0.1-1.6,0"/>
	<path class="st5" d="M804.6,393.5c-2.6-0.4-4.4-2.9-3.9-5.5c0.3-2,1.9-3.6,3.9-3.9"/>
	<line class="st5" x1="879.3" y1="384.1" x2="879.3" y2="393.5"/>
	<line class="st5" x1="877.7" y1="393.5" x2="877.7" y2="384.1"/>
	<path class="st5" d="M877.7,384.1c-1.8,0.3-3.2,1.6-3.8,3.3"/>
	<path class="st5" d="M873.9,387.4c-0.8,2.5,0.7,5.2,3.2,6c0.2,0.1,0.4,0.1,0.6,0.1"/>
	<path class="st5" d="M879.3,384.1c-0.5-0.1-1.1-0.1-1.6,0"/>
	<path class="st5" d="M877.7,393.5c0.5,0.1,1.1,0.1,1.6,0"/>
	<path class="st5" d="M879.3,393.5c2.6-0.4,4.4-2.9,3.9-5.5c-0.3-2-1.9-3.6-3.9-3.9"/>
	<line class="st5" x1="885.4" y1="373.6" x2="885.4" y2="380.7"/>
	<line class="st5" x1="885.4" y1="380.7" x2="858.3" y2="380.7"/>
	<line class="st5" x1="858.3" y1="380.7" x2="858.3" y2="396.9"/>
	<line class="st5" x1="858.3" y1="396.9" x2="885.4" y2="396.9"/>
	<line class="st5" x1="885.4" y1="396.9" x2="885.4" y2="380.7"/>
	<line class="st5" x1="866" y1="384.1" x2="866" y2="393.5"/>
	<line class="st5" x1="864.4" y1="393.5" x2="864.4" y2="384.1"/>
	<path class="st5" d="M864.4,384.1c-1.8,0.3-3.2,1.6-3.8,3.3"/>
	<path class="st5" d="M860.6,387.4c-0.8,2.5,0.7,5.2,3.2,6c0.2,0.1,0.4,0.1,0.6,0.1"/>
	<path class="st5" d="M866,384.1c-0.5-0.1-1.1-0.1-1.6,0"/>
	<path class="st5" d="M864.4,393.5c0.5,0.1,1.1,0.1,1.6,0"/>
	<path class="st5" d="M866,393.5c2.6-0.4,4.4-2.9,3.9-5.5c-0.3-2-1.9-3.6-3.9-3.9"/>
	<line class="st5" x1="904.8" y1="241.8" x2="910.8" y2="241.8"/>
	<line class="st5" x1="910.8" y1="241.8" x2="910.8" y2="214.7"/>
	<line class="st5" x1="910.8" y1="214.7" x2="924.6" y2="214.7"/>
	<line class="st5" x1="924.6" y1="241.8" x2="910.8" y2="241.8"/>
	<line class="st5" x1="905" y1="193.6" x2="905" y2="171.9"/>
	<line class="st5" x1="880.2" y1="193.6" x2="880.2" y2="171.9"/>
	<line class="st5" x1="905" y1="193.6" x2="880.2" y2="193.6"/>
	<line class="st5" x1="905" y1="171.9" x2="880.2" y2="171.9"/>
	<line class="st5" x1="777.3" y1="193.6" x2="777.3" y2="171.9"/>
	<line class="st5" x1="802.1" y1="193.6" x2="802.1" y2="171.9"/>
	<line class="st5" x1="777.3" y1="193.6" x2="802.1" y2="193.6"/>
	<line class="st5" x1="777.3" y1="171.9" x2="802.1" y2="171.9"/>
	<path class="st5" d="M761.4,212.6c0.6,0,0.8-0.2,0.8-0.8s-0.2-0.8-0.8-0.8s-0.8,0.2-0.8,0.8S760.8,212.6,761.4,212.6z"/>
	<path class="st5" d="M761.4,219c0.6,0,0.8-0.2,0.8-0.8s-0.2-0.8-0.8-0.8s-0.8,0.3-0.8,0.8S760.8,219,761.4,219z"/>
	<path class="st5" d="M761.4,225.5c0.6,0,0.8-0.2,0.8-0.8s-0.2-0.8-0.8-0.8s-0.8,0.3-0.8,0.8S760.8,225.5,761.4,225.5z"/>
	<line class="st5" x1="768.8" y1="209.2" x2="768.8" y2="213.7"/>
	<line class="st5" x1="766.9" y1="209.2" x2="766.9" y2="213.7"/>
	<line class="st5" x1="766.9" y1="213.7" x2="766.9" y2="222.7"/>
	<line class="st5" x1="768.8" y1="222.7" x2="768.8" y2="213.7"/>
	<line class="st5" x1="768.8" y1="222.7" x2="768.8" y2="227.2"/>
	<line class="st5" x1="766.9" y1="222.7" x2="766.9" y2="227.2"/>
	<line class="st5" x1="766.9" y1="227.2" x2="766.9" y2="229.9"/>
	<line class="st5" x1="766.9" y1="229.9" x2="766.9" y2="229.9"/>
	<line class="st5" x1="766.9" y1="229.9" x2="766.9" y2="231.7"/>
	<line class="st5" x1="766.9" y1="231.7" x2="768.8" y2="231.7"/>
	<line class="st5" x1="768.8" y1="231.7" x2="768.8" y2="227.2"/>
	<line class="st5" x1="764.7" y1="231.7" x2="764.7" y2="229.9"/>
	<line class="st5" x1="764.7" y1="206.5" x2="764.7" y2="204.7"/>
	<line class="st5" x1="766.9" y1="204.7" x2="766.9" y2="206.5"/>
	<line class="st5" x1="766.9" y1="231.7" x2="764.7" y2="231.7"/>
	<line class="st5" x1="766.9" y1="229.9" x2="764.7" y2="229.9"/>
	<line class="st5" x1="764.7" y1="204.7" x2="766.9" y2="204.7"/>
	<line class="st5" x1="764.7" y1="206.5" x2="766.9" y2="206.5"/>
	<line class="st5" x1="768.8" y1="209.2" x2="768.8" y2="204.7"/>
	<line class="st5" x1="768.8" y1="204.7" x2="766.9" y2="204.7"/>
	<line class="st5" x1="766.9" y1="206.5" x2="766.9" y2="206.5"/>
	<line class="st5" x1="766.9" y1="206.5" x2="766.9" y2="209.2"/>
	<line class="st5" x1="753.6" y1="229.9" x2="753.6" y2="206.5"/>
	<line class="st5" x1="764.7" y1="229.9" x2="753.6" y2="229.9"/>
	<line class="st5" x1="753.6" y1="206.5" x2="764.7" y2="206.5"/>
	<line class="st5" x1="764.7" y1="204.7" x2="751.7" y2="204.7"/>
	<line class="st5" x1="751.7" y1="231.7" x2="764.7" y2="231.7"/>
	<path class="st5" d="M761.4,283.5c0.6,0,0.8-0.2,0.8-0.8s-0.2-0.8-0.8-0.8s-0.8,0.2-0.8,0.8S760.8,283.5,761.4,283.5z"/>
	<path class="st5" d="M761.4,290c0.6,0,0.8-0.2,0.8-0.8s-0.2-0.8-0.8-0.8s-0.8,0.3-0.8,0.8S760.8,290,761.4,290z"/>
	<path class="st5" d="M761.4,242.4c0.6,0,0.8-0.3,0.8-0.8s-0.2-0.8-0.8-0.8s-0.8,0.3-0.8,0.8S760.8,242.4,761.4,242.4z"/>
	<path class="st5" d="M761.4,248.8c0.6,0,0.8-0.3,0.8-0.8s-0.2-0.8-0.8-0.8s-0.8,0.2-0.8,0.8S760.8,248.8,761.4,248.8z"/>
	<path class="st5" d="M761.4,255.3c0.6,0,0.8-0.2,0.8-0.8s-0.2-0.8-0.8-0.8s-0.8,0.2-0.8,0.8S760.8,255.3,761.4,255.3z"/>
	<path class="st5" d="M761.4,268.2c0.6,0,0.8-0.2,0.8-0.8s-0.2-0.8-0.8-0.8s-0.8,0.3-0.8,0.8S760.8,268.2,761.4,268.2z"/>
	<path class="st5" d="M761.4,261.7c0.6,0,0.8-0.2,0.8-0.8s-0.2-0.8-0.8-0.8s-0.8,0.2-0.8,0.8S760.8,261.7,761.4,261.7z"/>
	<line class="st5" x1="882.3" y1="270.4" x2="877.7" y2="277.2"/>
	<line class="st5" x1="890.5" y1="270.9" x2="882.3" y2="270.4"/>
	<line class="st5" x1="894.1" y1="278.3" x2="890.5" y2="270.9"/>
	<line class="st5" x1="889.6" y1="285.1" x2="894.1" y2="278.3"/>
	<line class="st5" x1="881.4" y1="284.6" x2="889.6" y2="285.1"/>
	<line class="st5" x1="877.7" y1="277.2" x2="881.4" y2="284.6"/>
	<circle class="st5" cx="799.4" cy="357" r="10.7"/>
	<line class="st5" x1="806.8" y1="343.7" x2="812.5" y2="349.4"/>
	<line class="st5" x1="786.3" y1="343.7" x2="806.8" y2="343.7"/>
	<line class="st5" x1="786.3" y1="364.4" x2="786.3" y2="343.7"/>
	<line class="st5" x1="791.9" y1="370.2" x2="786.3" y2="364.4"/>
	<line class="st5" x1="812.5" y1="370.2" x2="791.9" y2="370.2"/>
	<line class="st5" x1="812.5" y1="349.4" x2="812.5" y2="370.2"/>
	
		<ellipse transform="matrix(0.2297 -0.9733 0.9733 0.2297 268.3674 1052.9604)" class="st5" cx="799.4" cy="356.9" rx="9.6" ry="9.6"/>
	<circle class="st5" cx="827.3" cy="357" r="10.7"/>
	<line class="st5" x1="834.7" y1="343.7" x2="840.4" y2="349.4"/>
	<line class="st5" x1="814.1" y1="343.7" x2="834.7" y2="343.7"/>
	<line class="st5" x1="814.1" y1="364.4" x2="814.1" y2="343.7"/>
	<line class="st5" x1="819.7" y1="370.2" x2="814.1" y2="364.4"/>
	<line class="st5" x1="840.4" y1="370.2" x2="819.7" y2="370.2"/>
	<line class="st5" x1="840.4" y1="349.4" x2="840.4" y2="370.2"/>
	
		<ellipse transform="matrix(0.2297 -0.9733 0.9733 0.2297 289.8155 1080.0493)" class="st5" cx="827.2" cy="356.9" rx="9.6" ry="9.6"/>
	<circle class="st5" cx="855.1" cy="356.9" r="10.7"/>
	<line class="st5" x1="862.5" y1="343.7" x2="868.2" y2="349.4"/>
	<line class="st5" x1="842" y1="343.7" x2="862.5" y2="343.7"/>
	<line class="st5" x1="842" y1="364.4" x2="842" y2="343.7"/>
	<line class="st5" x1="847.6" y1="370.2" x2="842" y2="364.4"/>
	<line class="st5" x1="868.2" y1="370.2" x2="847.6" y2="370.2"/>
	<line class="st5" x1="868.2" y1="349.4" x2="868.2" y2="370.2"/>
	<ellipse transform="matrix(0.7071 -0.7071 0.7071 0.7071 -1.9616 709.2037)" class="st5" cx="855.1" cy="357" rx="9.6" ry="9.6"/>
	<circle class="st5" cx="882.7" cy="356.8" r="9.6"/>
	<circle class="st5" cx="882.7" cy="356.8" r="10.7"/>
	<line class="st5" x1="890.2" y1="343.6" x2="895.9" y2="349.2"/>
	<line class="st5" x1="869.6" y1="343.6" x2="890.2" y2="343.6"/>
	<line class="st5" x1="869.6" y1="364.3" x2="869.6" y2="343.6"/>
	<line class="st5" x1="875.2" y1="370" x2="869.6" y2="364.3"/>
	<line class="st5" x1="895.9" y1="370" x2="875.2" y2="370"/>
	<line class="st5" x1="895.9" y1="349.2" x2="895.9" y2="370"/>
	<line class="st5" x1="874.9" y1="327.5" x2="873.1" y2="327.5"/>
	<line class="st5" x1="874.9" y1="340.4" x2="874.9" y2="327.5"/>
	<line class="st5" x1="873.1" y1="340.4" x2="874.9" y2="340.4"/>
	<line class="st5" x1="873.1" y1="327.5" x2="873.1" y2="340.4"/>
	<line class="st5" x1="874.9" y1="310.9" x2="873.1" y2="310.9"/>
	<line class="st5" x1="874.9" y1="323.8" x2="874.9" y2="310.9"/>
	<line class="st5" x1="873.1" y1="323.8" x2="874.9" y2="323.8"/>
	<line class="st5" x1="873.1" y1="310.9" x2="873.1" y2="323.8"/>
	<line class="st5" x1="874.9" y1="294.3" x2="873.1" y2="294.3"/>
	<line class="st5" x1="874.9" y1="307.2" x2="874.9" y2="294.3"/>
	<line class="st5" x1="873.1" y1="307.2" x2="874.9" y2="307.2"/>
	<line class="st5" x1="873.1" y1="294.3" x2="873.1" y2="307.2"/>
	<line class="st5" x1="874.9" y1="277.7" x2="873.1" y2="277.7"/>
	<line class="st5" x1="874.9" y1="290.6" x2="874.9" y2="277.7"/>
	<line class="st5" x1="873.1" y1="290.6" x2="874.9" y2="290.6"/>
	<line class="st5" x1="873.1" y1="277.7" x2="873.1" y2="290.6"/>
	<line class="st5" x1="874.9" y1="261.1" x2="873.1" y2="261.1"/>
	<line class="st5" x1="874.9" y1="274" x2="874.9" y2="261.1"/>
	<line class="st5" x1="873.1" y1="274" x2="874.9" y2="274"/>
	<line class="st5" x1="873.1" y1="261.1" x2="873.1" y2="274"/>
	<line class="st5" x1="867.9" y1="327.5" x2="866.1" y2="327.5"/>
	<line class="st5" x1="867.9" y1="340.4" x2="867.9" y2="327.5"/>
	<line class="st5" x1="866.1" y1="340.4" x2="867.9" y2="340.4"/>
	<line class="st5" x1="866.1" y1="327.5" x2="866.1" y2="340.4"/>
	<line class="st5" x1="867.9" y1="310.9" x2="866.1" y2="310.9"/>
	<line class="st5" x1="867.9" y1="323.8" x2="867.9" y2="310.9"/>
	<line class="st5" x1="866.1" y1="323.8" x2="867.9" y2="323.8"/>
	<line class="st5" x1="866.1" y1="310.9" x2="866.1" y2="323.8"/>
	<line class="st5" x1="867.9" y1="294.3" x2="866.1" y2="294.3"/>
	<line class="st5" x1="867.9" y1="307.2" x2="867.9" y2="294.3"/>
	<line class="st5" x1="866.1" y1="307.2" x2="867.9" y2="307.2"/>
	<line class="st5" x1="866.1" y1="294.3" x2="866.1" y2="307.2"/>
	<line class="st5" x1="867.9" y1="277.7" x2="866.1" y2="277.7"/>
	<line class="st5" x1="867.9" y1="290.6" x2="867.9" y2="277.7"/>
	<line class="st5" x1="866.1" y1="290.6" x2="867.9" y2="290.6"/>
	<line class="st5" x1="866.1" y1="277.7" x2="866.1" y2="290.6"/>
	<line class="st5" x1="867.9" y1="261.1" x2="866.1" y2="261.1"/>
	<line class="st5" x1="867.9" y1="274" x2="867.9" y2="261.1"/>
	<line class="st5" x1="866.1" y1="274" x2="867.9" y2="274"/>
	<line class="st5" x1="866.1" y1="261.1" x2="866.1" y2="274"/>
	<line class="st5" x1="860.9" y1="261.1" x2="859.1" y2="261.1"/>
	<line class="st5" x1="860.9" y1="274" x2="860.9" y2="261.1"/>
	<line class="st5" x1="859.1" y1="274" x2="860.9" y2="274"/>
	<line class="st5" x1="859.1" y1="261.1" x2="859.1" y2="274"/>
	<line class="st5" x1="860.9" y1="277.7" x2="859.1" y2="277.7"/>
	<line class="st5" x1="860.9" y1="290.6" x2="860.9" y2="277.7"/>
	<line class="st5" x1="859.1" y1="290.6" x2="860.9" y2="290.6"/>
	<line class="st5" x1="859.1" y1="277.7" x2="859.1" y2="290.6"/>
	<line class="st5" x1="860.9" y1="294.3" x2="859.1" y2="294.3"/>
	<line class="st5" x1="860.9" y1="307.2" x2="860.9" y2="294.3"/>
	<line class="st5" x1="859.1" y1="307.2" x2="860.9" y2="307.2"/>
	<line class="st5" x1="859.1" y1="294.3" x2="859.1" y2="307.2"/>
	<line class="st5" x1="860.9" y1="310.9" x2="859.1" y2="310.9"/>
	<line class="st5" x1="860.9" y1="323.8" x2="860.9" y2="310.9"/>
	<line class="st5" x1="859.1" y1="323.8" x2="860.9" y2="323.8"/>
	<line class="st5" x1="859.1" y1="310.9" x2="859.1" y2="323.8"/>
	<line class="st5" x1="860.9" y1="327.5" x2="859.1" y2="327.5"/>
	<line class="st5" x1="860.9" y1="340.4" x2="860.9" y2="327.5"/>
	<line class="st5" x1="859.1" y1="340.4" x2="860.9" y2="340.4"/>
	<line class="st5" x1="859.1" y1="327.5" x2="859.1" y2="340.4"/>
	<line class="st5" x1="854" y1="261.1" x2="852.2" y2="261.1"/>
	<line class="st5" x1="854" y1="274" x2="854" y2="261.1"/>
	<line class="st5" x1="852.2" y1="274" x2="854" y2="274"/>
	<line class="st5" x1="852.2" y1="261.1" x2="852.2" y2="274"/>
	<line class="st5" x1="854" y1="277.7" x2="852.2" y2="277.7"/>
	<line class="st5" x1="854" y1="290.6" x2="854" y2="277.7"/>
	<line class="st5" x1="852.2" y1="290.6" x2="854" y2="290.6"/>
	<line class="st5" x1="852.2" y1="277.7" x2="852.2" y2="290.6"/>
	<line class="st5" x1="854" y1="294.3" x2="852.2" y2="294.3"/>
	<line class="st5" x1="854" y1="307.2" x2="854" y2="294.3"/>
	<line class="st5" x1="852.2" y1="307.2" x2="854" y2="307.2"/>
	<line class="st5" x1="852.2" y1="294.3" x2="852.2" y2="307.2"/>
	<line class="st5" x1="854" y1="310.9" x2="852.2" y2="310.9"/>
	<line class="st5" x1="854" y1="323.8" x2="854" y2="310.9"/>
	<line class="st5" x1="852.2" y1="323.8" x2="854" y2="323.8"/>
	<line class="st5" x1="852.2" y1="310.9" x2="852.2" y2="323.8"/>
	<line class="st5" x1="854" y1="327.5" x2="852.2" y2="327.5"/>
	<line class="st5" x1="854" y1="340.4" x2="854" y2="327.5"/>
	<line class="st5" x1="852.2" y1="340.4" x2="854" y2="340.4"/>
	<line class="st5" x1="852.2" y1="327.5" x2="852.2" y2="340.4"/>
	<line class="st5" x1="847" y1="261.1" x2="845.2" y2="261.1"/>
	<line class="st5" x1="847" y1="274" x2="847" y2="261.1"/>
	<line class="st5" x1="845.2" y1="274" x2="847" y2="274"/>
	<line class="st5" x1="845.2" y1="261.1" x2="845.2" y2="274"/>
	<line class="st5" x1="847" y1="277.7" x2="845.2" y2="277.7"/>
	<line class="st5" x1="847" y1="290.6" x2="847" y2="277.7"/>
	<line class="st5" x1="845.2" y1="290.6" x2="847" y2="290.6"/>
	<line class="st5" x1="845.2" y1="277.7" x2="845.2" y2="290.6"/>
	<line class="st5" x1="847" y1="294.3" x2="845.2" y2="294.3"/>
	<line class="st5" x1="847" y1="307.2" x2="847" y2="294.3"/>
	<line class="st5" x1="845.2" y1="307.2" x2="847" y2="307.2"/>
	<line class="st5" x1="845.2" y1="294.3" x2="845.2" y2="307.2"/>
	<line class="st5" x1="847" y1="310.9" x2="845.2" y2="310.9"/>
	<line class="st5" x1="847" y1="323.8" x2="847" y2="310.9"/>
	<line class="st5" x1="845.2" y1="323.8" x2="847" y2="323.8"/>
	<line class="st5" x1="845.2" y1="310.9" x2="845.2" y2="323.8"/>
	<line class="st5" x1="847" y1="327.5" x2="845.2" y2="327.5"/>
	<line class="st5" x1="847" y1="340.4" x2="847" y2="327.5"/>
	<line class="st5" x1="845.2" y1="340.4" x2="847" y2="340.4"/>
	<line class="st5" x1="845.2" y1="327.5" x2="845.2" y2="340.4"/>
	<line class="st5" x1="840.1" y1="261.1" x2="838.3" y2="261.1"/>
	<line class="st5" x1="840.1" y1="274" x2="840.1" y2="261.1"/>
	<line class="st5" x1="838.3" y1="274" x2="840.1" y2="274"/>
	<line class="st5" x1="838.3" y1="261.1" x2="838.3" y2="274"/>
	<line class="st5" x1="840.1" y1="277.7" x2="838.3" y2="277.7"/>
	<line class="st5" x1="840.1" y1="290.6" x2="840.1" y2="277.7"/>
	<line class="st5" x1="838.3" y1="290.6" x2="840.1" y2="290.6"/>
	<line class="st5" x1="838.3" y1="277.7" x2="838.3" y2="290.6"/>
	<line class="st5" x1="840.1" y1="294.3" x2="838.3" y2="294.3"/>
	<line class="st5" x1="840.1" y1="307.2" x2="840.1" y2="294.3"/>
	<line class="st5" x1="838.3" y1="307.2" x2="840.1" y2="307.2"/>
	<line class="st5" x1="838.3" y1="294.3" x2="838.3" y2="307.2"/>
	<line class="st5" x1="840.1" y1="310.9" x2="838.3" y2="310.9"/>
	<line class="st5" x1="840.1" y1="323.8" x2="840.1" y2="310.9"/>
	<line class="st5" x1="838.3" y1="323.8" x2="840.1" y2="323.8"/>
	<line class="st5" x1="838.3" y1="310.9" x2="838.3" y2="323.8"/>
	<line class="st5" x1="840.1" y1="327.5" x2="838.3" y2="327.5"/>
	<line class="st5" x1="840.1" y1="340.4" x2="840.1" y2="327.5"/>
	<line class="st5" x1="838.3" y1="340.4" x2="840.1" y2="340.4"/>
	<line class="st5" x1="838.3" y1="327.5" x2="838.3" y2="340.4"/>
	<line class="st5" x1="833.1" y1="261.1" x2="831.3" y2="261.1"/>
	<line class="st5" x1="833.1" y1="274" x2="833.1" y2="261.1"/>
	<line class="st5" x1="831.3" y1="274" x2="833.1" y2="274"/>
	<line class="st5" x1="831.3" y1="261.1" x2="831.3" y2="274"/>
	<line class="st5" x1="833.1" y1="277.7" x2="831.3" y2="277.7"/>
	<line class="st5" x1="833.1" y1="290.6" x2="833.1" y2="277.7"/>
	<line class="st5" x1="831.3" y1="290.6" x2="833.1" y2="290.6"/>
	<line class="st5" x1="831.3" y1="277.7" x2="831.3" y2="290.6"/>
	<line class="st5" x1="833.1" y1="294.3" x2="831.3" y2="294.3"/>
	<line class="st5" x1="833.1" y1="307.2" x2="833.1" y2="294.3"/>
	<line class="st5" x1="831.3" y1="307.2" x2="833.1" y2="307.2"/>
	<line class="st5" x1="831.3" y1="294.3" x2="831.3" y2="307.2"/>
	<line class="st5" x1="833.1" y1="310.9" x2="831.3" y2="310.9"/>
	<line class="st5" x1="833.1" y1="323.8" x2="833.1" y2="310.9"/>
	<line class="st5" x1="831.3" y1="323.8" x2="833.1" y2="323.8"/>
	<line class="st5" x1="831.3" y1="310.9" x2="831.3" y2="323.8"/>
	<line class="st5" x1="833.1" y1="327.5" x2="831.3" y2="327.5"/>
	<line class="st5" x1="833.1" y1="340.4" x2="833.1" y2="327.5"/>
	<line class="st5" x1="831.3" y1="340.4" x2="833.1" y2="340.4"/>
	<line class="st5" x1="831.3" y1="327.5" x2="831.3" y2="340.4"/>
	<line class="st5" x1="826.1" y1="261.1" x2="824.3" y2="261.1"/>
	<line class="st5" x1="826.1" y1="274" x2="826.1" y2="261.1"/>
	<line class="st5" x1="824.3" y1="274" x2="826.1" y2="274"/>
	<line class="st5" x1="824.3" y1="261.1" x2="824.3" y2="274"/>
	<line class="st5" x1="826.1" y1="277.7" x2="824.3" y2="277.7"/>
	<line class="st5" x1="826.1" y1="290.6" x2="826.1" y2="277.7"/>
	<line class="st5" x1="824.3" y1="290.6" x2="826.1" y2="290.6"/>
	<line class="st5" x1="824.3" y1="277.7" x2="824.3" y2="290.6"/>
	<line class="st5" x1="826.1" y1="294.3" x2="824.3" y2="294.3"/>
	<line class="st5" x1="826.1" y1="307.2" x2="826.1" y2="294.3"/>
	<line class="st5" x1="824.3" y1="307.2" x2="826.1" y2="307.2"/>
	<line class="st5" x1="824.3" y1="294.3" x2="824.3" y2="307.2"/>
	<line class="st5" x1="826.1" y1="310.9" x2="824.3" y2="310.9"/>
	<line class="st5" x1="826.1" y1="323.8" x2="826.1" y2="310.9"/>
	<line class="st5" x1="824.3" y1="323.8" x2="826.1" y2="323.8"/>
	<line class="st5" x1="824.3" y1="310.9" x2="824.3" y2="323.8"/>
	<line class="st5" x1="826.1" y1="327.5" x2="824.3" y2="327.5"/>
	<line class="st5" x1="826.1" y1="340.4" x2="826.1" y2="327.5"/>
	<line class="st5" x1="824.3" y1="340.4" x2="826.1" y2="340.4"/>
	<line class="st5" x1="824.3" y1="327.5" x2="824.3" y2="340.4"/>
	<line class="st5" x1="819.2" y1="261.1" x2="817.4" y2="261.1"/>
	<line class="st5" x1="819.2" y1="274" x2="819.2" y2="261.1"/>
	<line class="st5" x1="817.4" y1="274" x2="819.2" y2="274"/>
	<line class="st5" x1="817.4" y1="261.1" x2="817.4" y2="274"/>
	<line class="st5" x1="819.2" y1="277.7" x2="817.4" y2="277.7"/>
	<line class="st5" x1="819.2" y1="290.6" x2="819.2" y2="277.7"/>
	<line class="st5" x1="817.4" y1="290.6" x2="819.2" y2="290.6"/>
	<line class="st5" x1="817.4" y1="277.7" x2="817.4" y2="290.6"/>
	<line class="st5" x1="819.2" y1="294.3" x2="817.4" y2="294.3"/>
	<line class="st5" x1="819.2" y1="307.2" x2="819.2" y2="294.3"/>
	<line class="st5" x1="817.4" y1="307.2" x2="819.2" y2="307.2"/>
	<line class="st5" x1="817.4" y1="294.3" x2="817.4" y2="307.2"/>
	<line class="st5" x1="819.2" y1="310.9" x2="817.4" y2="310.9"/>
	<line class="st5" x1="819.2" y1="323.8" x2="819.2" y2="310.9"/>
	<line class="st5" x1="817.4" y1="323.8" x2="819.2" y2="323.8"/>
	<line class="st5" x1="817.4" y1="310.9" x2="817.4" y2="323.8"/>
	<line class="st5" x1="819.2" y1="327.5" x2="817.4" y2="327.5"/>
	<line class="st5" x1="819.2" y1="340.4" x2="819.2" y2="327.5"/>
	<line class="st5" x1="817.4" y1="340.4" x2="819.2" y2="340.4"/>
	<line class="st5" x1="817.4" y1="327.5" x2="817.4" y2="340.4"/>
	<line class="st5" x1="812.2" y1="261.1" x2="810.4" y2="261.1"/>
	<line class="st5" x1="812.2" y1="274" x2="812.2" y2="261.1"/>
	<line class="st5" x1="810.4" y1="274" x2="812.2" y2="274"/>
	<line class="st5" x1="810.4" y1="261.1" x2="810.4" y2="274"/>
	<line class="st5" x1="812.2" y1="277.7" x2="810.4" y2="277.7"/>
	<line class="st5" x1="812.2" y1="290.6" x2="812.2" y2="277.7"/>
	<line class="st5" x1="810.4" y1="290.6" x2="812.2" y2="290.6"/>
	<line class="st5" x1="810.4" y1="277.7" x2="810.4" y2="290.6"/>
	<line class="st5" x1="812.2" y1="294.3" x2="810.4" y2="294.3"/>
	<line class="st5" x1="812.2" y1="307.2" x2="812.2" y2="294.3"/>
	<line class="st5" x1="810.4" y1="307.2" x2="812.2" y2="307.2"/>
	<line class="st5" x1="810.4" y1="294.3" x2="810.4" y2="307.2"/>
	<line class="st5" x1="812.2" y1="310.9" x2="810.4" y2="310.9"/>
	<line class="st5" x1="812.2" y1="323.8" x2="812.2" y2="310.9"/>
	<line class="st5" x1="810.4" y1="323.8" x2="812.2" y2="323.8"/>
	<line class="st5" x1="810.4" y1="310.9" x2="810.4" y2="323.8"/>
	<line class="st5" x1="812.2" y1="327.5" x2="810.4" y2="327.5"/>
	<line class="st5" x1="812.2" y1="340.4" x2="812.2" y2="327.5"/>
	<line class="st5" x1="810.4" y1="340.4" x2="812.2" y2="340.4"/>
	<line class="st5" x1="810.4" y1="327.5" x2="810.4" y2="340.4"/>
	<line class="st5" x1="805.3" y1="261.1" x2="803.5" y2="261.1"/>
	<line class="st5" x1="805.3" y1="274" x2="805.3" y2="261.1"/>
	<line class="st5" x1="803.5" y1="274" x2="805.3" y2="274"/>
	<line class="st5" x1="803.5" y1="261.1" x2="803.5" y2="274"/>
	<line class="st5" x1="805.3" y1="277.7" x2="803.5" y2="277.7"/>
	<line class="st5" x1="805.3" y1="290.6" x2="805.3" y2="277.7"/>
	<line class="st5" x1="803.5" y1="290.6" x2="805.3" y2="290.6"/>
	<line class="st5" x1="803.5" y1="277.7" x2="803.5" y2="290.6"/>
	<line class="st5" x1="805.3" y1="294.3" x2="803.5" y2="294.3"/>
	<line class="st5" x1="805.3" y1="307.2" x2="805.3" y2="294.3"/>
	<line class="st5" x1="803.5" y1="307.2" x2="805.3" y2="307.2"/>
	<line class="st5" x1="803.5" y1="294.3" x2="803.5" y2="307.2"/>
	<line class="st5" x1="805.3" y1="310.9" x2="803.5" y2="310.9"/>
	<line class="st5" x1="805.3" y1="323.8" x2="805.3" y2="310.9"/>
	<line class="st5" x1="803.5" y1="323.8" x2="805.3" y2="323.8"/>
	<line class="st5" x1="803.5" y1="310.9" x2="803.5" y2="323.8"/>
	<line class="st5" x1="805.3" y1="327.5" x2="803.5" y2="327.5"/>
	<line class="st5" x1="805.3" y1="340.4" x2="805.3" y2="327.5"/>
	<line class="st5" x1="803.5" y1="340.4" x2="805.3" y2="340.4"/>
	<line class="st5" x1="803.5" y1="327.5" x2="803.5" y2="340.4"/>
	<line class="st5" x1="798.3" y1="261.1" x2="796.5" y2="261.1"/>
	<line class="st5" x1="798.3" y1="274" x2="798.3" y2="261.1"/>
	<line class="st5" x1="796.5" y1="274" x2="798.3" y2="274"/>
	<line class="st5" x1="796.5" y1="261.1" x2="796.5" y2="274"/>
	<line class="st5" x1="798.3" y1="277.7" x2="796.5" y2="277.7"/>
	<line class="st5" x1="798.3" y1="290.6" x2="798.3" y2="277.7"/>
	<line class="st5" x1="796.5" y1="290.6" x2="798.3" y2="290.6"/>
	<line class="st5" x1="796.5" y1="277.7" x2="796.5" y2="290.6"/>
	<line class="st5" x1="798.3" y1="294.3" x2="796.5" y2="294.3"/>
	<line class="st5" x1="798.3" y1="307.2" x2="798.3" y2="294.3"/>
	<line class="st5" x1="796.5" y1="307.2" x2="798.3" y2="307.2"/>
	<line class="st5" x1="796.5" y1="294.3" x2="796.5" y2="307.2"/>
	<line class="st5" x1="798.3" y1="310.9" x2="796.5" y2="310.9"/>
	<line class="st5" x1="798.3" y1="323.8" x2="798.3" y2="310.9"/>
	<line class="st5" x1="796.5" y1="323.8" x2="798.3" y2="323.8"/>
	<line class="st5" x1="796.5" y1="310.9" x2="796.5" y2="323.8"/>
	<line class="st5" x1="798.3" y1="327.5" x2="796.5" y2="327.5"/>
	<line class="st5" x1="798.3" y1="340.4" x2="798.3" y2="327.5"/>
	<line class="st5" x1="796.5" y1="340.4" x2="798.3" y2="340.4"/>
	<line class="st5" x1="796.5" y1="327.5" x2="796.5" y2="340.4"/>
	<circle class="st5" cx="769.2" cy="375.4" r="14.1"/>
	<circle class="st5" cx="769.2" cy="345.5" r="14.1"/>
	<circle class="st5" cx="769.2" cy="315.6" r="14.1"/>
	<circle class="st5" cx="913.1" cy="315.6" r="14.1"/>
	<circle class="st5" cx="913.1" cy="345.5" r="14.1"/>
	<circle class="st5" cx="913.1" cy="375.4" r="14.1"/>
	<line class="st5" x1="785.2" y1="318.2" x2="780.7" y2="325"/>
	<line class="st5" x1="793.4" y1="318.7" x2="785.2" y2="318.2"/>
	<line class="st5" x1="797.1" y1="326.1" x2="793.4" y2="318.7"/>
	<line class="st5" x1="792.5" y1="332.9" x2="797.1" y2="326.1"/>
	<line class="st5" x1="784.3" y1="332.4" x2="792.5" y2="332.9"/>
	<line class="st5" x1="780.7" y1="325" x2="784.3" y2="332.4"/>
	<line class="st5" x1="917" y1="230.8" x2="917" y2="239.7"/>
	<line class="st5" x1="918.5" y1="239.7" x2="918.5" y2="230.8"/>
	<path class="st5" d="M918.5,230.8c1.7,0.3,3.1,1.5,3.6,3.2"/>
	<path class="st5" d="M922.1,233.9c0.7,2.4-0.6,4.9-3,5.6c-0.2,0.1-0.4,0.1-0.6,0.1"/>
	<path class="st5" d="M917,230.8c0.5-0.1,1-0.1,1.5,0"/>
	<path class="st5" d="M918.5,239.7c-0.5,0.1-1,0.1-1.5,0"/>
	<path class="st5" d="M917,239.7c-2.5-0.4-4.1-2.8-3.7-5.3c0.3-1.9,1.8-3.3,3.7-3.7"/>
	<line class="st5" x1="917" y1="216.8" x2="917" y2="225.8"/>
	<line class="st5" x1="918.5" y1="225.8" x2="918.5" y2="216.8"/>
	<path class="st5" d="M918.5,216.8c1.7,0.3,3.1,1.5,3.6,3.2"/>
	<path class="st5" d="M922.1,220c0.7,2.4-0.6,4.9-3,5.6c-0.2,0.1-0.4,0.1-0.6,0.1"/>
	<path class="st5" d="M917,216.8c0.5-0.1,1-0.1,1.5,0"/>
	<path class="st5" d="M918.5,225.8c-0.5,0.1-1,0.1-1.5,0"/>
	<path class="st5" d="M917,225.8c-2.5-0.4-4.1-2.8-3.7-5.3c0.3-1.9,1.8-3.3,3.7-3.7"/>
	<line class="st5" x1="768.8" y1="264.6" x2="768.8" y2="269.1"/>
	<line class="st5" x1="766.9" y1="264.6" x2="766.9" y2="269.1"/>
	<line class="st5" x1="766.9" y1="269.1" x2="766.9" y2="272.7"/>
	<line class="st5" x1="766.9" y1="272.7" x2="766.9" y2="272.7"/>
	<line class="st5" x1="766.9" y1="272.7" x2="766.9" y2="274.5"/>
	<line class="st5" x1="766.9" y1="274.5" x2="768.8" y2="274.5"/>
	<line class="st5" x1="768.8" y1="274.5" x2="768.8" y2="269.1"/>
	<line class="st5" x1="768.8" y1="239.8" x2="768.8" y2="244.4"/>
	<line class="st5" x1="766.9" y1="239.8" x2="766.9" y2="244.4"/>
	<line class="st5" x1="768.8" y1="264.6" x2="768.8" y2="244.4"/>
	<line class="st5" x1="766.9" y1="244.4" x2="766.9" y2="264.6"/>
	<line class="st5" x1="764.7" y1="274.5" x2="764.7" y2="272.7"/>
	<line class="st5" x1="764.7" y1="236.2" x2="764.7" y2="234.4"/>
	<line class="st5" x1="766.9" y1="234.4" x2="766.9" y2="236.2"/>
	<line class="st5" x1="766.9" y1="274.5" x2="764.7" y2="274.5"/>
	<line class="st5" x1="766.9" y1="272.7" x2="764.7" y2="272.7"/>
	<line class="st5" x1="764.7" y1="234.4" x2="766.9" y2="234.4"/>
	<line class="st5" x1="764.7" y1="236.2" x2="766.9" y2="236.2"/>
	<line class="st5" x1="768.8" y1="239.8" x2="768.8" y2="234.4"/>
	<line class="st5" x1="768.8" y1="234.4" x2="766.9" y2="234.4"/>
	<line class="st5" x1="766.9" y1="236.2" x2="766.9" y2="236.2"/>
	<line class="st5" x1="766.9" y1="236.2" x2="766.9" y2="239.8"/>
	<line class="st5" x1="753.6" y1="272.7" x2="753.6" y2="236.2"/>
	<line class="st5" x1="764.7" y1="272.7" x2="753.6" y2="272.7"/>
	<line class="st5" x1="753.6" y1="236.2" x2="764.7" y2="236.2"/>
	<line class="st5" x1="764.7" y1="234.4" x2="751.7" y2="234.4"/>
	<line class="st5" x1="751.7" y1="274.5" x2="764.7" y2="274.5"/>
	<line class="st5" x1="768.8" y1="281.6" x2="768.8" y2="290.3"/>
	<line class="st5" x1="766.9" y1="281.6" x2="766.9" y2="290.3"/>
	<line class="st5" x1="766.9" y1="277.6" x2="766.9" y2="281.6"/>
	<line class="st5" x1="768.8" y1="281.6" x2="768.8" y2="275.7"/>
	<line class="st5" x1="768.8" y1="275.7" x2="766.9" y2="275.7"/>
	<line class="st5" x1="766.9" y1="275.7" x2="766.9" y2="277.6"/>
	<line class="st5" x1="764.7" y1="296.1" x2="764.7" y2="294.3"/>
	<line class="st5" x1="764.7" y1="277.6" x2="764.7" y2="275.7"/>
	<line class="st5" x1="766.9" y1="294.3" x2="766.9" y2="296.1"/>
	<line class="st5" x1="766.9" y1="296.1" x2="764.7" y2="296.1"/>
	<line class="st5" x1="766.9" y1="294.3" x2="764.7" y2="294.3"/>
	<line class="st5" x1="764.7" y1="275.7" x2="766.9" y2="275.7"/>
	<line class="st5" x1="764.7" y1="277.6" x2="766.9" y2="277.6"/>
	<line class="st5" x1="766.9" y1="290.3" x2="766.9" y2="294.3"/>
	<line class="st5" x1="766.9" y1="296.1" x2="768.8" y2="296.1"/>
	<line class="st5" x1="768.8" y1="296.1" x2="768.8" y2="290.3"/>
	<line class="st5" x1="753.6" y1="294.3" x2="753.6" y2="277.6"/>
	<line class="st5" x1="764.7" y1="294.3" x2="753.6" y2="294.3"/>
	<line class="st5" x1="753.6" y1="277.6" x2="764.7" y2="277.6"/>
	<line class="st5" x1="764.7" y1="275.7" x2="751.7" y2="275.7"/>
	<line class="st5" x1="751.7" y1="296.1" x2="764.7" y2="296.1"/>
	<line class="st5" x1="928.8" y1="189.4" x2="928.8" y2="194"/>
	<line class="st5" x1="928.8" y1="194" x2="928.8" y2="203"/>
	<line class="st5" x1="928.8" y1="203" x2="928.8" y2="207.5"/>
	<line class="st5" x1="928.8" y1="207.5" x2="928.8" y2="210.1"/>
	<line class="st5" x1="928.8" y1="210.1" x2="928.8" y2="210.1"/>
	<line class="st5" x1="928.8" y1="210.1" x2="928.8" y2="212"/>
	<line class="st5" x1="926.6" y1="212" x2="926.6" y2="210.1"/>
	<line class="st5" x1="926.6" y1="186.8" x2="926.6" y2="185"/>
	<line class="st5" x1="928.8" y1="185" x2="928.8" y2="186.8"/>
	<line class="st4" x1="928.8" y1="212" x2="926.6" y2="212"/>
	<line class="st5" x1="928.8" y1="210.1" x2="926.6" y2="210.1"/>
	<line class="st5" x1="926.6" y1="185" x2="928.8" y2="185"/>
	<line class="st5" x1="926.6" y1="186.8" x2="928.8" y2="186.8"/>
	<line class="st5" x1="928.8" y1="186.8" x2="928.8" y2="186.8"/>
	<line class="st5" x1="928.8" y1="186.8" x2="928.8" y2="189.4"/>
	<line class="st5" x1="915.5" y1="210.1" x2="915.5" y2="186.8"/>
	<line class="st5" x1="926.6" y1="210.1" x2="915.5" y2="210.1"/>
	<line class="st5" x1="915.5" y1="186.8" x2="926.6" y2="186.8"/>
	<line class="st5" x1="926.6" y1="185" x2="913.6" y2="185"/>
	<line class="st5" x1="913.6" y1="212" x2="926.6" y2="212"/>
	<line class="st5" x1="913.6" y1="185" x2="913.6" y2="212"/>
	<path class="st5" d="M923.3,205.7c0.6,0,0.8-0.2,0.8-0.8s-0.3-0.8-0.8-0.8s-0.8,0.2-0.8,0.8S922.7,205.7,923.3,205.7z"/>
	<path class="st5" d="M923.3,199.3c0.6,0,0.8-0.3,0.8-0.8s-0.3-0.8-0.8-0.8s-0.8,0.2-0.8,0.8S922.7,199.3,923.3,199.3z"/>
	<path class="st5" d="M923.3,192.8c0.6,0,0.8-0.2,0.8-0.8s-0.3-0.8-0.8-0.8s-0.8,0.3-0.8,0.8S922.7,192.8,923.3,192.8z"/>
	<line class="st5" x1="928.8" y1="247.6" x2="902.9" y2="247.6"/>
	<line class="st5" x1="928.8" y1="274.7" x2="928.8" y2="247.6"/>
	<line class="st5" x1="902.9" y1="274.7" x2="928.8" y2="274.7"/>
	<line class="st5" x1="902.9" y1="247.6" x2="902.9" y2="274.7"/>
	<line class="st5" x1="897.4" y1="269.1" x2="902.9" y2="269.1"/>
	<line class="st5" x1="897.4" y1="253.2" x2="902.9" y2="253.2"/>
	<line class="st5" x1="928.9" y1="269.1" x2="932.1" y2="269.1"/>
	<line class="st5" x1="928.9" y1="253.2" x2="932.1" y2="253.2"/>
	<line class="st5" x1="902.9" y1="248.5" x2="897.4" y2="248.5"/>
	<line class="st5" x1="897.4" y1="273.8" x2="902.9" y2="273.8"/>
	<line class="st5" x1="897.4" y1="248.5" x2="897.4" y2="253.2"/>
	<line class="st5" x1="897.4" y1="269.1" x2="897.4" y2="273.8"/>
	<path class="st5" d="M811.9,231.3c0.2,0,0.2-0.1,0.2-0.2s-0.1-0.2-0.2-0.2s-0.2,0.1-0.2,0.2S811.7,231.3,811.9,231.3z"/>
	<circle class="st5" cx="811.9" cy="231.1" r="1.6"/>
	<path class="st5" d="M811.9,225.9c0.2,0,0.2-0.1,0.2-0.2s-0.1-0.2-0.2-0.2s-0.2,0.1-0.2,0.2S811.7,225.9,811.9,225.9z"/>
	<circle class="st5" cx="811.9" cy="225.7" r="1.6"/>
	<path class="st5" d="M811.9,220.4c0.2,0,0.2-0.1,0.2-0.2s-0.1-0.2-0.2-0.2s-0.2,0.1-0.2,0.2S811.7,220.4,811.9,220.4z"/>
	<circle class="st5" cx="811.9" cy="220.2" r="1.6"/>
	<path class="st5" d="M811.9,215c0.2,0,0.2-0.1,0.2-0.2s-0.1-0.2-0.2-0.2s-0.2,0.1-0.2,0.2S811.7,215,811.9,215z"/>
	<circle class="st5" cx="811.9" cy="214.8" r="1.6"/>
	<path class="st5" d="M811.9,209.5c0.2,0,0.2-0.1,0.2-0.2s-0.1-0.2-0.2-0.2s-0.2,0.1-0.2,0.2S811.7,209.5,811.9,209.5z"/>
	<circle class="st5" cx="811.9" cy="209.3" r="1.6"/>
	<path class="st5" d="M811.9,204.1c0.2,0,0.2-0.1,0.2-0.2s-0.1-0.2-0.2-0.2s-0.2,0.1-0.2,0.2S811.7,204.1,811.9,204.1z"/>
	<circle class="st5" cx="811.9" cy="203.9" r="1.6"/>
	<path class="st5" d="M811.9,198.6c0.2,0,0.2-0.1,0.2-0.2s-0.1-0.2-0.2-0.2s-0.2,0.1-0.2,0.2S811.7,198.6,811.9,198.6z"/>
	<circle class="st5" cx="811.9" cy="198.4" r="1.6"/>
	<path class="st5" d="M811.9,193.2c0.2,0,0.2-0.1,0.2-0.2s-0.1-0.2-0.2-0.2s-0.2,0.1-0.2,0.2S811.7,193.2,811.9,193.2z"/>
	<circle class="st5" cx="811.9" cy="193" r="1.6"/>
	<path class="st5" d="M811.9,187.8c0.2,0,0.2-0.1,0.2-0.2s-0.1-0.2-0.2-0.2s-0.2,0.1-0.2,0.2S811.7,187.8,811.9,187.8z"/>
	<circle class="st5" cx="811.9" cy="187.5" r="1.6"/>
	<path class="st5" d="M811.9,182.3c0.2,0,0.2-0.1,0.2-0.2s-0.1-0.2-0.2-0.2s-0.2,0.1-0.2,0.2S811.7,182.3,811.9,182.3z"/>
	<circle class="st5" cx="811.9" cy="182.1" r="1.6"/>
	<circle class="st5" cx="868.2" cy="182.1" r="0.2"/>
	<circle class="st5" cx="868.2" cy="182.1" r="1.6"/>
	<line class="st5" x1="831.8" y1="237.1" x2="828.2" y2="237.1"/>
	<line class="st5" x1="831.8" y1="239.3" x2="831.8" y2="237.1"/>
	<line class="st5" x1="828.2" y1="239.3" x2="831.8" y2="239.3"/>
	<line class="st5" x1="828.2" y1="237.1" x2="828.2" y2="239.3"/>
	<line class="st5" x1="842.8" y1="212.6" x2="839.3" y2="212.6"/>
	<line class="st5" x1="842.8" y1="215" x2="842.8" y2="212.6"/>
	<line class="st5" x1="839.3" y1="215" x2="842.8" y2="215"/>
	<line class="st5" x1="839.3" y1="212.6" x2="839.3" y2="215"/>
	<line class="st5" x1="842.8" y1="216.1" x2="839.3" y2="216.1"/>
	<line class="st5" x1="842.8" y1="218.6" x2="842.8" y2="216.1"/>
	<line class="st5" x1="839.3" y1="218.6" x2="842.8" y2="218.6"/>
	<line class="st5" x1="839.3" y1="216.1" x2="839.3" y2="218.6"/>
	<line class="st5" x1="842.8" y1="219.7" x2="839.3" y2="219.7"/>
	<line class="st5" x1="842.8" y1="222.1" x2="842.8" y2="219.7"/>
	<line class="st5" x1="839.3" y1="222.1" x2="842.8" y2="222.1"/>
	<line class="st5" x1="839.3" y1="219.7" x2="839.3" y2="222.1"/>
	<line class="st5" x1="842.8" y1="223.2" x2="839.3" y2="223.2"/>
	<line class="st5" x1="842.8" y1="225.7" x2="842.8" y2="223.2"/>
	<line class="st5" x1="839.3" y1="225.7" x2="842.8" y2="225.7"/>
	<line class="st5" x1="839.3" y1="223.2" x2="839.3" y2="225.7"/>
	<line class="st5" x1="842.8" y1="227.2" x2="839.3" y2="227.2"/>
	<line class="st5" x1="842.8" y1="235.5" x2="842.8" y2="227.2"/>
	<line class="st5" x1="839.3" y1="235.5" x2="842.8" y2="235.5"/>
	<line class="st5" x1="839.3" y1="227.2" x2="839.3" y2="235.5"/>
	<line class="st5" x1="831.3" y1="192.3" x2="829.7" y2="192.3"/>
	<line class="st5" x1="831.3" y1="199.9" x2="831.3" y2="192.3"/>
	<line class="st5" x1="829.7" y1="199.9" x2="831.3" y2="199.9"/>
	<line class="st5" x1="829.7" y1="192.3" x2="829.7" y2="199.9"/>
	<line class="st5" x1="832.8" y1="227.5" x2="829.5" y2="227.5"/>
	<line class="st5" x1="832.8" y1="235.1" x2="832.8" y2="227.5"/>
	<line class="st5" x1="829.5" y1="235.1" x2="832.8" y2="235.1"/>
	<line class="st5" x1="829.5" y1="227.5" x2="829.5" y2="235.1"/>
	<line class="st5" x1="857.9" y1="196.8" x2="850.3" y2="196.8"/>
	<line class="st5" x1="857.9" y1="204.3" x2="857.9" y2="196.8"/>
	<line class="st5" x1="850.3" y1="204.3" x2="857.9" y2="204.3"/>
	<line class="st5" x1="850.3" y1="196.8" x2="850.3" y2="204.3"/>
	<line class="st5" x1="843.9" y1="196.8" x2="836.3" y2="196.8"/>
	<line class="st5" x1="843.9" y1="204.3" x2="843.9" y2="196.8"/>
	<line class="st5" x1="836.3" y1="204.3" x2="843.9" y2="204.3"/>
	<line class="st5" x1="836.3" y1="196.8" x2="836.3" y2="204.3"/>
	<line class="st5" x1="831.5" y1="214.4" x2="828.8" y2="214.4"/>
	<line class="st5" x1="831.5" y1="222" x2="831.5" y2="214.4"/>
	<line class="st5" x1="828.8" y1="222" x2="831.5" y2="222"/>
	<line class="st5" x1="828.8" y1="214.4" x2="828.8" y2="222"/>
	<line class="st5" x1="831.3" y1="204" x2="829.7" y2="204"/>
	<line class="st5" x1="831.3" y1="211.6" x2="831.3" y2="204"/>
	<line class="st5" x1="829.7" y1="211.6" x2="831.3" y2="211.6"/>
	<line class="st5" x1="829.7" y1="204" x2="829.7" y2="211.6"/>
	<line class="st5" x1="822.8" y1="225.7" x2="819.3" y2="225.7"/>
	<line class="st5" x1="822.8" y1="234.1" x2="822.8" y2="225.7"/>
	<line class="st5" x1="819.3" y1="234.1" x2="822.8" y2="234.1"/>
	<line class="st5" x1="819.3" y1="225.7" x2="819.3" y2="234.1"/>
	<line class="st5" x1="831.8" y1="240.1" x2="828.2" y2="240.1"/>
	<line class="st5" x1="831.8" y1="242.3" x2="831.8" y2="240.1"/>
	<line class="st5" x1="828.2" y1="242.3" x2="831.8" y2="242.3"/>
	<line class="st5" x1="828.2" y1="240.1" x2="828.2" y2="242.3"/>
	<line class="st5" x1="821.6" y1="191.1" x2="818.1" y2="191.1"/>
	<line class="st5" x1="821.6" y1="193.6" x2="821.6" y2="191.1"/>
	<line class="st5" x1="818.1" y1="193.6" x2="821.6" y2="193.6"/>
	<line class="st5" x1="818.1" y1="191.1" x2="818.1" y2="193.6"/>
	<line class="st5" x1="821.6" y1="194.6" x2="818.1" y2="194.6"/>
	<line class="st5" x1="821.6" y1="197.1" x2="821.6" y2="194.6"/>
	<line class="st5" x1="818.1" y1="197.1" x2="821.6" y2="197.1"/>
	<line class="st5" x1="818.1" y1="194.6" x2="818.1" y2="197.1"/>
	<line class="st5" x1="821.6" y1="198.2" x2="818.1" y2="198.2"/>
	<line class="st5" x1="821.6" y1="200.6" x2="821.6" y2="198.2"/>
	<line class="st5" x1="818.1" y1="200.6" x2="821.6" y2="200.6"/>
	<line class="st5" x1="818.1" y1="198.2" x2="818.1" y2="200.6"/>
	<line class="st5" x1="821.6" y1="201.7" x2="818.1" y2="201.7"/>
	<line class="st5" x1="821.6" y1="204.2" x2="821.6" y2="201.7"/>
	<line class="st5" x1="818.1" y1="204.2" x2="821.6" y2="204.2"/>
	<line class="st5" x1="818.1" y1="201.7" x2="818.1" y2="204.2"/>
	<path class="st5" d="M868.2,187.8c0.2,0,0.2-0.1,0.2-0.2s-0.1-0.2-0.2-0.2s-0.2,0.1-0.2,0.2S868,187.8,868.2,187.8z"/>
	<circle class="st5" cx="868.2" cy="187.5" r="1.6"/>
	<circle class="st5" cx="868.2" cy="193" r="0.2"/>
	<circle class="st5" cx="868.2" cy="193" r="1.6"/>
	<path class="st5" d="M868.2,198.6c0.2,0,0.2-0.1,0.2-0.2s-0.1-0.2-0.2-0.2s-0.2,0.1-0.2,0.2S868,198.6,868.2,198.6z"/>
	<circle class="st5" cx="868.2" cy="198.4" r="1.6"/>
	<circle class="st5" cx="868.2" cy="203.9" r="0.2"/>
	<circle class="st5" cx="868.2" cy="203.9" r="1.6"/>
	<circle class="st5" cx="868.2" cy="209.3" r="0.2"/>
	<circle class="st5" cx="868.2" cy="209.3" r="1.6"/>
	<path class="st5" d="M868.2,215c0.2,0,0.2-0.1,0.2-0.2s-0.1-0.2-0.2-0.2s-0.2,0.1-0.2,0.2S868,215,868.2,215z"/>
	<circle class="st5" cx="868.2" cy="214.8" r="1.6"/>
	<circle class="st5" cx="868.2" cy="220.2" r="0.2"/>
	<circle class="st5" cx="868.2" cy="220.2" r="1.6"/>
	<path class="st5" d="M868.2,225.9c0.2,0,0.2-0.1,0.2-0.2s-0.1-0.2-0.2-0.2s-0.2,0.1-0.2,0.2S868,225.9,868.2,225.9z"/>
	<circle class="st5" cx="868.2" cy="225.7" r="1.6"/>
	<circle class="st5" cx="868.2" cy="231.1" r="0.2"/>
	<circle class="st5" cx="868.2" cy="231.1" r="1.6"/>
	<path class="st5" d="M866.7,236.7c0,0.8,0.3,1.2,1.2,1.2s1.2-0.4,1.2-1.2s-0.3-1.2-1.2-1.2S866.7,235.9,866.7,236.7z"/>
	<circle class="st5" cx="764.6" cy="173.1" r="5.1"/>
	<circle class="st5" cx="764.6" cy="399.6" r="5.1"/>
	<path class="st5" d="M917.7,404.7c-2.8,0-5.1-2.3-5.1-5.1c0-2.8,2.3-5.1,5.1-5.1c2.8,0,5.1,2.3,5.1,5.1
		C922.8,402.4,920.5,404.7,917.7,404.7C917.7,404.7,917.7,404.7,917.7,404.7z"/>
	<path class="st5" d="M917.7,168c2.8,0,5.1,2.3,5.1,5.1c0,2.8-2.3,5.1-5.1,5.1c-2.8,0-5.1-2.3-5.1-5.1v0
		C912.6,170.3,914.9,168,917.7,168z"/>
	<line class="st4" x1="809.1" y1="409.5" x2="811.6" y2="409.5"/>
	<line class="st4" x1="872.2" y1="409.5" x2="874.7" y2="409.5"/>
	<path class="st4" d="M872.2,163.3h37.4c3.1,0,6.2-0.1,9.3,0c5.8,0.3,10.5,4.6,11.5,10.3"/>
	<path class="st4" d="M811.6,163.3h-41.8c-2.8,0-5.5-0.3-8.3,0.3c-5.7,1.3-9.7,6.3-9.7,12.1"/>
	<path class="st5" d="M869.5,248.1c0.8,0,1.2-0.3,1.2-1.2s-0.3-1.2-1.2-1.2s-1.2,0.3-1.2,1.2S868.7,248.1,869.5,248.1z"/>
	<path class="st5" d="M869.5,244.7c0.8,0,1.2-0.3,1.2-1.2s-0.3-1.2-1.2-1.2s-1.2,0.3-1.2,1.2S868.7,244.7,869.5,244.7z"/>
	<circle class="st5" cx="816.2" cy="242.8" r="3.5"/>
	<circle class="st5" cx="816.2" cy="242.8" r="6.1"/>
	<path class="st5" d="M816.2,243.8c0.7,0,1-0.3,1-0.9s-0.3-1-1-1s-0.9,0.3-0.9,1S815.5,243.8,816.2,243.8z"/>
	<path class="st5" d="M816.2,245.1c-1.2,0-2.3-1-2.3-2.3s1-2.3,2.3-2.3s2.3,1,2.3,2.3l0,0C818.4,244.1,817.4,245.1,816.2,245.1
		C816.2,245.1,816.2,245.1,816.2,245.1z"/>
	<path class="st5" d="M869.5,241.3c0.8,0,1.2-0.3,1.2-1.2s-0.3-1.2-1.2-1.2s-1.2,0.3-1.2,1.2S868.7,241.3,869.5,241.3z"/>
	<circle class="st5" cx="866.1" cy="246.9" r="1.2"/>
	<circle class="st5" cx="866.1" cy="243.5" r="1.2"/>
	<circle class="st5" cx="866.1" cy="240.1" r="1.2"/>
	<path class="st4" d="M751.7,187.8"/>
	<path class="st4" d="M940.6,178"/>
	<path class="st4" d="M807.2,162.7L807.2,162.7"/>
	<line class="st4" x1="811.6" y1="414.7" x2="811.6" y2="414.4"/>
	<line class="st4" x1="811.6" y1="414.2" x2="811.6" y2="412.8"/>
	<path class="st4" d="M807.3,162.7h0.5c0.2,0,0.3,0,0.5-0.1c0.3-0.1,0.7-0.2,1-0.3c0.3-0.1,0.6-0.3,0.8-0.4c0.2-0.2,0.5-0.4,0.7-0.6
		"/>
	<path class="st4" d="M810.7,161.4l0.2-0.2l0.2-0.2c0.1-0.2,0.2-0.3,0.3-0.5c0.1-0.4,0.2-0.8,0.2-1.2"/>
	<line class="st4" x1="811.6" y1="412.8" x2="811.6" y2="411.1"/>
	<line class="st4" x1="813.6" y1="406" x2="816.3" y2="406"/>
	<line class="st4" x1="821.3" y1="406" x2="841.9" y2="406"/>
	<path class="st4" d="M811.6,406c0-0.2,0.2,0,0.3,0h1.8"/>
	<line class="st4" x1="811.6" y1="411.1" x2="811.6" y2="406"/>
	<path class="st4" d="M876.5,162.7L876.5,162.7"/>
	<line class="st4" x1="872.2" y1="414.4" x2="872.2" y2="414.4"/>
	<line class="st4" x1="872.2" y1="414.4" x2="872.2" y2="414.4"/>
	<line class="st4" x1="872.2" y1="414.5" x2="872.2" y2="414.5"/>
	<line class="st4" x1="872.2" y1="414.5" x2="872.2" y2="414.5"/>
	<line class="st4" x1="872.2" y1="414.6" x2="872.2" y2="414.6"/>
	<line class="st4" x1="872.2" y1="414.6" x2="872.2" y2="414.6"/>
	<line class="st4" x1="872.2" y1="414.7" x2="872.2" y2="414.7"/>
	<line class="st4" x1="872.2" y1="412.8" x2="872.2" y2="414.2"/>
	<path class="st4" d="M872.2,159.2c0,0.1,0,0.2,0,0.3c0,0.1,0,0.2,0,0.3c0,0.2,0.1,0.4,0.2,0.6c0.1,0.4,0.4,0.7,0.6,1"/>
	<path class="st4" d="M873,161.4c0.1,0.1,0.2,0.2,0.3,0.3c0.1,0.1,0.2,0.2,0.3,0.3c0.3,0.2,0.5,0.3,0.8,0.4c0.6,0.2,1.3,0.4,2,0.4"
		/>
	<line class="st4" x1="872.2" y1="411.1" x2="872.2" y2="412.8"/>
	<line class="st4" x1="841.9" y1="406" x2="862.4" y2="406"/>
	<line class="st4" x1="867.5" y1="406" x2="870.2" y2="406"/>
	<path class="st4" d="M870.2,406h1.8c0.1,0,0.3-0.2,0.3,0"/>
	<path class="st4" d="M872.2,414.6L872.2,414.6"/>
	<line class="st4" x1="872.2" y1="406" x2="872.2" y2="411.1"/>
	<line class="st5" x1="798.5" y1="404" x2="798.5" y2="402"/>
	<line class="st5" x1="798.5" y1="373.6" x2="825.6" y2="373.6"/>
	<line class="st5" x1="825.6" y1="402" x2="825.6" y2="404"/>
	<line class="st5" x1="825.6" y1="373.6" x2="825.6" y2="380.7"/>
	<line class="st5" x1="798.5" y1="402" x2="798.5" y2="396.9"/>
	<line class="st5" x1="825.6" y1="396.9" x2="825.6" y2="402"/>
	<line class="st5" x1="885.4" y1="404" x2="885.4" y2="402"/>
	<line class="st5" x1="885.4" y1="373.6" x2="858.3" y2="373.6"/>
	<line class="st5" x1="858.3" y1="402" x2="858.3" y2="404"/>
	<line class="st5" x1="858.3" y1="373.6" x2="858.3" y2="380.7"/>
	<line class="st5" x1="885.4" y1="402" x2="885.4" y2="396.9"/>
	<line class="st5" x1="858.3" y1="396.9" x2="858.3" y2="402"/>
	<line class="st5" x1="904.8" y1="241.8" x2="904.8" y2="214.7"/>
	<line class="st5" x1="904.8" y1="214.7" x2="910.8" y2="214.7"/>
	<line class="st5" x1="768.8" y1="213.7" x2="766.9" y2="213.7"/>
	<line class="st5" x1="766.9" y1="209.2" x2="768.8" y2="209.2"/>
	<line class="st5" x1="768.8" y1="269.1" x2="766.9" y2="269.1"/>
	<line class="st5" x1="766.9" y1="264.6" x2="768.8" y2="264.6"/>
	<line class="st5" x1="768.8" y1="244.4" x2="766.9" y2="244.4"/>
	<line class="st5" x1="766.9" y1="239.8" x2="768.8" y2="239.8"/>
	<line class="st5" x1="768.8" y1="290.3" x2="766.9" y2="290.3"/>
	<line class="st5" x1="766.9" y1="281.6" x2="768.8" y2="281.6"/>
	<line class="st5" x1="928.8" y1="189.4" x2="930.6" y2="189.4"/>
	<line class="st5" x1="930.6" y1="207.5" x2="928.8" y2="207.5"/>
	<path class="st4" d="M877.9,162.3L877.9,162.3"/>
	<path class="st4" d="M877.9,162.1"/>
	<path class="st4" d="M784.8,163.3c0.3-0.1,0.6-0.1,0.9-0.2s0.6-0.1,0.9-0.1c0.6-0.1,1.3-0.1,1.9-0.2h18.7"/>
	<line class="st4" x1="811.6" y1="414.2" x2="811.6" y2="414.4"/>
	<path class="st4" d="M899,163.3c-0.3-0.1-0.6-0.1-0.9-0.2s-0.6-0.1-0.9-0.1c-0.6-0.1-1.3-0.1-1.9-0.2h-18.6"/>
	<line class="st4" x1="872.2" y1="414.2" x2="872.2" y2="414.4"/>
	<line class="st4" x1="872.2" y1="414.4" x2="872.2" y2="414.4"/>
	<polyline class="st4" points="930.6,195.3 930.6,189.4 930.6,187.6 	"/>
	<path class="st4" d="M930.4,173.6L930.4,173.6"/>
	<line class="st5" x1="885.4" y1="404" x2="879.8" y2="404"/>
	<line class="st5" x1="862.4" y1="404" x2="858.3" y2="404"/>
	<line class="st5" x1="874.7" y1="404" x2="867.4" y2="404"/>
	<line class="st5" x1="825.6" y1="404" x2="821.4" y2="404"/>
	<line class="st5" x1="804" y1="404" x2="798.5" y2="404"/>
	<line class="st5" x1="816.3" y1="404" x2="809" y2="404"/>
	<line class="st4" x1="930.6" y1="241.8" x2="930.6" y2="241.8"/>
	<path class="st6" d="M364.2,228.9c-0.8,3.1-1.7,6.1-2.9,9.1"/>
	<path class="st6" d="M366.5,213.7c-0.2,3.2-0.5,6.4-1,9.5"/>
	<path class="st6" d="M365.8,198.2c0.5,3.2,0.7,6.4,0.8,9.6"/>
	<path class="st6" d="M362,183.2c1.1,3,2,6.1,2.7,9.3"/>
	<path class="st6" d="M362,164.7c2,3.2,3.7,6.5,5.3,9.9"/>
	<path class="st6" d="M369.6,180.1c1.3,3.5,2.4,7.1,3.3,10.8"/>
	<path class="st6" d="M374,196.6c0.6,3.7,1,7.4,1.1,11.2"/>
	<path class="st6" d="M375.1,213.7c-0.1,3.7-0.5,7.5-1.1,11.2"/>
	<path class="st6" d="M372.8,230.6c-0.9,3.7-1.9,7.2-3.3,10.8"/>
	<path class="st6" d="M367.3,246.8c-1.6,3.4-3.3,6.7-5.3,9.9"/>
	<path class="st6" d="M240.5,285.6l1.6,1l0.8,0.5l0.4,0.3l0.4,0.3l-8.6,12.9l0,0l-0.2,0.1l-2,0.7c-0.6,0.2-1.3,0.5-1.9,0.7l-5.2-3.5
		l-4.6,7l0,0l3.7,2.5l1.4,1c1.5-2.3,3.1-4.6,4.6-6.9"/>
	<path class="st6" d="M225.8,298.5c0-0.6-0.1-1.1-0.1-1.7c-0.1-0.9-0.1-1.7-0.1-2.6l8.6-12.9l0.4,0.3l0.4,0.3l0.8,0.5l1.6,1"/>
	<path class="st6" d="M350.1,294.2l-8.6-12.9l-0.4,0.3l-0.4,0.3l-0.8,0.5l-1.5,1"/>
	<path class="st6" d="M344.7,301.9c1.5,2.3,3.1,4.6,4.6,6.9l1.4-1l3.7-2.5l0,0l-4.6-7"/>
	<path class="st6" d="M335.2,285.6l-1.5,1l-0.8,0.5l-0.4,0.3l-0.4,0.3l8.6,12.9l0,0l3.1-2"/>
	<polyline class="st6" points="225.6,294.2 225.6,294.2 228.7,296.3 	"/>
	<path class="st6" d="M233.2,282.8c-39.8-30.2-47.5-86.9-17.4-126.7s86.9-47.5,126.7-17.4s47.5,86.9,17.4,126.7
		c-5,6.6-10.8,12.4-17.4,17.4"/>
	<path class="st6" d="M234.7,288.1c1.1,0,2.1,0.7,2.4,1.8l-2.4,3.6c-1.1,0.2-2.2-0.5-2.6-1.6L234.7,288.1z"/>
	<path class="st6" d="M245.2,262.5l-4.3,6.6c-1.4,2-2.9,4-4.2,6c-0.7,1-1.3,2.1-1.9,3.1c-0.3,0.5-0.5,1.1-0.5,1.7
		c0.1,0.6,0.5,1.1,0.4,1.8"/>
	<path class="st6" d="M341,288.1c-1.1,0-2.1,0.7-2.4,1.8l2.4,3.6c1.1,0.2,2.2-0.5,2.6-1.5C342.8,290.7,341.9,289.4,341,288.1z"/>
	<path class="st6" d="M330.5,262.5l4.3,6.6c1.4,2,2.9,4,4.2,6c0.7,1,1.3,2.1,1.9,3.1c0.3,0.5,0.5,1.1,0.5,1.7c0,0.6-0.5,1.1-0.4,1.8
		"/>
	<polyline class="st6" points="333.2,260.2 345.9,273 347.5,274.5 351.6,270.4 350.1,268.8 337.4,256.1 	"/>
	<polyline class="st6" points="232.6,170.3 218.8,161 216.9,159.8 213.6,164.7 215.5,165.9 229.4,175.2 	"/>
	<polyline class="st6" points="226,181.9 210.4,175.5 208.3,174.6 206.1,180 208.1,180.9 223.8,187.4 	"/>
	<polyline class="st6" points="220.9,221 203.8,224.4 201.7,224.9 202.8,230.6 205,230.2 222.2,226.8 	"/>
	<polyline class="st6" points="224.4,233.8 208.1,240.6 206.1,241.4 208.3,246.9 210.4,246 226.7,239.2 	"/>
	<polyline class="st6" points="230.3,245.7 215.5,255.5 213.6,256.8 216.9,261.7 218.8,260.4 233.6,250.5 	"/>
	<polyline class="st6" points="238.3,256.1 225.6,268.8 224.1,270.4 228.2,274.5 229.8,273 242.5,260.2 	"/>
	<polyline class="st6" points="259.5,271.4 252.6,288.2 251.7,290.3 257.2,292.5 258,290.5 265,273.6 	"/>
	<polyline class="st6" points="271.9,275.7 268.4,293.6 267.9,295.8 273.7,296.9 274.1,294.7 277.7,276.8 	"/>
	<polyline class="st6" points="284.9,277.5 284.9,295.8 284.9,298 290.8,298 290.8,295.8 290.8,277.5 	"/>
	<polyline class="st6" points="298,276.8 301.6,294.7 302,296.9 307.8,295.8 307.3,293.6 303.8,275.7 	"/>
	<polyline class="st6" points="310.7,273.6 317.7,290.5 318.5,292.5 324,290.3 323.1,288.2 316.2,271.4 	"/>
	<polyline class="st6" points="342.1,250.5 356.9,260.4 358.8,261.7 362,256.8 360.2,255.5 345.4,245.7 	"/>
	<polyline class="st6" points="349,239.2 365.3,246 367.4,246.9 369.6,241.4 367.6,240.6 351.3,233.8 	"/>
	<polyline class="st6" points="355.6,213.7 372.9,213.7 375.1,213.7 375.1,207.8 372.9,207.8 355.7,207.8 	"/>
	<polyline class="st6" points="355,200.4 371.9,197 374,196.6 372.9,190.8 370.7,191.3 354,194.6 	"/>
	<polyline class="st6" points="351.9,187.4 367.6,180.9 369.6,180 367.4,174.6 365.3,175.5 349.7,181.9 	"/>
	<polyline class="st6" points="346.2,175.3 360.2,165.9 362,164.7 358.8,159.8 356.9,161 343,170.3 	"/>
	<polyline class="st6" points="338.3,164.4 350.1,152.7 351.6,151.1 347.5,146.9 345.9,148.5 334.2,160.2 	"/>
	<polyline class="st6" points="328.4,155.3 337.5,141.6 338.8,139.8 333.9,136.5 332.7,138.4 323.5,152 	"/>
	<polyline class="st6" points="316.9,148.4 323.1,133.3 324,131.2 318.5,129 317.7,131 311.4,146.1 	"/>
	<polyline class="st6" points="304.1,143.9 307.3,127.9 307.8,125.7 302,124.6 301.6,126.7 298.4,142.7 	"/>
	<polyline class="st6" points="290.8,142 290.8,125.7 290.8,123.5 284.9,123.5 284.9,125.7 284.9,142 	"/>
	<polyline class="st6" points="277.3,142.7 274.1,126.7 273.7,124.6 267.9,125.7 268.4,127.9 271.5,143.9 	"/>
	<polyline class="st6" points="264.3,146.1 258,131 257.2,129 251.7,131.2 252.6,133.3 258.9,148.4 	"/>
	<polyline class="st6" points="252.2,152 243,138.4 241.8,136.5 236.9,139.8 238.1,141.6 247.3,155.3 	"/>
	<polyline class="st6" points="241.5,160.2 229.8,148.5 228.2,146.9 224.1,151.1 225.6,152.7 237.4,164.4 	"/>
	<polyline class="st6" points="221.7,194.6 205,191.3 202.8,190.8 201.7,196.6 203.8,197 220.6,200.4 	"/>
	<polyline class="st6" points="220,207.8 202.8,207.8 200.6,207.8 200.6,213.7 202.8,213.7 220.1,213.7 	"/>
	<polyline class="st6" points="353.5,226.8 370.7,230.2 372.9,230.6 374,224.9 371.9,224.4 354.8,221 	"/>
	<path d="M202.5,676.9c49.8-50.2,77.8-118.1,77.8-188.9v-79.8h15.3V488c0,74.7-29.4,146.5-82,199.6"/>
	<path class="st6" d="M246.1,143c2.8-1.7,5.6-3.3,8.6-4.6"/>
	<path class="st6" d="M233.8,152.5c2.4-2.2,4.9-4.3,7.5-6.2"/>
	<path class="st6" d="M223.6,164.2c1.9-2.6,3.9-5.2,6.1-7.6"/>
	<path class="st6" d="M215.9,177.7c1.3-2.9,2.8-5.8,4.5-8.6"/>
	<path class="st6" d="M211,192.5c0.7-3.1,1.6-6.2,2.7-9.3"/>
	<path class="st6" d="M209.1,207.8c0.1-3.2,0.4-6.4,0.8-9.6"/>
	<path class="st6" d="M210.3,223.2c-0.5-3.1-0.9-6.3-1.1-9.5"/>
	<path class="st6" d="M214.3,238c-1.1-3-2.1-6-2.9-9.1"/>
	<path class="st6" d="M221.2,251.7c-1.7-2.7-3.2-5.5-4.6-8.3"/>
	<path class="st6" d="M230.6,263.8c-2.2-2.3-4.2-4.7-6.1-7.2"/>
	<path class="st6" d="M239.1,271.6c-1.5-1.2-2.9-2.4-4.3-3.6"/>
	<path class="st6" d="M255.4,281.5c-1.5-0.7-3-1.4-4.4-2.2"/>
	<path class="st6" d="M269.8,286.4c-3.1-0.7-6.1-1.6-9-2.7"/>
	<path class="st6" d="M284.9,288.4c-3.1-0.1-6.2-0.4-9.3-0.9"/>
	<path class="st6" d="M300.1,287.5c-3.1,0.5-6.2,0.8-9.3,0.9"/>
	<path class="st6" d="M314.9,283.7c-2.9,1.1-5.9,2-9,2.7"/>
	<path class="st6" d="M324.8,279.3c-1.4,0.8-2.9,1.5-4.4,2.2"/>
	<path class="st6" d="M340.9,267.9c-1.4,1.3-2.8,2.5-4.3,3.6"/>
	<path class="st6" d="M351.1,256.6c-1.9,2.5-3.9,4.9-6.1,7.2"/>
	<path class="st6" d="M359,243.4c-1.4,2.9-2.9,5.6-4.6,8.3"/>
	<path class="st6" d="M355.3,169.2c1.7,2.8,3.1,5.6,4.5,8.6"/>
	<path class="st6" d="M346,156.7c2.2,2.4,4.2,4.9,6.1,7.6"/>
	<path class="st6" d="M334.5,146.3c2.6,1.9,5.1,4,7.5,6.2"/>
	<path class="st6" d="M321,138.3c2.9,1.4,5.8,2.9,8.6,4.6"/>
	<path class="st6" d="M306.3,133.2c3.2,0.8,6.3,1.7,9.3,2.9"/>
	<path class="st6" d="M290.8,131.1c3.3,0.1,6.5,0.5,9.7,1"/>
	<path class="st6" d="M275.2,132c3.2-0.5,6.5-0.9,9.7-1"/>
	<path class="st6" d="M352.8,190.1l0.2,0.7"/>
	<line class="st6" x1="342.9" y1="170.4" x2="342.8" y2="170.5"/>
	<path class="st6" d="M348.4,295.4c-0.2,1.6-1.2,2.2-2.3,2.9s-2.1,1.5-3.6,1"/>
	<path class="st6" d="M332.7,287.2c-0.5-0.1-0.9-0.2-1.4-0.1c-0.5-0.1-0.9-0.3-1.2-0.6c-0.7-0.7-1.3-1.4-1.8-2.1
		c-1.1-1.5-2.2-3.1-3.2-4.7c-2.1-3.2-4.1-6.4-6.2-9.5"/>
	<path class="st6" d="M227.3,295.4c0.2,1.6,1.2,2.2,2.3,2.9s2.1,1.5,3.6,1"/>
	<path class="st6" d="M243,287.2c0.5-0.1,0.9-0.2,1.4-0.1c0.5-0.1,0.9-0.3,1.2-0.6c0.7-0.7,1.3-1.4,1.8-2.1c1.1-1.5,2.2-3.1,3.2-4.7
		c2.1-3.2,4.1-6.4,6.2-9.5"/>
	<circle class="st6" cx="287.9" cy="209.7" r="67.9"/>
	<path class="st6" d="M201.7,224.9c-0.6-3.7-1-7.4-1.1-11.2"/>
	<path class="st6" d="M206.1,241.4c-1.3-3.5-2.4-7.1-3.3-10.8"/>
	<path class="st6" d="M213.7,256.8c-2-3.2-3.7-6.5-5.3-9.9"/>
	<path class="st6" d="M224.1,270.3c-2.6-2.7-4.9-5.6-7.1-8.7"/>
	<path class="st6" d="M234.3,279.7c-2.1-1.6-4.1-3.4-6.1-5.2"/>
	<path class="st6" d="M251.8,290.2c-2.2-1-4.4-2.1-6.6-3.3"/>
	<path class="st6" d="M267.9,295.7c-3.7-0.9-7.2-1.9-10.8-3.3"/>
	<path class="st6" d="M284.9,298c-3.7-0.1-7.5-0.5-11.2-1.1"/>
	<path class="st6" d="M302,296.9c-3.7,0.6-7.4,1-11.2,1.1"/>
	<path class="st6" d="M318.5,292.5c-3.5,1.3-7.1,2.4-10.8,3.3"/>
	<path class="st6" d="M330.5,286.9c-2.2,1.2-4.4,2.3-6.6,3.3"/>
	<path class="st6" d="M351.6,151.1c2.6,2.7,4.9,5.6,7.1,8.7"/>
	<path class="st6" d="M338.8,139.8c3,2.2,5.9,4.6,8.7,7.1"/>
	<path class="st6" d="M324,131.3c3.4,1.6,6.7,3.3,9.9,5.3"/>
	<path class="st6" d="M307.8,125.8c3.7,0.8,7.2,1.9,10.8,3.2"/>
	<path class="st6" d="M290.8,123.5c3.8,0.1,7.5,0.5,11.2,1.1"/>
	<path class="st6" d="M273.7,124.6c3.7-0.6,7.4-1,11.2-1.1"/>
	<path class="st6" d="M257.2,129c3.5-1.3,7.1-2.4,10.8-3.3"/>
	<path class="st6" d="M241.8,136.6c3.2-2,6.5-3.7,9.9-5.3"/>
	<path class="st6" d="M228.3,147c2.7-2.6,5.6-5,8.7-7.1"/>
	<path class="st6" d="M217,159.8c2.2-3,4.6-5.9,7.1-8.7"/>
	<path class="st6" d="M208.4,174.6c1.6-3.4,3.3-6.7,5.3-9.9"/>
	<path class="st6" d="M202.9,190.8c0.9-3.7,1.9-7.2,3.3-10.8"/>
	<path class="st6" d="M200.6,207.8c0.1-3.8,0.5-7.5,1.1-11.2"/>
	<path class="st6" d="M340.9,300.6l-0.2-0.1l0,0"/>
	<path class="st6" d="M340.8,300.5l1.9,0.6c0.7,0.2,1.4,0.5,2.1,0.8l5.2-3.5c0-0.6,0.1-1.1,0.1-1.7l0.1-2.4v-0.2l0,0l-3.1,2.1"/>
	<polyline class="st6" points="235,300.5 235,300.5 231.9,298.5 	"/>
	<path class="st6" d="M333,289c-28,16.1-62.4,16.1-90.4,0"/>
	<line class="st6" x1="347.5" y1="274.5" x2="341.4" y2="279.7"/>
	<line class="st6" x1="358.8" y1="261.7" x2="351.6" y2="270.4"/>
	<path class="st6" d="M260.1,136c3-1.1,6.2-2.1,9.3-2.9"/>
	<polygon points="819.7,453.1 818.3,594.5 804.3,594.5 805.7,453 806.9,453 811.9,453 813.5,453.1 818.5,453.1 	"/>
	<polygon points="879.5,594.5 865.4,594.5 864.1,453.1 865.3,453.1 870.3,453.1 871.8,453 876.9,453 878.1,453 	"/>
	<path class="st7" d="M821.4,404c0,1.5,0,3.1-0.1,4.6c-0.1,2.7-0.2,5.4-0.3,8.1c-0.4,8.1-1,16.2-1.6,24.2l-0.1,0.8
		c0,0.4,0,0.8-0.1,1.1c-0.1,0.8-0.1,1.5-0.2,2.3l-0.1,1.1c0,0.8-0.1,1.5-0.2,2.3l-0.1,1.5c-0.1,1-0.2,2-0.2,3h-5c0.3-4,0.6-8,0.9-12
		c0-0.5,0.1-1,0.1-1.5l0.3-4.5c0.3-4.8,0.7-9.7,0.9-14.5c0.1-1.3,0.1-2.5,0.2-3.8c0.2-3.6,0.3-7.2,0.4-10.8c0-0.7,0-1.3,0-2
		L821.4,404z"/>
	<path class="st7" d="M879.8,404c0,1.5,0,3.1-0.1,4.6c0,0.3,0,0.5,0,0.8c0,0.5,0,1.1,0,1.6c-0.4,10-1.1,20-1.8,29.9
		c0,0.3,0,0.5,0,0.8l-0.1,1.1c0,0.8-0.1,1.5-0.2,2.3c0,0.4-0.1,0.8-0.1,1.1l-0.2,2.3l-0.1,1.5c-0.1,1-0.2,2-0.2,2.9h-5
		c1.1-13.8,2.2-27.7,2.7-41.6c0-0.7,0-1.3,0.1-2c0.1-1.8,0.1-3.6,0.1-5.5L879.8,404z"/>
	<path class="st8" d="M811.9,453h-5c-0.3-4-0.6-8-0.9-12c-0.7-10-1.4-19.9-1.8-29.9c0-0.5,0-1.1,0-1.6v-0.8c0-1.5-0.1-3.1-0.1-4.6h5
		c0,1.8,0,3.6,0.1,5.5c0,0.7,0,1.3,0.1,2C809.7,425.4,810.8,439.2,811.9,453z"/>
	<path class="st8" d="M870.3,453.1h-5c-0.3-4-0.6-8-0.9-12c-0.6-8.1-1.2-16.2-1.6-24.2c-0.1-2.7-0.3-5.4-0.3-8.1
		c0-1.5-0.1-3.1-0.1-4.6h5c0,0.7,0,1.3,0,2c0,3.6,0.2,7.2,0.4,10.8c0.1,1.3,0.1,2.5,0.2,3.8c0.3,4.8,0.6,9.7,0.9,14.5
		c0.1,2,0.3,4,0.4,6C869.7,445.1,870,449.1,870.3,453.1z"/>
	<path class="st7" d="M940.3,228.7v5.1l-1.6,0.3l-1.1,0.2l-2.2,0.4c-3.6,0.5-7.1,0.9-10.7,1v-5c2.5-0.1,5.1-0.2,7.6-0.5l1.4-0.1
		c0.8-0.1,1.7-0.2,2.5-0.4c0.7-0.1,1.3-0.3,2-0.4C938.9,229.1,939.6,228.9,940.3,228.7z"/>
	<path class="st9" d="M940.3,221.9v5.1l-1-0.3c-0.4-0.1-0.7-0.2-1.1-0.3c-0.7-0.2-1.3-0.3-2-0.4c-0.8-0.1-1.7-0.3-2.5-0.4
		c-3-0.4-6-0.5-9.1-0.6v-5c2.4,0.1,4.8,0.3,7.2,0.5l1.2,0.1l2.3,0.3C937,221.3,938.6,221.6,940.3,221.9z"/>
	<path d="M1011,331.1l-0.4-0.4l-3,3l3,3l1.3,1.4l-31.6,31.6l-3.6,2.2l-4.5,5.9l1,1l1,1l5.9-4.5l2.2-3.6l31.6-31.6l1.4,1.4l3,3l3-3
		l-0.4-0.4c-1.2-1.2-1.2-3.2,0-4.4s3.2-1.2,4.4,0l0.4,0.4l2.7-2.7l21-21l0.7-0.7c3-3,3-7.8,0-10.8s-7.8-3-10.8,0l0,0l-0.7,0.7
		l-21,21l-2.7,2.7l0.4,0.4c1.2,1.2,1.2,3.2,0,4.4c-1.2,1.2-3.2,1.2-4.4,0L1011,331.1z"/>
	<polygon class="st10" points="1011.8,419.8 932.4,340.4 1011.8,261 1091.2,406.4 	"/>
	<circle class="st3" cx="996" cy="195.3" r="11.4"/>
	<path d="M997,200.9v-4h-2.7v4H993v-9.3h0.7v-0.7h0.7v-0.7h2.7v0.7h0.7v0.7h0.7v9.3H997z M997,192.2h-0.7v-0.6H995v0.6h-0.7v3.4h2.7
		V192.2z"/>
	<circle class="st3" cx="751.7" cy="576.2" r="11.4"/>
	<path d="M754.4,580.4v0.7h-0.7v0.7h-4v-10.7h4v0.7h0.7v0.7h0.7v2.7h-0.7v0.7h-0.7v0.7h0.7v0.7h0.7v3.3L754.4,580.4z M753.7,573.1
		h-0.7v-0.7h-2v3.3h2v-0.7h0.7V573.1z M753.7,577.8h-0.7v-0.7h-2v3.3h2v-0.7h0.7V577.8z"/>
	<circle class="st3" cx="207.8" cy="524.9" r="11.4"/>
	<path d="M210.4,528.4v0.7h-0.7v0.7h-0.7v0.7h-3.3v-10.7h3.3v0.7h0.7v0.7h0.7v0.7h0.7v6.7L210.4,528.4z M209.8,522.4h-0.7v-0.7h-0.7
		v-0.7h-1.3v8h1.3v-0.7h0.7v-0.7h0.7V522.4z"/>
</g>
</svg>
