<?xml version="1.0" encoding="utf-8"?>
<!-- Generator: Adobe Illustrator 24.0.1, SVG Export Plug-In . SVG Version: 6.00 Build 0)  -->
<svg version="1.1" id="Layer_1" xmlns="http://www.w3.org/2000/svg" xmlns:xlink="http://www.w3.org/1999/xlink" x="0px" y="0px"
	 viewBox="0 0 1200 684.4" style="enable-background:new 0 0 1200 684.4;" xml:space="preserve">
<style type="text/css">
	.st0{fill:none;stroke:#0000FF;stroke-width:2;stroke-miterlimit:10;}
	.st1{fill:none;stroke:#000000;stroke-width:0.75;stroke-linecap:round;stroke-linejoin:round;}
	.st2{fill:none;stroke:#FF0005;stroke-width:2;stroke-linecap:round;}
	.st3{fill:none;stroke:#000000;stroke-width:15;stroke-miterlimit:10;}
	.st4{fill:none;stroke:#5D5D5D;stroke-width:5;stroke-linejoin:round;}
	.st5{fill:none;stroke:#000000;stroke-width:0.75;stroke-miterlimit:10;}
	.st6{fill:none;}
</style>
<g id="_x33_0px_margins">
</g>
<g>
	<line class="st0" x1="571.9" y1="287.2" x2="884" y2="287.2"/>
	<path class="st1" d="M498.7,442.4c1.7,0,3.2,0.7,4.5,1.7s2.4,2.3,3.2,3.7c1.7,2.8,2.7,6.1,3.1,9.3"/>
	<line class="st1" x1="498.7" y1="485" x2="316.4" y2="485"/>
	<path class="st1" d="M498.7,438.9c2.1,0,4,0.8,5.5,2.1c1.6,1.2,2.8,2.9,3.8,4.6c2,3.5,3.1,7.6,3.6,11.5"/>
	<path class="st1" d="M498.7,485c-2.1,0-4-0.9-5.5-2.1c-1.6-1.3-2.9-2.9-3.8-4.6"/>
	<path class="st1" d="M509.7,466.1c-0.4,3.3-1.4,6.8-3.1,9.7c-0.8,1.5-1.9,2.8-3.2,3.9c-1.3,1.1-2.9,1.8-4.7,1.8"/>
	<line class="st1" x1="316" y1="438.9" x2="498.7" y2="438.9"/>
	<path class="st1" d="M511.8,466.1c-0.4,4-1.5,8.3-3.5,11.8c-1,1.8-2.3,3.5-3.9,4.8s-3.5,2.2-5.7,2.2"/>
	<path class="st1" d="M489.3,478.2c-1.4-2.4-2.4-5.2-3-7.9c-0.6-2.7-0.9-5.6-0.9-8.4"/>
	<path class="st1" d="M485.4,461.9c0-4.7,0.9-9.8,2.8-14.2c1-2.2,2.3-4.3,4-6s3.9-2.9,6.5-2.9"/>
	<path class="st1" d="M487.4,461.9c0-4,0.7-8.3,2.4-12c0.8-1.8,2-3.7,3.4-5.1c1.5-1.4,3.3-2.5,5.5-2.5"/>
	<path class="st1" d="M498.7,481.5c-2.1,0-4-1-5.5-2.5c-1.5-1.4-2.6-3.2-3.4-5.1c-1.7-3.7-2.4-8-2.4-12"/>
	<line class="st2" x1="497.1" y1="457.7" x2="884" y2="457.7"/>
	<line class="st0" x1="497.1" y1="466.2" x2="884" y2="466.2"/>
	<line class="st3" x1="614.5" y1="461.9" x2="841.4" y2="461.9"/>
	<line class="st2" x1="571.9" y1="278.7" x2="884" y2="278.7"/>
	<line class="st3" x1="614.5" y1="282.9" x2="841.4" y2="282.9"/>
	<line class="st4" x1="562.7" y1="457.7" x2="606.9" y2="457.7"/>
	<line class="st4" x1="562.7" y1="466.1" x2="606.9" y2="466.1"/>
</g>
<g id="SPK-P_assembly_of_the_base">
</g>
<g id="SPK-P_soldering_of_the_bms">
</g>
<g id="SPK-P_making_of_the_slots">
</g>
<g id="SPK-P_step_membrane_4">
</g>
<g id="SPK-P_step_membrane_3">
</g>
<g id="SPK-P_step_membrane_2">
</g>
<g id="SPK-P_step_membrane_1">
</g>
<g id="SPK-P_step_cable_base_print_assembly">
</g>
<g id="SPK-P_hero">
</g>
<g id="SPK-P_component_overviw">
</g>
<g id="SPK-P_printing">
</g>
<g id="SPK-P_printing_holders">
</g>
<g id="SPK-P_step_cable_base_holes">
	<circle class="st5" cx="583.1" cy="246.1" r="11.4"/>
</g>
<g id="SPK-P_step_choose_a_base">
</g>
<g id="SPK-P_step_drilling_holes">
</g>
<g id="SPK-P_step_exciters_1">
</g>
<g id="SPK-P_step_exciters_2">
</g>
<g id="SPK-P_cable_base_print_cable">
</g>
<g id="SPK-P_cable_base_print">
</g>
<g id="SPK-P_cutting_tube">
</g>
<g id="Layer_23">
</g>
<g id="TOOLS_MATERIALS">
</g>
<g id="SOUND__x26__ORDER">
</g>
<g id="Layer_26">
	<g>
		<rect x="579.8" y="241.2" class="st6" width="6.4" height="9.8"/>
		<path d="M584.5,249.4v0.6h-0.6v0.6h-2.3V250H581v-0.6h-0.6v-7h0.6v-0.6h0.6v-0.6h2.3v0.6h0.6v0.6h0.6v2.3h-1.2v-1.8h-0.6v-0.6
			h-1.2v0.6h-0.6v5.8h0.6v0.6h1.2v-0.6h0.6V247h1.2v2.3L584.5,249.4L584.5,249.4z"/>
	</g>
</g>
<g id="Layer_27">
</g>
</svg>
