<?xml version="1.0" encoding="utf-8"?>
<!-- Generator: Adobe Illustrator 26.3.1, SVG Export Plug-In . SVG Version: 6.00 Build 0)  -->
<svg version="1.1" xmlns="http://www.w3.org/2000/svg" xmlns:xlink="http://www.w3.org/1999/xlink" x="0px" y="0px"
	 viewBox="0 0 1200 600" style="enable-background:new 0 0 1200 600;" xml:space="preserve">
<style type="text/css">
	.st0{display:none;}
	.st1{fill:none;stroke:#000000;stroke-width:0.75;stroke-linecap:round;stroke-linejoin:round;}
	.st2{fill:none;stroke:#FF0005;stroke-width:2;stroke-linecap:round;}
	.st3{fill:none;stroke:#000000;stroke-width:15;stroke-miterlimit:10;}
	.st4{fill:none;stroke:#0000FF;stroke-width:2;stroke-miterlimit:10;}
	.st5{fill:none;stroke:#5D5D5D;stroke-width:5;stroke-linejoin:round;}
	.st6{fill:none;stroke:#FF0005;stroke-width:5;stroke-linecap:round;}
	.st7{fill:none;stroke:#0000FF;stroke-width:5;stroke-linecap:round;}
	.st8{fill:none;stroke:#000000;stroke-width:8;stroke-linecap:round;}
	.st9{fill:none;stroke:#1D1D1B;stroke-width:17;stroke-linecap:round;stroke-linejoin:round;}
	.st10{fill:none;stroke:#000000;stroke-width:0.35;stroke-linecap:round;stroke-linejoin:round;}
	.st11{fill:none;stroke:#000000;stroke-width:0.75;stroke-linejoin:round;}
	.st12{fill:none;stroke:#000000;stroke-width:0.35;stroke-linejoin:round;}
	.st13{fill:none;stroke:#000000;stroke-width:0.75;}
	.st14{fill:none;stroke:#0000FF;stroke-width:8;stroke-linecap:round;}
	.st15{fill:none;stroke:#FF0001;stroke-width:8;stroke-linecap:round;}
	.st16{fill:none;stroke:#000000;stroke-width:0.75;stroke-dasharray:3.004,2.004;}
	.st17{fill:none;stroke:#000000;stroke-width:0.35;}
	.st18{fill:none;stroke:#000000;stroke-width:0.35;stroke-linecap:round;stroke-linejoin:round;stroke-dasharray:3;}
	.st19{fill:none;stroke:#000000;stroke-width:0.75;stroke-linecap:round;stroke-linejoin:round;stroke-dasharray:2.9233,2.9233;}
	.st20{fill:none;stroke:#000000;stroke-width:0.75;stroke-linecap:round;stroke-linejoin:round;stroke-dasharray:3;}
	
		.st21{clip-path:url(#SVGID_00000098188120291959815340000015911032265646462908_);fill:#003DFF;stroke:#000000;stroke-width:0.75;stroke-miterlimit:10;}
	
		.st22{clip-path:url(#SVGID_00000098188120291959815340000015911032265646462908_);fill:none;stroke:#000000;stroke-width:0.75;stroke-miterlimit:10;}
	.st23{clip-path:url(#SVGID_00000098188120291959815340000015911032265646462908_);}
	.st24{fill:none;stroke:#000000;stroke-width:0.75;stroke-miterlimit:10;}
	.st25{fill:none;stroke:#000000;stroke-width:0.75;stroke-miterlimit:10;stroke-dasharray:4.9697,4.9697,4.9697,4.9697;}
	
		.st26{fill:none;stroke:#000000;stroke-width:0.75;stroke-miterlimit:10;stroke-dasharray:4.9697,4.9697,4.9697,4.9697,4.9697,4.9697;}
	
		.st27{opacity:0.5;clip-path:url(#SVGID_00000098188120291959815340000015911032265646462908_);fill:#B7FFF5;enable-background:new    ;}
	.st28{fill:none;stroke:#000000;stroke-width:0.6163;stroke-miterlimit:10;}
	.st29{clip-path:url(#SVGID_00000098188120291959815340000015911032265646462908_);fill:none;stroke:#000000;stroke-width:0.75;}
	.st30{fill:none;stroke:#000000;stroke-width:0.75;stroke-miterlimit:10;stroke-dasharray:5,5,5,5,5,5;}
	.st31{fill:none;stroke:#000000;stroke-width:0.75;stroke-dasharray:4.8555,4.8555,4.8555,4.8555,4.8555,4.8555;}
	.st32{fill:none;stroke:#000000;stroke-width:0.75;stroke-dasharray:5.0242,5.0242,5.0242,5.0242,5.0242,5.0242;}
	.st33{fill:none;stroke:#000000;stroke-width:0.75;stroke-dasharray:5.0232,5.0232,5.0232,5.0232,5.0232,5.0232;}
	.st34{clip-path:url(#SVGID_00000072250618425767832730000005350396622198328227_);enable-background:new    ;}
	.st35{enable-background:new    ;}
	.st36{clip-path:url(#SVGID_00000143586490903217315750000009051763730721025159_);}
	.st37{fill:#F9EA47;stroke:#000000;stroke-miterlimit:10;}
	.st38{clip-path:url(#SVGID_00000181777264844269043110000010776289027056124809_);enable-background:new    ;}
	.st39{clip-path:url(#SVGID_00000033356194517371004770000003531768170951900033_);}
	.st40{fill:#003DFF;stroke:#000000;stroke-width:0.75;stroke-miterlimit:10;}
	.st41{fill:none;stroke:#000000;stroke-width:0.35;stroke-miterlimit:10;}
	.st42{fill:none;}
	.st43{fill:none;stroke:#000000;stroke-width:0.367;stroke-miterlimit:10;}
	.st44{fill:none;stroke:#000000;stroke-width:0.3518;stroke-miterlimit:10;}
	.st45{fill:none;stroke:#EE3124;stroke-width:8;stroke-linecap:round;}
	.st46{fill:none;stroke:#000000;stroke-width:0.498;stroke-linecap:round;stroke-linejoin:round;}
	.st47{fill:none;stroke:#000000;stroke-width:0.7535;stroke-linecap:round;stroke-linejoin:round;}
	.st48{fill:none;stroke:#000000;stroke-width:0.2898;stroke-linecap:round;stroke-linejoin:round;}
	.st49{fill:none;stroke:#000000;stroke-width:0.3334;stroke-linecap:round;stroke-linejoin:round;}
	.st50{fill:none;stroke:#000000;stroke-width:0.057;stroke-linecap:round;stroke-linejoin:round;}
	.st51{fill:none;stroke:#FFFFFF;stroke-width:0.35;stroke-miterlimit:10;}
	.st52{fill:none;stroke:#1C1C1B;stroke-width:17;stroke-linejoin:round;}
	.st53{fill:none;stroke:#1C1C1B;stroke-width:5;stroke-linecap:round;}
	.st54{fill:none;stroke:#FF0001;stroke-width:5;stroke-linecap:round;}
	.st55{fill:none;stroke:#000000;stroke-width:0.5;stroke-linecap:round;stroke-linejoin:round;}
	.st56{fill:none;stroke:#000000;stroke-width:0.5785;stroke-linecap:round;stroke-linejoin:round;}
	.st57{fill:none;stroke:#000000;stroke-width:0.27;stroke-linecap:round;stroke-linejoin:round;}
	.st58{fill:none;stroke:#000000;stroke-width:0.6652;stroke-linecap:round;stroke-linejoin:round;}
	.st59{fill:none;stroke:#FF0005;stroke-width:8;stroke-linecap:round;}
	.st60{fill:none;stroke:#000000;stroke-width:0.35;stroke-linecap:round;stroke-linejoin:round;stroke-dasharray:3.1535,3.1535;}
	.st61{fill:none;stroke:#000000;stroke-width:0.75;stroke-linecap:round;stroke-linejoin:round;stroke-dasharray:3.0445,3.0445;}
	.st62{fill:none;stroke:#FF0005;stroke-width:5.9284;stroke-linecap:square;}
	.st63{fill:none;stroke:#0000FF;stroke-width:5.9284;stroke-linecap:square;}
	.st64{fill:none;stroke:#000000;stroke-width:0.415;stroke-linecap:round;stroke-linejoin:round;}
	.st65{fill:#FF0005;stroke:#FF0005;stroke-width:0.75;stroke-miterlimit:10;}
	.st66{fill:#0000FF;stroke:#0000FF;stroke-width:0.75;stroke-miterlimit:10;}
	.st67{fill:#0000FF;stroke:#0000FF;stroke-width:0.75;stroke-linecap:round;stroke-linejoin:round;}
	.st68{fill-rule:evenodd;clip-rule:evenodd;}
	.st69{clip-path:url(#SVGID_00000093859664341412089650000017388064403573729927_);enable-background:new    ;}
	.st70{clip-path:url(#SVGID_00000067927376139110805460000011754222369986653086_);}
	.st71{clip-path:url(#SVGID_00000183955533225253384060000011889069631085671831_);enable-background:new    ;}
	.st72{clip-path:url(#SVGID_00000134945520246753757400000008673169695180309946_);}
	.st73{clip-path:url(#SVGID_00000176035265898683520360000006723056864003293341_);enable-background:new    ;}
	.st74{clip-path:url(#SVGID_00000098933275691923796160000001377773939346176431_);}
	.st75{clip-path:url(#SVGID_00000157293287194627721660000009682986689735689118_);enable-background:new    ;}
	.st76{clip-path:url(#SVGID_00000162338427140800811540000005428285130073689237_);}
	.st77{clip-path:url(#SVGID_00000072258498723056924860000015551060443672628155_);enable-background:new    ;}
	.st78{clip-path:url(#SVGID_00000003809161847138679810000007533698025381131676_);}
	.st79{clip-path:url(#SVGID_00000035505493532057328350000005402388253891995320_);enable-background:new    ;}
	.st80{clip-path:url(#SVGID_00000131357668696993093180000004482784079607260546_);}
	.st81{clip-path:url(#SVGID_00000147188588806198953750000007422295053116322704_);enable-background:new    ;}
	.st82{clip-path:url(#SVGID_00000105414905959158687540000005298514851171922063_);}
	.st83{clip-path:url(#SVGID_00000179629580319355485890000002617293228532915373_);enable-background:new    ;}
	.st84{clip-path:url(#SVGID_00000030476479647941937490000012392341593918288529_);}
	.st85{clip-path:url(#SVGID_00000155148026923002478590000008060187000464327078_);enable-background:new    ;}
	.st86{clip-path:url(#SVGID_00000106864535311679948200000015614838581772873117_);}
	.st87{clip-path:url(#SVGID_00000119093565521917030490000009609117739039975852_);enable-background:new    ;}
	.st88{clip-path:url(#SVGID_00000039097551083810750120000014867075378894534334_);}
	.st89{clip-path:url(#SVGID_00000181772941048692829500000006279646418985760701_);enable-background:new    ;}
	.st90{clip-path:url(#SVGID_00000020397696182989365750000005125423904303412126_);}
	
		.st91{clip-path:url(#SVGID_00000100379031171479007960000013942556222767075261_);fill:none;stroke:#000000;stroke-width:0.75;stroke-linecap:round;stroke-linejoin:round;}
	
		.st92{clip-path:url(#SVGID_00000100379031171479007960000013942556222767075261_);fill:none;stroke:#000000;stroke-width:0.75;stroke-linejoin:round;}
	
		.st93{clip-path:url(#SVGID_00000100379031171479007960000013942556222767075261_);fill:none;stroke:#000000;stroke-width:0.35;stroke-linecap:round;stroke-linejoin:round;}
	.st94{clip-path:url(#SVGID_00000100379031171479007960000013942556222767075261_);fill:none;stroke:#000000;stroke-width:0.75;}
	.st95{clip-path:url(#SVGID_00000100379031171479007960000013942556222767075261_);}
	.st96{clip-path:url(#SVGID_00000006678329019751522830000002876579058679277236_);enable-background:new    ;}
	.st97{clip-path:url(#SVGID_00000044152565037110290940000014148470798665739196_);}
	.st98{clip-path:url(#SVGID_00000030478622905629740620000011790634007631282844_);enable-background:new    ;}
	.st99{clip-path:url(#SVGID_00000044860277974808209210000012320192223892726959_);}
	.st100{fill:none;stroke:#000000;stroke-width:10;stroke-linecap:round;stroke-linejoin:round;}
	.st101{fill:#2D384B;}
	.st102{fill:none;stroke:#FF0005;stroke-width:10;stroke-linecap:round;}
	.st103{fill:none;stroke:#0000FF;stroke-width:10;stroke-linecap:round;}
	.st104{fill:none;stroke:#000000;stroke-width:0.75;stroke-linecap:round;stroke-linejoin:round;stroke-dasharray:5.1334,5.1334;}
	.st105{fill:none;stroke:#000000;stroke-width:0.35;stroke-linecap:round;stroke-linejoin:round;stroke-dasharray:5.2358,5.2358;}
	.st106{fill:none;stroke:#000000;stroke-width:0.6107;stroke-linecap:round;stroke-linejoin:round;}
	.st107{fill:none;stroke:#000000;stroke-width:0.6107;stroke-linecap:round;stroke-linejoin:round;stroke-dasharray:4.0874,4.0874;}
	.st108{fill:none;stroke:#000000;}
</style>
<g id="_x33_0px_margins">
</g>
<g id="SPK-P_assembly_of_the_upper_part">
</g>
<g id="SPK-P_assembly_of_the_base">
</g>
<g id="SPK-P_soldering_of_the_bms">
</g>
<g id="SPK-P_making_of_the_slots">
</g>
<g id="SPK-P_step_membrane_4">
</g>
<g id="SPK-P_step_membrane_3">
</g>
<g id="SPK-P_step_membrane_2">
</g>
<g id="SPK-P_step_membrane_1">
</g>
<g id="SPK-P_step_cable_base_print_assembly">
	<path class="st45" d="M550.5,377.1l-2.5,65.5c-0.3,27.4-6,42.6-44.5,42.6s-204,20.1-204,20.1s-30,3.8-41.9-5.1
		s-24.9-41.5-45.9-41.5s-32.9-19-37.9-20.4"/>
	<path class="st14" d="M558.6,359.4c15.4,128.3-21.5,133.3-60,133.3s-194.7,17.1-194.7,17.1s-39.7,2.4-51.6-6.4
		c-11.9-8.9-24.4-37.8-45.4-37.8s-30.9-12.1-35.8-13.5"/>
	<g>
		<g>
			<line class="st13" x1="400.9" y1="203.9" x2="400.9" y2="365.29"/>
			<g>
				<polygon points="397.83,362.8 398.38,362.29 400.9,365 403.42,362.29 403.97,362.8 400.9,366.1 				"/>
			</g>
		</g>
	</g>
	<path class="st45" d="M1032.1,344.1v125.3l0,0c0,0,1.2,14.7-24.4,14.7c-25.7,0-3.7,20.1-42.2,20.1s-150.9,1.1-150.9,1.1
		s-33-0.5-44.8-9.4c-11.9-8.9-0.25-32.78-21.15-32.78"/>
	<path class="st1" d="M582.7,82.9c-60.8,0-121.6,0-182.4,0c-7.5,0-15.1,0-22.6,0c-7.6,0-15.3,0-22.9,0c-15.2,0-30.4,0-45.6,0
		s-30.4,0-45.6,0c-11.5,0-23.1,0-34.6,0c-2.8,0-5.6,0-8.3,0c-0.7,0-1.3,0-2,0c-0.2,0-0.3,0-0.5,0h-0.1c0,0-0.1,0,0,0"/>
	<line class="st1" x1="525.9" y1="144.8" x2="528.9" y2="144.8"/>
	<line class="st1" x1="214.9" y1="122.3" x2="218" y2="122.3"/>
	<path class="st1" d="M218,122.3c0,0,0,0.3,0.1,1c0,0.6,0.1,1.6,0.2,2.8c0.1,1.2,0.1,2.6,0.2,4.2c0.1,1.6,0.1,3.3,0.1,5.1
		s0,3.6,0,5.3"/>
	<line class="st1" x1="218" y1="122.3" x2="218" y2="82.9"/>
	<path class="st1" d="M528.6,159.1c0-0.6,0-1.2,0-1.9c0-0.6-0.1-1.2-0.1-1.8c-0.1-1.2-0.3-2.3-0.5-3.4c-0.4-2.2-0.9-4-1.4-5.3
		c-0.2-0.6-0.4-1.1-0.5-1.5c-0.1-0.3-0.2-0.5-0.2-0.5"/>
	<line class="st1" x1="582.7" y1="82.9" x2="582.7" y2="189.3"/>
	<line class="st1" x1="582.7" y1="189.3" x2="582.7" y2="82.9"/>
	<line class="st1" x1="528.9" y1="144.8" x2="528.9" y2="79.8"/>
	<path class="st1" d="M531.9,189.2c0,0,0-29.3,0-30c0-0.8,0-1.5-0.1-2.3s-0.1-1.5-0.2-2.2c-0.2-1.5-0.5-2.8-0.8-4
		c-0.2-0.9-0.5-1.7-0.7-2.4s-0.4-1.3-0.6-1.8c-0.2-0.5-0.3-0.9-0.4-1.2c-0.1-0.3-0.2-0.4-0.2-0.4l0,0"/>
	<path class="st1" d="M528.5,189.4c0,0,0-27.8,0-28.4c0-0.6,0-1.2,0-1.9"/>
	<path class="st1" d="M218.5,189.1c0,0,0-46.6,0-48.4c0-1.7,0.1-3.5,0-5.3c0-1.8-0.1-3.5-0.1-5.1c-0.1-1.6-0.1-3-0.2-4.2
		c-0.1-1.2-0.1-2.1-0.2-2.8c0-0.6-0.1-1-0.1-1"/>
	<line class="st1" x1="586.9" y1="79.8" x2="586.9" y2="189.3"/>
	<path class="st1" d="M586.9,79.8c-62,0-124,0-186,0c-31,0-62,0-93,0c-15.5,0-31,0-46.5,0c-11.8,0-23.5,0-35.3,0c-2.8,0-5.7,0-8.5,0
		c-0.7,0-1.3,0-2,0c-0.2,0-0.3,0-0.5,0H215c0,0-0.1,0,0,0"/>
	<path class="st1" d="M214.9,122.3c0,0,0,0.3,0.1,1c0,0.6,0.1,1.6,0.2,2.8c0.1,1.2,0.1,2.6,0.2,4.2c0.1,1.6,0.1,3.3,0.1,5.1
		s0,3.6,0,5.3"/>
	<line class="st1" x1="214.9" y1="122.3" x2="214.9" y2="79.8"/>
	<path class="st1" d="M586.9,189.3c-0.4,0-0.8,0-1.2,0"/>
	<line class="st1" x1="586.9" y1="79.8" x2="586.9" y2="189.3"/>
	<path class="st1" d="M215.5,189.1c0,0,0-46.6,0-48.4c0-1.7,0-3.5,0-5.3s-0.1-3.5-0.1-5.1c-0.1-1.6-0.1-3-0.2-4.2
		c-0.1-1.2-0.1-2.1-0.2-2.8c0-0.6-0.1-1-0.1-1"/>
	<path class="st1" d="M215.6,189.3c0.7,0,1.3,0,2,0c2.8,0,5.6,0,8.5,0c11.7,0,23.5,0,35.2,0c15.5,0,30.9,0,46.4,0
		c15.4,0,30.9,0,46.4,0c7.8,0,15.5,0,23.3,0c7.7,0,15.3,0,23,0c61.8,0,123.6,0,185.4,0"/>
	<line class="st1" x1="213.5" y1="448.4" x2="213.5" y2="405.6"/>
	<line class="st1" x1="213.5" y1="517.1" x2="213.5" y2="477.1"/>
	<path class="st1" d="M213.5,517.1C213.4,517.1,213.5,517.1,213.5,517.1c0.1,0,0.1,0,0.2,0c0.2,0,0.3,0,0.5,0c0.7,0,1.3,0,2,0
		c2.8,0,5.7,0,8.5,0c11.8,0,23.7,0,35.5,0c15.6,0,31.2,0,46.7,0c15.6,0,31.1,0,46.7,0c7.9,0,15.7,0,23.6,0c7.7,0,15.4,0,23.1,0
		c62.3,0,124.6,0,186.9,0"/>
	<line class="st1" x1="532" y1="520.2" x2="532" y2="499.5"/>
	<line class="st1" x1="532" y1="470.8" x2="532" y2="405.6"/>
	<path class="st1" d="M532,485.2c0-1.9-0.2-3.8-0.5-5.5s-0.7-3.3-1.1-4.6c-0.2-0.7-0.4-1.3-0.6-1.8c-0.2-0.5-0.3-1-0.5-1.3
		c-0.3-0.7-0.4-1.1-0.4-1.1"/>
	<path class="st1" d="M532,499.5c0,0,0.2-0.4,0.5-1.1c0.1-0.4,0.3-0.8,0.5-1.3s0.4-1.1,0.6-1.8c0.4-1.3,0.9-2.9,1.2-4.6
		s0.5-3.6,0.5-5.5s-0.2-3.8-0.5-5.5s-0.8-3.3-1.2-4.6c-0.2-0.7-0.4-1.3-0.6-1.8c-0.2-0.5-0.4-0.9-0.5-1.3c-0.3-0.7-0.5-1.1-0.5-1.1"
		/>
	<line class="st1" x1="210.4" y1="477.1" x2="213.5" y2="477.1"/>
	<path class="st1" d="M213.5,477.1c0-0.3,0.1-1,0.1-2c0.1-1,0.1-2.2,0.2-3.6c0.1-1.4,0.1-3,0.2-4.8c0-1.7,0-3.5,0-5.3
		s-0.1-3.5-0.1-5.1c-0.1-1.6-0.1-3-0.2-4.2c-0.1-1.2-0.1-2.2-0.2-2.8c0-0.7-0.1-1-0.1-1"/>
	<line class="st1" x1="532" y1="499.5" x2="529" y2="499.5"/>
	<line class="st1" x1="529" y1="470.8" x2="532" y2="470.8"/>
	<line class="st1" x1="587.3" y1="517.1" x2="587.3" y2="405.6"/>
	<line class="st1" x1="587.3" y1="405.6" x2="587.3" y2="517.1"/>
	<line class="st1" x1="210.4" y1="448.4" x2="213.5" y2="448.4"/>
	<path class="st1" d="M529,499.5c0,0,0.2-0.4,0.4-1.1c0.1-0.4,0.3-0.8,0.5-1.3s0.4-1.1,0.6-1.8c0.4-1.3,0.8-2.9,1.1-4.6
		s0.5-3.6,0.5-5.5"/>
	<path class="st1" d="M213.5,448.4c0,0,0,0.3,0.1,1c0,0.6,0.1,1.6,0.2,2.8s0.1,2.6,0.2,4.2c0.1,1.6,0.1,3.3,0.1,5.1
		c0,1.8,0,3.6,0,5.3c0,1.7-0.1,3.3-0.2,4.8c-0.1,1.4-0.1,2.7-0.2,3.6c-0.1,0.9-0.1,1.6-0.1,2"/>
	<path class="st1" d="M590.3,405.6c-63.3,0-126.6,0-189.9,0c-7.8,0-15.7,0-23.5,0c-8,0-16,0-24,0c-15.8,0-31.7,0-47.5,0
		s-31.7,0-47.5,0c-12,0-24.1,0-36.1,0c-2.9,0-5.8,0-8.7,0c-0.7,0-1.4,0-2.1,0c-0.2,0-0.3,0-0.5,0h-0.1c0,0-0.1,0,0,0"/>
	<path class="st1" d="M591.4,520.2c-63.5,0-127,0-190.5,0c-7.9,0-15.7,0-23.6,0c-8,0-16.1,0-24.1,0c-15.9,0-31.8,0-47.6,0
		s-31.8,0-47.6,0c-12.1,0-24.1,0-36.2,0c-2.9,0-5.8,0-8.7,0c-0.7,0-1.4,0-2.1,0c-0.2,0-0.3,0-0.5,0h-0.1c0,0-0.1,0,0,0"/>
	<line class="st1" x1="210.4" y1="448.4" x2="210.4" y2="405.6"/>
	<line class="st1" x1="210.4" y1="520.2" x2="210.4" y2="477.1"/>
	<line class="st1" x1="210.4" y1="477.1" x2="210.4" y2="477.1"/>
	<polyline class="st1" points="210.4,477.1 210.4,477.1 210.4,477.1 210.4,477.1 210.4,477.1 	"/>
	<path class="st1" d="M210.4,477.1c0-0.3,0.1-1,0.1-2c0.1-1,0.1-2.2,0.2-3.6c0.1-1.4,0.1-3,0.2-4.8c0-1.7,0-3.5,0-5.3
		s-0.1-3.5-0.1-5.1c-0.1-1.6-0.1-3-0.2-4.2c-0.1-1.2-0.1-2.2-0.2-2.8c0-0.7-0.1-1-0.1-1"/>
	<path class="st1" d="M591.4,405.6c-0.4,0-0.8,0-1.2,0"/>
	<line class="st1" x1="591.4" y1="405.6" x2="591.4" y2="520.2"/>
	<line class="st1" x1="591.4" y1="405.6" x2="591.4" y2="520.2"/>
	<path class="st1" d="M210.4,448.4c0,0,0,0.3,0.1,1c0,0.6,0.1,1.6,0.2,2.8c0.1,1.2,0.1,2.6,0.2,4.2c0.1,1.6,0.1,3.3,0.1,5.1
		c0,1.8,0,3.6,0,5.3c0,1.7-0.1,3.3-0.2,4.8c-0.1,1.4-0.1,2.7-0.2,3.6c-0.1,0.9-0.1,1.6-0.1,2"/>
	<path class="st10" d="M1071.81,409c-60.8,0-120.71,0-181.51,0c-7.5,0-15.1,0-22.6,0c-7.6,0-15.3,0-22.9,0c-15.2,0-30.4,0-45.6,0
		c-15.2,0-30.4,0-45.6,0c-11.5,0-23.1,0-34.6,0c-2.8,0-5.5,0-8.3,0c-0.7,0-1.3,0-2,0c-0.2,0-0.3,0-0.5,0h-0.1c0,0-0.1,0,0,0"/>
	<line class="st10" x1="1015.8" y1="470.9" x2="1018.8" y2="470.9"/>
	<path class="st10" d="M1015.8,499.6c0,0,0.1-0.2,0.2-0.5c0.1-0.3,0.3-0.8,0.5-1.5c0.4-1.3,0.9-3.1,1.3-5.3c0.2-1.1,0.4-2.2,0.5-3.4
		c0.1-0.6,0.1-1.2,0.1-1.8c0-0.6,0-1.2,0-1.9"/>
	<line class="st10" x1="707.9" y1="449.47" x2="707.9" y2="409"/>
	<line class="st10" x1="1018.8" y1="515.4" x2="1018.8" y2="499.6"/>
	<path class="st10" d="M1018.5,485.3c0-0.6,0-1.2,0-1.9c0-0.6-0.1-1.2-0.1-1.8c-0.1-1.2-0.3-2.3-0.5-3.4c-0.4-2.2-0.9-4-1.3-5.3
		c-0.2-0.6-0.4-1.1-0.5-1.5c-0.1-0.3-0.2-0.5-0.2-0.5"/>
	<path class="st10" d="M1018.8,499.6c0,0,0.1-0.1,0.2-0.4c0.1-0.3,0.3-0.7,0.4-1.2c0.2-0.5,0.4-1.1,0.6-1.8c0.2-0.7,0.4-1.5,0.7-2.4
		c0.3-1.2,0.6-2.6,0.8-4c0.1-0.7,0.2-1.5,0.2-2.2c0.1-0.8,0.1-1.5,0.1-2.3s0-1.6-0.1-2.3c0-0.8-0.1-1.5-0.2-2.2
		c-0.2-1.5-0.5-2.8-0.8-4c-0.2-0.9-0.5-1.7-0.7-2.4c-0.2-0.7-0.4-1.3-0.6-1.8s-0.3-0.9-0.4-1.1c-0.1-0.3-0.2-0.4-0.2-0.4l0,0"/>
	<line class="st10" x1="1072.7" y1="409" x2="1072.7" y2="515.4"/>
	<line class="st10" x1="1072.7" y1="515.4" x2="1072.7" y2="409"/>
	<line class="st10" x1="1018.8" y1="470.9" x2="1018.8" y2="405.9"/>
	<line class="st10" x1="1018.8" y1="499.6" x2="1015.8" y2="499.6"/>
	<line class="st1" x1="1076.8" y1="405.9" x2="1076.8" y2="515.4"/>
	<path class="st1" d="M1076.8,405.9c-62,0-124,0-186,0c-31,0-62,0-93,0c-15.5,0-31,0-46.5,0c-11.8,0-23.5,0-35.3,0
		c-2.8,0-5.7,0-8.5,0c-0.7,0-1.3,0-2,0c-0.2,0-0.3,0-0.5,0"/>
	<line class="st1" x1="704.8" y1="449.47" x2="704.9" y2="405.9"/>
	<path class="st1" d="M704.8,477.2v38.2h370.8c0.4,0,0.8,0,1.2,0"/>
	<path class="st1" d="M704.9,477.2L704.9,477.2L704.9,477.2L704.9,477.2L704.9,477.2"/>
	<line class="st1" x1="1076.8" y1="405.9" x2="1076.8" y2="515.4"/>
	<g>
		<g>
			<path class="st13" d="M179.8,403.2c0,0,0-1.5,0,12.6c0,13.83,10.19,25.15,23.89,25.59"/>
			<g>
				<polygon points="201.03,444.28 200.55,443.7 203.4,441.34 200.84,438.67 201.38,438.15 204.5,441.4 				"/>
			</g>
		</g>
	</g>
	<g>
		<g>
			<path class="st13" d="M519.5,495.5h12.6c13.83,0,25.15-10.19,25.59-23.89"/>
			<g>
				<polygon points="560.58,474.27 560,474.75 557.64,471.9 554.97,474.46 554.45,473.92 557.7,470.8 				"/>
			</g>
		</g>
	</g>
	<g>
		<g>
			<path class="st13" d="M522.6,474.7c0,0-0.5,0,4.6,0c4.86,0,8.9-3.45,9.27-8.79"/>
			<g>
				<polygon points="539.13,468.76 538.52,469.2 536.36,466.19 533.52,468.56 533.04,467.99 536.5,465.1 				"/>
			</g>
		</g>
	</g>
	<line class="st10" x1="1012.2" y1="467.5" x2="1015.2" y2="467.5"/>
	<path class="st10" d="M1014.8,481.1c0-0.6,0-1.2,0-1.8c0-0.6-0.1-1.2-0.1-1.7c-0.1-1.1-0.3-2.2-0.5-3.2c-0.4-2.1-0.9-3.8-1.3-5
		c-0.2-0.6-0.4-1.1-0.5-1.4s-0.2-0.5-0.2-0.5"/>
	<line class="st10" x1="1067.7" y1="509.7" x2="1067.7" y2="409"/>
	<line class="st10" x1="1015.2" y1="467.5" x2="1015.2" y2="405.9"/>
	<path class="st10" d="M1018.1,509.6c0,0,0-27.7,0-28.5c0-0.7,0-1.5-0.1-2.2s-0.1-1.4-0.2-2.1c-0.2-1.4-0.5-2.7-0.8-3.8
		c-0.2-0.8-0.4-1.6-0.7-2.3c-0.2-0.7-0.4-1.3-0.6-1.7s-0.3-0.8-0.4-1.1c-0.1-0.3-0.1-0.4-0.1-0.4l0,0"/>
	<path class="st10" d="M1014.8,509.8c0,0,0-26.3,0-26.9s0-1.2,0-1.8"/>
	<line class="st10" x1="1071.8" y1="405.9" x2="1071.8" y2="509.7"/>
	<path class="st1" d="M1071.8,405.9c-60.5,0-121,0-181.6,0c-30.3,0-60.5,0-90.8,0c-15.1,0-30.3,0-45.4,0c-11.5,0-23,0-34.5,0
		c-2.8,0-5.5,0-8.3,0c-0.7,0-1.3,0-2,0c-0.2,0-0.3,0-0.5,0h-0.1c0,0-0.1,0,0,0"/>
	<path class="st10" d="M1071.8,509.7c-0.4,0-0.8,0-1.2,0"/>
	<line class="st10" x1="1071.81" y1="409" x2="1071.8" y2="509.7"/>
	<path class="st10" d="M709.3,509.7c0,0-0.1-17.2-0.1-30.79"/>
	<path class="st10" d="M709.3,509.7c0.7,0,1.3,0,2,0c2.8,0,5.5,0,8.3,0c11.5,0,22.9,0,34.4,0c15.1,0,30.2,0,45.2,0s30.2,0,45.2,0
		c7.6,0,15.2,0,22.8,0c7.5,0,15,0,22.5,0c60.3,0,120.7,0,181,0"/>
	<line class="st46" x1="1022.04" y1="239.53" x2="1018.79" y2="241.39"/>
	<path class="st46" d="M1020.12,200.29c0.2-0.13,0.46-0.2,0.8-0.27c0.27-0.07,0.6,0,0.93,0.07c0.33,0.07,0.73,0.2,1.13,0.33
		c0.4,0.13,0.8,0.33,1.2,0.6c0.46,0.27,0.86,0.53,1.33,0.86c0.46,0.33,0.86,0.66,1.33,1.06c0.4,0.4,0.86,0.8,1.26,1.2
		c0.4,0.46,0.8,0.93,1.2,1.39c0.73,0.93,1.33,1.99,1.79,2.99c0.2,0.53,0.4,1,0.46,1.53c0.13,0.53,0.2,1.06,0.2,1.53"/>
	<line class="st46" x1="1022.04" y1="202.28" x2="1022.04" y2="228.64"/>
	<line class="st46" x1="1031.67" y1="211.65" x2="1031.67" y2="222.27"/>
	<line class="st46" x1="1018.79" y1="241.39" x2="1018.79" y2="204.21"/>
	<path class="st46" d="M1022.24,200.23c-0.07,0.2-0.07,0.46-0.13,0.73c-0.07,0.4-0.07,0.86-0.07,1.39"/>
	<path class="st46" d="M1022.04,228.71c2.32-3.12,6.11-5.25,9.63-6.44"/>
	<line class="st46" x1="1022.04" y1="228.71" x2="1022.04" y2="239.53"/>
	<line class="st46" x1="1031.67" y1="222.2" x2="1031.67" y2="248.83"/>
	<path class="st46" d="M1072.7,234.09c0,2.06-0.66,3.98-1.79,5.71c-1.06,1.73-2.59,3.19-4.18,4.38c-3.19,2.39-7.17,3.98-11.02,4.98
		c-7.64,1.93-16.47,1.86-24.03-0.33"/>
	<line class="st47" x1="1015.8" y1="0" x2="1015.8" y2="234.09"/>
	<line class="st47" x1="1072.7" y1="234.09" x2="1072.7" y2="0"/>
	<path class="st46" d="M1018.79,241.39c-1.73-2.06-2.92-4.51-2.92-7.3"/>
	<path class="st46" d="M1018.79,204.21c0-0.46,0-0.93,0.07-1.39c0.07-0.4,0.13-0.8,0.27-1.13c0.13-0.33,0.27-0.6,0.4-0.86
		c0.13-0.2,0.4-0.4,0.6-0.53"/>
	<g>
		<g>
			<line class="st13" x1="1042.11" y1="289.26" x2="1042.11" y2="315.65"/>
			<g>
				<polygon points="1039.04,313.16 1039.59,312.65 1042.11,315.36 1044.62,312.65 1045.17,313.16 1042.11,316.46 				"/>
			</g>
		</g>
	</g>
	<path class="st14" d="M1036.5,348.6v125.3l0,0c0,0,1.2,14.7-24.5,14.7c-25.7,0-3.7,20.1-42.2,20.1s-159.7,0.2-159.7,0.2
		s-33.3-0.2-44.7-5.1c-13.6-5.8,4.15-30.11-16.75-30.11"/>
	<line class="st10" x1="712.4" y1="409" x2="712.4" y2="509.7"/>
</g>
<g id="SPK-P_hero">
</g>
<g id="SPK-P_component_overviw">
</g>
<g id="SPK-P_printing">
</g>
<g id="SPK-P_printing_holders">
</g>
<g id="SPK-P_step_cable_base_holes">
</g>
<g id="SPK-P_step_choose_a_base">
</g>
<g id="SPK-P_step_drilling_holes">
</g>
<g id="SPK-P_step_exciters_1">
</g>
<g id="SPK-P_step_exciters_2">
</g>
<g id="SPK-P_cable_base_print_cable">
	<g>
		<polyline class="st24" points="704.28,474.19 697.59,474.19 696.76,472.46 696.76,453.75 697.59,452.03 704.28,452.03 		"/>
		<path class="st24" d="M753.15,463.33c0-0.13,0-0.32,0-0.45c0-0.96-0.38-1.92-1.09-2.55c-0.7-0.7-1.6-1.09-2.55-1.09
			c-7.73,0-15.45,0-23.18,0c0,2.55,0,5.17,0,7.73c7.73,0,15.45,0,23.18,0c0.96,0,1.92-0.38,2.55-1.09
			C752.77,465.25,753.15,464.29,753.15,463.33L753.15,463.33z"/>
		<path class="st24" d="M744.65,461.41c1.4,0,2.81,0,4.21,0c0.45,0,0.89,0.19,1.15,0.51c0.32,0.32,0.51,0.77,0.51,1.15
			c0,0.45-0.19,0.89-0.51,1.21c-0.32,0.32-0.77,0.51-1.21,0.51c-1.4,0-2.81,0-4.21,0c-0.45,0-0.89-0.19-1.21-0.51
			c-0.32-0.32-0.51-0.77-0.51-1.21c0-0.45,0.19-0.89,0.51-1.15C743.76,461.61,744.21,461.41,744.65,461.41L744.65,461.41z"/>
		<path class="st24" d="M709.08,449.47c-1.47,0-2.81,0-4.28,0l0,0c-2.02,8.94-2.02,18.26,0,27.21c1.47,0,2.87,0,4.28,0"/>
		<polygon class="st24" points="709.08,478.91 712.4,478.91 712.4,447.3 709.08,447.3 		"/>
		<path class="st24" d="M712.4,478.34c1.92,0,3.45,0,5.36,0c0.64,0,1.28-0.26,1.72-0.7c0.45-0.51,0.7-1.15,0.7-1.79l0,0
			c0-8.49,0-16.99,0-25.42c0-0.64-0.26-1.28-0.7-1.72c-0.45-0.45-1.09-0.7-1.72-0.7c-1.92,0-3.45,0-5.36,0"/>
		<polyline class="st24" points="720.2,451.13 734.88,451.13 734.88,459.24 726.33,459.24 726.33,466.97 734.88,466.97 
			734.88,475.02 720.2,475.02 		"/>
		<path class="st24" d="M703.56,468.89c-0.19-1.98,0.22-4.02,1.24-5.81c1.47,0,2.87,0,4.28,0"/>
		<path class="st24" d="M703.56,457.33c-0.19,2.04,0.23,3.96,1.25,5.75"/>
		<polygon class="st24" points="753.15,474.63 753.15,473.17 734.88,473.17 734.88,474.63 		"/>
	</g>
	<g>
		<polyline class="st24" points="136.78,416.77 132.05,412.04 132.68,410.24 145.91,397.01 147.72,396.37 152.45,401.1 		"/>
		<path class="st24" d="M179.01,443.65c0.09-0.09,0.23-0.23,0.32-0.32c0.68-0.68,1.08-1.63,1.04-2.57c0-0.99-0.36-1.9-1.04-2.57
			c-5.46-5.46-10.93-10.93-16.39-16.39c-1.81,1.81-3.66,3.66-5.46,5.46c5.46,5.46,10.93,10.93,16.39,16.39
			c0.68,0.68,1.63,1.08,2.57,1.04C177.39,444.74,178.33,444.33,179.01,443.65L179.01,443.65z"/>
		<path class="st24" d="M174.36,436.29c0.99,0.99,1.99,1.99,2.98,2.98c0.32,0.32,0.5,0.77,0.45,1.17c0,0.45-0.18,0.9-0.45,1.17
			c-0.32,0.32-0.77,0.5-1.22,0.5s-0.9-0.18-1.22-0.5c-0.99-0.99-1.99-1.99-2.98-2.98c-0.32-0.32-0.5-0.77-0.5-1.22
			c0-0.45,0.18-0.9,0.5-1.22s0.77-0.5,1.17-0.45C173.59,435.8,174.04,435.98,174.36,436.29L174.36,436.29z"/>
		<path class="st24" d="M157.65,402.7c-1.04-1.04-1.99-1.99-3.03-3.03l0,0c-7.75,4.89-14.34,11.49-19.24,19.24
			c1.04,1.04,2.03,2.03,3.03,3.03"/>
		<polygon class="st24" points="136.83,423.51 139.18,425.86 161.54,403.51 159.19,401.16 		"/>
		<path class="st24" d="M139.59,425.45c1.35,1.35,2.44,2.44,3.79,3.79c0.45,0.45,1.08,0.72,1.72,0.72c0.68-0.05,1.31-0.32,1.76-0.77
			l0,0c6.01-6.01,12.01-12.01,17.97-17.97c0.45-0.45,0.72-1.08,0.72-1.72c0-0.63-0.27-1.26-0.72-1.72
			c-1.35-1.35-2.44-2.44-3.79-3.79"/>
		<polyline class="st24" points="164.34,411.73 174.72,422.11 168.99,427.85 162.94,421.8 157.47,427.26 163.52,433.31 157.83,439 
			147.45,428.62 		"/>
		<path class="st24" d="M140.02,412.52c1.26-1.54,3-2.69,4.99-3.23c1.04,1.04,2.03,2.03,3.03,3.03"/>
		<path class="st24" d="M148.19,404.34c-1.58,1.31-2.64,2.96-3.18,4.95"/>
		<polygon class="st24" points="171.02,451.65 172.06,450.61 159.14,437.69 158.1,438.73 		"/>
	</g>
</g>
<g id="SPK-P_cable_base_print">
</g>
<g id="SPK-P_cutting_tube">
</g>
<g id="Layer_23">
</g>
<g id="TOOLS_MATERIALS">
	<g>
		<g>
			<polygon points="838.2,450.26 803.33,449.74 800.84,459.92 835.71,460.44 			"/>
			<polygon points="797.04,443.18 803.24,449.24 837.9,449.76 831.69,443.7 			"/>
			<polygon points="796.55,443.41 794.08,453.52 800.38,459.68 802.86,449.57 			"/>
			<polygon points="779.31,464.6 799.28,484.37 799.28,473.23 779.31,453.45 			"/>
			<polygon points="812.5,469.02 799.78,473.3 799.78,484.62 812.5,480.34 			"/>
			<polygon points="779.52,452.96 799.59,472.84 812.29,468.56 804.11,460.47 800.42,460.41 793.52,453.68 794.25,450.7 
				792.22,448.69 			"/>
		</g>
		<g>
			<polygon points="824.49,462.2 814.31,484.41 828.6,486.59 838.77,464.38 			"/>
			<polygon points="828.5,487.08 814.2,484.89 814.2,496.23 828.5,498.42 			"/>
			<polygon points="829,486.92 829,497.56 838.89,475.97 838.89,465.33 			"/>
		</g>
	</g>
	<g>
		<g>
			<polygon points="891.1,419.18 856.23,418.66 853.74,428.84 888.61,429.36 			"/>
			<polygon points="849.93,412.1 856.14,418.16 890.79,418.68 884.59,412.62 			"/>
			<polygon points="849.45,412.33 846.97,422.43 853.28,428.6 855.76,418.49 			"/>
			<polygon points="832.21,433.51 852.18,453.29 852.18,442.14 832.21,422.37 			"/>
			<polygon points="865.4,437.94 852.68,442.22 852.68,453.54 865.4,449.25 			"/>
			<polygon points="832.42,421.88 852.49,441.75 865.19,437.48 857.01,429.39 853.31,429.33 846.42,422.59 847.15,419.62 
				845.12,417.61 			"/>
		</g>
		<g>
			<polygon points="877.39,431.11 867.21,453.32 881.5,455.5 891.67,433.3 			"/>
			<polygon points="881.4,456 867.1,453.81 867.1,465.15 881.4,467.33 			"/>
			<polygon points="881.9,455.83 881.9,466.48 891.79,444.89 891.79,434.24 			"/>
		</g>
	</g>
	<g>
		<g>
			<polygon points="1002.36,420.62 967.49,420.1 965,430.27 999.87,430.79 			"/>
			<polygon points="961.2,413.53 967.4,419.59 1002.06,420.11 995.85,414.05 			"/>
			<polygon points="960.71,413.76 958.24,423.87 964.54,430.03 967.02,419.92 			"/>
			<polygon points="943.47,434.95 963.44,454.72 963.44,443.58 943.47,423.81 			"/>
			<polygon points="976.66,439.37 963.94,443.66 963.94,454.97 976.66,450.69 			"/>
			<polygon points="943.68,423.31 963.75,443.19 976.45,438.92 968.27,430.82 964.58,430.76 957.68,424.03 958.41,421.05 
				956.38,419.04 			"/>
		</g>
		<g>
			<polygon points="988.65,432.55 978.47,454.76 992.76,456.94 1002.93,434.73 			"/>
			<polygon points="992.66,457.43 978.36,455.25 978.36,466.58 992.66,468.77 			"/>
			<polygon points="993.16,457.27 993.16,467.91 1003.05,446.32 1003.05,435.68 			"/>
		</g>
	</g>
	<g>
		<g>
			<polygon points="950.65,448.83 915.77,448.31 913.28,458.49 948.16,459.01 			"/>
			<polygon points="909.48,441.75 915.68,447.81 950.34,448.33 944.14,442.27 			"/>
			<polygon points="909,441.97 906.52,452.08 912.83,458.25 915.3,448.14 			"/>
			<polygon points="891.75,463.16 911.72,482.94 911.72,471.79 891.75,452.02 			"/>
			<polygon points="924.95,467.59 912.22,471.87 912.22,483.19 924.95,478.9 			"/>
			<polygon points="891.97,451.53 912.04,471.4 924.73,467.13 916.56,459.03 912.86,458.98 905.97,452.24 906.69,449.27 
				904.66,447.26 			"/>
		</g>
		<g>
			<polygon points="936.93,460.76 926.76,482.97 941.04,485.15 951.22,462.95 			"/>
			<polygon points="940.94,485.64 926.64,483.46 926.64,494.8 940.94,496.98 			"/>
			<polygon points="941.44,485.48 941.44,496.13 951.34,474.54 951.34,463.89 			"/>
		</g>
	</g>
	<g>
		<g>
			<polygon points="305.55,448.86 270.68,448.34 268.19,458.52 303.06,459.04 			"/>
			<polygon points="264.38,441.78 270.59,447.84 305.24,448.36 299.04,442.3 			"/>
			<polygon points="263.9,442.01 261.42,452.12 267.73,458.28 270.21,448.17 			"/>
			<polygon points="246.66,463.2 266.63,482.97 266.63,471.83 246.66,452.05 			"/>
			<polygon points="279.85,467.62 267.13,471.9 267.13,483.22 279.85,478.94 			"/>
			<polygon points="246.87,451.56 266.94,471.44 279.64,467.16 271.46,459.07 267.76,459.01 260.87,452.28 261.6,449.3 
				259.57,447.29 			"/>
		</g>
		<g>
			<polygon points="291.84,460.8 281.66,483.01 295.95,485.19 306.12,462.98 			"/>
			<polygon points="295.85,485.68 281.55,483.49 281.55,494.83 295.85,497.02 			"/>
			<polygon points="296.35,485.52 296.35,496.16 306.24,474.57 306.24,463.93 			"/>
		</g>
	</g>
	<g>
		<g>
			<polygon points="368.87,420.48 334,419.96 331.5,430.14 366.38,430.66 			"/>
			<polygon points="327.7,413.4 333.9,419.46 368.56,419.98 362.36,413.92 			"/>
			<polygon points="327.22,413.62 324.74,423.73 331.05,429.9 333.52,419.79 			"/>
			<polygon points="309.98,434.81 329.94,454.58 329.94,443.44 309.98,423.67 			"/>
			<polygon points="343.17,439.24 330.44,443.52 330.44,454.84 343.17,450.55 			"/>
			<polygon points="310.19,423.18 330.26,443.05 342.95,438.78 334.78,430.68 331.08,430.63 324.19,423.89 324.91,420.92 
				322.88,418.91 			"/>
		</g>
		<g>
			<polygon points="355.15,432.41 344.98,454.62 359.27,456.8 369.44,434.6 			"/>
			<polygon points="359.16,457.29 344.86,455.11 344.86,466.45 359.16,468.63 			"/>
			<polygon points="359.66,457.13 359.66,467.78 369.56,446.19 369.56,435.54 			"/>
		</g>
	</g>
	<g>
		<g>
			<polygon points="524.26,420.04 489.38,419.52 486.89,429.69 521.77,430.21 			"/>
			<polygon points="483.09,412.96 489.29,419.02 523.95,419.53 517.75,413.48 			"/>
			<polygon points="482.61,413.18 480.13,423.29 486.44,429.45 488.91,419.34 			"/>
			<polygon points="465.36,434.37 485.33,454.14 485.33,443 465.36,423.23 			"/>
			<polygon points="498.56,438.79 485.83,443.08 485.83,454.39 498.56,450.11 			"/>
			<polygon points="465.58,422.74 485.65,442.61 498.34,438.34 490.17,430.24 486.47,430.19 479.58,423.45 480.3,420.48 
				478.27,418.46 			"/>
		</g>
		<g>
			<polygon points="510.54,431.97 500.37,454.18 514.65,456.36 524.83,434.15 			"/>
			<polygon points="514.55,456.85 500.25,454.67 500.25,466.01 514.55,468.19 			"/>
			<polygon points="515.05,456.69 515.05,467.34 524.95,445.75 524.95,435.1 			"/>
		</g>
	</g>
	<g>
		<g>
			<polygon points="441.35,431.6 406.48,431.08 403.99,441.26 438.86,441.78 			"/>
			<polygon points="400.19,424.52 406.39,430.58 441.05,431.1 434.84,425.04 			"/>
			<polygon points="399.7,424.75 397.23,434.85 403.53,441.02 406.01,430.91 			"/>
			<polygon points="382.46,445.93 402.43,465.71 402.43,454.56 382.46,434.79 			"/>
			<polygon points="415.65,450.36 402.93,454.64 402.93,465.96 415.65,461.67 			"/>
			<polygon points="382.67,434.3 402.74,454.17 415.44,449.9 407.26,441.8 403.57,441.75 396.67,435.01 397.4,432.04 395.37,430.03 
							"/>
		</g>
		<g>
			<polygon points="427.64,443.53 417.46,465.74 431.75,467.92 441.92,445.72 			"/>
			<polygon points="431.65,468.42 417.35,466.23 417.35,477.57 431.65,479.75 			"/>
			<polygon points="432.15,468.25 432.15,478.9 442.04,457.31 442.04,446.66 			"/>
		</g>
	</g>
</g>
<g id="SOUND__x26__ORDER">
</g>
<g id="Layer_26">
</g>
<g id="Layer_27">
</g>
</svg>
