<?xml version="1.0" encoding="utf-8"?>
<!-- Generator: Adobe Illustrator 24.0.1, SVG Export Plug-In . SVG Version: 6.00 Build 0)  -->
<svg version="1.1" id="Layer_1" xmlns="http://www.w3.org/2000/svg" xmlns:xlink="http://www.w3.org/1999/xlink" x="0px" y="0px"
	 viewBox="0 0 1205.4 752.9" style="enable-background:new 0 0 1205.4 752.9;" xml:space="preserve">
<style type="text/css">
	.st0{fill:none;stroke:#000000;stroke-width:0.75;stroke-linecap:round;stroke-linejoin:round;}
	.st1{fill:none;stroke:#000000;stroke-width:0.35;stroke-linecap:round;stroke-linejoin:round;}
	.st2{fill:none;stroke:#000000;stroke-width:10;stroke-linecap:round;stroke-linejoin:round;}
	.st3{fill:none;stroke:#000000;stroke-width:0.75;}
	.st4{fill:none;}
	.st5{enable-background:new    ;}
</style>
<g id="_x33_0px_margins">
</g>
<g id="SPK-P_assembly_of_the_upper_part">
</g>
<g id="SPK-P_assembly_of_the_base">
</g>
<g id="SPK-P_soldering_of_the_bms">
</g>
<g id="SPK-P_making_of_the_slots">
</g>
<g id="SPK-P_step_membrane_4">
</g>
<g id="SPK-P_step_membrane_3">
</g>
<g id="SPK-P_step_membrane_2">
</g>
<g id="SPK-P_step_membrane_1">
</g>
<g id="SPK-P_step_cable_base_print_assembly">
</g>
<g id="SPK-P_hero">
</g>
<g id="SPK-P_component_overviw">
</g>
<g id="SPK-P_printing">
</g>
<g id="SPK-P_printing_holders">
</g>
<g id="SPK-P_step_cable_base_holes">
</g>
<g id="SPK-P_step_choose_a_base">
</g>
<g id="SPK-P_step_drilling_holes">
</g>
<g id="SPK-P_step_exciters_1">
</g>
<g id="SPK-P_step_exciters_2">
	<g>
		<path class="st0" d="M548.9,352.6c-0.1,2.9-0.3,4.5,1.5,7.4c2.2,2.6,7.4,3.3,10.4,3c3.5-0.3,10.5-2.6,13.7-4
			c4.5-1.9,8.5-3.7,11.3-8.3c2-3.2,3-6.5,3.5-10.2c0.3-2.5,0.8-8.1-2.7-9.3c-2.4-0.6-4,0.5-5.9,1.4c-6.2,3-7,3.9-13.8,5.6
			c-2.6,0.6-4.6,1.1-6.2,1.6C554.3,341.7,549.9,345.5,548.9,352.6z"/>
		<path class="st0" d="M596.2,272.3c0-15-9.4-26.9-21.8-33.6c-4.7-2.6-9.6-4.3-14.8-5.5c-5.1-1.1-10.2-1.6-15.4-1.6
			c-2.8,0-5.7,0.2-8.5,0.5c-2.7,0.3-5.4,0.8-8,1.4c-2.4,0.6-4.8,1.3-7.1,2.2c-1.1,0.4-2.2,0.9-3.3,1.4c-1.1,0.5-2.2,1.1-3.2,1.6
			c-12.2,6.8-21.7,18.9-21.7,33.6c0,0,0,0,0,0c0,0,0,0.1,0,0.1c0,5.4,0,10.8,0,16.2c0,0,0,0,0,0c0,12.3-1.4,17.6-12.7,24.1
			c-2.7,1.6-5.4,3.1-8.1,4.7c-1.4,0.8-2.5,1.7-3.6,2.8c-1.5,0.4-2.9,0.9-4.2,1.7c-10.6,6.1-21.3,12.3-31.9,18.4
			c-1.4,0.8-2.5,1.7-3.6,2.8c-1.5,0.4-2.9,0.9-4.2,1.7c-8.7,5-17.4,10.1-26.1,15.1c-1.4,0.8-2.5,1.7-3.6,2.8
			c-1.5,0.4-2.9,0.9-4.2,1.7c-1.8,1.1-3.6,2.1-5.5,3.2l0,0c-0.6,0.4-1.3,0.8-1.8,1.3c-0.8,0.6-1.5,1.4-2.1,2.2
			c-1,1.3-1.8,2.7-2.5,4.2c-0.7,1.7-1.2,3.4-1.5,5.2c-0.4,2-0.5,4-0.5,6c0,2.2,0.2,4.4,0.5,6.6c0.4,2.4,0.9,4.7,1.5,7
			c0.7,2.4,1.5,4.8,2.5,7.1c1.1,2.8,2.5,5.5,4,8c1.3,2.2,2.7,4.4,4.2,6.5c1.5,2,3.1,4,4.8,5.8c1.9,2,3.9,4,6.1,5.7
			c1.7,1.4,3.5,2.6,5.5,3.7c1.7,1,3.6,1.9,5.5,2.5c0.9,0.3,1.8,0.6,2.7,0.8c1.1,0.3,2.3,0.5,3.4,0.5c0.8,0.1,1.6,0.1,2.5,0
			c0.8,0,1.6-0.1,2.3-0.3c0.7-0.1,1.5-0.4,2.2-0.6c0.7-0.3,1.4-0.6,2-1c0,0,0.1-0.1,0.2-0.1c9.3,21.1,28.2,37.3,47.1,48.5
			c0.6,0.3,1.2,0.7,1.7,1c0.6,0.3,1.2,0.7,1.7,1c72.4,40.7,188,40.7,260.4,0c1.2-0.7,2.3-1.3,3.5-2c26.6-19.7,32.4-25.5,37.1-31.4
			c4.7-5.9,8.3-11.8,10.5-18.1c2.2-6.3,3.1-13,3.3-18.9s-0.4-11-1.1-15.7s-1.6-9.1-2.6-13.4c-1-4.3-2.2-8.5-6.3-15.7
			c-1.7-2.6-3.4-5.2-5.1-7.9c-9.4-14.7-21.4-24.9-35.8-34.1c0-1.7,0-3.4-0.1-5c-1.2-0.7-2.3-1.3-3.5-2c-1.4,0.8-2.8,1.6-4.2,2.4
			c-40.2-22.5-91.3-30.8-136.2-29.4c0-8.6,0-17.2,0-25.8"/>
		<path class="st1" d="M396.9,391.7c2.8-1.8,6.2-0.6,8.7,0.8c2.7,1.7,4.7,3.8,6.4,6.5s2.8,5.3,3.2,8.5c0.3,2.8-0.1,6.4-2.9,8.2
			c-2.8,1.8-6.2,0.6-8.7-0.8c-2.7-1.7-4.7-3.8-6.4-6.5s-2.8-5.3-3.2-8.5C393.7,397.1,394.1,393.5,396.9,391.7z"/>
		<path class="st2" d="M301,435.1c5.5-3.5,12.1-1.3,16.8,1.6c5.3,3.2,9.1,7.4,12.5,12.6c3.3,5.2,5.5,10.4,6.2,16.6
			c0.6,5.5-0.1,12.5-5.6,16c-5.5,3.5-12.1,1.3-16.8-1.6c-5.3-3.2-9.1-7.4-12.5-12.6c-3.3-5.2-5.5-10.4-6.2-16.6
			C294.8,445.5,295.5,438.6,301,435.1z"/>
		<path class="st2" d="M241.9,472.8c5.4-3.5,12.1-1.3,16.8,1.6c5.3,3.2,9.1,7.4,12.5,12.6c3.3,5.2,5.5,10.4,6.2,16.6
			c0.6,5.5-0.1,12.5-5.6,16c-5.5,3.5-12.1,1.3-16.8-1.6c-5.3-3.2-9.1-7.4-12.4-12.6c-3.3-5.2-5.5-10.4-6.2-16.6
			C235.7,483.3,236.5,476.3,241.9,472.8z"/>
		<line class="st0" x1="492.2" y1="400.5" x2="492.2" y2="407.6"/>
		<path class="st0" d="M508.6,390.4c-0.9,1-2,1.9-3.6,2.7"/>
		<path class="st1" d="M511.3,385.9c-0.8,1.8-1.6,3.3-2.8,4.5"/>
		<path class="st1" d="M473.7,411.1c2.2-1.6,3.9-3.8,5.1-6.4"/>
		<path class="st0" d="M468.7,413.4c1.9-0.5,3.6-1.2,5-2.3"/>
		<path class="st1" d="M478.8,404.7c4.7-11.2,1.1-25.1-3.6-35c-4.9-10.3-13.1-21.1-23.3-27"/>
		<path class="st1" d="M484.5,324c10.2,5.9,18.5,16.6,23.3,27c4.7,9.9,8.2,23.8,3.6,35"/>
		<path class="st0" d="M434.6,433.1c-1,1.1-2.3,2-3.8,2.9"/>
		<path class="st1" d="M437.6,428.4c-0.8,1.8-1.8,3.3-3,4.6"/>
		<path class="st1" d="M410.7,366.5c10.2,5.9,18.5,16.6,23.3,27c4.7,9.9,8.2,23.8,3.6,35"/>
		<path class="st1" d="M491.7,319.8c10.2,5.9,18.5,16.6,23.3,27c4.7,9.9,8.2,23.8,3.6,35"/>
		<path class="st1" d="M439.8,430.7c2.2-1.6,3.9-3.9,5-6.5"/>
		<path class="st0" d="M434.6,433.1c1.9-0.4,3.6-1.2,5.1-2.3"/>
		<path class="st1" d="M508.6,390.4c4.7-1.1,8.1-4.3,10-8.7"/>
		<path class="st0" d="M596.2,407.4c0,3-0.4,6,0.7,9"/>
		<path class="st0" d="M586.6,331.2c0.1,0,0.2,0.1,0.3,0.1"/>
		<path class="st1" d="M468.7,413.4c1.2-1.3,2.1-2.8,2.9-4.6"/>
		<path class="st0" d="M439.6,430.9l24.8-14.3c1.8-0.9,3.2-1.9,4.4-3.2"/>
		<path class="st0" d="M503.3,264.4c2.5-6.2,5.5-10.9,11.4-14.5"/>
		<path class="st0" d="M535.7,249.9c3.5,2.1,6.1,4.8,8.3,8.2"/>
		<line class="st0" x1="596.2" y1="272.3" x2="596.2" y2="272.4"/>
		<line class="st0" x1="505" y1="393.1" x2="473.7" y2="411.1"/>
		<line class="st0" x1="431.3" y1="435.7" x2="425.6" y2="438.9"/>
		<path class="st0" d="M425.6,438.9c0.6-0.4,1.1-0.8,1.7-1.2c0.8-0.6,1.5-1.4,2.1-2.2c1-1.3,1.8-2.7,2.5-4.2
			c0.7-1.7,1.2-3.4,1.5-5.2c0.4-2,0.5-4,0.5-6c0-2.2-0.2-4.4-0.5-6.6c-0.4-2.4-0.9-4.7-1.5-7c-0.7-2.4-1.5-4.8-2.5-7.1
			c-1.1-2.8-2.5-5.5-4-8c-1.3-2.2-2.7-4.4-4.2-6.5c-1.5-2-3.1-4-4.8-5.8c-1.9-2-3.9-4-6.1-5.7c-1.7-1.4-3.5-2.6-5.5-3.7"/>
		<path class="st0" d="M404.9,369.9c-1.7-1-3.6-1.9-5.5-2.5c-0.9-0.3-1.8-0.6-2.7-0.8c-1.1-0.3-2.3-0.5-3.4-0.5
			c-0.8-0.1-1.6-0.1-2.5,0c-0.8,0-1.6,0.1-2.3,0.3c-0.7,0.1-1.5,0.4-2.2,0.6c-0.7,0.3-1.4,0.6-2,0.9"/>
		<path class="st0" d="M384.4,367.8C384.4,367.8,384.4,367.8,384.4,367.8"/>
		<path class="st1" d="M394.1,363c5.8-1.3,11.9,0.8,16.6,3.6"/>
		<path class="st1" d="M397.7,360.1c6.6-3.6,14.5-1.1,20.3,2.2"/>
		<path class="st1" d="M428.1,343.3c5.8-1.3,11.9,0.8,16.6,3.6"/>
		<path class="st1" d="M431.7,340.5c6.6-3.6,14.5-1.1,20.3,2.2"/>
		<path class="st1" d="M735.8,474.9c18.1-10.7,36-26.1,45.2-46.1c9.7-21.3,7.2-43.1-5.1-62.5"/>
		<path class="st0" d="M740,332.2c-1.4-0.9-2.8-1.8-4.2-2.6"/>
		<line class="st0" x1="596.2" y1="298.2" x2="596.2" y2="407.4"/>
		<path class="st0" d="M544.1,266.1c-1.2,2-2.7,3.8-4.2,5.5"/>
		<path class="st1" d="M467.8,320.4c5.8-1.3,11.9,0.8,16.6,3.6"/>
		<path class="st1" d="M471.4,317.6c6.6-3.6,14.5-1.1,20.3,2.2"/>
		<line class="st1" x1="480.6" y1="476.9" x2="476.4" y2="479.3"/>
		<line class="st1" x1="476.4" y1="479.3" x2="476.2" y2="489.4"/>
		<line class="st1" x1="476.2" y1="489.4" x2="480.6" y2="476.9"/>
		<line class="st1" x1="472.9" y1="477.3" x2="472.8" y2="487.4"/>
		<line class="st1" x1="476.4" y1="479.3" x2="472.9" y2="477.3"/>
		<line class="st1" x1="736.5" y1="479.3" x2="736.7" y2="489.4"/>
		<line class="st1" x1="740.1" y1="487.4" x2="740" y2="477.3"/>
		<line class="st1" x1="740" y1="477.3" x2="736.5" y2="479.3"/>
		<line class="st1" x1="735.8" y1="474.9" x2="740" y2="477.3"/>
		<line class="st0" x1="735.8" y1="329.6" x2="740" y2="327.2"/>
		<line class="st1" x1="477.1" y1="474.9" x2="472.9" y2="477.3"/>
		<line class="st1" x1="732.3" y1="476.9" x2="736.5" y2="479.3"/>
		<path class="st0" d="M502.1,268.1c0.3-1.3,0.6-2.5,1.1-3.8"/>
		<path class="st0" d="M588.3,345.1c0.4-1.2,0.6-2.4,0.8-3.6"/>
		<line class="st1" x1="732.3" y1="476.9" x2="736.7" y2="489.4"/>
		<path class="st1" d="M434.2,433.4c9.6,17.8,26.1,31.5,42.9,41.5"/>
		<path class="st1" d="M480.6,476.9c70.1,39.3,181.7,39.4,251.7,0"/>
		<path class="st0" d="M544,258.1c1.5,2.4,1.8,4.3,0.7,7"/>
		<path class="st0" d="M520.8,253c-3.1,1.8-1.9,4.5,1.2,5.6c2.3,0.8,5.4,0.7,7.5-0.5"/>
		<path class="st0" d="M529.6,258c3.1-1.8,1.9-4.5-1.2-5.6c-2.3-0.8-5.4-0.7-7.5,0.5"/>
		<path class="st0" d="M515.1,249.6c-0.6,0.4-1.2,0.8-1.7,1.2c-0.6,0.5-1.1,1-1.5,1.6c-0.3,0.5-0.6,1-0.8,1.5
			c-0.2,0.5-0.2,1-0.2,1.6c0,0.6,0.1,1.2,0.4,1.8c0.2,0.5,0.5,1,0.8,1.5c0.4,0.5,0.8,1,1.3,1.4c0.5,0.5,1.1,0.9,1.7,1.2
			c0.7,0.4,1.4,0.7,2.1,1c0.8,0.3,1.6,0.5,2.4,0.8c1.9,0.5,3.8,0.7,5.7,0.7c1.8,0,3.5-0.2,5.3-0.6c1-0.2,1.9-0.5,2.8-0.9
			c0.7-0.3,1.4-0.6,2.1-1"/>
		<path class="st0" d="M535.3,261.4c0.6-0.4,1.2-0.8,1.7-1.2c0.6-0.5,1.1-1,1.5-1.6c0.3-0.5,0.6-1,0.8-1.5c0.2-0.5,0.2-1,0.2-1.6
			c0-0.6-0.1-1.2-0.3-1.8c-0.2-0.5-0.5-1-0.8-1.5c-0.4-0.5-0.8-1-1.3-1.4c-0.5-0.4-1.1-0.9-1.7-1.2c-0.7-0.4-1.4-0.7-2.1-1
			c-0.8-0.3-1.6-0.6-2.4-0.8c-1.9-0.5-3.8-0.7-5.7-0.7c-1.8,0-3.5,0.2-5.3,0.6c-1,0.2-1.9,0.5-2.8,0.9c-0.7,0.3-1.4,0.6-2.1,1"/>
		<path class="st1" d="M444.8,424.3c4.7-11.2,1.1-25.1-3.6-35c-4.9-10.3-13.1-21.1-23.3-27"/>
		<path class="st1" d="M444.7,346.9c10.2,5.9,18.5,16.6,23.3,27c4.7,9.9,8.2,23.8,3.6,35"/>
		<path class="st0" d="M544.1,266.1c0.2-0.3,0.4-0.7,0.6-1.1"/>
		<g>
			<g>
				<line class="st0" x1="347.7" y1="441.6" x2="374.5" y2="424.2"/>
				<g>
					<polygon points="374.1,428.1 373.4,427.9 374.3,424.3 370.6,423.7 370.8,423 375.2,423.7 					"/>
				</g>
			</g>
		</g>
		<g>
			<g>
				<line class="st3" x1="969.2" y1="409.8" x2="835.8" y2="409.8"/>
				<g>
					<circle cx="835.8" cy="409.8" r="2.8"/>
				</g>
			</g>
		</g>
	</g>
	<rect x="851.8" y="391.5" class="st4" width="117.4" height="11.9"/>
	<g class="st5">
		<path d="M856.4,402.2v-4h-2.7v4h-1.3v-9.3h0.7v-0.7h0.7v-0.7h2.7v0.7h0.7v0.7h0.7v9.3H856.4z M856.4,393.5h-0.7v-0.7h-1.3v0.7
			h-0.7v3.3h2.7V393.5z"/>
		<path d="M863.8,402.2v-6.7h-0.7v1.3h-1.3v-1.3h-0.7v6.7h-1.3v-10.7h1.3v1.3h0.7v1.3h1.3v-1.3h0.7v-1.3h1.3v10.7H863.8z"/>
		<path d="M871.8,396.9v0.7h-0.7v0.7h-2.7v4h-1.3v-10.7h4v0.7h0.7v0.7h0.7v4H871.8z M871.1,393.5h-0.7v-0.7h-2v4h2v-0.7h0.7V393.5z"
			/>
		<path d="M874.4,402.2v-10.7h1.3v9.3h4v1.3H874.4z"/>
		<path d="M881.8,402.2v-1.3h2v-8h-2v-1.3h5.3v1.3h-2v8h2v1.3H881.8z"/>
		<path d="M890.4,392.9v3.3h3.3v1.3h-3.3v4.7h-1.3v-10.7h6v1.3H890.4z"/>
		<path d="M896.4,402.2v-1.3h2v-8h-2v-1.3h5.3v1.3h-2v8h2v1.3H896.4z"/>
		<path d="M903.7,402.2v-10.7h5.3v1.3h-4v3.3h2.7v1.3h-2.7v3.3h4v1.3H903.7z"/>
		<path d="M915.7,402.2v-1.3h-0.7v-1.3h-0.7v-1.3h-0.7v-0.7h-1.3v4.7h-1.3v-10.7h4v0.7h0.7v0.7h0.7v3.3h-0.7v0.7h-0.7v1.3h0.7v1.3
			h0.7v1.3h0.7v1.3H915.7z M915.1,393.5h-0.7v-0.7h-2v3.3h2v-0.7h0.7V393.5z"/>
		<path d="M929.7,402.2v-4.7H927v4.7h-1.3v-10.7h1.3v4.7h2.7v-4.7h1.3v10.7H929.7z"/>
		<path d="M937.7,400.9v0.7H937v0.7h-2.7v-0.7h-0.7v-0.7H933v-8h0.7v-0.7h0.7v-0.7h2.7v0.7h0.7v0.7h0.7v8H937.7z M937,393.5h-0.7
			v-0.7H935v0.7h-0.7v6.7h0.7v0.7h1.3v-0.7h0.7V393.5z"/>
		<path d="M940.4,402.2v-10.7h1.3v9.3h4v1.3H940.4z"/>
		<path d="M952.4,400.2v0.7h-0.7v0.7H951v0.7h-3.3v-10.7h3.3v0.7h0.7v0.7h0.7v0.7h0.7v6.7H952.4z M951.7,394.2H951v-0.7h-0.7v-0.7
			H949v8h1.3v-0.7h0.7v-0.7h0.7V394.2z"/>
		<path d="M955,402.2v-10.7h5.3v1.3h-4v3.3h2.7v1.3h-2.7v3.3h4v1.3H955z"/>
		<path d="M967,402.2v-1.3h-0.7v-1.3h-0.7v-1.3H965v-0.7h-1.3v4.7h-1.3v-10.7h4v0.7h0.7v0.7h0.7v3.3H967v0.7h-0.7v1.3h0.7v1.3h0.7
			v1.3h0.7v1.3H967z M966.4,393.5h-0.7v-0.7h-2v3.3h2v-0.7h0.7V393.5z"/>
	</g>
</g>
<g id="SPK-P_cable_base_print_cable">
</g>
<g id="SPK-P_cable_base_print">
</g>
<g id="SPK-P_cutting_tube">
</g>
<g id="Layer_23">
</g>
<g id="TOOLS_MATERIALS">
</g>
<g id="SOUND__x26__ORDER">
</g>
<g id="Layer_26">
</g>
<g id="Layer_27">
</g>
</svg>
