<?xml version="1.0" encoding="UTF-8"?><svg xmlns="http://www.w3.org/2000/svg" viewBox="0 0 112.25 112.25"><defs><style>.d{fill:none;}</style></defs><g id="a"/><g id="b"><g id="c"><g><g><path d="M91.14,24.79h-10.49c-2.78,0-5.04-2.26-5.04-5.04,0-5.77-4.7-10.47-10.47-10.47s-10.47,4.7-10.47,10.47v5.42h-8.53v5.76H22.25v10h23.88v4.39h20v-4.39h23.88v-10h-23.88v-5.76h-8.97v-5.42c0-4.4,3.58-7.97,7.97-7.97s7.97,3.58,7.97,7.97c0,4.16,3.38,7.54,7.54,7.54h10.49"/><path d="M91.14,24.79V13.62h10V98.56c0,2.44-1.98,4.42-4.42,4.42H15.54c-2.44,0-4.42-1.98-4.42-4.42V13.62h10V92.98H91.14V27.29"/><polygon points="57.33 50.67 57.33 48.78 61.08 48.78 61.08 45.86 51.08 45.86 51.08 48.78 54.83 48.78 54.83 50.67 57.33 50.67"/></g><rect class="d" x="0" width="112.25" height="112.25"/></g></g></g></svg>