<?xml version="1.0" encoding="UTF-8"?>
<svg id="Layer_2" data-name="Layer 2" xmlns="http://www.w3.org/2000/svg" viewBox="0 0 112.25 112.25">
  <defs>
    <style>
      .cls-1, .cls-2, .cls-3 {
        fill: none;
      }

      .cls-2 {
        stroke: #231f20;
      }

      .cls-2, .cls-3 {
        stroke-linecap: round;
        stroke-miterlimit: 10;
        stroke-width: 3px;
      }

      .cls-3 {
        stroke: #000;
      }
    </style>
  </defs>
  <g id="TOOLS_MATERIALS" data-name="TOOLS MATERIALS">
    <g>
      <rect class="cls-1" width="112.25" height="112.25"/>
      <g>
        <path class="cls-3" d="M10.8,55.83l-5.65,8.48c-.92,1.38.07,3.23,1.73,3.23h85.76c.69,0,1.34-.35,1.73-.92l12.5-18.76c.92-1.38-.07-3.23-1.73-3.23h-3c-.69,0-1.34.35-1.73.92l-5.62,8.43c-.38.58-1.03.92-1.73.92H12.53c-.69,0-1.34.35-1.73.92Z"/>
        <path class="cls-2" d="M105.16,32H21c-1.44,0-2.78.72-3.58,1.92l-11.59,17.39c-1.03,1.54.08,3.6,1.93,3.6h84.11c1.44,0,2.78-.72,3.58-1.92l11.62-17.42c1.02-1.52-.08-3.57-1.91-3.57Z"/>
        <path class="cls-2" d="M13.19,58.57l2.09,2.7c1.8,2.33,5.31,2.33,7.11,0h0c1.8-2.33,5.31-2.33,7.11,0h0c1.8,2.33,5.31,2.33,7.11,0h0c1.8-2.33,5.31-2.33,7.11,0h0c1.8,2.33,5.31,2.33,7.11,0h0c1.8-2.33,5.31-2.33,7.11,0h0c1.8,2.33,5.31,2.33,7.11,0h0c1.8-2.33,5.31-2.33,7.11,0h0c1.8,2.34,5.31,2.34,7.11.01v-.02c1.81-2.32,5.32-2.32,7.12,0l2.08,2.68"/>
        <path class="cls-3" d="M10.8,68.54l-5.65,8.48c-.92,1.38.07,3.23,1.73,3.23h85.76c.69,0,1.34-.35,1.73-.92l12.5-18.76c.92-1.38-.07-3.23-1.73-3.23h-3c-.69,0-1.34.35-1.73.92l-5.62,8.43c-.38.58-1.03.92-1.73.92H12.53c-.69,0-1.34.35-1.73.92Z"/>
        <path class="cls-2" d="M13.19,71.28l2.09,2.7c1.8,2.33,5.31,2.33,7.11,0h0c1.8-2.33,5.31-2.33,7.11,0h0c1.8,2.33,5.31,2.33,7.11,0h0c1.8-2.33,5.31-2.33,7.11,0h0c1.8,2.33,5.31,2.33,7.11,0h0c1.8-2.33,5.31-2.33,7.11,0h0c1.8,2.33,5.31,2.33,7.11,0h0c1.8-2.33,5.31-2.33,7.11,0h0c1.8,2.34,5.31,2.34,7.11.01v-.02c1.81-2.32,5.32-2.32,7.12,0l2.08,2.68"/>
      </g>
    </g>
  </g>
</svg>