<svg id="Layer_1" data-name="Layer 1" xmlns="http://www.w3.org/2000/svg" viewBox="0 0 453.54 453.54"><defs><style>.cls-1{fill:#1b1b1b}</style></defs><path class="cls-1" d="M43.72 82.71h28.8c23 0 36.16 15.92 36.16 39 0 23.49-13.53 40.06-36.16 40.06h-28.8zm28.58 69.18c15.92 0 24.47-11.8 24.47-30.2S88 92.57 72.3 92.57H55.09v59.32zM117.33 133.06c0-17.76 11-29.45 27.07-29.45 15.59 0 26.41 11 26.41 27.61 0 1.08 0 2.49-.1 4.43h-42c0 11.37 6.61 18.41 16.24 18.41 8 0 12.13-3.36 14.51-10.18H170c-1.95 11.26-12.23 19-25.12 19-16.4-.05-27.55-12.29-27.55-29.82zm42-5.31c-.43-9.42-6.17-15.37-14.94-15.37-9 0-14.94 6.17-15.7 15.37zM178.93 142.26h11c0 7.79 5.42 12 13.54 12 7.57 0 11.9-3.47 11.9-8.12 0-6.83-5.3-6.93-17-9.53-11.26-2.49-17.22-6.17-17.22-15.92 0-10 8.66-17.1 21.55-17.1 13.75 0 22.62 7 22.62 18.3h-10.88c0-6.72-4.76-10-11.69-10s-10.83 3.46-10.83 8c0 5.3 4.44 6.49 11.91 8 10.72 2.16 22.95 3.68 22.95 17.1 0 10.29-9.42 17.76-23.27 17.76-14.94.08-24.58-8.15-24.58-20.49zM237.71 104.69h10.61v57.06h-10.61zm12.67-19.27h11.91v12.13h-11.91zM262.18 163.91h11.15c.76 7 6.39 10.72 14.4 10.72 10.39 0 15-6.17 15.15-15l.11-7.69h-.43c-2.71 5.09-9.85 8.56-17.11 8.56-15 0-25-11.48-25-28.69 0-16.89 10.06-28.15 25.22-28.15 7.15 0 13.75 3.46 16.56 8.55h.44v-7.47h10.61v55.43c0 14.72-10.5 22.95-25.55 22.95-15.27-.05-24.79-7.73-25.55-19.21zm40.7-31.72c0-13.21-6.27-19.81-15.58-19.81s-15.59 7.79-15.59 19.38c0 11.91 6.17 19.92 15.37 19.92 10.5 0 15.8-7.8 15.8-19.49zM327.24 104.69h10.61v7.58h.32c3.14-5.41 10-8.66 17.43-8.66 13.86 0 20.36 9.09 20.36 22.19v36h-10.61v-35.89c0-9.2-5-13.53-12.56-13.53-9.64 0-14.94 7.68-14.94 19.27v30.1h-10.61zM43.72 187.71h52.51v9.86H55.09v24h38.43v9.74H55.09v35.41H43.72zM106.94 209.69h10.61v10.39h.45c2.6-5.73 7.69-10.93 18.84-10.93a11.7 11.7 0 014 .54v10.61h-.33a30.43 30.43 0 00-5-.32c-13.53 0-18 7.57-18 19.92v26.85h-10.57zM150.24 209.69h10.61v57.06h-10.61zm12.67-19.27h11.91v12.13h-11.91zM173 238c0-17.65 11-29.34 27.6-29.34 13.53 0 24 8.44 25.12 20.14h-11.28c-1.3-7.37-6.71-11.37-13.86-11.37-10.5 0-16.24 8.23-16.24 20.57 0 13.64 6.39 21.11 16 21.11 7.79 0 12.88-4.55 14.07-11.48h11.29c-1.19 11.7-11.15 20.25-25.33 20.25C183 267.83 173 255.92 173 238zM240.53 254.29v-35.83h-9.21v-8.77h9.21v-16h10.61v16h10.71v8.77h-10.71v32.7c0 5.08 1.29 6.6 7.79 6.6a17.58 17.58 0 002.92-.22v9.21a32.91 32.91 0 01-6.38.54q-14.94 0-14.94-13zM273.33 209.69h10.61v57.06h-10.61zM286 190.42h11.9v12.13H286zM296.06 238.16c0-17.86 11.26-29.55 27.93-29.55s27.93 11.69 27.93 29.55-11.15 29.67-27.92 29.67-27.94-11.83-27.94-29.67zm44.49 0c0-13.31-6.6-20.78-16.56-20.78-10.61 0-16.56 8.33-16.56 20.78 0 13.43 6.6 20.9 16.56 20.9 10.61 0 16.56-8.34 16.56-20.9zM363.5 209.69h10.61v7.58h.33c3.13-5.41 10-8.66 17.42-8.66 13.86 0 20.36 9.09 20.36 22.19v35.95h-10.61v-35.84c0-9.2-5-13.53-12.56-13.53-9.64 0-14.94 7.68-14.94 19.27v30.1H363.5zM43.72 284.71h11.37v68.86h42.33v10.18h-53.7zM100.66 335.16c0-17.75 10.07-29.55 25.66-29.55 7.47 0 14.29 3.25 17.11 8.55h.43v-7.47h10.61v46a24.08 24.08 0 002.27 10.61v.44h-11.15c-1.51-2.28-1.73-6.83-1.73-7.37h-.43c-3 5.2-9.86 8.45-17.33 8.45-15.26.01-25.44-11.68-25.44-29.66zm43.42 0c0-13.31-6.28-20.78-15.81-20.78-10.39 0-16.24 8.23-16.24 20.78 0 13.43 6.5 20.9 16.13 20.9 10.18 0 15.92-8.34 15.92-20.9zM179.47 356.38h-.32v7.37h-10.61v-79h10.61s0 19.6-.33 29.45h.44c3.46-5.52 10.39-8.55 17.43-8.55 15.15 0 25 11.8 25 29.45 0 18.08-10 29.77-24.8 29.77-7.56-.04-13.95-3.29-17.42-8.49zm30.86-21.32c0-12.56-6.39-20.68-15.7-20.68-10.07 0-15.7 8.23-15.7 20.68 0 13.42 6.39 21 15.81 21s15.59-8.34 15.59-21z"/></svg>