<svg id="Layer_1" data-name="Layer 1" xmlns="http://www.w3.org/2000/svg" viewBox="0 0 1083.78 2834.65"><defs><clipPath id="clip-path"><path fill="none" d="M0 0h1083.78v2834.65H0z"/></clipPath><style>.cls-2{clip-path:url(#clip-path)}.cls-4{fill:#fff}</style></defs><path d="M0 0h1083.78v2834.65H0z"/><g class="cls-2"><ellipse cx="541.89" cy="1417.32" rx="480.16" ry="1351.75" stroke="#fff" stroke-linejoin="round" stroke-width="28.83" fill="none"/><path class="cls-4" d="M768.54 2059.28a243 243 0 00-2-28 139.2 139.2 0 00-9.66-35.72 156.67 156.67 0 00-22.12-37.48q-14.47-18.57-39.39-33.28t-62.31-24.16q-37.41-9.47-90.47-9.45-51.45 0-92.07 8.76t-69.15 28.72a129.44 129.44 0 00-43.37 51.47q-14.83 31.52-14.85 77.76V2170h445.39zm-509.77 5.62q0-115.56 67.56-177.94t205.83-62.33q72.39 0 128.26 14t94.05 43.44q38.22 29.45 58.31 75t20.09 107.88v171.63h-574.1z"/></g><path class="cls-4" d="M258.76 1639.01h574.1v66.55h-574.1zM832.87 1285.27v66.55h-234.8l-339.3 193.32v-79.17l273.39-149.89-273.39-146.4v-75.64l339.3 191.23h234.8z"/><g class="cls-2"><path class="cls-4" d="M519.29 753.57c-2.69-14-7.89-26.25-15.69-36.74s-18.21-18.92-31.34-25.23-30.14-9.47-51.06-9.47q-43.41 0-70.76 21t-27.34 67.96v165.34h200.22V797.72a235.58 235.58 0 00-4-44.15m-260.52 14q0-71.46 40.21-111.74t110.12-40.23q52.28 0 91.67 20.65t53.88 66.2h1.6c3.22-14.45 8.56-26.28 16.1-35.39a85.21 85.21 0 0126.91-21.7 134.39 134.39 0 0135-11.91c12.85-2.56 26.28-4.56 40.19-6q20.94-1.4 42.61-2.09a421.44 421.44 0 0042.64-3.49 296.93 296.93 0 0039.79-8.07 103 103 0 0033.36-15.76v74.25q-8.83 7-24.12 9.47a286.67 286.67 0 01-34.16 3.13c-12.58.47-26.14.93-40.61 1.4a325.65 325.65 0 00-42.64 4.22c-13.91 1.87-27.18 4.18-39.79 7s-23.58 7.22-32.94 13.29a68.51 68.51 0 00-22.52 23.81q-8.46 14.7-8.44 39.25v162.57h245.21V1003h-574.1z"/></g></svg>