<?xml version="1.0" encoding="UTF-8"?><svg id="Livello_2" xmlns="http://www.w3.org/2000/svg" viewBox="0 0 112.25 112.25"><defs><style>.cls-1,.cls-2{fill:none;}.cls-2{stroke:#000;stroke-linecap:round;stroke-miterlimit:10;stroke-width:.75px;}</style></defs><g id="TOOLS_MATERIALS"><g><g><path class="cls-2" d="M19.73,62.66c-1.39,2.13-1.83,4.62-.8,7.04,.97,2.27,3.08,4.02,5.08,5.21,4.18,2.5,9.4,3.6,14.17,3.6"/><path class="cls-2" d="M56.75,61.67c.25,.39,.49,.77,.74,1.14"/><path class="cls-2" d="M56.71,61.61c.13,.21,.26,.42,.37,.65"/><path class="cls-2" d="M57.08,62.25c1.63,3.22,.32,6.51-2.02,8.83"/><path class="cls-2" d="M57.44,62.75c-.16-.24-.33-.47-.52-.7"/><path class="cls-2" d="M73.05,58.37c.63,0,1.26,0,1.89-.04"/><path class="cls-2" d="M73.88,56.33c-.59,0-1.18,0-1.77-.02"/><path class="cls-2" d="M63.2,35.78c.75-.27,1.5-.49,2.27-.69"/><path class="cls-2" d="M63.2,35.78c-2.2,.8-4.17,1.8-5.95,3.37"/><path class="cls-2" d="M55.99,40.48c.39-.48,.8-.91,1.26-1.32"/><path class="cls-2" d="M86.95,53.17c-1.3,.74-2.66,1.29-4.08,1.74"/><path class="cls-2" d="M57.25,39.16c.81-.74,1.69-1.35,2.64-1.89"/><path class="cls-2" d="M59.89,37.27c1.06-.6,2.16-1.08,3.31-1.49"/><path class="cls-2" d="M55.99,40.48c-.33,.4-.62,.81-.87,1.26"/><path class="cls-2" d="M55.42,41.27c.18-.28,.37-.54,.57-.8"/><path class="cls-2" d="M83.55,56.79c-.4,.13-.81,.26-1.23,.38-.69,.2-1.4,.37-2.12,.52-.72,.15-1.46,.27-2.21,.37-.75,.1-1.51,.18-2.27,.23-.26,.02-.52,.03-.77,.04"/><path class="cls-2" d="M93.58,47.17c-.01,.17-.03,.33-.05,.5-.06,.44-.17,.88-.32,1.32-.15,.44-.34,.87-.58,1.29-.23,.42-.51,.84-.83,1.24-.32,.4-.67,.8-1.07,1.18-.06,.06-.13,.12-.19,.18"/><path class="cls-2" d="M91.82,41.94c.05,.06,.09,.12,.13,.17"/><path class="cls-2" d="M73.4,34.1h-.14c-.74,0-1.48,.03-2.22,.08-.73,.05-1.47,.13-2.2,.23-.72,.1-1.44,.23-2.14,.38-.42,.09-.83,.19-1.24,.3"/><path class="cls-2" d="M82.72,35.48c-.29-.09-.58-.18-.87-.26-.66-.19-1.34-.35-2.04-.49-.69-.14-1.4-.26-2.13-.35-.72-.09-1.45-.16-2.19-.21-.69-.04-1.38-.06-2.09-.06"/><path class="cls-2" d="M90.21,39.78c-.08-.08-.16-.16-.25-.25-.38-.37-.79-.72-1.24-1.06-.45-.34-.93-.66-1.45-.97-.51-.31-1.06-.6-1.63-.87-.57-.27-1.17-.52-1.79-.76-.37-.14-.74-.27-1.13-.39"/><path class="cls-2" d="M91.8,41.91l-.03-.05c-.22-.41-.49-.81-.79-1.2-.24-.3-.5-.6-.78-.89"/><path class="cls-2" d="M91.82,41.94l-.02-.03"/><path class="cls-2" d="M82.87,54.91c-2.95,.93-5.9,1.36-8.98,1.42"/><path class="cls-2" d="M53.24,46.73c0-1.81,.58-3.19,1.63-4.61"/><path class="cls-2" d="M64.3,57.11c-2.87-.84-5.92-2.23-8.14-4.35"/><path class="cls-2" d="M89.93,50.95c-.9,.89-1.89,1.6-2.98,2.23"/><path class="cls-2" d="M91.8,41.91c-.08-.1-.17-.21-.26-.31"/><path class="cls-2" d="M38.18,78.5c.63,0,1.26,0,1.89-.04"/><path class="cls-2" d="M39.01,76.47c-.59,0-1.18,0-1.77-.02"/><path class="cls-2" d="M28.32,55.92c.75-.27,1.5-.49,2.27-.69"/><path class="cls-2" d="M28.32,55.92c-2.2,.8-4.17,1.8-5.95,3.37"/><path class="cls-2" d="M21.12,60.61c.39-.48,.81-.91,1.26-1.32"/><path class="cls-2" d="M52.07,73.31c-1.3,.74-2.66,1.29-4.08,1.74"/><path class="cls-2" d="M22.37,59.3c.81-.74,1.69-1.35,2.64-1.89"/><path class="cls-2" d="M25.01,57.41c1.06-.6,2.16-1.08,3.31-1.49"/><path class="cls-2" d="M21.12,60.61c-.33,.4-.62,.81-.87,1.26"/><path class="cls-2" d="M20.54,61.41c.18-.28,.37-.54,.57-.8"/><path class="cls-2" d="M48.67,76.93c-.4,.13-.81,.26-1.23,.38-.69,.2-1.4,.37-2.12,.52-.72,.15-1.46,.27-2.21,.37-.75,.1-1.51,.18-2.27,.23-.26,.02-.52,.03-.77,.04"/><path class="cls-2" d="M58.7,67.3c-.01,.17-.03,.33-.05,.5-.06,.44-.17,.88-.32,1.32-.15,.44-.34,.87-.58,1.29-.23,.42-.51,.84-.83,1.24-.32,.4-.67,.8-1.07,1.18-.06,.06-.13,.12-.19,.18"/><path class="cls-2" d="M56.95,62.08c.05,.06,.09,.12,.13,.17"/><path class="cls-2" d="M38.53,54.23h-.14c-.74,0-1.48,.03-2.22,.08-.73,.05-1.47,.13-2.2,.23-.72,.1-1.44,.23-2.14,.38-.42,.09-.83,.19-1.24,.3"/><path class="cls-2" d="M47.84,55.62c-.29-.09-.58-.18-.87-.26-.66-.19-1.34-.35-2.04-.49-.69-.14-1.4-.26-2.13-.35-.72-.09-1.45-.16-2.19-.21-.69-.04-1.38-.06-2.09-.06"/><path class="cls-2" d="M55.33,59.91c-.08-.08-.16-.16-.25-.25-.38-.37-.79-.72-1.24-1.06-.45-.34-.93-.66-1.45-.97-.51-.31-1.06-.6-1.63-.87-.57-.27-1.17-.52-1.79-.76-.37-.14-.74-.27-1.13-.39"/><path class="cls-2" d="M56.93,62.05l-.03-.05c-.22-.41-.49-.81-.79-1.2-.24-.3-.5-.6-.78-.89"/><path class="cls-2" d="M56.95,62.08l-.02-.03"/><path class="cls-2" d="M47.99,75.05c-2.95,.93-5.9,1.36-8.98,1.42"/><path class="cls-2" d="M18.36,66.87c0-1.81,.58-3.19,1.63-4.61"/><path class="cls-2" d="M29.43,77.25c-2.87-.84-5.92-2.23-8.14-4.35"/><path class="cls-2" d="M55.05,71.08c-.9,.89-1.89,1.6-2.98,2.23"/><path class="cls-2" d="M56.93,62.05c-.08-.1-.17-.21-.26-.31"/><path class="cls-2" d="M91.63,41.53c.25,.39,.49,.77,.74,1.14"/><path class="cls-2" d="M73.88,56.33c.75,0,1.49-.04,2.22-.1,.74-.06,1.47-.14,2.18-.25,.72-.11,1.43-.24,2.12-.4,.69-.16,1.37-.33,2.02-.53,.66-.2,1.29-.42,1.9-.66,.61-.24,1.2-.51,1.76-.79,.56-.28,1.09-.58,1.59-.9,.5-.32,.96-.65,1.4-1,.43-.35,.83-.71,1.19-1.08,.36-.37,.68-.76,.96-1.16,.28-.4,.53-.8,.73-1.21,.2-.41,.36-.83,.48-1.25,.12-.42,.19-.85,.23-1.28,.03-.44,.02-.89-.04-1.33-.06-.43-.15-.85-.3-1.27-.13-.39-.3-.78-.5-1.17"/><path class="cls-2" d="M72.11,56.32c-4.29-.12-8.91-1.19-12.64-3.46-3.92-2.38-6.97-6.25-4.41-10.98"/><path class="cls-2" d="M55.06,41.88c.11-.21,.23-.41,.36-.61"/><path class="cls-2" d="M55.12,41.81c-.18,.23-.35,.47-.51,.72"/><path class="cls-2" d="M74.94,58.33c4.14-.21,8.95-1.19,12.64-3.29"/><path class="cls-2" d="M87.58,55.04c2.11-1.2,4.15-2.95,5.25-5.22,1.16-2.42,1.01-4.9-.47-7.14"/><path class="cls-2" d="M65.46,35.09c4.46-1.13,9.55-1.32,14.07-.43,4.05,.79,9.6,2.94,12.05,6.82"/><path class="cls-2" d="M55.12,41.74c-2.63,4.62,.39,8.73,4.27,11.11,3.72,2.28,8.47,3.3,12.72,3.47"/><path class="cls-2" d="M54.61,42.52c.27-.42,.55-.84,.81-1.25"/><path class="cls-2" d="M54.6,42.52c-1.39,2.13-1.83,4.62-.8,7.04,.97,2.27,3.08,4.02,5.08,5.21,4.18,2.5,9.4,3.6,14.17,3.6"/><path class="cls-2" d="M91.59,41.47c.13,.21,.26,.42,.37,.65"/><path class="cls-2" d="M91.95,42.12c1.63,3.22,.32,6.51-2.02,8.83"/><path class="cls-2" d="M92.32,42.61c-.16-.24-.33-.47-.52-.7"/><path class="cls-2" d="M39.01,76.47c.75,0,1.49-.04,2.22-.1,.74-.06,1.47-.14,2.18-.25,.72-.11,1.43-.24,2.12-.4,.69-.16,1.37-.33,2.02-.53,.66-.2,1.29-.42,1.9-.66,.61-.24,1.2-.51,1.76-.79,.56-.28,1.09-.58,1.59-.9,.5-.32,.96-.65,1.4-1,.43-.35,.83-.71,1.19-1.08,.36-.37,.68-.76,.96-1.16,.28-.4,.53-.8,.73-1.21,.2-.41,.36-.83,.48-1.25,.12-.42,.19-.85,.23-1.28,.03-.44,.02-.89-.04-1.33-.06-.43-.15-.85-.3-1.27-.13-.39-.3-.78-.5-1.17"/><path class="cls-2" d="M37.24,76.45c-4.29-.12-8.91-1.19-12.64-3.46-3.92-2.38-6.97-6.25-4.41-10.98"/><path class="cls-2" d="M20.18,62.02c.11-.21,.23-.41,.36-.61"/><path class="cls-2" d="M20.24,61.94c-.18,.23-.35,.47-.51,.72"/><path class="cls-2" d="M40.07,78.47c4.14-.21,8.95-1.19,12.64-3.29"/><path class="cls-2" d="M52.71,75.18c2.11-1.2,4.15-2.95,5.25-5.22,1.16-2.42,1.01-4.9-.47-7.14"/><path class="cls-2" d="M30.59,55.23c4.46-1.13,9.55-1.32,14.07-.43,4.05,.79,9.6,2.94,12.05,6.82"/><path class="cls-2" d="M20.24,61.87c-2.63,4.62,.39,8.73,4.27,11.11,3.72,2.28,8.47,3.3,12.72,3.47"/><path class="cls-2" d="M19.73,62.66c.27-.42,.55-.84,.81-1.25"/></g><rect class="cls-1" width="112.25" height="112.25"/></g></g></svg>