<?xml version="1.0" encoding="UTF-8"?><svg xmlns="http://www.w3.org/2000/svg" viewBox="0 0 112.25 112.25"><defs><style>.d{fill:none;}.e{fill-rule:evenodd;}</style></defs><g id="a"/><g id="b"><g id="c"><g><g><path class="e" d="M51.95,64.98L91.7,25.22c.51-.51,.36-1.98-1.17-3.51s-3-1.68-3.51-1.17L47.27,60.3s3.44,1.07,3.51,1.17c.01,.02,1.17,3.51,1.17,3.51"/><path class="e" d="M26.73,88.03c-.69,.69-1.81,.69-2.5,0s-.69-1.81,0-2.51l2.51-2.51c.69-.69,1.81-.69,2.51,0s.69,1.81,0,2.5l-2.51,2.51Zm11.48-7.01c4.2-5.44,8.52-11.03,13.56-13.78l-1.99-4.76-4.76-1.99c-2.76,5.04-8.34,9.37-13.78,13.56-5.51,4.25-11.22,8.65-11.46,12.42-.09,1.35,.55,2.68,1.94,4.07s2.72,2.02,4.07,1.94c3.76-.24,8.16-5.94,12.42-11.46h0Z"/></g><rect class="d" y="0" width="112.25" height="112.25"/></g></g></g></svg>