<?xml version="1.0" encoding="UTF-8"?><svg xmlns="http://www.w3.org/2000/svg" viewBox="0 0 112.25 112.25"><defs><style>.d{fill:none;}</style></defs><g id="a"/><g id="b"><g id="c"><g><g><polygon points="85.23 35.58 50.36 35.05 47.86 45.23 82.74 45.75 85.23 35.58"/><polygon points="44.06 28.49 50.26 34.55 84.92 35.07 78.72 29.01 44.06 28.49"/><polygon points="43.58 28.72 41.1 38.83 47.41 44.99 49.88 34.88 43.58 28.72"/><polygon points="26.34 49.91 46.3 69.68 46.3 58.54 26.34 38.77 26.34 49.91"/><polygon points="59.53 54.33 46.8 58.61 46.8 69.93 59.53 65.65 59.53 54.33"/><polygon points="26.55 38.27 46.62 58.15 59.31 53.87 51.14 45.78 47.44 45.72 40.55 38.99 41.28 36.01 39.24 34 26.55 38.27"/></g><rect class="d" y="0" width="112.25" height="112.25"/><g><polygon points="71.52 47.51 61.34 69.72 75.63 71.9 85.8 49.69 71.52 47.51"/><polygon points="75.52 72.39 61.22 70.2 61.22 81.54 75.52 83.73 75.52 72.39"/><polygon points="76.02 72.23 76.02 82.87 85.92 61.28 85.92 50.64 76.02 72.23"/></g></g></g></g></svg>