<svg xmlns="http://www.w3.org/2000/svg" viewBox="0 0 112.25 112.25"><defs><style>.cls-1{fill-rule:evenodd;}.cls-2{fill:none;}</style></defs><g id="Livello_2" data-name="Livello 2"><g id="TOOLS_MATERIALS" data-name="TOOLS MATERIALS"><rect x="38.35" y="27.14" width="35.55" height="75.62"/><circle cx="61.03" cy="13.32" r="0.65"/><path class="cls-1" d="M72.94,23.93h-.65a15,15,0,0,0-6.46-5.6,1.14,1.14,0,0,0,.43-.86.93.93,0,0,0-.87-.87h-3V14.28a1.65,1.65,0,1,1,0-1.92V10.57A1,1,0,0,0,61.3,9.49H50.74a1,1,0,0,0-1.08,1.08v6h-2.8a.93.93,0,0,0-.86.87,1.11,1.11,0,0,0,.43.86A14.94,14.94,0,0,0,40,23.93h-.65a1.08,1.08,0,0,0,0,2.16H72.94a1.08,1.08,0,0,0,0-2.16Z"/><rect x="38.35" y="27.14" width="35.55" height="75.62"/><circle cx="61.03" cy="13.32" r="0.65"/><path class="cls-1" d="M72.94,23.93h-.65a15,15,0,0,0-6.46-5.6,1.14,1.14,0,0,0,.43-.86.93.93,0,0,0-.87-.87h-3V14.28a1.65,1.65,0,1,1,0-1.92V10.57A1,1,0,0,0,61.3,9.49H50.74a1,1,0,0,0-1.08,1.08v6h-2.8a.93.93,0,0,0-.86.87,1.11,1.11,0,0,0,.43.86A14.94,14.94,0,0,0,40,23.93h-.65a1.08,1.08,0,0,0,0,2.16H72.94a1.08,1.08,0,0,0,0-2.16Z"/><rect class="cls-2" width="112.25" height="112.25"/></g></g></svg>