<?xml version="1.0" encoding="UTF-8"?><svg xmlns="http://www.w3.org/2000/svg" viewBox="0 0 112.25 112.25"><defs><style>.d{fill:none;}</style></defs><g id="a"/><g id="b"><g id="c"><g><g><rect x="33.67" y="67.2" width="25.09" height="4.21" rx="1.46" ry="1.46" transform="translate(-33.07 94.85) rotate(-74.16)"/><path d="M73.82,89.86c.79,0,1.64,.01,2.57,.02h.06c1.7,0,3.29-.66,4.5-1.85,1.22-1.21,1.9-2.83,1.9-4.55v-25.83h-4.21v25.83c0,.59-.23,1.14-.65,1.56-.41,.41-.96,.63-1.54,.63h-.02c-.94,0-1.8-.02-2.61-.02v4.22Z"/><g><path d="M73.82,91.74v-1.88m0-4.22V15.68c0-1.22-.99-2.21-2.21-2.21H20.83c-1.22,0-2.21,.99-2.21,2.21V96.57c0,1.22,.99,2.21,2.21,2.21h50.78c1.22,0,2.21-.99,2.21-2.21v-.62M27.71,22.48c0-.45,.37-.82,.82-.82H63.91c.45,0,.82,.37,.82,.82v10.91c0,.45-.37,.82-.82,.82H28.53c-.45,0-.82-.37-.82-.82v-10.91Zm18.51,65.33c-10.23,0-18.51-8.29-18.51-18.51s8.29-18.51,18.51-18.51,18.51,8.29,18.51,18.51-8.29,18.51-18.51,18.51Z"/><path d="M91.47,22.85v-7.51c0-.24-.19-.43-.43-.43h-1.25c-.24,0-.43,.19-.43,.43v7.51c0,.6-.48,1.08-1.08,1.08h0c-.6,0-1.08,.48-1.08,1.08v10.39c0,1.19,.97,2.16,2.16,2.16h2.11c1.19,0,2.16-.97,2.16-2.16v-10.39c0-.6-.48-1.08-1.08-1.08h0c-.6,0-1.08-.48-1.08-1.08Z"/><path d="M81.57,42.14v-7.51c0-.24-.19-.43-.43-.43h-1.25c-.24,0-.43,.19-.43,.43v7.51c0,.6-.48,1.08-1.08,1.08h0c-.6,0-1.08,.48-1.08,1.08v10.39c0,1.19,.97,2.16,2.16,2.16h2.11c1.19,0,2.16-.97,2.16-2.16v-10.39c0-.6-.48-1.08-1.08-1.08h0c-.6,0-1.08-.48-1.08-1.08Z"/><path d="M73.82,95.95h10.75c4.38,0,7.95-3.57,7.95-7.95V38.26h-4.21v49.75c0,2.06-1.68,3.74-3.74,3.74h-10.75v4.21Z"/></g></g><rect class="d" x="0" y="0" width="112.25" height="112.25"/></g></g></g></svg>