<?xml version="1.0" encoding="UTF-8"?><svg id="Livello_2" xmlns="http://www.w3.org/2000/svg" viewBox="0 0 112.25 112.25"><defs><style>.cls-1,.cls-2{fill:none;}.cls-2{stroke:#000;stroke-linecap:round;stroke-miterlimit:10;stroke-width:.75px;}</style></defs><g id="TOOLS_MATERIALS"><g><path class="cls-2" d="M28.84,75.89c-.13,.22-.22,.44-.28,.69"/><line class="cls-2" x1="36.32" y1="64.18" x2="36.32" y2="81.06"/><path class="cls-2" d="M37.38,81.49c-.35-.14-.71-.28-1.06-.43"/><path class="cls-2" d="M28.56,76.58c-.25-.2-.5-.4-.74-.61"/><path class="cls-2" d="M28.84,75.89c.69-1.19,2.16-1.91,3.37-2.26,1.37-.4,2.69-.51,4.11-.39"/><path class="cls-2" d="M37.38,81.49c9.8,3.81,21.71,4.39,31.88,2.25,5.14-1.08,10.52-3.01,14.92-6.02,4.25-2.91,8.31-7.42,8.31-13.15"/><path class="cls-2" d="M21.78,64.57c0,4.67,2.73,8.58,6.04,11.41"/><g><line class="cls-2" x1="28.56" y1="59.7" x2="28.56" y2="76.58"/><path class="cls-2" d="M28.56,59.7c-5.82-4.61-9.07-11.45-4.92-18.55,1.67-2.85,4.22-5.15,6.92-6.93,3.21-2.11,6.59-3.54,10.25-4.64,12.54-3.77,29.42-3.12,41.18,3.59,3.18,1.82,6.29,4.28,8.31,7.45,1.81,2.84,2.63,6.06,1.94,9.44-.66,3.26-2.59,6.04-4.93,8.25-2.76,2.61-6.17,4.55-9.64,5.98-12.36,5.1-29.02,5.08-41.36-.11"/><line class="cls-2" x1="92.49" y1="47.76" x2="92.49" y2="64.57"/><line class="cls-2" x1="21.78" y1="64.57" x2="21.78" y2="47.79"/><path class="cls-2" d="M36.32,64.18c1.75-.14,4.26-.81,5.39-2.45,.63-.91,.65-1.93,.05-2.86-.56-.86-1.5-1.44-2.39-1.81-1.83-.76-4.07-.92-5.99-.59-1.64,.28-4.31,1.21-4.81,3.22"/><rect class="cls-1" width="112.25" height="112.25"/></g></g></g></svg>