<?xml version="1.0" encoding="UTF-8"?><svg xmlns="http://www.w3.org/2000/svg" viewBox="0 0 112.25 112.25"><defs><style>.d{fill:none;}</style></defs><g id="a"/><g id="b"><g id="c"><g><path d="M56.88,65.41l.38,.38,3.04-3.04-3.01-3.01-1.35-1.35,31.59-31.59,3.59-2.18,4.45-5.87-1.04-1.04-1.04-1.04-5.87,4.45-2.18,3.59-31.59,31.59-1.35-1.35-3.01-3.01-3.04,3.04,.38,.38c1.21,1.21,1.21,3.19,0,4.4s-3.19,1.21-4.4,0l-.38-.38-2.68,2.68-20.96,20.96-.71,.71c-2.98,2.98-2.98,7.82,0,10.8s7.82,2.98,10.8,0l.71-.71,20.96-20.96,2.68-2.68-.38-.38c-1.21-1.21-1.21-3.19,0-4.4s3.19-1.21,4.4,0Z"/><rect class="d" y="0" width="112.25" height="112.25"/></g></g></g></svg>