<?xml version="1.0" encoding="UTF-8"?><svg xmlns="http://www.w3.org/2000/svg" viewBox="0 0 112.25 112.25"><defs><style>.d,.e{fill:none;}.e{stroke:#000;stroke-miterlimit:10;}</style></defs><g id="a"/><g id="b"><g id="c"><rect class="d" y="0" width="112.25" height="112.25"/><g><path d="M93.92,26.84c-1.88,2-5.75,1.4-8.78-1.46-3.03-2.85-3.96-6.78-2.09-8.78l-.37-.35L18.25,84.68c-1.88,2-.78,6.1,2.46,9.15,3.24,3.05,7.39,3.9,9.28,1.9L94.29,27.18l-.37-.35h0Z"/><path class="e" d="M91.95,18.13c3.03,2.86,3.85,6.7,1.96,8.7-1.88,2-5.75,1.4-8.78-1.46s-3.97-6.79-2.08-8.8c1.88-2,5.87-1.31,8.9,1.55Z"/></g></g></g></svg>