<svg xmlns="http://www.w3.org/2000/svg" viewBox="0 0 1205.38 859.45"><defs><style>.cls-1,.cls-2,.cls-3,.cls-4,.cls-5,.cls-6{fill:none;}.cls-1,.cls-4,.cls-6{stroke:#000;}.cls-1,.cls-2,.cls-3,.cls-4,.cls-5{stroke-linecap:round;}.cls-1{stroke-linejoin:round;stroke-width:0.75px;}.cls-2{stroke:#ff0005;}.cls-2,.cls-3{stroke-width:5px;}.cls-3,.cls-5{stroke:blue;}.cls-4{stroke-width:8px;}.cls-5{stroke-miterlimit:10;stroke-width:18px;}</style></defs><title>SPK L</title><g id="SPK-P_assembly_of_the_upper_part" data-name="SPK-P assembly of the upper part"><path class="cls-1" d="M311.57,536.86l.19.13"/><line class="cls-1" x1="418.22" y1="124.61" x2="426.13" y2="119.88"/><line class="cls-1" x1="426.13" y1="119.88" x2="424.55" y2="118.97"/><line class="cls-1" x1="424.55" y1="118.97" x2="422.97" y2="118.06"/><line class="cls-1" x1="422.97" y1="118.06" x2="415.06" y2="122.78"/><line class="cls-1" x1="296.54" y1="194.81" x2="296.54" y2="191.17"/><line class="cls-1" x1="296.54" y1="191.17" x2="300.47" y2="188.81"/><line class="cls-1" x1="418.22" y1="401.79" x2="415.06" y2="399.96"/><line class="cls-1" x1="544.77" y1="328.93" x2="544.78" y2="325.28"/><line class="cls-1" x1="544.78" y1="325.28" x2="536.73" y2="329.75"/><line class="cls-1" x1="536.73" y1="333.4" x2="544.77" y2="328.93"/><line class="cls-1" x1="532.93" y1="327.56" x2="536.73" y2="329.75"/><line class="cls-1" x1="544.78" y1="325.28" x2="532.93" y2="327.56"/><line class="cls-1" x1="415.06" y1="122.78" x2="415.06" y2="127.17"/><line class="cls-1" x1="418.22" y1="128.99" x2="418.22" y2="124.61"/><line class="cls-1" x1="296.54" y1="194.81" x2="300.35" y2="197.01"/><line class="cls-1" x1="415.06" y1="395.57" x2="415.06" y2="399.96"/><line class="cls-1" x1="532.93" y1="331.21" x2="536.73" y2="333.4"/><line class="cls-1" x1="418.22" y1="128.99" x2="426.13" y2="119.88"/><path class="cls-1" d="M366.58,389.21a6.38,6.38,0,0,0-2.61-1.78"/><path class="cls-1" d="M351.55,396.79A29,29,0,0,0,350,405"/><path class="cls-1" d="M347.07,418.77l-.52,1.12"/><line class="cls-1" x1="300.35" y1="193.36" x2="301.08" y2="192.1"/><path class="cls-1" d="M300.35,197c.25,21.25,4.75,42.94,11.47,62.93a277.41,277.41,0,0,0,27.45,57.91"/><path class="cls-1" d="M532.93,327.56A183.17,183.17,0,0,0,530.05,298q-1.27-7.23-3-14.33-1.82-7.34-4.08-14.53a273.42,273.42,0,0,0-24-54.29q-3.74-6.47-7.8-12.72t-8.41-12.22a261,261,0,0,0-18.82-23C450.62,152.45,435.16,139,418.22,129"/><path class="cls-1" d="M426.13,119.88c17.52,10.38,33.51,24.25,47.2,39.15a272.36,272.36,0,0,1,19.46,23.82q4.53,6.21,8.71,12.65t8.07,13.16a282.43,282.43,0,0,1,24.88,56.17q2.35,7.46,4.23,15,1.82,7.35,3.14,14.82a188.88,188.88,0,0,1,3,30.59"/><path class="cls-1" d="M544.77,328.93a129.33,129.33,0,0,1-3.84,30.83A83.65,83.65,0,0,1,528.15,388a59.07,59.07,0,0,1-23.75,19.6,64.84,64.84,0,0,1-30.41,5.2"/><path class="cls-1" d="M259.82,433.59a8.69,8.69,0,0,0,2,5.13,7.36,7.36,0,0,0,2.11,1.82,2.8,2.8,0,0,0,2.68.21"/><path class="cls-1" d="M280.91,433.18l-.14.08"/><path class="cls-1" d="M254.55,430.55a19.37,19.37,0,0,0,3,9.6,17.86,17.86,0,0,0,7.26,6.92"/><path class="cls-1" d="M280.77,433.26c-.06-.19-.13-.39-.2-.58"/><path class="cls-1" d="M351.55,396.79c-.06.15-.11.29-.16.45-.25.7-.47,1.43-.66,2.15s-.31,1.32-.43,2-.2,1.26-.25,1.88A16.81,16.81,0,0,0,350,405"/><path class="cls-1" d="M366.58,389.21a3.07,3.07,0,0,0-.25-.26,6.13,6.13,0,0,0-1.35-1l-.13-.07a6,6,0,0,0-1.12-.45,6.53,6.53,0,0,0-2.38-.24,6.91,6.91,0,0,0-1.26.21"/><path class="cls-1" d="M360.36,451.31c.24-.34.47-.67.68-1a15.65,15.65,0,0,0,1-1.94,13.87,13.87,0,0,0,.7-2,13,13,0,0,0,.38-2c0-.26,0-.52.05-.77"/><path class="cls-1" d="M299.25,542a26.68,26.68,0,0,1-7.54-6.25,14.49,14.49,0,0,1-3.43-9"/><path class="cls-1" d="M346.55,419.89a7.21,7.21,0,0,0-.58,1.41,1.46,1.46,0,0,0,.29,1.43"/><path class="cls-1" d="M368.93,300.74c1.26-.72,2.31-1.33,3.15-1.86a24.48,24.48,0,0,0,2.81-2c.4-.35.56-.54.57-.54"/><path class="cls-1" d="M423.3,379h0a6.34,6.34,0,0,0-1.23.39,30.92,30.92,0,0,0-3.6,1.77c-.72.39-1.52.85-2.41,1.37"/><path class="cls-1" d="M245.46,392.48a37.18,37.18,0,0,1,3.84-16.38c.43-.85.89-1.69,1.39-2.5s1-1.57,1.56-2.32,1.12-1.46,1.72-2.15l.48-.55a32.75,32.75,0,0,1,7.71-6.23"/><path class="cls-1" d="M253.49,421.89a60.52,60.52,0,0,1-3.37-6.8c-.66-1.56-1.25-3.15-1.77-4.74-.28-.85-.53-1.69-.77-2.54A58.59,58.59,0,0,1,246,400.4a49.38,49.38,0,0,1-.54-7.26v-.66"/><path class="cls-1" d="M262.16,362.35l.14-.08"/><path class="cls-1" d="M364,387.43a6.35,6.35,0,0,0-3.88,0"/><path class="cls-1" d="M346.26,422.73a3.22,3.22,0,0,0,2.43.69,7.8,7.8,0,0,0,2.52-.6"/><path class="cls-1" d="M376.49,405.4l-.42.24-.89.52"/><path class="cls-1" d="M266.6,440.75a2.87,2.87,0,0,0,1.16-2.57"/><path class="cls-1" d="M314.93,137.42c9.83-19.49,26.41-32.19,48.57-34.48a83.91,83.91,0,0,1,30.82,3A129.67,129.67,0,0,1,423,118.06"/><path class="cls-1" d="M288.27,513c0-.1,0-.21,0-.31"/><path class="cls-1" d="M264.8,447.07c1.85.83,4.19,1.2,6-.19s2.23-3.7,2.23-5.66"/><path class="cls-1" d="M288.27,477.25c0-.1,0-.21,0-.31"/><path class="cls-1" d="M288.28,526.66a12.38,12.38,0,0,1,.37-3"/><path class="cls-1" d="M363.19,526.66a14.86,14.86,0,0,1-4.1,9.84"/><path class="cls-1" d="M363.2,435.44c0-.17,0-.33,0-.5"/><path class="cls-1" d="M404.88,389c3.32,2.3,6.7,4.49,10.18,6.55"/><path class="cls-1" d="M312.88,141.8c.62-1.43,1.28-2.85,2-4.24"/><path class="cls-1" d="M363.19,485.37c0-.17,0-.35,0-.52"/><path class="cls-1" d="M363.19,512.48c0,.17,0,.33,0,.5"/><path class="cls-1" d="M280.57,432.68c-.11-.34-.24-.68-.37-1"/><path class="cls-1" d="M363.19,443.56c0-.18,0-.35,0-.52"/><path class="cls-1" d="M363.19,476.75c0,.17,0,.33,0,.5"/><path class="cls-1" d="M288.86,516.78a12.57,12.57,0,0,0-.59,3.8"/><path class="cls-1" d="M363.19,521.1c0-.18,0-.35,0-.52"/><path class="cls-1" d="M347.5,417.85h0"/><path class="cls-1" d="M347.31,418.26h0"/><path class="cls-1" d="M255.33,424.86c-.64-1-1.26-2-1.84-3"/><path class="cls-1" d="M349.63,410l0,0"/><line class="cls-1" x1="323.1" y1="436.2" x2="323.1" y2="436.2"/><path class="cls-1" d="M296.48,448.24l-.83.07"/><path class="cls-1" d="M300.36,192.53c0,.28,0,.56,0,.83"/><line class="cls-1" x1="404.88" y1="389.02" x2="376.49" y2="405.4"/><line class="cls-1" x1="409.22" y1="386.52" x2="404.88" y2="389.02"/><path class="cls-1" d="M289.35,448.19c1.9,4.46,5.91,7.84,9.9,10.13"/><path class="cls-1" d="M295.65,448.31a29,29,0,0,0,3.6,2.41"/><line class="cls-1" x1="415.06" y1="122.78" x2="418.22" y2="124.61"/><line class="cls-1" x1="418.22" y1="397.4" x2="418.22" y2="401.79"/><line class="cls-1" x1="536.73" y1="329.75" x2="536.73" y2="333.4"/><line class="cls-1" x1="300.35" y1="193.36" x2="296.54" y2="191.17"/><path class="cls-1" d="M351.21,422.82c3.93-1.57,7-5.43,9.4-8.42"/><path class="cls-1" d="M418.22,397.4c1.33.74,2.66,1.46,4,2.16"/><path class="cls-1" d="M257.31,419.8l.19-.34a7.85,7.85,0,0,1,.72-1,6.9,6.9,0,0,1,.86-.85,7,7,0,0,1,1-.66,6,6,0,0,1,1.11-.46,6.55,6.55,0,0,1,1.2-.26,7.88,7.88,0,0,1,1.29,0,9.18,9.18,0,0,1,1.35.16,11.79,11.79,0,0,1,1.46.4,12.47,12.47,0,0,1,1.44.59c.48.23,1,.49,1.46.78s1,.62,1.45,1,1,.73,1.43,1.14.93.84,1.38,1.3.89.93,1.32,1.44.85,1,1.26,1.57.81,1.12,1.19,1.71.72,1.17,1.05,1.77.65,1.2.94,1.81.56,1.23.81,1.85"/><path class="cls-1" d="M280.2,431.66c.23.52.46,1,.71,1.52"/><path class="cls-1" d="M267.76,438.18a8.7,8.7,0,0,0-2-5.13,7,7,0,0,0-2.11-1.82A2.79,2.79,0,0,0,261,431"/><path class="cls-1" d="M280.77,433.26c.19.58.38,1.14.57,1.7l.68,1.91c.41,1.14.81,2.2,1.19,3.18"/><path class="cls-1" d="M323.1,436.2l-.42.25-.46.26"/><path class="cls-1" d="M261,431a2.87,2.87,0,0,0-1.16,2.57"/><path class="cls-1" d="M309.47,444.07a32.46,32.46,0,0,1-9.26,3.58l-.72.15c-.89.17-1.79.31-2.7.41l-.31,0"/><line class="cls-1" x1="473.99" y1="412.75" x2="465.18" y2="412.25"/><line class="cls-1" x1="416.04" y1="382.58" x2="409.22" y2="386.52"/><path class="cls-1" d="M288.86,481.05a12.57,12.57,0,0,0-.59,3.8"/><path class="cls-1" d="M350,405c0,1.08,0,2.15-.14,3.22"/><path class="cls-1" d="M361.28,519.84h0"/><path class="cls-1" d="M286.25,648.28a15.17,15.17,0,0,1,3.37-9.21,27.29,27.29,0,0,1,7.51-6.49A51.24,51.24,0,0,1,316,626.21"/><line class="cls-1" x1="372.34" y1="648.28" x2="372.34" y2="859.45"/><path class="cls-1" d="M279.17,648.28a18,18,0,0,1,4.25-11.21,33.08,33.08,0,0,1,9.35-7.76c7-4,15.3-6.32,23.17-7.3"/><path class="cls-1" d="M372.34,648.28a18,18,0,0,1-4.27,11.24,33,33,0,0,1-9.38,7.77"/><path class="cls-1" d="M334.26,626a52.6,52.6,0,0,1,19.55,6.21,27.81,27.81,0,0,1,7.88,6.57,15.28,15.28,0,0,1,3.57,9.47"/><line class="cls-1" x1="279.17" y1="859.45" x2="279.17" y2="648.28"/><path class="cls-1" d="M334.26,621.86c8.1.87,16.69,3.09,23.91,7.12a33.91,33.91,0,0,1,9.72,7.84,18.14,18.14,0,0,1,4.45,11.46"/><path class="cls-1" d="M358.69,667.29a57.44,57.44,0,0,1-15.95,6,77.62,77.62,0,0,1-17,1.85"/><path class="cls-1" d="M325.76,675.16c-9.54,0-19.81-1.71-28.62-5.67a39.1,39.1,0,0,1-12.1-8.15c-3.38-3.5-5.87-8-5.87-13.06"/><path class="cls-1" d="M367.8,401.11a37.25,37.25,0,0,0,.6-6.15,11.8,11.8,0,0,0-.33-3.07,6.08,6.08,0,0,0-1.49-2.68"/><path class="cls-1" d="M364.41,417a17.34,17.34,0,0,0-.78,2.86c-.12.62-.2,1.24-.27,1.86l0,.3c-.08.93-.11,1.87-.13,2.83,0,.56,0,1.14,0,1.72"/><path class="cls-1" d="M362.83,523.65v0"/><line class="cls-1" x1="418.22" y1="401.79" x2="422.23" y2="399.56"/><path class="cls-1" d="M422.23,399.56h0"/><path class="cls-1" d="M299.25,458.32a48.1,48.1,0,0,0,15.48,5.38,64,64,0,0,0,16.41.73,55.78,55.78,0,0,0,16-3.65,37.2,37.2,0,0,0,7.28-3.83,26.75,26.75,0,0,0,3.34-2.69,22.13,22.13,0,0,0,2.6-2.95"/><path class="cls-1" d="M299.25,450.72a48.1,48.1,0,0,0,15.48,5.38,64,64,0,0,0,16.41.73,55.78,55.78,0,0,0,16-3.65,37.2,37.2,0,0,0,7.28-3.83,27.69,27.69,0,0,0,3.34-2.69,22.13,22.13,0,0,0,2.6-3"/><path class="cls-1" d="M288.28,448.06h0"/><path class="cls-1" d="M286.2,447.69h0"/><line class="cls-1" x1="322.22" y1="436.71" x2="309.47" y2="444.07"/><line class="cls-1" x1="288.28" y1="526.66" x2="288.28" y2="520.89"/><path class="cls-1" d="M362.84,523.69a12.9,12.9,0,0,1,.35,3"/><line class="cls-1" x1="422.23" y1="399.56" x2="422.23" y2="399.56"/><path class="cls-1" d="M422.23,399.56c12.89,6.73,27.45,11.82,42.23,12.65"/><path class="cls-1" d="M288.28,448.06c-.7-.1-1.39-.23-2.08-.37"/><line class="cls-1" x1="314.86" y1="137.56" x2="314.93" y2="137.42"/><line class="cls-1" x1="288.28" y1="485.16" x2="288.28" y2="484.85"/><path class="cls-1" d="M286.19,447.69c-1,.26-2,.49-3,.69s-1.81.34-2.73.46a35.26,35.26,0,0,1-3.58.31,29.74,29.74,0,0,1-7.62-.62,23,23,0,0,1-4.48-1.46"/><line class="cls-1" x1="288.28" y1="520.89" x2="288.28" y2="520.58"/><line class="cls-1" x1="363.19" y1="521.51" x2="363.19" y2="526.66"/><path class="cls-1" d="M311.11,546.56A45.7,45.7,0,0,1,299.25,542"/><path class="cls-1" d="M350,405a62.21,62.21,0,0,1-.6,7.08,30.28,30.28,0,0,1-2.29,6.72"/><path class="cls-1" d="M360.09,387.4a8.69,8.69,0,0,0-1.24.43,9.89,9.89,0,0,0-1.2.63,10.4,10.4,0,0,0-1.06.76,12,12,0,0,0-1.07,1,12.69,12.69,0,0,0-1,1.15,14.61,14.61,0,0,0-.94,1.31c-.29.46-.58.95-.85,1.46s-.52,1.05-.76,1.6c-.15.35-.29.71-.42,1.07"/><path class="cls-1" d="M415.06,127.17a125.54,125.54,0,0,0-27.69-11.66,81.05,81.05,0,0,0-29.81-2.91c-21.42,2.22-37.43,14.5-46.94,33.34"/><path class="cls-1" d="M283.49,443.86c.37-.12.73-.26,1.08-.4"/><path class="cls-1" d="M283.21,440.05c.48,1.25.93,2.35,1.32,3.31s.64,1.54.89,2.14a17.26,17.26,0,0,1,.79,2.06c0,.08,0,.12,0,.13"/><path class="cls-1" d="M273,441.22a18.33,18.33,0,0,0-2.06-7.9,21.06,21.06,0,0,0-5-6.51,13,13,0,0,0-3.45-2.21,6.79,6.79,0,0,0-4-.52,4.63,4.63,0,0,0-3.12,2.48,8.62,8.62,0,0,0-.85,4"/><path class="cls-1" d="M349.82,408.19a31.32,31.32,0,0,1-1.39,7.24"/><path class="cls-1" d="M348.43,415.43a23.61,23.61,0,0,1-1.36,3.34"/><path class="cls-1" d="M360.36,443.71a14.12,14.12,0,0,0,2.84-8.27"/><path class="cls-1" d="M362.65,516.76a14.73,14.73,0,0,1-.57,1.52,15.22,15.22,0,0,1-1,2c-.21.34-.44.69-.69,1"/><path class="cls-1" d="M360.36,451.31a16.25,16.25,0,0,0,1.2-1.9,14.86,14.86,0,0,0,.88-2,13.5,13.5,0,0,0,.56-2,13,13,0,0,0,.12-4.06,12.74,12.74,0,0,0-.43-2,1.09,1.09,0,0,1-.05-.17"/><path class="cls-1" d="M363.19,434.48c0,.07,0,.14,0,.21a12.55,12.55,0,0,1,0,2,13.13,13.13,0,0,1-.37,2,15.09,15.09,0,0,1-1.74,3.94c-.21.34-.44.69-.69,1"/><path class="cls-1" d="M295.65,448.31q-.81.06-1.62.09c-.95,0-1.89,0-2.84,0s-1.95-.16-2.91-.29"/><path class="cls-1" d="M286.2,447.69h0"/><line class="cls-1" x1="310.63" y1="145.94" x2="314.86" y2="137.56"/><path class="cls-1" d="M310.62,145.94c-7.22,14.31-10,30.89-10.26,46.59"/><path class="cls-1" d="M464.46,412.21a62.71,62.71,0,0,0,29.41-5,56.94,56.94,0,0,0,23-18.94A80.67,80.67,0,0,0,529.2,361a125.38,125.38,0,0,0,3.73-29.79"/><line class="cls-1" x1="288.28" y1="512.98" x2="288.28" y2="485.16"/><line class="cls-1" x1="363.19" y1="484.85" x2="363.19" y2="485.78"/><line class="cls-1" x1="363.19" y1="485.78" x2="363.19" y2="512.98"/><path class="cls-1" d="M363.2,484.85c0-.24,0-.49,0-.74a12.59,12.59,0,0,0-.28-2c-.08-.34-.17-.69-.28-1"/><path class="cls-1" d="M286.2,447.69h0"/><path class="cls-1" d="M254.55,430.55a21.83,21.83,0,0,1,.75-5.59c.13-.49.28-1,.44-1.45s.3-.84.46-1.26c.05-.11.09-.23.14-.34.28-.67.58-1.33.9-2"/><line class="cls-1" x1="262.3" y1="362.27" x2="368.87" y2="300.78"/><line class="cls-1" x1="288.28" y1="477.25" x2="288.28" y2="448.06"/><line class="cls-1" x1="363.19" y1="443.04" x2="363.19" y2="443.97"/><line class="cls-1" x1="363.19" y1="443.97" x2="363.19" y2="477.25"/><path class="cls-1" d="M363.2,443c0-.25,0-.49,0-.74a12.59,12.59,0,0,0-.28-2c-.08-.34-.17-.69-.28-1"/><line class="cls-1" x1="363.19" y1="520.58" x2="363.19" y2="521.51"/><path class="cls-1" d="M363.2,520.58c0-.25,0-.49,0-.74a12.59,12.59,0,0,0-.28-2c-.08-.34-.17-.69-.28-1"/><line class="cls-1" x1="363.19" y1="426.53" x2="363.19" y2="435.44"/><path class="cls-1" d="M334.19,560.09c0,2.79,0,5.59,0,8.38l.06,60.39,0,41.68"/><path class="cls-1" d="M316,670.37l0-40.79-.06-60.39q0-9.13,0-18.26"/><path class="cls-1" d="M325.76,671.08a60.54,60.54,0,0,1-24.27-4.81,33,33,0,0,1-10.26-6.92c-2.87-3-5-6.74-5-11.07"/><path class="cls-1" d="M365.26,648.28c0,4.33-2.12,8.1-5,11.08A33.13,33.13,0,0,1,350,666.27a60.52,60.52,0,0,1-24.26,4.81"/><line class="cls-2" x1="313.13" y1="545.33" x2="324.82" y2="551.73"/><line class="cls-1" x1="744.67" y1="859.45" x2="744.67" y2="448.75"/><line class="cls-1" x1="891.62" y1="119.63" x2="890.04" y2="118.72"/><line class="cls-1" x1="890.04" y1="118.72" x2="888.46" y2="117.81"/><line class="cls-1" x1="888.46" y1="117.81" x2="880.55" y2="122.53"/><line class="cls-1" x1="762.03" y1="194.57" x2="762.03" y2="190.92"/><line class="cls-1" x1="762.03" y1="190.92" x2="765.97" y2="188.56"/><line class="cls-1" x1="883.71" y1="401.54" x2="880.55" y2="399.72"/><line class="cls-1" x1="1010.28" y1="325.03" x2="1002.22" y2="329.5"/><line class="cls-1" x1="1002.22" y1="333.15" x2="1010.27" y2="328.68"/><line class="cls-1" x1="998.42" y1="327.31" x2="1002.22" y2="329.5"/><line class="cls-1" x1="1010.28" y1="325.03" x2="998.42" y2="327.31"/><line class="cls-1" x1="880.55" y1="122.53" x2="880.55" y2="126.92"/><line class="cls-1" x1="883.71" y1="128.74" x2="883.71" y2="124.36"/><line class="cls-1" x1="762.03" y1="194.57" x2="765.84" y2="196.76"/><line class="cls-1" x1="880.55" y1="395.33" x2="880.55" y2="399.72"/><line class="cls-1" x1="998.42" y1="330.96" x2="1002.22" y2="333.15"/><line class="cls-1" x1="883.71" y1="128.74" x2="891.62" y2="119.63"/><path class="cls-1" d="M722.35,420.58a2.29,2.29,0,0,1,.09-.28"/><path class="cls-1" d="M832.08,389a6.38,6.38,0,0,0-2.62-1.78"/><path class="cls-1" d="M812.56,418.52c-.17.38-.34.75-.52,1.12"/><path class="cls-1" d="M765.84,196.76c.26,21.25,4.76,42.94,11.47,62.94a277.69,277.69,0,0,0,27.46,57.91"/><path class="cls-1" d="M998.42,327.31a182.16,182.16,0,0,0-2.88-29.57q-1.27-7.22-3-14.33-1.8-7.34-4.08-14.53a273.62,273.62,0,0,0-24-54.28q-3.74-6.47-7.8-12.73t-8.42-12.22a262.67,262.67,0,0,0-18.81-23c-13.24-14.41-28.69-27.83-45.64-37.88"/><line class="cls-1" x1="722.77" y1="419.5" x2="722.8" y2="419.56"/><path class="cls-1" d="M891.62,119.63c17.52,10.38,33.52,24.25,47.2,39.15a272.47,272.47,0,0,1,19.47,23.82q4.51,6.21,8.7,12.65t8.08,13.16A283.67,283.67,0,0,1,1000,264.59q2.34,7.46,4.22,15c1.21,4.91,2.26,9.84,3.14,14.82a189,189,0,0,1,3,30.59"/><path class="cls-1" d="M1010.27,328.68a129.79,129.79,0,0,1-3.85,30.83,83.56,83.56,0,0,1-12.78,28.19,59,59,0,0,1-23.74,19.61,64.89,64.89,0,0,1-30.42,5.19"/><path class="cls-1" d="M725.31,433.35a8.75,8.75,0,0,0,2,5.13,7.34,7.34,0,0,0,2.1,1.82,2.81,2.81,0,0,0,2.68.2"/><path class="cls-1" d="M746.41,432.93l-.15.08"/><path class="cls-1" d="M720,430.31a19.24,19.24,0,0,0,3,9.59,17.71,17.71,0,0,0,7.25,6.92"/><path class="cls-1" d="M746.26,433c-.06-.19-.13-.38-.19-.58"/><path class="cls-1" d="M722.8,419.56l0,.07"/><path class="cls-1" d="M832.08,389l-.26-.27a6.47,6.47,0,0,0-1.35-1l-.13-.07a6,6,0,0,0-1.12-.45,6.53,6.53,0,0,0-2.38-.24,8.82,8.82,0,0,0-1.25.21"/><path class="cls-1" d="M812,419.64a8.2,8.2,0,0,0-.58,1.41,1.46,1.46,0,0,0,.29,1.43"/><path class="cls-1" d="M834.43,300.49c1.25-.72,2.3-1.33,3.14-1.86a22.46,22.46,0,0,0,2.81-2,5.48,5.48,0,0,0,.57-.54"/><path class="cls-1" d="M888.79,378.8h0a8.26,8.26,0,0,0-1.22.39,31.75,31.75,0,0,0-3.61,1.77l-2.41,1.37"/><path class="cls-1" d="M711,392.24a37.32,37.32,0,0,1,3.84-16.38c.43-.86.89-1.69,1.39-2.51s1-1.57,1.56-2.32,1.12-1.46,1.72-2.15l.49-.54a32.49,32.49,0,0,1,7.7-6.24"/><path class="cls-1" d="M719,421.64a60.37,60.37,0,0,1-3.37-6.79q-1-2.36-1.77-4.75c-.27-.84-.53-1.69-.77-2.54a58.22,58.22,0,0,1-1.58-7.41,50.54,50.54,0,0,1-.54-7.25v-.66"/><path class="cls-1" d="M727.65,362.1l.14-.08"/><path class="cls-1" d="M829.46,387.19a6.39,6.39,0,0,0-3.87,0"/><path class="cls-1" d="M811.75,422.48a3.18,3.18,0,0,0,2.43.69,7.86,7.86,0,0,0,2.53-.6"/><path class="cls-1" d="M842,405.15l-.42.25-.88.51"/><path class="cls-1" d="M788.6,436l-.43.24-.45.26"/><path class="cls-1" d="M732.09,440.5a2.85,2.85,0,0,0,1.16-2.57"/><path class="cls-1" d="M776.12,145.69C769.45,158.9,766.59,174,766,188.56"/><path class="cls-1" d="M780.42,137.17c9.84-19.49,26.41-32.19,48.57-34.48a83.91,83.91,0,0,1,30.82,3,129.67,129.67,0,0,1,28.65,12.09"/><path class="cls-1" d="M730.29,446.82c1.85.84,4.19,1.2,6-.19s2.23-3.69,2.23-5.66"/><line class="cls-1" x1="720.04" y1="430.3" x2="720.04" y2="430.31"/><line class="cls-1" x1="727.79" y1="362.02" x2="804.77" y2="317.61"/><path class="cls-1" d="M828.7,435.2c0-.17,0-.34,0-.51"/><path class="cls-1" d="M815.6,402.38l.07,0"/><line class="cls-1" x1="885.17" y1="397.15" x2="883.71" y2="397.15"/><path class="cls-1" d="M722.44,420.3a7.92,7.92,0,0,1,.33-.8"/><path class="cls-1" d="M870.37,388.77q5,3.47,10.18,6.56"/><path class="cls-1" d="M746.07,432.43c-.12-.34-.25-.68-.38-1"/><path class="cls-1" d="M813,417.6h0"/><path class="cls-1" d="M812.8,418h0"/><path class="cls-1" d="M762,448l-.84.07"/><path class="cls-1" d="M722.74,419.69l0-.06"/><path class="cls-1" d="M722.74,419.69a7.75,7.75,0,0,0-.39.89"/><line class="cls-1" x1="870.37" y1="388.77" x2="841.98" y2="405.15"/><line class="cls-1" x1="874.71" y1="386.27" x2="870.37" y2="388.77"/><path class="cls-1" d="M761.14,448.07a31.36,31.36,0,0,0,3.6,2.41"/><line class="cls-1" x1="880.55" y1="122.53" x2="883.71" y2="124.36"/><line class="cls-1" x1="883.71" y1="397.15" x2="883.71" y2="401.54"/><line class="cls-1" x1="1002.22" y1="329.5" x2="1002.22" y2="333.15"/><line class="cls-1" x1="765.84" y1="193.11" x2="762.03" y2="190.92"/><path class="cls-1" d="M883.71,397.15c1.33.74,2.66,1.47,4,2.17"/><path class="cls-1" d="M745.69,431.42c.24.52.47,1,.72,1.51"/><path class="cls-1" d="M733.25,437.93a8.73,8.73,0,0,0-2-5.13,7.19,7.19,0,0,0-2.1-1.82,2.78,2.78,0,0,0-2.68-.2"/><path class="cls-1" d="M748.7,439.81c.48,1.24.93,2.35,1.32,3.31l.89,2.13a17.3,17.3,0,0,1,.8,2.07c0,.08,0,.12,0,.12"/><path class="cls-1" d="M746.26,433c.19.58.38,1.15.58,1.7s.45,1.3.67,1.92c.41,1.13.81,2.2,1.19,3.18"/><path class="cls-1" d="M815.45,404.73c0,1.07-.05,2.14-.13,3.21"/><path class="cls-1" d="M726.47,430.78a2.85,2.85,0,0,0-1.16,2.57"/><path class="cls-1" d="M775,443.82a32.35,32.35,0,0,1-9.26,3.58l-.72.15c-.89.18-1.79.31-2.69.41l-.31,0"/><path class="cls-1" d="M766,188.56c-.06,1.52-.1,3-.12,4.55"/><line class="cls-1" x1="939.48" y1="412.5" x2="930.67" y2="412.01"/><line class="cls-1" x1="804.77" y1="317.61" x2="834.36" y2="300.53"/><line class="cls-1" x1="837.83" y1="435.18" x2="837.83" y2="528.16"/><path class="cls-1" d="M833.3,400.87a38.58,38.58,0,0,0,.59-6.16,11.27,11.27,0,0,0-.33-3.06,6.11,6.11,0,0,0-1.48-2.68"/><path class="cls-1" d="M829.13,419.54a.06.06,0,0,0,0,0c-.12.61-.2,1.23-.26,1.86a2.58,2.58,0,0,0,0,.29c-.09.93-.12,1.88-.14,2.83v1.72"/><path class="cls-1" d="M829.9,416.71a18,18,0,0,0-.77,2.83"/><path class="cls-1" d="M720.82,424.61c-.64-1-1.25-2-1.84-3"/><path class="cls-1" d="M751.69,447.45h0"/><path class="cls-1" d="M744.67,448.75c-.76.07-1.52.13-2.28.16a30.19,30.19,0,0,1-7.62-.62,23,23,0,0,1-4.48-1.47"/><path class="cls-1" d="M828.69,427.92a14.37,14.37,0,0,1,2.06,7.26"/><path class="cls-1" d="M829.13,419.54c4.67,3.77,8.7,9.13,8.7,15.64"/><path class="cls-1" d="M814.75,412l.06,0"/><line class="cls-1" x1="883.71" y1="401.54" x2="887.72" y2="399.32"/><path class="cls-1" d="M817,396.54a29.43,29.43,0,0,0-1.59,8.19"/><path class="cls-1" d="M815.45,404.73a60.19,60.19,0,0,1-.6,7.08,29.7,29.7,0,0,1-2.29,6.71"/><path class="cls-1" d="M825.59,387.15a7.91,7.91,0,0,0-1.24.43,9.82,9.82,0,0,0-1.2.63,10.85,10.85,0,0,0-1.06.76,12.26,12.26,0,0,0-1.08,1,14.22,14.22,0,0,0-1,1.15,14,14,0,0,0-.93,1.31c-.3.47-.59.95-.85,1.46s-.53,1.05-.76,1.6c-.15.35-.3.71-.43,1.07"/><path class="cls-1" d="M816.71,422.57c3.92-1.57,6.94-5.43,9.4-8.42"/><path class="cls-1" d="M880.55,126.92a125.54,125.54,0,0,0-27.69-11.66,81.05,81.05,0,0,0-29.81-2.91c-21.42,2.22-37.43,14.5-46.93,33.34"/><path class="cls-1" d="M887.72,399.32C900.61,406,915.17,411.13,930,412"/><path class="cls-1" d="M722.8,419.56c.07-.12.13-.24.2-.35a6.77,6.77,0,0,1,1.57-1.87,6.3,6.3,0,0,1,1-.67,6.82,6.82,0,0,1,1.11-.46,6.72,6.72,0,0,1,1.2-.25,7.87,7.87,0,0,1,1.29,0,9.23,9.23,0,0,1,1.35.17,10.2,10.2,0,0,1,1.46.39,14.55,14.55,0,0,1,1.44.59,14.93,14.93,0,0,1,1.46.79c.49.29,1,.62,1.45,1s1,.74,1.43,1.14.93.84,1.38,1.3.89.94,1.32,1.44.85,1,1.26,1.57.81,1.13,1.19,1.72.72,1.16,1.06,1.76.64,1.2.93,1.82.56,1.22.81,1.85"/><path class="cls-1" d="M738.52,441a18.23,18.23,0,0,0-2.06-7.9,21.18,21.18,0,0,0-5-6.51,13.5,13.5,0,0,0-3.46-2.21,6.68,6.68,0,0,0-4-.51,4.57,4.57,0,0,0-3.12,2.47,8.68,8.68,0,0,0-.86,4"/><path class="cls-1" d="M815.32,407.94a31.87,31.87,0,0,1-1.4,7.24"/><path class="cls-1" d="M813.92,415.18a23.61,23.61,0,0,1-1.36,3.34"/><path class="cls-1" d="M817,396.54c-.06.15-.11.3-.16.45q-.37,1.06-.66,2.16c-.17.66-.31,1.32-.43,2s-.19,1.25-.25,1.87a17.15,17.15,0,0,0-.09,1.73"/><path class="cls-1" d="M825.85,443.47a14.18,14.18,0,0,0,2.85-8.27"/><path class="cls-1" d="M764.74,450.48a48.58,48.58,0,0,0,15.48,5.38,64.45,64.45,0,0,0,16.41.73,56.18,56.18,0,0,0,16-3.65,37.66,37.66,0,0,0,7.27-3.83,28.7,28.7,0,0,0,3.34-2.69,22.78,22.78,0,0,0,2.6-2.95"/><path class="cls-1" d="M828.72,442.4c0-.43-.05-.86-.11-1.28a13.11,13.11,0,0,0-.43-2c0-.05,0-.11,0-.16"/><path class="cls-1" d="M828.69,434.23c0,.07,0,.14,0,.21a11.46,11.46,0,0,1-.05,2,12.92,12.92,0,0,1-.37,2,14,14,0,0,1-.71,2,16.39,16.39,0,0,1-1,1.94c-.22.35-.45.69-.7,1"/><path class="cls-1" d="M761.14,448.07c-.54,0-1.08.07-1.62.08-.94,0-1.89,0-2.84,0a35.65,35.65,0,0,1-5-.66"/><line class="cls-1" x1="776.12" y1="145.69" x2="780.42" y2="137.17"/><path class="cls-1" d="M930,412a62.8,62.8,0,0,0,29.4-5A57,57,0,0,0,982.31,388a80.8,80.8,0,0,0,12.38-27.26A125.25,125.25,0,0,0,998.42,331"/><path class="cls-1" d="M751.69,447.44h0"/><path class="cls-1" d="M751.68,447.45c-1,.26-2,.49-3,.69s-1.81.33-2.72.45l-1.31.16"/><path class="cls-1" d="M751.69,447.44h0"/><path class="cls-1" d="M720,430.3a21.47,21.47,0,0,1,.76-5.59c0-.09.05-.18.07-.28"/><path class="cls-1" d="M720.87,424.43c.11-.39.23-.78.36-1.16s.3-.85.46-1.26c0-.12.09-.23.14-.34.28-.68.58-1.33.91-2"/><line class="cls-1" x1="881.53" y1="382.33" x2="874.71" y2="386.27"/><line class="cls-1" x1="787.72" y1="436.46" x2="774.96" y2="443.82"/><path class="cls-1" d="M828.7,442.8q0-.37,0-.75a12.62,12.62,0,0,0-.28-2c-.08-.35-.17-.69-.28-1"/><line class="cls-1" x1="828.69" y1="426.28" x2="828.69" y2="435.2"/><path class="cls-1" d="M791.25,458a64.94,64.94,0,0,1-17.09-2.24,41.83,41.83,0,0,1-15.39-7.58"/><path class="cls-1" d="M824.19,454.19a57.63,57.63,0,0,1-16,6,77.62,77.62,0,0,1-17,1.85"/><path class="cls-1" d="M791.25,462.06a75.34,75.34,0,0,1-22-3.19c-6.78-2.09-14.1-5.64-19.1-11"/><path class="cls-1" d="M830.75,435.18c0,4.33-2.11,8.11-5,11.08a33.13,33.13,0,0,1-10.26,6.91A60.49,60.49,0,0,1,791.25,458"/><path class="cls-1" d="M837.83,435.18a18.08,18.08,0,0,1-4.26,11.24,33.23,33.23,0,0,1-9.38,7.77"/><line class="cls-1" x1="837.83" y1="548.37" x2="837.83" y2="859.45"/><line class="cls-1" x1="883.71" y1="124.36" x2="891.62" y2="119.63"/><line class="cls-3" x1="779.97" y1="533.46" x2="796.67" y2="545.47"/><line class="cls-2" x1="778.81" y1="545.33" x2="790.5" y2="551.73"/><path class="cls-4" d="M287.48,478S284,495.24,316,501.26s49.52-14.2,48.85-23.41"/><path class="cls-4" d="M287.48,514.8S284,532.09,316,538.11s48.87-16.06,48.85-23.41"/><line class="cls-3" x1="314.29" y1="533.46" x2="330.99" y2="545.47"/><path class="cls-5" d="M359.09,404.35s27.18,15.13,39.08,35.18,13.14,43.75,4.21,66.54c-12.87,32.84-52.79,52.14-72.81,44"/><path class="cls-5" d="M824.63,404.06s27.18,15.12,39.08,35.18,13.14,43.75,4.21,66.54c-12.87,32.84-52.79,52.14-72.81,44"/></g><g id="SOUND_ORDER" data-name="SOUND &amp; ORDER"><line class="cls-6" x1="275.5" y1="560.09" x2="275.5" y2="614.23"/><polygon points="271.41 610.92 272.14 610.24 275.5 613.85 278.85 610.24 279.59 610.92 275.5 615.32 271.41 610.92"/></g></svg>