<svg xmlns="http://www.w3.org/2000/svg" viewBox="0 0 1200 700"><defs><style>.cls-1,.cls-2,.cls-3{fill:none;}.cls-1,.cls-2{stroke:#000;stroke-miterlimit:10;}.cls-1{stroke-width:0.35px;}.cls-2{stroke-width:0.75px;stroke-dasharray:5 5 5 5 5 5;}</style></defs><title>SPK L</title><g id="SPK-P_step_membrane_1" data-name="SPK-P step membrane 1"><rect class="cls-1" x="394.13" y="76.16" width="422.86" height="583.79"/><line class="cls-1" x1="375.21" y1="97.4" x2="375.21" y2="642.8"/><rect x="374.07" y="97.23" width="2.27" height="0.35"/><rect x="374.07" y="642.63" width="2.27" height="0.35"/><line class="cls-1" x1="798.13" y1="61.1" x2="415.68" y2="61.1"/><rect x="797.96" y="59.97" width="0.35" height="2.27"/><rect x="415.51" y="59.97" width="0.35" height="2.27"/><rect class="cls-2" x="413.34" y="93.97" width="383.93" height="548.83" rx="191.96"/><path d="M852.59,117.32l-37.84,37.83-8.3-14.46L842,105.12c2.32-2.32,7.41-2.32,10.56.82h0A8.05,8.05,0,0,1,852.59,117.32Zm-4.33-3.89a2.23,2.23,0,1,0-3.16,0A2.24,2.24,0,0,0,848.26,113.43Zm-41.5,29.79-8.31,8.55,4.31,12.79L813,154.08Z"/><rect class="cls-3" x="770.57" y="77.89" width="112.25" height="112.25"/><path d="M317.85,349.45v-1.33h2v-6.67h-.67v.67h-.68v.66h-.65v-2h.65v-.65h.68v-.67h.67v-.68h1.33v9.35h2v1.33Z"/><path d="M329.83,347.45v.67h-.65v.66h-.68v.67h-1.32v-.67h-.68v-.66h-.67v-.67h-.65v-6.68h.65v-.65h.67v-.67h.68v-.68h1.32v.68h.68v.67h.65v.65h.68v6.68Zm-.65-6h-.68v-.68h-1.32v.68h-.68v5.33h.68v.67h1.32v-.67h.68Z"/><path d="M332.5,349.45v-3.33h.66v-.67h.67v-.67h.67v-.66h.66v-.67h.67v-.67h.68v-2h-.68v-.65H334.5v.65h-.67v1.35H332.5v-2h.66v-.67h.67v-.68h2.68v.68h.65v.67h.67v3.33h-.67v.67h-.65v.66h-.68v.67h-.67v.67h-.66v.66h-.67v1.34h4v1.33Z"/><path d="M351.82,348.12v.66h-.66v.67h-2.67v-.67h-.67v-.66h-.66v-8h.66v-.67h.67v-.68h2.67v.68h.66v.67h.67v2.66h-1.33v-2h-.67v-.65h-1.33v.65h-.67v6.68h.67v.67h1.33v-.67h.67v-2h1.33v2.67Z"/><path d="M358.49,349.45v-6.67h-.67v1.34h-1.33v-1.34h-.67v6.67h-1.33V338.77h1.33v1.35h.67v1.33h1.33v-1.33h.67v-1.35h1.33v10.68Z"/><path d="M589.63,45.39v2H589v2h-.67v2h-.68v2H586.3v-2H587v-2h.65v-2h.68v-2H589V44.06h-4V42.71h5.33v2.68Z"/><path d="M592.3,53.39V50.06H593v-.67h.67v-.68h.67v-.65H595v-.67h.67v-.68h.68v-2h-.68v-.65H594.3v.65h-.67v1.35H592.3v-2H593v-.68h.67v-.67h2.68v.67H597v.68h.67v3.33H597v.67h-.65v.65h-.68v.68H595v.67h-.66v.66h-.67v1.34h4v1.33Z"/><path d="M611.62,52.06v.66H611v.67h-2.67v-.67h-.67v-.66H607v-8h.66v-.68h.67v-.67H611v.67h.66v.68h.67v2.65H611v-2h-.67v-.65H609v.65h-.67v6.68H609v.67h1.33v-.67H611v-2h1.33v2.67Z"/><path d="M618.29,53.39V46.71h-.67v1.35h-1.33V46.71h-.67v6.68h-1.33V42.71h1.33v1.35h.67v1.33h1.33V44.06h.67V42.71h1.33V53.39Z"/><path d="M496.46,306.79v.65h-.66v.67h-2.67v-.67h-.67v-.65h-.66v-1.35h1.33v.67h.67v.68h1.33v-.68h.67v-2h-.67v-.67H493.8v-1.33h1.33v-.67h.67v-2h-.67v-.66H493.8v.66h-.67v.67H491.8v-1.33h.66v-.67h.67v-.67h2.67v.67h.66v.67h.67v3.33h-.67v1.33h.67v3.35Z"/><path d="M503.79,306.79v.65h-.66v.67h-2.67v-.67h-.68v-.65h-.65v-8h.65v-.67h.68v-.67h3.33v1.34h-2.66v.66h-.67v2.67h.67v-.67h2v.67h.66v.67h.67v4Zm-.66-3.35h-.67v-.66h-1.33v.66h-.67v2.67h.67v.68h1.33v-.68h.67Z"/><path d="M518.44,306.79v.65h-.65v.67h-2.68v-.67h-.67v-.65h-.66v-8h.66v-.67h.67v-.67h2.68v.67h.65v.67h.67v2.66h-1.32v-2h-.68v-.66h-1.33v.66h-.67v6.67h.67v.68h1.33v-.68h.68v-2h1.32v2.68Z"/><path d="M525.11,308.11v-6.67h-.67v1.34h-1.33v-1.34h-.67v6.67h-1.33V297.44h1.33v1.34h.67v1.33h1.33v-1.33h.67v-1.34h1.33v10.67Z"/><path d="M621.53,194.53v.66h-.65v.67H618.2v-.67h-.67v-.66h-.66v-1.34h1.33v.67h.68v.67h1.32v-.67h.68v-2h-.68v-.67h-1.32v-1.33h1.32v-.67h.68v-2h-.68v-.66h-1.32v.66h-.68v.67h-1.33v-1.33h.66v-.67h.67v-.67h2.68v.67h.65v.67h.67v3.33h-.67v1.33h.67v3.34Z"/><path d="M628.86,194.53v.66h-.66v.67h-2.67v-.67h-.67v-.66h-.66v-8h.66v-.67h.67v-.67h3.33v1.34H626.2v.66h-.67v2.67h.67v-.67h2v.67h.66v.67h.67v4Zm-.66-3.34h-.67v-.66H626.2v.66h-.67v2.67h.67v.67h1.33v-.67h.67Z"/><path d="M643.52,194.53v.66h-.66v.67h-2.67v-.67h-.68v-.66h-.65v-8h.65v-.67h.68v-.67h2.67v.67h.66v.67h.67v2.66h-1.33v-2h-.67v-.66h-1.33v.66h-.67v6.67h.67v.67h1.33v-.67h.67v-2h1.33v2.67Z"/><path d="M650.19,195.86v-6.67h-.67v1.34h-1.33v-1.34h-.68v6.67h-1.32V185.19h1.32v1.34h.68v1.33h1.33v-1.33h.67v-1.34h1.33v10.67Z"/><line class="cls-1" x1="586.18" y1="282.02" x2="586.18" y2="79.33"/><rect x="585.04" y="281.84" width="2.28" height="0.35"/><rect x="585.04" y="79.16" width="2.28" height="0.35"/><line class="cls-1" x1="584" y1="285.19" x2="397.3" y2="285.19"/><rect x="583.83" y="284.05" width="0.35" height="2.28"/><rect x="397.13" y="284.05" width="0.35" height="2.28"/></g></svg>