<svg xmlns="http://www.w3.org/2000/svg" viewBox="0 0 1200 700"><defs><style>.cls-1,.cls-2,.cls-3{fill:none;}.cls-1,.cls-2{stroke:#000;stroke-miterlimit:10;}.cls-1{stroke-width:0.35px;}.cls-2{stroke-width:0.75px;stroke-dasharray:5 5 5 5 5 5;}</style></defs><title>SPK L</title><g id="SPK-P_step_membrane_1" data-name="SPK-P step membrane 1"><polygon class="cls-1" points="378.1 78.25 378.1 621.75 758.3 621.75 758.3 78.25 378.1 78.25"/><path class="cls-2" d="M378.1,431.65c0,105,85.11,190.1,190.1,190.1h0c105,0,190.1-85.11,190.1-190.1"/><path class="cls-2" d="M758.3,268.35c0-105-85.11-190.1-190.1-190.1h0c-105,0-190.1,85.11-190.1,190.1"/><path d="M586.69,178.62v.65H586v.67h-2.67v-.67h-.67v-.65H582v-1.35h1.33v.67H584v.68h1.33v-.68H586v-2h-.67v-.67H584v-1.33h1.33v-.67H586v-2h-.67v-.66H584v.66h-.67v.67H582v-1.33h.66v-.67h.67v-.67H586v.67h.66v.67h.67v3.33h-.67v1.33h.67v3.35Z"/><path d="M594,178.62v.65h-.66v.67h-2.67v-.67H590v-.65h-.66v-1.35h1.33v.67h.67v.68h1.33v-.68h.67v-2.67h-.67v-.66H590v-5.34h4v1.34h-2.66v2.66h2v.67H594v.67h.67v4Z"/><path d="M608.67,178.62v.65H608v.67h-2.68v-.67h-.67v-.65H604v-8h.65v-.67h.67v-.67H608v.67h.65v.67h.68v2.66H608v-2h-.68v-.66H606v.66h-.68v6.67H606v.68h1.32v-.68H608v-2h1.33v2.68Z"/><path d="M615.34,179.94v-6.67h-.67v1.34h-1.33v-1.34h-.67v6.67h-1.33V169.27h1.33v1.34h.67v1.33h1.33v-1.33h.67v-1.34h1.33v10.67Z"/><path d="M791.66,119.78l-37.83,37.84-8.3-14.47,35.58-35.57c2.31-2.32,7.41-2.32,10.55.82h0A8,8,0,0,1,791.66,119.78Zm-4.33-3.89a2.23,2.23,0,1,0-3.16,0A2.22,2.22,0,0,0,787.33,115.89Zm-41.5,29.79-8.3,8.55,4.31,12.8,10.23-10.48Z"/><rect class="cls-3" x="709.65" y="80.35" width="112.25" height="112.25"/><line class="cls-1" x1="568.2" y1="267.18" x2="568.2" y2="80.43"/><rect x="567.06" y="267" width="2.28" height="0.35"/><rect x="567.06" y="80.25" width="2.28" height="0.35"/><line class="cls-1" x1="566.02" y1="268.35" x2="380.13" y2="268.35"/><rect x="565.85" y="267.21" width="0.35" height="2.28"/><rect x="379.96" y="267.21" width="0.35" height="2.28"/><path d="M459.83,287.69v.66h-.65V289H456.5v-.67h-.67v-.66h-.66v-1.34h1.33V287h.68v.67h1.32V287h.68v-2h-.68v-.67h-1.32V283h1.32v-.67h.68v-2h-.68v-.66h-1.32v.66h-.68V281h-1.33v-1.33h.66V279h.67v-.67h2.68V279h.65v.67h.68V283h-.68v1.33h.68v3.34Z"/><path d="M467.16,287.69v.66h-.66V289h-2.67v-.67h-.67v-.66h-.66v-1.34h1.33V287h.67v.67h1.33V287h.67v-2.67h-.67v-.66h-2.67v-5.34h4v1.34H464.5v2.66h2V283h.66v.67h.67v4Z"/><path d="M481.82,287.69v.66h-.66V289h-2.67v-.67h-.67v-.66h-.66v-8h.66V279h.67v-.67h2.67V279h.66v.67h.67v2.66h-1.33v-2h-.67v-.66h-1.33v.66h-.67V287h.67v.67h1.33V287h.67v-2h1.33v2.67Z"/><path d="M488.49,289v-6.67h-.67v1.34h-1.33v-1.34h-.67V289h-1.33V278.35h1.33v1.34h.67V281h1.33v-1.33h.67v-1.34h1.33V289Z"/></g></svg>