<?xml version="1.0" encoding="utf-8"?>
<!-- Generator: Adobe Illustrator 24.0.1, SVG Export Plug-In . SVG Version: 6.00 Build 0)  -->
<svg version="1.1" id="Layer_1" xmlns="http://www.w3.org/2000/svg" xmlns:xlink="http://www.w3.org/1999/xlink" x="0px" y="0px"
	 viewBox="0 0 1200 700" style="enable-background:new 0 0 1200 700;" xml:space="preserve">
<style type="text/css">
	.st0{fill:none;stroke:#000000;stroke-width:0.75;stroke-miterlimit:10;}
	.st1{fill:none;stroke:#000000;stroke-width:0.75;stroke-dasharray:4.8555,4.8555,4.8555,4.8555,4.8555,4.8555;}
	.st2{fill:none;stroke:#000000;stroke-width:0.75;stroke-dasharray:5.0242,5.0242,5.0242,5.0242,5.0242,5.0242;}
	.st3{fill:none;stroke:#000000;stroke-width:0.75;stroke-dasharray:5.0232,5.0232,5.0232,5.0232,5.0232,5.0232;}
	.st4{fill:none;}
	.st5{enable-background:new    ;}
</style>
<g id="_x33_0px_margins">
</g>
<g id="SPK-P_assembly_of_the_upper_part">
</g>
<g id="SPK-P_assembly_of_the_base">
</g>
<g id="SPK-P_soldering_of_the_bms">
</g>
<g id="SPK-P_making_of_the_slots">
</g>
<g id="SPK-P_step_membrane_4">
</g>
<g id="SPK-P_step_membrane_3">
	<g>
		<g>
			<path class="st0" d="M887.1,700c0,0,1-134.8,1-293.5S759.5,119.1,600.8,119.1S313.5,247.7,313.5,406.4S311.9,700,311.9,700
				 M445.8,522.8c-13.2,0-24-10.7-24-24c0-13.2,10.7-24,24-24c13.2,0,24,10.7,24,24C469.8,512,459.1,522.8,445.8,522.8z
				 M601.4,359.7c-20.5,0-37.1-16.6-37.1-37.1s16.6-37.1,37.1-37.1s37.1,16.6,37.1,37.1C638.5,343.1,621.9,359.7,601.4,359.7z
				 M757.2,522.8c-13.2,0-24-10.7-24-24c0-13.2,10.7-24,24-24s24,10.7,24,24C781.2,512,770.4,522.8,757.2,522.8z"/>
			<g>
				<path class="st1" d="M601.4,359.7c20.5,0,37.1-16.6,37.1-37.1c-1.9-49.2-72.3-49.2-74.2,0C564.3,343.1,580.9,359.7,601.4,359.7
					L601.4,359.7z"/>
			</g>
			<g>
				<path class="st2" d="M757.2,522.8c13.2,0,24-10.7,24-24c-1.2-31.8-46.7-31.9-48,0C733.2,512,744,522.8,757.2,522.8L757.2,522.8z
					"/>
			</g>
			<g>
				<path class="st3" d="M445.8,522.8c13.2,0,24-10.7,24-24c-1.2-31.8-46.7-31.9-48,0C421.9,512,432.6,522.8,445.8,522.8
					L445.8,522.8z"/>
			</g>
			<g>
				<g>
					<line class="st0" x1="888.1" y1="99.1" x2="313.5" y2="99.1"/>
					<g>
						<rect x="887.8" y="96.6" width="0.8" height="4.9"/>
					</g>
					<g>
						<rect x="313.2" y="96.6" width="0.8" height="4.9"/>
					</g>
				</g>
			</g>
			<g>
				<g>
					<line class="st0" x1="601.7" y1="123.7" x2="601.7" y2="280.5"/>
					<g>
						<rect x="599.3" y="123.3" width="4.9" height="0.8"/>
					</g>
					<g>
						<rect x="599.3" y="280.2" width="4.9" height="0.8"/>
					</g>
				</g>
			</g>
			<g>
				<g>
					<line class="st0" x1="318.3" y1="499.2" x2="418.1" y2="499.2"/>
					<g>
						<rect x="317.9" y="496.7" width="0.8" height="4.9"/>
					</g>
					<g>
						<rect x="417.8" y="496.7" width="0.8" height="4.9"/>
					</g>
				</g>
			</g>
			<g>
				<g>
					<line class="st0" x1="445.8" y1="470.3" x2="445.8" y2="123.6"/>
					<g>
						<rect x="443.4" y="469.9" width="4.9" height="0.8"/>
					</g>
					<g>
						<rect x="443.4" y="123.3" width="4.9" height="0.8"/>
					</g>
				</g>
			</g>
		</g>
		<rect x="354.1" y="484.9" class="st4" width="58.4" height="14.2"/>
		<g class="st5">
			<path d="M354.8,495.6v-1.3h2v-6.7h-0.7v0.7h-0.7v0.7h-0.7v-2h0.7v-0.7h0.7v-0.7h0.7v-0.7h1.3v9.3h2v1.3H354.8z"/>
			<path d="M366.8,492.9v2.7h-1.3v-2.7h-3.3v-2.7h0.7v-1.3h0.7v-1.3h0.7v-1.3h0.7v-1.3h2v6.7h1.3v1.3H366.8z M365.5,487.6h-0.7v1.3
				h-0.7v1.3h-0.7v1.3h2V487.6z"/>
			<path d="M381.4,494.3v0.7h-0.7v0.7h-2.7v-0.7h-0.7v-0.7h-0.7v-8h0.7v-0.7h0.7v-0.7h2.7v0.7h0.7v0.7h0.7v2.7h-1.3v-2h-0.7v-0.7
				h-1.3v0.7h-0.7v6.7h0.7v0.7h1.3v-0.7h0.7v-2h1.3v2.7H381.4z"/>
			<path d="M388.1,495.6v-6.7h-0.7v1.3h-1.3v-1.3h-0.7v6.7h-1.3v-10.7h1.3v1.3h0.7v1.3h1.3v-1.3h0.7v-1.3h1.3v10.7H388.1z"/>
		</g>
		<rect x="618.1" y="203.1" class="st4" width="39.5" height="18.4"/>
		<g class="st5">
			<path d="M618.8,213.7v-3.3h0.7v-0.7h0.7v-0.7h0.7v-0.7h0.7v-0.7h0.7v-0.7h0.7v-2h-0.7v-0.7h-1.3v0.7h-0.7v1.3h-1.3v-2h0.7v-0.7
				h0.7v-0.7h2.7v0.7h0.7v0.7h0.7v3.3h-0.7v0.7h-0.7v0.7h-0.7v0.7h-0.7v0.7h-0.7v0.7h-0.7v1.3h4v1.3H618.8z"/>
			<path d="M630.7,211.7v0.7h-0.7v0.7h-0.7v0.7h-1.3v-0.7h-0.7v-0.7h-0.7v-0.7h-0.7v-6.7h0.7v-0.7h0.7v-0.7h0.7v-0.7h1.3v0.7h0.7
				v0.7h0.7v0.7h0.7v6.7H630.7z M630.1,205.7h-0.7v-0.7h-1.3v0.7h-0.7v5.3h0.7v0.7h1.3v-0.7h0.7V205.7z"/>
			<path d="M645.4,212.4v0.7h-0.7v0.7h-2.7v-0.7h-0.7v-0.7h-0.7v-8h0.7v-0.7h0.7v-0.7h2.7v0.7h0.7v0.7h0.7v2.7h-1.3v-2h-0.7v-0.7
				h-1.3v0.7h-0.7v6.7h0.7v0.7h1.3v-0.7h0.7v-2h1.3v2.7H645.4z"/>
			<path d="M652.1,213.7v-6.7h-0.7v1.3h-1.3v-1.3h-0.7v6.7h-1.3v-10.7h1.3v1.3h0.7v1.3h1.3v-1.3h0.7v-1.3h1.3v10.7H652.1z"/>
		</g>
		<g>
			<path d="M446.6,530.7h-2v1.3h-0.7v1.3h-0.7v1.3h-0.7v1.3h-0.7v2.7h3.3v2.7h1.3v-2.7h1.3v-1.3h-1.3L446.6,530.7L446.6,530.7z
				 M445.2,537.4h-2V536h0.7v-1.3h0.7v-1.3h0.7L445.2,537.4L445.2,537.4z"/>
			<rect x="450.6" y="542.7" width="0.7" height="0.7"/>
			<polygon points="450.6,541.4 451.9,541.4 451.9,542 452.6,542 452.6,539.4 450.6,539.4 			"/>
			<rect x="451.2" y="542" width="0.7" height="0.7"/>
			<polygon points="461.2,531.3 460.6,531.3 460.6,530.7 457.9,530.7 457.9,531.3 457.2,531.3 457.2,532 456.6,532 456.6,534 
				457.9,534 457.9,532.7 458.6,532.7 458.6,532 459.9,532 459.9,532.7 460.6,532.7 460.6,534.7 459.9,534.7 459.9,535.3 
				459.2,535.3 459.2,536 458.6,536 458.6,536.7 457.9,536.7 457.9,537.4 457.2,537.4 457.2,538 456.6,538 456.6,541.4 461.9,541.4 
				461.9,540 457.9,540 457.9,538.7 458.6,538.7 458.6,538 459.2,538 459.2,537.4 459.9,537.4 459.9,536.7 460.6,536.7 460.6,536 
				461.2,536 461.2,535.3 461.9,535.3 461.9,532 461.2,532 			"/>
			<polygon points="475.9,531.3 475.2,531.3 475.2,530.7 472.5,530.7 472.5,531.3 471.9,531.3 471.9,532 471.2,532 471.2,540 
				471.9,540 471.9,540.7 472.5,540.7 472.5,541.4 475.2,541.4 475.2,540.7 475.9,540.7 475.9,540 476.5,540 476.5,537.4 
				475.2,537.4 475.2,539.4 474.5,539.4 474.5,540 473.2,540 473.2,539.4 472.5,539.4 472.5,532.7 473.2,532.7 473.2,532 474.5,532 
				474.5,532.7 475.2,532.7 475.2,534.7 476.5,534.7 476.5,532 475.9,532 			"/>
			<polygon points="482.5,530.7 482.5,532 481.9,532 481.9,533.3 480.5,533.3 480.5,532 479.9,532 479.9,530.7 478.5,530.7 
				478.5,541.4 479.9,541.4 479.9,534.7 480.5,534.7 480.5,536 481.9,536 481.9,534.7 482.5,534.7 482.5,541.4 483.9,541.4 
				483.9,530.7 			"/>
			<path d="M430.5,530.7h-1.9v0.7h-0.7v0.7h-0.7v8H427v2.6h-0.9v0.9h2.6v-2.2h2.5v-0.7h0.7V540h0.7v-8h-0.3v-1.6h0.9v-0.9h-2.6
				V530.7z M429.3,532.7V532h1.3v0.1h-0.9v2.6h-0.9v2.6h-0.2v-4.7L429.3,532.7L429.3,532.7z M430.6,539.4v0.7h-0.9v-1.8h0.9v-2.6
				h0.7v3.7H430.6z"/>
		</g>
		<g>
			<path d="M598.9,369.1h-0.7v-0.7h-2.7v0.7h-0.7v0.7h-0.7v4h0.7v0.7h0.7v0.7h2v-0.7h0.7v2.7h-0.7v0.7h-2.7v1.3h3.3v-0.7h0.7v-0.7
				h0.7v-8h-0.7L598.9,369.1L598.9,369.1z M598.2,373.1h-0.7v0.7h-1.3v-0.7h-0.7v-2.7h0.7v-0.7h1.3v0.7h0.7V373.1z"/>
			<polygon points="613.5,369.1 612.9,369.1 612.9,368.5 610.2,368.5 610.2,369.1 609.5,369.1 609.5,369.8 608.9,369.8 608.9,377.8 
				609.5,377.8 609.5,378.5 610.2,378.5 610.2,379.1 612.9,379.1 612.9,378.5 613.5,378.5 613.5,377.8 614.2,377.8 614.2,375.1 
				612.9,375.1 612.9,377.1 612.2,377.1 612.2,377.8 610.9,377.8 610.9,377.1 610.2,377.1 610.2,370.5 610.9,370.5 610.9,369.8 
				612.2,369.8 612.2,370.5 612.9,370.5 612.9,372.5 614.2,372.5 614.2,369.8 613.5,369.8 			"/>
			<polygon points="620.2,368.5 620.2,369.8 619.5,369.8 619.5,371.1 618.2,371.1 618.2,369.8 617.5,369.8 617.5,368.5 616.2,368.5 
				616.2,379.1 617.5,379.1 617.5,372.5 618.2,372.5 618.2,373.8 619.5,373.8 619.5,372.5 620.2,372.5 620.2,379.1 621.5,379.1 
				621.5,368.5 			"/>
			<path d="M583.1,368.5h-2.3v0.7h-0.7v0.7h-0.7v8h0.1v1.8h-0.9v0.9h2.6v-1.3h2.2v-0.7h0.7v-0.7h0.7V370l0,0v-2.6h0.9v-0.9h-2.6
				L583.1,368.5L583.1,368.5z M581.5,370.5v-0.7h0.7v1.9h-0.9v2.6h-0.5v-3.9L581.5,370.5L581.5,370.5z M582.9,377.1v0.7h-0.6v-2.6
				h0.9v-2.6h0.4v4.5L582.9,377.1L582.9,377.1z"/>
		</g>
		<rect x="458.8" y="291" class="st4" width="58.5" height="32.5"/>
		<g class="st5">
			<path d="M464.1,299v2.7h-1.3V299h-3.3v-2.7h0.7V295h0.7v-1.3h0.7v-1.3h0.7V291h2v6.7h1.3v1.3H464.1z M462.8,293.7h-0.7v1.3h-0.7
				v1.3h-0.7v1.3h2V293.7z"/>
			<path d="M471.5,299.7v0.7h-0.7v0.7h-0.7v0.7h-1.3V301h-0.7v-0.7h-0.7v-0.7h-0.7V293h0.7v-0.7h0.7v-0.7h0.7V291h1.3v0.7h0.7v0.7
				h0.7v0.7h0.7v6.7H471.5z M470.8,293.7h-0.7V293h-1.3v0.7h-0.7v5.3h0.7v0.7h1.3V299h0.7V293.7z"/>
			<path d="M476.8,302.3v-0.7h-1.3v-2h2v2.7H476.8z M476.1,303v0.7h-0.7V303H476.1z M476.8,302.3v0.7h-0.7v-0.7H476.8z"/>
			<path d="M486.1,300.3v0.7h-0.7v0.7h-2.7V301h-0.7v-0.7h-0.7V299h1.3v0.7h0.7v0.7h1.3v-0.7h0.7V297h-0.7v-0.7h-2.7V291h4v1.3h-2.7
				v2.7h2v0.7h0.7v0.7h0.7v4H486.1z"/>
			<path d="M500.8,300.3v0.7h-0.7v0.7h-2.7V301h-0.7v-0.7h-0.7v-8h0.7v-0.7h0.7V291h2.7v0.7h0.7v0.7h0.7v2.7h-1.3v-2h-0.7v-0.7h-1.3
				v0.7h-0.7v6.7h0.7v0.7h1.3v-0.7h0.7v-2h1.3v2.7H500.8z"/>
			<path d="M507.4,301.7V295h-0.7v1.3h-1.3V295h-0.7v6.7h-1.3V291h1.3v1.3h0.7v1.3h1.3v-1.3h0.7V291h1.3v10.7H507.4z"/>
		</g>
	</g>
</g>
<g id="SPK-P_step_membrane_2">
</g>
<g id="SPK-P_step_membrane_1">
</g>
<g id="SPK-P_step_cable_base_print_assembly">
</g>
<g id="SPK-P_hero">
</g>
<g id="SPK-P_component_overviw">
	<g>
		<rect x="582.7" y="77.1" class="st4" width="41.3" height="15.1"/>
		<g class="st5">
			<path d="M588,79.8v2h-0.7v2h-0.7v2H586v2h-1.3v-2h0.7v-2h0.7v-2h0.7v-2h0.7v-1.3h-4v-1.3h5.3v2.7H588z"/>
			<path d="M590.7,87.8v-3.3h0.7v-0.7h0.7v-0.7h0.7v-0.7h0.7v-0.7h0.7v-0.7h0.7v-2H594v-0.7h-1.3v0.7H592v1.3h-1.3v-2h0.7v-0.7h0.7
				v-0.7h2.7v0.7h0.7v0.7h0.7v3.3h-0.7v0.7h-0.7v0.7H594v0.7h-0.7v0.7h-0.7v0.7H592v1.3h4v1.3H590.7z"/>
			<path d="M610,86.4v0.7h-0.7v0.7h-2.7v-0.7H606v-0.7h-0.7v-8h0.7v-0.7h0.7v-0.7h2.7v0.7h0.7v0.7h0.7v2.7h-1.3v-2h-0.7v-0.7h-1.3
				v0.7h-0.7v6.7h0.7v0.7h1.3v-0.7h0.7v-2h1.3v2.7H610z"/>
			<path d="M616.7,87.8v-6.7H616v1.3h-1.3v-1.3H614v6.7h-1.3V77.1h1.3v1.3h0.7v1.3h1.3v-1.3h0.7v-1.3h1.3v10.7H616.7z"/>
		</g>
	</g>
</g>
<g id="SPK-P_printing">
</g>
<g id="SPK-P_printing_holders">
</g>
<g id="SPK-P_step_cable_base_holes">
</g>
<g id="SPK-P_step_choose_a_base">
</g>
<g id="SPK-P_step_drilling_holes">
</g>
<g id="SPK-P_step_exciters_1">
</g>
<g id="SPK-P_step_exciters_2">
</g>
<g id="SPK-P_cable_base_print_cable">
</g>
<g id="SPK-P_cable_base_print">
</g>
<g id="SPK-P_cutting_tube">
</g>
<g id="Layer_23">
</g>
<g id="TOOLS_MATERIALS">
</g>
<g id="SOUND__x26__ORDER">
</g>
<g id="Layer_26">
</g>
<g id="Layer_27">
</g>
</svg>
