<?xml version="1.0" encoding="utf-8"?>
<!-- Generator: Adobe Illustrator 24.0.1, SVG Export Plug-In . SVG Version: 6.00 Build 0)  -->
<svg version="1.1" id="Layer_1" xmlns="http://www.w3.org/2000/svg" xmlns:xlink="http://www.w3.org/1999/xlink" x="0px" y="0px"
	 viewBox="0 0 1200 396.3" style="enable-background:new 0 0 1200 396.3;" xml:space="preserve">
<style type="text/css">
	.st0{fill:none;stroke:#000000;stroke-width:15;stroke-miterlimit:10;}
	.st1{fill:none;stroke:#5D5D5D;stroke-width:5;stroke-linejoin:round;}
	.st2{fill:none;stroke:#000000;stroke-width:0.75;stroke-miterlimit:10;}
	.st3{fill:none;}
	.st4{enable-background:new    ;}
	.st5{clip-path:url(#SVGID_2_);fill:none;stroke:#000000;stroke-width:0.35;stroke-linecap:round;stroke-linejoin:round;}
	.st6{clip-path:url(#SVGID_4_);fill:none;stroke:#000000;stroke-width:0.75;stroke-linecap:round;stroke-linejoin:round;}
</style>
<g id="_x33_0px_margins">
</g>
<g id="SPK-P_assembly_of_the_upper_part">
</g>
<g id="SPK-P_assembly_of_the_base">
</g>
<g id="SPK-P_soldering_of_the_bms">
</g>
<g id="SPK-P_making_of_the_slots">
</g>
<g id="SPK-P_step_membrane_4">
</g>
<g id="SPK-P_step_membrane_3">
</g>
<g id="SPK-P_step_membrane_2">
</g>
<g id="SPK-P_step_membrane_1">
</g>
<g id="SPK-P_step_cable_base_print_assembly">
</g>
<g id="SPK-P_hero">
</g>
<g id="SPK-P_component_overviw">
</g>
<g id="SPK-P_printing">
</g>
<g id="SPK-P_printing_holders">
</g>
<g id="SPK-P_step_cable_base_holes">
	<line class="st0" x1="391.7" y1="163.3" x2="591.7" y2="163.3"/>
	<line class="st0" x1="391.7" y1="259.1" x2="791.7" y2="259.1"/>
	<g>
		<line class="st1" x1="745.5" y1="163.3" x2="789.8" y2="163.3"/>
		<line class="st1" x1="803.4" y1="163.3" x2="847.6" y2="163.3"/>
	</g>
	<g>
		<g>
			<line class="st2" x1="431.5" y1="137.7" x2="591.3" y2="137.7"/>
			<g>
				<rect x="431.1" y="135.3" width="0.8" height="4.9"/>
			</g>
			<g>
				<rect x="591" y="135.3" width="0.8" height="4.9"/>
			</g>
		</g>
	</g>
	<g>
		<g>
			<line class="st2" x1="431.5" y1="233.5" x2="791.3" y2="233.5"/>
			<g>
				<rect x="431.1" y="231.1" width="0.8" height="4.9"/>
			</g>
			<g>
				<rect x="791" y="231.1" width="0.8" height="4.9"/>
			</g>
		</g>
	</g>
	<rect x="335.2" y="159.3" class="st3" width="24.7" height="11"/>
	<g class="st4">
		<path d="M335.9,169.9v-1.3h2v-6.7h-0.7v0.7h-0.7v0.7h-0.7v-2h0.7v-0.7h0.7v-0.7h0.7v-0.7h1.3v9.3h2v1.3H335.9z"/>
		<path d="M347.2,169.9v-1.3h-0.7v-1.3h-1.3v1.3h-0.7v1.3h-1.3v-1.3h0.7v-1.3h0.7v-2.7h-0.7v-1.3h-0.7v-1.3h1.3v1.3h0.7v1.3h1.3
			v-1.3h0.7v-1.3h1.3v1.3h-0.7v1.3h-0.7v2.7h0.7v1.3h0.7v1.3H347.2z"/>
	</g>
	<rect x="335.2" y="255.1" class="st3" width="17.5" height="11.6"/>
	<g class="st4">
		<path d="M335.9,265.7v-3.3h0.7v-0.7h0.7v-0.7h0.7v-0.7h0.7v-0.7h0.7v-0.7h0.7v-2h-0.7v-0.7h-1.3v0.7h-0.7v1.3h-1.3v-2h0.7v-0.7
			h0.7v-0.7h2.7v0.7h0.7v0.7h0.7v3.3h-0.7v0.7h-0.7v0.7h-0.7v0.7h-0.7v0.7h-0.7v0.7h-0.7v1.3h4v1.3H335.9z"/>
		<path d="M347.2,265.7v-1.3h-0.7v-1.3h-1.3v1.3h-0.7v1.3h-1.3v-1.3h0.7v-1.3h0.7v-2.7h-0.7v-1.3h-0.7v-1.3h1.3v1.3h0.7v1.3h1.3
			v-1.3h0.7v-1.3h1.3v1.3h-0.7v1.3h-0.7v2.7h0.7v1.3h0.7v1.3H347.2z"/>
	</g>
	<g class="st4">
		<path d="M504,131.2v-1.3h2v-6.7h-0.7v0.7h-0.7v0.7H504v-2h0.7v-0.7h0.7v-0.7h0.7v-0.7h1.3v9.3h2v1.3H504z"/>
		<path d="M516,129.2v0.7h-0.7v0.7h-0.7v0.7h-1.3v-0.7h-0.7v-0.7H512v-0.7h-0.7v-6.7h0.7v-0.7h0.7v-0.7h0.7v-0.7h1.3v0.7h0.7v0.7
			h0.7v0.7h0.7v6.7H516z M515.3,123.2h-0.7v-0.7h-1.3v0.7h-0.7v5.3h0.7v0.7h1.3v-0.7h0.7V123.2z"/>
		<path d="M530.6,129.9v0.7H530v0.7h-2.7v-0.7h-0.7v-0.7H526v-8h0.7v-0.7h0.7v-0.7h2.7v0.7h0.7v0.7h0.7v2.7H530v-2h-0.7v-0.7H528
			v0.7h-0.7v6.7h0.7v0.7h1.3v-0.7h0.7v-2h1.3v2.7H530.6z"/>
		<path d="M537.3,131.2v-6.7h-0.7v1.3h-1.3v-1.3h-0.7v6.7h-1.3v-10.7h1.3v1.3h0.7v1.3h1.3v-1.3h0.7v-1.3h1.3v10.7H537.3z"/>
	</g>
	<g class="st4">
		<path d="M616.7,225.7v0.7h-0.7v0.7h-2.7v-0.7h-0.7v-0.7h-0.7v-1.3h1.3v0.7h0.7v0.7h1.3V225h0.7v-2.7h-0.7v-0.7h-2.7v-5.3h4v1.3
			h-2.7v2.7h2v0.7h0.7v0.7h0.7v4H616.7z"/>
		<path d="M624.1,225.7v0.7h-0.7v0.7h-2.7v-0.7h-0.7v-0.7h-0.7v-1.3h1.3v0.7h0.7v0.7h1.3V225h0.7v-2.7h-0.7v-0.7h-2.7v-5.3h4v1.3
			h-2.7v2.7h2v0.7h0.7v0.7h0.7v4H624.1z"/>
		<path d="M638.7,225.7v0.7h-0.7v0.7h-2.7v-0.7h-0.7v-0.7h-0.7v-8h0.7V217h0.7v-0.7h2.7v0.7h0.7v0.7h0.7v2.7h-1.3v-2h-0.7v-0.7h-1.3
			v0.7h-0.7v6.7h0.7v0.7h1.3V225h0.7v-2h1.3v2.7H638.7z"/>
		<path d="M645.4,227v-6.7h-0.7v1.3h-1.3v-1.3h-0.7v6.7h-1.3v-10.7h1.3v1.3h0.7v1.3h1.3v-1.3h0.7v-1.3h1.3V227H645.4z"/>
	</g>
	<g class="st4">
		<path d="M699,170.3V169h2v-6.7h-0.7v0.7h-0.7v0.7H699v-2h0.7V161h0.7v-0.7h0.7v-0.7h1.3v9.3h2v1.3H699z"/>
		<path d="M711,162.3v2h-0.7v2h-0.7v2H709v2h-1.3v-2h0.7v-2h0.7v-2h0.7v-2h0.7V161h-4v-1.3h5.3v2.7H711z"/>
		<path d="M725,170.3V169h-0.7v-2H723v2h-0.7v1.3H721V169h0.7v-2h0.7v-1.3h0.7v-1.3h-0.7V163h-0.7v-2H721v-1.3h1.3v1.3h0.7v2h1.3v-2
			h0.7v-1.3h1.3v1.3h-0.7v2H725v1.3h-0.7v1.3h0.7v1.3h0.7v2h0.7v1.3H725z"/>
	</g>
	<g>
		<polygon points="727.8,137.8 725.2,137.8 725.2,133.1 723.8,133.1 723.8,143.8 725.2,143.8 725.2,139.1 727.8,139.1 727.8,143.8 
			729.2,143.8 729.2,133.1 727.8,133.1 		"/>
		<polygon points="735.8,133.8 735.2,133.8 735.2,133.1 732.5,133.1 732.5,133.8 731.8,133.8 731.8,134.5 731.1,134.5 731.1,137.8 
			731.8,137.8 731.8,138.5 732.5,138.5 732.5,139.1 734.5,139.1 734.5,139.8 735.2,139.8 735.2,141.8 734.5,141.8 734.5,142.5 
			733.2,142.5 733.2,141.8 732.5,141.8 732.5,140.5 731.1,140.5 731.1,142.5 731.8,142.5 731.8,143.1 732.5,143.1 732.5,143.8 
			735.2,143.8 735.2,143.1 735.8,143.1 735.8,142.5 736.5,142.5 736.5,139.1 735.8,139.1 735.8,138.5 735.2,138.5 735.2,137.8 
			733.2,137.8 733.2,137.1 732.5,137.1 732.5,135.1 733.2,135.1 733.2,134.5 734.5,134.5 734.5,135.1 735.2,135.1 735.2,135.8 
			736.5,135.8 736.5,134.5 735.8,134.5 		"/>
		<polygon points="765.1,137.8 764.5,137.8 764.5,137.1 762.5,137.1 762.5,134.5 765.1,134.5 765.1,133.1 761.1,133.1 761.1,138.5 
			763.8,138.5 763.8,139.1 764.5,139.1 764.5,141.8 763.8,141.8 763.8,142.5 762.5,142.5 762.5,141.8 761.8,141.8 761.8,141.1 
			760.5,141.1 760.5,142.5 761.1,142.5 761.1,143.1 761.8,143.1 761.8,143.8 764.5,143.8 764.5,143.1 765.1,143.1 765.1,142.5 
			765.8,142.5 765.8,138.5 765.1,138.5 		"/>
		<polygon points="779.1,134.5 778.4,134.5 778.4,135.8 777.1,135.8 777.1,134.5 776.4,134.5 776.4,133.1 775.1,133.1 775.1,143.8 
			776.4,143.8 776.4,137.1 777.1,137.1 777.1,138.5 778.4,138.5 778.4,137.1 779.1,137.1 779.1,143.8 780.4,143.8 780.4,133.1 
			779.1,133.1 		"/>
		<polygon points="786.4,134.5 785.8,134.5 785.8,135.8 784.4,135.8 784.4,134.5 783.8,134.5 783.8,133.1 782.4,133.1 782.4,143.8 
			783.8,143.8 783.8,137.1 784.4,137.1 784.4,138.5 785.8,138.5 785.8,137.1 786.4,137.1 786.4,143.8 787.8,143.8 787.8,133.1 
			786.4,133.1 		"/>
		<polygon points="801.1,134.5 800.4,134.5 800.4,136.5 799.1,136.5 799.1,134.5 798.4,134.5 798.4,133.1 797.1,133.1 797.1,134.5 
			797.8,134.5 797.8,136.5 798.4,136.5 798.4,137.8 799.1,137.8 799.1,139.1 798.4,139.1 798.4,140.5 797.8,140.5 797.8,142.5 
			797.1,142.5 797.1,143.8 798.4,143.8 798.4,142.5 799.1,142.5 799.1,140.5 800.4,140.5 800.4,142.5 801.1,142.5 801.1,143.8 
			802.4,143.8 802.4,142.5 801.8,142.5 801.8,140.5 801.1,140.5 801.1,139.1 800.4,139.1 800.4,137.8 801.1,137.8 801.1,136.5 
			801.8,136.5 801.8,134.5 802.4,134.5 802.4,133.1 801.1,133.1 		"/>
		<polygon points="815.1,133.1 813.8,133.1 813.8,133.8 813.1,133.8 813.1,134.5 812.4,134.5 812.4,135.1 811.8,135.1 811.8,137.1 
			812.4,137.1 812.4,136.5 813.1,136.5 813.1,135.8 813.8,135.8 813.8,142.5 811.8,142.5 811.8,143.8 817.1,143.8 817.1,142.5 
			815.1,142.5 		"/>
		<path d="M823.7,134.5h-0.7v-0.7h-0.7v-0.7h-1.3v0.7h-0.7v0.7h-0.7v0.7h-0.7v6.7h0.7v0.7h0.7v0.7h0.7v0.7h1.3v-0.7h0.7v-0.7h0.7
			v-0.7h0.7v-6.7h-0.7V134.5z M823.1,141.1h-0.7v0.7h-1.3v-0.7h-0.7v-5.3h0.7v-0.7h1.3v0.7h0.7V141.1z"/>
		<polygon points="837.7,134.5 837.1,134.5 837.1,135.8 835.7,135.8 835.7,134.5 835.1,134.5 835.1,133.1 833.7,133.1 833.7,143.8 
			835.1,143.8 835.1,137.1 835.7,137.1 835.7,138.5 837.1,138.5 837.1,137.1 837.7,137.1 837.7,143.8 839.1,143.8 839.1,133.1 
			837.7,133.1 		"/>
		<polygon points="845.1,133.1 845.1,134.5 844.4,134.5 844.4,135.8 843.1,135.8 843.1,134.5 842.4,134.5 842.4,133.1 841.1,133.1 
			841.1,143.8 842.4,143.8 842.4,137.1 843.1,137.1 843.1,138.5 844.4,138.5 844.4,137.1 845.1,137.1 845.1,143.8 846.4,143.8 
			846.4,133.1 		"/>
		<path d="M749.6,133.1h-2.5v0.7h-0.7v0.7h-0.7v8h0.7v0.7h0.2v0.2h-0.7v0.8h2.2v-0.3h1.7v-0.7h0.7v-0.7h0.7v-8l0,0v-1.6h0.8v-0.8
			h-2.2L749.6,133.1L749.6,133.1z M747.8,135.1v-0.7h1.1v2.1h-0.7v2.2h-0.8v2.2h-0.2v-6L747.8,135.1L747.8,135.1z M749.1,141.8v0.7
			h-1v-0.6h0.7v-2.2h0.8v-2.2h0.2v4.4H749.1z"/>
	</g>
	<g>
		<circle class="st2" cx="403.1" cy="137.3" r="11.4"/>
		<rect x="399.2" y="132.2" class="st3" width="7.8" height="11.9"/>
		<g class="st4">
			<path d="M404.7,141.6v0.7h-0.7v0.7h-2.7v-0.7h-0.7v-0.7h-0.7v-8h0.7v-0.7h0.7v-0.7h2.7v0.7h0.7v0.7h0.7v2.7h-1.3v-2h-0.7v-0.7
				h-1.3v0.7h-0.7v6.7h0.7v0.7h1.3v-0.7h0.7v-2h1.3v2.7H404.7z"/>
		</g>
	</g>
	<g>
		<circle class="st2" cx="403.1" cy="233.5" r="11.4"/>
		<rect x="399.2" y="228.4" class="st3" width="7.8" height="11.9"/>
		<g class="st4">
			<path d="M404.7,237.1v0.7h-0.7v0.7h-0.7v0.7h-3.3v-10.7h3.3v0.7h0.7v0.7h0.7v0.7h0.7v6.7H404.7z M404.1,231.1h-0.7v-0.7h-0.7
				v-0.7h-1.3v8h1.3v-0.7h0.7v-0.7h0.7V231.1z"/>
		</g>
	</g>
</g>
<g id="SPK-P_step_choose_a_base">
</g>
<g id="SPK-P_step_drilling_holes">
</g>
<g id="SPK-P_step_exciters_1">
</g>
<g id="SPK-P_step_exciters_2">
	<g>
		<g>
			<defs>
				<rect id="SVGID_1_" y="-534.4" width="1200" height="499.6"/>
			</defs>
			<clipPath id="SVGID_2_">
				<use xlink:href="#SVGID_1_"  style="overflow:visible;"/>
			</clipPath>
			<path class="st5" d="M852.6-238.6c-0.1,24.1-6.9,47-18.5,67.9c-13.7,24.6-33.3,45.3-55.1,62.6c-19.6,15.5-41.1,27.5-62.5,39.9
				c-7.8,4.5-15.6,9-23.3,13.5c-15.6,9-31.1,18-46.7,26.9c-44.8,25.8-89.5,51.7-134.3,77.5c-1,0.6-2,1.2-3,1.7
				c-44.7,25.8-91,42.3-141.3,53c-98.3,21-210.1,18.4-307-9.7c-48.5-14.1-98.2-36-138.4-67.7C-99.4,9.7-119.1-11-132.8-35.6
				c-11.7-20.8-18.6-43.7-18.7-67.8"/>
		</g>
		<g>
			<defs>
				<rect id="SVGID_3_" y="-534.4" width="1200" height="499.6"/>
			</defs>
			<clipPath id="SVGID_4_">
				<use xlink:href="#SVGID_3_"  style="overflow:visible;"/>
			</clipPath>
			<path class="st6" d="M237.2-417.5C237.2-417.5,237.2-417.5,237.2-417.5c30.7-13.3,62.4-23,95.9-30.2
				c98.5-21.1,210.5-18.4,307.6,9.9c48.6,14.1,98.4,36.2,138.6,68.2c21.8,17.3,41.4,38.1,55,62.8c11.6,21,18.3,43.9,18.2,68.1
				c0.1,20.5-4.8,40.3-13.4,58.8c-9.8,21-24.2,39.4-40.6,55.4c-19.6,19-41.5,33.6-64.9,47.1c-2,1.2-4.1,2.4-6.1,3.5
				c-4.1,2.4-8.2,4.7-12.3,7.1c-8.2,4.7-16.3,9.4-24.5,14.2c-37.5,21.6-75,43.3-112.5,64.9c-12,6.9-24,13.9-36,20.8
				c-6,3.5-12,6.9-18,10.4c-3,1.7-6,3.5-9,5.2c-1.5,0.9-3,1.7-4.5,2.6c-15,8.7-30.3,16.6-46.2,23.5c-78.3,33.9-169.9,46.8-254,43.8
				c-83.6-2.9-175.1-22-249.1-64.8C-67.6,37.3-95.4,16-116.4-10.3c-21.1-26.5-35.2-58.1-35.2-93h0c-0.2-24.2,6.4-47.2,18-68.2
				c13.6-24.7,33.1-45.6,54.9-62.9c14.4-11.5,29.8-21.2,45.8-30.4c1.9-1.1,3.9-2.2,5.8-3.4c3.9-2.2,7.7-4.5,11.6-6.7
				c7.7-4.5,15.4-8.9,23.2-13.4c15.4-8.9,30.9-17.8,46.4-26.8c44.9-25.9,89.7-51.8,134.6-77.7c1.1-0.6,2.1-1.2,3.2-1.8
				c3.9-2.2,7.8-4.4,11.7-6.5"/>
		</g>
	</g>
</g>
<g id="SPK-P_cable_base_print_cable">
</g>
<g id="SPK-P_cable_base_print">
</g>
<g id="SPK-P_cutting_tube">
</g>
<g id="Layer_23">
</g>
<g id="TOOLS_MATERIALS">
</g>
<g id="SOUND__x26__ORDER">
</g>
<g id="Layer_26">
</g>
<g id="Layer_27">
</g>
</svg>
