<svg id="Layer_1" data-name="Layer 1" xmlns="http://www.w3.org/2000/svg" xmlns:xlink="http://www.w3.org/1999/xlink" viewBox="0 0 1391.87 984.15"><defs><style>.cls-1,.cls-15,.cls-4,.cls-5,.cls-7,.cls-8{fill:none;}.cls-2{clip-path:url(#clip-path);}.cls-3{fill:#003dff;}.cls-11,.cls-15,.cls-3,.cls-4,.cls-5,.cls-7,.cls-8{stroke:#000;}.cls-11,.cls-15,.cls-3,.cls-4,.cls-5,.cls-8{stroke-miterlimit:10;}.cls-3,.cls-4,.cls-5,.cls-7,.cls-8{stroke-width:0.75px;}.cls-5{stroke-dasharray:4.97 4.97 4.97 4.97 4.97 4.97;}.cls-6{fill:#b7fff5;opacity:0.5;}.cls-14,.cls-6{isolation:isolate;}.cls-8{stroke-dasharray:5 5 5 5 5 5;}.cls-9{clip-path:url(#clip-path-121);}.cls-10{clip-path:url(#clip-path-122);}.cls-11{fill:#f9ea47;}.cls-12{clip-path:url(#clip-path-313);}.cls-13{clip-path:url(#clip-path-314);}.cls-15{stroke-width:0.35px;}</style><clipPath id="clip-path" transform="translate(-32.5 -36.62)"><rect class="cls-1" width="1200" height="700"/></clipPath><clipPath id="clip-path-121" transform="translate(-32.5 -36.62)"><path class="cls-1" d="M355.4,531.2c-1.8,0-3.7,0-5.5-.1H349a21.75,21.75,0,0,1-2.6-.1h-.5c-1,0-2-.1-3-.1a4.1,4.1,0,0,1-1.1-.1,20.9,20.9,0,0,0-2.5-.1h-.5c-1-.1-2.1-.1-3.1-.2h-.5c-2.9-.2-5.7-.5-8.5-.8h-.4l-2.7-.3c-.3,0-.7-.1-1-.1a20.24,20.24,0,0,1-2.6-.4h-.1c-.2,0-.4-.1-.6-.1-1.7-.2-3.3-.5-5-.8H314c-.9-.2-1.9-.3-2.8-.5a4.33,4.33,0,0,1-.5-.1c-2.8-.5-5.5-1.1-8.2-1.7-.3-.1-.6-.1-1-.2-1.5-.4-3-.7-4.5-1.1-.1,0-.2-.1-.4-.1-2.8-.7-5.5-1.5-8.3-2.3-.3-.1-.5-.1-.8-.2-1.5-.5-3.1-.9-4.6-1.4-.2-.1-.3-.1-.5-.2-1.6-.5-3.2-1.1-4.8-1.7a1.45,1.45,0,0,0-.7-.2,158.22,158.22,0,0,1-24.6-11.4q-44.1-25.5-88.3-51h0a115.24,115.24,0,0,1-12.9-8.5c-19.9-15-29.8-33-29.8-51,0-20.4,12.8-40.9,38.4-56.9,1.4-.9,2.8-1.7,4.2-2.5,28.4-16.4,65.7-24.6,103-24.6s74.6,8.2,103,24.6q44.1,25.5,88.3,51c28.4,16.4,42.7,37.9,42.7,59.5s-14.2,43-42.7,59.5c-28.3,16-65.6,24.2-102.8,24.2"/></clipPath><clipPath id="clip-path-122" transform="translate(-32.5 -36.62)"><polygon class="cls-1" points="21.6 407.4 266.8 264.9 574.9 442.7 329.7 585.2 21.6 407.4"/></clipPath><clipPath id="clip-path-313" transform="translate(-32.5 -36.62)"><path class="cls-1" d="M355.4,341.9c-1.8,0-3.7,0-5.5-.1H349a21.75,21.75,0,0,1-2.6-.1h-.5c-1,0-2-.1-3-.1a4.1,4.1,0,0,1-1.1-.1,20.9,20.9,0,0,0-2.5-.1h-.5c-1-.1-2.1-.1-3.1-.2h-.5c-2.9-.2-5.7-.5-8.5-.8h-.4l-2.7-.3c-.3,0-.7-.1-1-.1a20.24,20.24,0,0,1-2.6-.4h-.1c-.2,0-.4-.1-.6-.1-1.7-.2-3.3-.5-5-.8H314c-.9-.2-1.9-.3-2.8-.5a4.33,4.33,0,0,1-.5-.1c-2.8-.5-5.5-1.1-8.2-1.7-.3-.1-.6-.1-1-.2-1.5-.4-3-.7-4.5-1.1-.1,0-.2-.1-.4-.1-2.8-.7-5.5-1.5-8.3-2.3-.3-.1-.5-.1-.8-.2-1.5-.5-3.1-.9-4.6-1.4-.2-.1-.3-.1-.5-.2-1.6-.5-3.2-1.1-4.8-1.7a1.45,1.45,0,0,0-.7-.2,158.22,158.22,0,0,1-24.6-11.4q-44.1-25.5-88.3-51h0a115.24,115.24,0,0,1-12.9-8.5c-19.9-15-29.8-33-29.8-51,0-20.4,12.8-40.9,38.4-56.9,1.4-.9,2.8-1.7,4.2-2.5,28.4-16.4,65.7-24.6,103-24.6s74.6,8.2,103,24.6q44.1,25.5,88.3,51c28.4,16.4,42.7,37.9,42.7,59.5s-14.2,43-42.7,59.5c-28.3,16-65.6,24.2-102.8,24.2"/></clipPath><clipPath id="clip-path-314" transform="translate(-32.5 -36.62)"><polygon class="cls-1" points="21.6 218 266.8 75.6 574.9 253.4 329.7 395.9 21.6 218"/></clipPath></defs><title>WEB_07_SPK-M MEMBRANE ASSEMBLY</title><g class="cls-2"><path class="cls-3" d="M359.3,622.5c-1.8,0-3.7,0-5.5-.1h-.9a21.75,21.75,0,0,1-2.6-.1h-.5c-1,0-2-.1-3-.1a4.1,4.1,0,0,1-1.1-.1,20.9,20.9,0,0,0-2.5-.1h-.5c-1-.1-2.1-.1-3.1-.2h-.5c-2.9-.2-5.7-.5-8.5-.8h-.4l-2.7-.3c-.3,0-.7-.1-1-.1a20.24,20.24,0,0,1-2.6-.4h-.1c-.2,0-.4-.1-.6-.1-1.7-.2-3.3-.5-5-.8h-.3c-.9-.2-1.9-.3-2.8-.5a4.33,4.33,0,0,1-.5-.1c-2.8-.5-5.5-1.1-8.2-1.7-.3-.1-.6-.1-1-.2-1.5-.4-3-.7-4.5-1.1-.1,0-.2-.1-.4-.1-2.8-.7-5.5-1.5-8.3-2.3-.3-.1-.5-.1-.8-.2-1.5-.5-3.1-.9-4.6-1.4-.2-.1-.3-.1-.5-.2-1.6-.5-3.2-1.1-4.8-1.7a1.45,1.45,0,0,0-.7-.2,158.22,158.22,0,0,1-24.6-11.4q-44.1-25.5-88.3-51h0a115.24,115.24,0,0,1-12.9-8.5c-19.9-15-29.8-33-29.8-51,0-20.4,12.8-40.9,38.4-56.9,1.4-.9,2.8-1.7,4.2-2.5,28.4-16.4,65.7-24.6,103-24.6s74.6,8.2,103,24.6q44.1,25.5,88.3,51c28.4,16.4,42.7,37.9,42.7,59.5s-14.2,43-42.7,59.5c-28.3,16-65.6,24.2-102.8,24.2" transform="translate(-32.5 -36.62)"/></g><g class="cls-2"><path class="cls-4" d="M1136.7,199C978,199,849.3,327.6,849.3,486.3V733.1c0,158.7,128.6,287.3,287.3,287.3s287.3-128.6,287.3-287.3c.1,0,.1-88.1.1-246.8S1295.4,199,1136.7,199Z" transform="translate(-32.5 -36.62)"/></g><g class="cls-2"><path class="cls-5" d="M1413.3,750.4a277.32,277.32,0,0,1-554.1-17.3V486.3a277.35,277.35,0,1,1,554.7,0V718.1" transform="translate(-32.5 -36.62)"/></g><g class="cls-2"><path class="cls-6" d="M374,459.5c0,.1-.1.1-.1.2a3.4,3.4,0,0,0,1-.1h.1a.55.55,0,0,0-.5-.3.76.76,0,0,0-.5.2m3.7-.1-.1.1h.7a.31.31,0,0,0-.2-.1h0c-.2-.1-.3,0-.4,0m15.7-1.6h0a2.49,2.49,0,0,0,.8-.1h.1c-.1-.1-.1-.1-.2-.1v.1h0v-.1H394c-.4-.1-.6,0-.6.2h0m26.6-5.4c-.1.1-.2.1-.2.2.2,0,.3-.1.5-.1h0c.1,0,.2-.1.3-.1h0c-.1-.1-.1-.1-.2-.1h0c-.3,0-.4,0-.4.1m21.1-7.1a.55.55,0,0,0-.3.5c.2-.1.4-.1.5-.2v0c.1-.1.3-.1.4-.2h0a.37.37,0,0,0-.3-.1h0c-.1-.1-.2,0-.3,0m12.4-5.3c-.2.1-.3.2-.3.4a2.51,2.51,0,0,0,.7-.4h-.1c-.1-.1-.2,0-.3,0m6.9-3.4-.1.1a.76.76,0,0,1,.4-.2h-.2l.1-.1-.2.2h0m8.9-5.4h0" transform="translate(-32.5 -36.62)"/></g><g class="cls-2"><path class="cls-6" d="M342.7,255.8h.5c-.1-.2-.2-.3-.4-.3h0a.35.35,0,0,0-.2.1c-.1,0-.1.1-.2.2h.3m-3.6-.2h0m0-.1h0m-15.8-1.8h.2c0,.1-.1,0-.2,0h0m-8.3-1.3h0c-.1-.2-.2-.4-.4-.4h-.1a.76.76,0,0,0-.4.2.6.6,0,0,1,.4.1h0a1.09,1.09,0,0,0,.5.1m-8.8-1.8h0a.43.43,0,0,0-.4-.4.37.37,0,0,0-.3.1l-.1.1a1.88,1.88,0,0,0,.8.2m-14.7-3.8a.9.9,0,0,0,.5.1l-.1-.1.2.1a.52.52,0,0,0-.4-.2c-.1,0-.1,0-.2.1h0m-5.2-1.7c.2,0,.3.1.5.1h0a.52.52,0,0,0-.4-.2h-.2a.1.1,0,0,0,.1.1h0m-5.3-1.9c.2.1.3.1.5.2l-.1-.1h.1c-.2,0-.3-.1-.5-.1h0m33.5,9.1h0m-14.1-3.1h0" transform="translate(-32.5 -36.62)"/></g><g class="cls-2"><path class="cls-6" d="M395.1,276.9a.52.52,0,0,0,.4.2h0c-.1,0-.2-.1-.4-.2h0m-15.9-9.1h0a.47.47,0,0,0,.5.5,1,1,0,0,0,.3-.1h0a5.94,5.94,0,0,0-.8-.4h0m-8.3-4.7h0a1.33,1.33,0,0,0-.5-.3h0a.85.85,0,0,0,.5.3h0m-7.1-3.5h.2c-.1,0-.1-.1-.2-.1h0c-.2-.1-.3-.2-.5-.2h0a.85.85,0,0,0,.5.3h0" transform="translate(-32.5 -36.62)"/></g><g class="cls-2"><line class="cls-7" x1="636.4" y1="128.28" x2="503" y2="128.28"/><circle cx="503" cy="128.28" r="2.8"/></g><g class="cls-2"><rect class="cls-1" x="512.6" y="109.78" width="121" height="12.2"/></g><g class="cls-2"><path d="M550.4,155v.7h-.7v.7H549v.7h-3.3V146.4H549v.7h.7v.7h.7v.7h.7v6.7l-.7-.2Zm-.6-6h-.7v-.7h-.7v-.7h-1.3v8h1.3V155h.7v-.7h.7Z" transform="translate(-32.5 -36.62)"/></g><g class="cls-2"><path d="M553.1,157V146.3h5.3v1.3h-4v3.3h2.7v1.3h-2.7v3.3h4v1.3l-5.3.2Z" transform="translate(-32.5 -36.62)"/></g><g class="cls-2"><path d="M565.1,155.7v.7h-.7v.7h-2.7v-.7H561v-.7h-.7v-8h.7V147h.7v-.7h2.7v.7h.7v.7h.7v2.7h-1.3v-2h-.7v-.7h-1.3v.7h-.7v6.7h.7v.7h1.3V155h.7v-2h1.3v2.7Z" transform="translate(-32.5 -36.62)"/></g><g class="cls-2"><path d="M572.4,155.7v.7h-.7v.7H569v-.7h-.7v-.7h-.7v-8h.7V147h.7v-.7h2.7v.7h.7v.7h.7v8Zm-.6-7.4h-.7v-.7h-1.3v.7h-.7V155h.7v.7h1.3V155h.7Z" transform="translate(-32.5 -36.62)"/></g><g class="cls-2"><path d="M579.8,157v-1.3h-.7v-1.3h-.7V153h-.7v-.7h-1.3V157h-1.3V146.3h4v.7h.7v.7h.7V151h-.7v.7h-.7V153h.7v1.3h.7v1.3h.7v1.3l-1.4.1Zm-.7-8.7h-.7v-.7h-2v3.3h2v-.7h.7Z" transform="translate(-32.5 -36.62)"/></g><g class="cls-2"><path d="M586.4,157v-4h-2.7v4h-1.3v-9.3h.7V147h.7v-.7h2.7v.7h.7v.7h.7V157Zm0-8.7h-.7v-.7h-1.3v.7h-.7v3.4h2.7Z" transform="translate(-32.5 -36.62)"/></g><g class="cls-2"><path d="M593.1,147.7V157h-1.3v-9.3h-2.7v-1.3h6.7v1.3Z" transform="translate(-32.5 -36.62)"/></g><g class="cls-2"><path d="M597.1,157v-1.3h2v-8h-2v-1.3h5.3v1.3h-2v8h2V157Z" transform="translate(-32.5 -36.62)"/></g><g class="cls-2"><path d="M609.1,153v1.3h-.7v1.3h-.7v1.3h-1.3v-1.3h-.7v-1.3H605V153h-.7v-6.7h1.3v6h.7v2h1.3v-2h.7v-6h1.3V153Z" transform="translate(-32.5 -36.62)"/></g><g class="cls-2"><path d="M611.7,157V146.3H617v1.3h-4v3.3h2.7v1.3H613v3.3h4v1.3l-5.3.2Z" transform="translate(-32.5 -36.62)"/></g><g class="cls-2"><path d="M626.4,157V146.3h1.3v9.4h4V157Z" transform="translate(-32.5 -36.62)"/></g><g class="cls-2"><path d="M637.7,157v-4H635v4h-1.3v-9.3h.7V147h.7v-.7h2.7v.7h.7v.7h.7V157Zm0-8.7H637v-.7h-1.3v.7H635v3.4h2.7Z" transform="translate(-32.5 -36.62)"/></g><g class="cls-2"><path d="M646.4,147.7V149h-.7v1.3H645v1.3h-.7v5.3H643v-5.3h-.7v-1.3h-.7V149h-.7v-1.3h-.7v-1.3h1.3v1.3h.7V149h.7v1.3h1.3V149h.7v-1.3h.7v-1.3h1.3v1.3Z" transform="translate(-32.5 -36.62)"/></g><g class="cls-2"><path d="M648.4,157V146.3h5.3v1.3h-4v3.3h2.7v1.3h-2.7v3.3h4v1.3l-5.3.2Z" transform="translate(-32.5 -36.62)"/></g><g class="cls-2"><path d="M660.4,157v-1.3h-.7v-1.3H659V153h-.7v-.7H657V157h-1.3V146.3h4v.7h.7v.7h.7V151h-.7v.7h-.7V153h.7v1.3h.7v1.3h.7v1.3l-1.4.1Zm-.7-8.7H659v-.7h-2v3.3h2v-.7h.7Z" transform="translate(-32.5 -36.62)"/></g><g class="cls-2"><polyline class="cls-7" points="853.7 128.28 993.1 128.28 1025.4 160.57"/><circle cx="1057.86" cy="197.29" r="2.8" transform="translate(-45.85 58.21) rotate(-5.1)"/></g><g class="cls-2"><rect class="cls-1" x="853.7" y="89.48" width="139.9" height="36.1"/></g><g class="cls-2"><path d="M890.9,136.7V130h-.7v1.3h-1.3V130h-.7v6.7h-1.3V126h1.3v1.3h.7v1.3h1.3v-1.3h.7V126h1.3v10.7Z" transform="translate(-32.5 -36.62)"/></g><g class="cls-2"><path d="M898.2,136.7v-4h-2.7v4h-1.3v-9.3h.7v-.7h.7V126h2.7v.7h.7v.7h.7v9.3Zm0-8.7h-.7v-.7h-1.3v.7h-.7v3.4h2.7Z" transform="translate(-32.5 -36.62)"/></g><g class="cls-2"><path d="M906.2,136.7v-1.3h-.7v-1.3h-.7v-1.3h-.7v-1.3h-1.3v5.3h-1.3V126h1.3v3.3h.7v-.7h.7v-.7h.7v-.7h.7v-.7h.7v-.7h1.3v1.3h-.7v.7h-.7v.7h-.7v.7h-.7v1.3h.7v1.3h.7v1.3h.7v1.3h.7v2h-1.4Z" transform="translate(-32.5 -36.62)"/></g><g class="cls-2"><path d="M908.9,136.7V126h5.3v1.3h-4v3.3h2.7v1.3h-2.7v3.3h4v1.3l-5.3.2Z" transform="translate(-32.5 -36.62)"/></g><g class="cls-2"><path d="M928.2,135.4v.7h-.7v.7h-2.7v-.7h-.7v-.7h-.7v-2h1.3v1.3h.7v.7h1.3v-.7h.7v-2h-.7V132h-2v-.7H924v-.7h-.7v-3.3h.7v-.7h.7v-.7h2.7v.7h.7v.7h.7v1.3h-1.3v-.7h-.7v-.7h-1.3v.7h-.7v2h.7v.7h2v.7h.7v.7h.7v3.3h-.7Z" transform="translate(-32.5 -36.62)"/></g><g class="cls-2"><path d="M935.5,135.4v.7h-.7v.7h-2.7v-.7h-.7v-.7h-.7V126H932v8.7h.7v.7H934v-.7h.7V126H936v9.3h-.5Z" transform="translate(-32.5 -36.62)"/></g><g class="cls-2"><path d="M942.9,136.7v-1.3h-.7v-1.3h-.7v-1.3h-.7v-.7h-1.3v4.7h-1.3V126h4v.7h.7v.7h.7v3.3h-.7v.7h-.7v1.3h.7V134h.7v1.3h.7v1.3l-1.4.1Zm-.7-8.7h-.7v-.7h-2v3.3h2V130h.7Z" transform="translate(-32.5 -36.62)"/></g><g class="cls-2"><path d="M945.5,136.7V126h5.3v1.3h-4v3.3h2.7v1.3h-2.7v3.3h4v1.3l-5.3.2Z" transform="translate(-32.5 -36.62)"/></g><g class="cls-2"><path d="M963.5,127.4v9.3h-1.3v-9.3h-2.7v-1.3h6.7v1.3Z" transform="translate(-32.5 -36.62)"/></g><g class="cls-2"><path d="M972.2,135.4v.7h-.7v.7h-2.7v-.7h-.7v-.7h-.7v-8h.7v-.7h.7V126h2.7v.7h.7v.7h.7v8Zm-.7-7.4h-.7v-.7h-1.3v.7h-.7v6.7h.7v.7h1.3v-.7h.7Z" transform="translate(-32.5 -36.62)"/></g><g class="cls-2"><path d="M986.2,136.7V132h-2.7v4.7h-1.3V126h1.3v4.7h2.7V126h1.3v10.7Z" transform="translate(-32.5 -36.62)"/></g><g class="cls-2"><path d="M993.5,136.7v-4h-2.7v4h-1.3v-9.3h.7v-.7h.7V126h2.7v.7h.7v.7h.7v9.3Zm0-8.7h-.7v-.7h-1.3v.7h-.7v3.4h2.7Z" transform="translate(-32.5 -36.62)"/></g><g class="cls-2"><path d="M1001.5,132.7V134h-.7v1.3h-.7v1.3h-1.3v-1.3h-.7V134h-.7v-1.3h-.7V126H998v6h.7v2h1.3v-2h.7v-6h1.3v6.7Z" transform="translate(-32.5 -36.62)"/></g><g class="cls-2"><path d="M1004.2,136.7V126h5.3v1.3h-4v3.3h2.7v1.3h-2.7v3.3h4v1.3l-5.3.2Z" transform="translate(-32.5 -36.62)"/></g><g class="cls-2"><path d="M1022.8,136.7v-4h-2.7v4h-1.3v-9.3h.7v-.7h.7V126h2.7v.7h.7v.7h.7v9.3Zm0-8.7h-.7v-.7h-1.3v.7h-.7v3.4h2.7Z" transform="translate(-32.5 -36.62)"/></g><g class="cls-2"><path d="M891.6,151.4v.7h-.7v.7h-2.7v-.7h-.7v-.7h-.7v-8h.7v-.7h.7V142h2.7v.7h.7v.7h.7v2.7H891v-2h-.7v-.7H889v.7h-.7v6.7h.7v.7h1.3v-.7h.7v-2h1.3v2.7h-.7Z" transform="translate(-32.5 -36.62)"/></g><g class="cls-2"><path d="M894.2,152.7V142h5.3v1.3h-4v3.3h2.7v1.3h-2.7v3.3h4v1.3l-5.3.2Z" transform="translate(-32.5 -36.62)"/></g><g class="cls-2"><path d="M905.6,152.7v-2h-.7v-1.3h-.7v-1.3h-.7v-1.3h-.7v6h-1.3V142h1.3v2h.7v1.3h.7v1.3h.7v1.3h.7v-6h1.3v10.7h-1.3Z" transform="translate(-32.5 -36.62)"/></g><g class="cls-2"><path d="M912.2,143.4v9.3h-1.3v-9.3h-2.7v-1.3h6.7v1.3Z" transform="translate(-32.5 -36.62)"/></g><g class="cls-2"><path d="M916.2,152.7V142h5.3v1.3h-4v3.3h2.7v1.3h-2.7v3.3h4v1.3l-5.3.2Z" transform="translate(-32.5 -36.62)"/></g><g class="cls-2"><path d="M928.2,152.7v-1.3h-.7v-1.3h-.7v-1.3h-.7v-.7h-1.3v4.7h-1.3V142h4v.7h.7v.7h.7v3.3h-.7v.7h-.7v1.3h.7V150h.7v1.3h.7v1.3l-1.4.1Zm-.7-8.7h-.7v-.7h-2v3.3h2V146h.7Z" transform="translate(-32.5 -36.62)"/></g><g class="cls-2"><path d="M930.9,152.7V142h5.3v1.3h-4v3.3h2.7v1.3h-2.7v3.3h4v1.3l-5.3.2Z" transform="translate(-32.5 -36.62)"/></g><g class="cls-2"><path d="M942.9,150.7v.7h-.7v.7h-.7v.7h-3.3V142h3.3v.7h.7v.7h.7v.7h.7v6.7l-.7-.1Zm-.7-6h-.7V144h-.7v-.7h-1.3v8h1.3v-.7h.7v-.7h.7Z" transform="translate(-32.5 -36.62)"/></g><g class="cls-2"><path d="M952.9,152.7V142h1.3v9.4h4v1.3Z" transform="translate(-32.5 -36.62)"/></g><g class="cls-2"><path d="M964.2,152.7v-4h-2.7v4h-1.3v-9.3h.7v-.7h.7V142h2.7v.7h.7v.7h.7v9.3Zm0-8.7h-.7v-.7h-1.3v.7h-.7v3.4h2.7Z" transform="translate(-32.5 -36.62)"/></g><g class="cls-2"><path d="M971.5,152.7V146h-.7v1.3h-1.3V146h-.7v6.7h-1.3V142h1.3v1.3h.7v1.3h1.3v-1.3h.7V142h1.3v10.7Z" transform="translate(-32.5 -36.62)"/></g><g class="cls-2"><path d="M974.8,152.7v-1.3h2v-8h-2v-1.3h5.3v1.3h-2v8h2v1.3Z" transform="translate(-32.5 -36.62)"/></g><g class="cls-2"><path d="M986.2,152.7v-2h-.7v-1.3h-.7v-1.3h-.7v-1.3h-.7v6h-1.3V142h1.3v2h.7v1.3h.7v1.3h.7v1.3h.7v-6h1.3v10.7h-1.3Z" transform="translate(-32.5 -36.62)"/></g><g class="cls-2"><path d="M993.5,152.7v-4h-2.7v4h-1.3v-9.3h.7v-.7h.7V142h2.7v.7h.7v.7h.7v9.3Zm0-8.7h-.7v-.7h-1.3v.7h-.7v3.4h2.7Z" transform="translate(-32.5 -36.62)"/></g><g class="cls-2"><path d="M1000.2,143.4v9.3h-1.3v-9.3h-2.7v-1.3h6.7v1.3Z" transform="translate(-32.5 -36.62)"/></g><g class="cls-2"><path d="M1004.2,152.7v-1.3h2v-8h-2v-1.3h5.3v1.3h-2v8h2v1.3Z" transform="translate(-32.5 -36.62)"/></g><g class="cls-2"><path d="M1016.1,151.4v.7h-.7v.7h-2.7v-.7h-.7v-.7h-.7v-8h.7v-.7h.7V142h2.7v.7h.7v.7h.7v8Zm-.6-7.4h-.7v-.7h-1.3v.7h-.7v6.7h.7v.7h1.3v-.7h.7Z" transform="translate(-32.5 -36.62)"/></g><g class="cls-2"><path d="M1022.8,152.7v-2h-.7v-1.3h-.7v-1.3h-.7v-1.3h-.7v6h-1.3V142h1.3v2h.7v1.3h.7v1.3h.7v1.3h.7v-6h1.3v10.7h-1.3Z" transform="translate(-32.5 -36.62)"/></g><g class="cls-2"><line class="cls-7" x1="636.4" y1="536.88" x2="503" y2="536.88"/><circle cx="503" cy="536.88" r="2.8"/></g><g class="cls-2"><rect class="cls-1" x="512.6" y="518.38" width="119.1" height="12.6"/></g><g class="cls-2"><path d="M550.4,563.6v.7h-.7v.7H549v.7h-3.3V555H549v.7h.7v.7h.7v.7h.7v6.7l-.7-.2Zm-.6-6h-.7V557h-.7v-.7h-1.3v8h1.3v-.7h.7V563h.7Z" transform="translate(-32.5 -36.62)"/></g><g class="cls-2"><path d="M553.1,565.6V555h5.3v1.3h-4v3.3h2.7v1.3h-2.7v3.3h4v1.3l-5.3.1Z" transform="translate(-32.5 -36.62)"/></g><g class="cls-2"><path d="M565.1,564.3v.7h-.7v.7h-2.7V565H561v-.7h-.7v-8h.7v-.7h.7V555h2.7v.7h.7v.7h.7v2.7h-1.3v-2h-.7v-.7h-1.3v.7h-.7v6.7h.7v.7h1.3v-.7h.7v-2h1.3v2.7l-.7-.2Z" transform="translate(-32.5 -36.62)"/></g><g class="cls-2"><path d="M572.4,564.3v.7h-.7v.7H569V565h-.7v-.7h-.7v-8h.7v-.7h.7V555h2.7v.7h.7v.7h.7v8h-.7Zm-.6-7.3h-.7v-.7h-1.3v.7h-.7v6.7h.7v.7h1.3v-.7h.7Z" transform="translate(-32.5 -36.62)"/></g><g class="cls-2"><path d="M579.8,565.6v-1.3h-.7V563h-.7v-1.3h-.7V561h-1.3v4.7h-1.3V555h4v.7h.7v.7h.7v3.3h-.7v.7h-.7v1.3h.7V563h.7v1.3h.7v1.3Zm-.7-8.6h-.7v-.7h-2v3.3h2V559h.7Z" transform="translate(-32.5 -36.62)"/></g><g class="cls-2"><path d="M586.4,565.6v-4h-2.7v4h-1.3v-9.3h.7v-.7h.7V555h2.7v.7h.7v.7h.7v9.3h-1.5Zm0-8.6h-.7v-.7h-1.3v.7h-.7v3.3h2.7Z" transform="translate(-32.5 -36.62)"/></g><g class="cls-2"><path d="M593.1,556.3v9.3h-1.3v-9.3h-2.7V555h6.7v1.3Z" transform="translate(-32.5 -36.62)"/></g><g class="cls-2"><path d="M597.1,565.6v-1.3h2v-8h-2V555h5.3v1.3h-2v8h2v1.3Z" transform="translate(-32.5 -36.62)"/></g><g class="cls-2"><path d="M609.1,561.6v1.3h-.7v1.3h-.7v1.3h-1.3v-1.3h-.7V563H605v-1.3h-.7V555h1.3v6h.7v2h1.3v-2h.7v-6h1.3v6.7h-.5Z" transform="translate(-32.5 -36.62)"/></g><g class="cls-2"><path d="M611.7,565.6V555H617v1.3h-4v3.3h2.7v1.3H613v3.3h4v1.3l-5.3.1Z" transform="translate(-32.5 -36.62)"/></g><g class="cls-2"><path d="M626.4,565.6V555h1.3v9.3h4v1.3Z" transform="translate(-32.5 -36.62)"/></g><g class="cls-2"><path d="M637.7,565.6v-4H635v4h-1.3v-9.3h.7v-.7h.7V555h2.7v.7h.7v.7h.7v9.3h-1.5Zm0-8.6H637v-.7h-1.3v.7H635v3.3h2.7Z" transform="translate(-32.5 -36.62)"/></g><g class="cls-2"><path d="M646.4,556.3v1.3h-.7v1.3H645v1.3h-.7v5.3H643v-5.3h-.7V559h-.7v-1.3h-.7v-1.3h-.7V555h1.3v1.3h.7v1.3h.7v1.3h1.3v-1.3h.7v-1.3h.7V555h1.3v1.3Z" transform="translate(-32.5 -36.62)"/></g><g class="cls-2"><path d="M648.4,565.6V555h5.3v1.3h-4v3.3h2.7v1.3h-2.7v3.3h4v1.3l-5.3.1Z" transform="translate(-32.5 -36.62)"/></g><g class="cls-2"><path d="M660.4,565.6v-1.3h-.7V563H659v-1.3h-.7V561H657v4.7h-1.3V555h4v.7h.7v.7h.7v3.3h-.7v.7h-.7v1.3h.7V563h.7v1.3h.7v1.3Zm-.7-8.6H659v-.7h-2v3.3h2V559h.7Z" transform="translate(-32.5 -36.62)"/></g><g class="cls-2"><line class="cls-7" x1="636.4" y1="230.58" x2="503" y2="230.58"/><circle cx="503" cy="230.58" r="2.8"/></g><g class="cls-2"><rect class="cls-1" x="512.6" y="210.68" width="128.3" height="17"/></g><g class="cls-2"><path d="M550.4,255.9v.7h-.7v.7H549v.7h-3.3V247.3H549v.7h.7v.7h.7v.7h.7v6.7l-.7-.2Zm-.6-6h-.7v-.7h-.7v-.7h-1.3v8h1.3v-.7h.7v-.7h.7Z" transform="translate(-32.5 -36.62)"/></g><g class="cls-2"><path d="M557.8,256.6v.7h-.7v.7h-2.7v-.7h-.7v-.7H553v-8h.7v-.7h.7v-.7h2.7v.7h.7v.7h.7v8Zm-.7-7.4h-.7v-.7h-1.3v.7h-.7v6.7h.7v.7h1.3v-.7h.7Z" transform="translate(-32.5 -36.62)"/></g><g class="cls-2"><path d="M565.1,256.6v.7h-.7v.7h-2.7v-.7H561v-.7h-.7v-9.4h1.3v8.7h.7v.7h1.3v-.7h.7v-8.7h1.3v9.4Z" transform="translate(-32.5 -36.62)"/></g><g class="cls-2"><path d="M572.4,256.6v.7h-.7v.7h-4V247.3h4v.7h.7v.7h.7v2.7h-.7v.7h-.7v.7h.7v.7h.7v3.4l-.7-.3Zm-.6-7.4h-.7v-.7h-2v3.3h2v-.7h.7Zm0,4.7h-.7v-.7h-2v3.4h2v-.7h.7Z" transform="translate(-32.5 -36.62)"/></g><g class="cls-2"><path d="M575.1,257.9V247.2h1.3v9.4h4v1.3Z" transform="translate(-32.5 -36.62)"/></g><g class="cls-2"><path d="M582.4,257.9V247.2h5.3v1.3h-4v3.3h2.7v1.3h-2.7v3.4h4v1.3h-5.3Z" transform="translate(-32.5 -36.62)"/></g><g class="cls-2"><path d="M601.7,256.6v.7H601v.7h-2.7v-.7h-.7v-.7h-.7v-2h1.3v1.3h.7v.7h1.3v-.7h.7v-2h-.7v-.7h-2v-.7h-.7v-.7h-.7v-3.3h.7v-.7h.7v-.7h2.7v.7h.7v.7h.7v1.3H601v-.7h-.7v-.7H599v.7h-.7v2h.7v.7h2v.7h.7v.7h.7v3.4Z" transform="translate(-32.5 -36.62)"/></g><g class="cls-2"><path d="M604.4,257.9v-1.3h2v-8h-2v-1.3h5.3v1.3h-2v8h2v1.3Z" transform="translate(-32.5 -36.62)"/></g><g class="cls-2"><path d="M616.4,255.9v.7h-.7v.7H615v.7h-3.3V247.3H615v.7h.7v.7h.7v.7h.7v6.7l-.7-.2Zm-.7-6H615v-.7h-.7v-.7H613v8h1.3v-.7h.7v-.7h.7Z" transform="translate(-32.5 -36.62)"/></g><g class="cls-2"><path d="M619.1,257.9V247.2h5.3v1.3h-4v3.3h2.7v1.3h-2.7v3.4h4v1.3h-5.3Z" transform="translate(-32.5 -36.62)"/></g><g class="cls-2"><path d="M631,255.9v.7h-.7v.7h-.7v.7h-3.3V247.3h3.3v.7h.7v.7h.7v.7h.7v6.7l-.7-.2Zm-.6-6h-.7v-.7H629v-.7h-1.3v8H629v-.7h.7v-.7h.7Z" transform="translate(-32.5 -36.62)"/></g><g class="cls-2"><path d="M642.4,248.6v3.3h3.3v1.3h-3.3v4.7H641V247.2h6v1.3l-4.6.1Z" transform="translate(-32.5 -36.62)"/></g><g class="cls-2"><path d="M653,256.6v.7h-.7v.7h-2.7v-.7H649v-.7h-.7v-8h.7v-.7h.7v-.7h2.7v.7h.7v.7h.7v8Zm-.6-7.4h-.7v-.7h-1.3v.7h-.7v6.7h.7v.7h1.3v-.7h.7Z" transform="translate(-32.5 -36.62)"/></g><g class="cls-2"><path d="M655.7,257.9v-1.3h2v-8h-2v-1.3H661v1.3h-2v8h2v1.3Z" transform="translate(-32.5 -36.62)"/></g><g class="cls-2"><path d="M663,257.9V247.2h1.3v9.4h4v1.3Z" transform="translate(-32.5 -36.62)"/></g><g class="cls-2"><line class="cls-7" x1="636.4" y1="434.78" x2="503" y2="434.78"/><circle cx="503" cy="434.78" r="2.8"/></g><g class="cls-2"><rect class="cls-1" x="514.1" y="416.18" width="125.3" height="13.7"/></g><g class="cls-2"><path d="M551.9,461.5v.7h-.7v.7h-.7v.7h-3.3V452.9h3.3v.7h.7v.7h.7v.7h.7v6.7l-.7-.2Zm-.6-6h-.7v-.7H550v-.7h-1.3v8H550v-.7h.7v-.7h.7v-5.2Z" transform="translate(-32.5 -36.62)"/></g><g class="cls-2"><path d="M559.3,462.1v.7h-.7v.7h-2.7v-.7h-.7v-.7h-.7v-8h.7v-.7h.7v-.7h2.7v.7h.7v.7h.7v8Zm-.7-7.3h-.7v-.7h-1.3v.7h-.7v6.7h.7v.7h1.3v-.7h.7Z" transform="translate(-32.5 -36.62)"/></g><g class="cls-2"><path d="M566.6,462.1v.7h-.7v.7h-2.7v-.7h-.7v-.7h-.7v-9.4h1.3v8.7h.7v.7h1.3v-.7h.7v-8.7h1.3v9.4Z" transform="translate(-32.5 -36.62)"/></g><g class="cls-2"><path d="M573.9,462.1v.7h-.7v.7h-4V452.8h4v.7h.7v.7h.7v2.7h-.7v.7h-.7v.7h.7v.7h.7v3.3l-.7-.2Zm-.6-7.3h-.7v-.7h-2v3.3h2v-.7h.7Zm0,4.7h-.7v-.7h-2v3.3h2v-.7h.7Z" transform="translate(-32.5 -36.62)"/></g><g class="cls-2"><path d="M576.6,463.5V452.8h1.3v9.4h4v1.3Z" transform="translate(-32.5 -36.62)"/></g><g class="cls-2"><path d="M583.9,463.5V452.8h5.3v1.3h-4v3.3h2.7v1.3h-2.7V462h4v1.3l-5.3.2Z" transform="translate(-32.5 -36.62)"/></g><g class="cls-2"><path d="M603.2,462.1v.7h-.7v.7h-2.7v-.7h-.7v-.7h-.7v-2h1.3v1.3h.7v.7h1.3v-.7h.7v-2h-.7v-.7h-2V458H599v-.7h-.7V454h.7v-.7h.7v-.7h2.7v.7h.7v.7h.7v1.3h-1.3v-.7h-.7v-.7h-1.3v.7h-.7v2h.7v.7h2v.7h.7v.7h.7V462l-.7.1Z" transform="translate(-32.5 -36.62)"/></g><g class="cls-2"><path d="M605.9,463.5v-1.3h2v-8h-2v-1.3h5.3v1.3h-2v8h2v1.3Z" transform="translate(-32.5 -36.62)"/></g><g class="cls-2"><path d="M617.9,461.5v.7h-.7v.7h-.7v.7h-3.3V452.9h3.3v.7h.7v.7h.7v.7h.7v6.7l-.7-.2Zm-.7-6h-.7v-.7h-.7v-.7h-1.3v8h1.3v-.7h.7v-.7h.7Z" transform="translate(-32.5 -36.62)"/></g><g class="cls-2"><path d="M620.6,463.5V452.8h5.3v1.3h-4v3.3h2.7v1.3h-2.7V462h4v1.3l-5.3.2Z" transform="translate(-32.5 -36.62)"/></g><g class="cls-2"><path d="M632.5,461.5v.7h-.7v.7h-.7v.7h-3.3V452.9h3.3v.7h.7v.7h.7v.7h.7v6.7l-.7-.2Zm-.6-6h-.7v-.7h-.7v-.7h-1.3v8h1.3v-.7h.7v-.7h.7Z" transform="translate(-32.5 -36.62)"/></g><g class="cls-2"><path d="M643.9,454.1v3.3h3.3v1.3h-3.3v4.7h-1.3V452.7h6V454l-4.7.1Z" transform="translate(-32.5 -36.62)"/></g><g class="cls-2"><path d="M654.5,462.1v.7h-.7v.7h-2.7v-.7h-.7v-.7h-.7v-8h.7v-.7h.7v-.7h2.7v.7h.7v.7h.7v8Zm-.6-7.3h-.7v-.7h-1.3v.7h-.7v6.7h.7v.7h1.3v-.7h.7Z" transform="translate(-32.5 -36.62)"/></g><g class="cls-2"><path d="M657.2,463.5v-1.3h2v-8h-2v-1.3h5.3v1.3h-2v8h2v1.3Z" transform="translate(-32.5 -36.62)"/></g><g class="cls-2"><path d="M664.5,463.5V452.8h1.3v9.4h4v1.3Z" transform="translate(-32.5 -36.62)"/></g><g class="cls-2"><line class="cls-7" x1="636.4" y1="332.68" x2="503" y2="332.68"/><circle cx="503" cy="332.68" r="2.8"/></g><g class="cls-2"><rect class="cls-1" x="512.6" y="314.08" width="67.9" height="12.5"/></g><g class="cls-2"><path d="M550.4,360.1v.7h-.7v.7H547v-.7h-.7v-.7h-.7v-8h.7v-.7h.7v-.7h2.7v.7h.7v.7h.7v2.7h-1.3v-2h-.7v-.7h-1.3v.7h-.7v6.7h.7v.7h1.3v-.7h.7v-2h1.3v2.7l-.7-.1Z" transform="translate(-32.5 -36.62)"/></g><g class="cls-2"><path d="M557.1,361.4v-4h-2.7v4h-1.3v-9.3h.7v-.7h.7v-.7h2.7v.7h.7v.7h.7v9.3Zm0-8.7h-.7V352h-1.3v.7h-.7v3.4h2.7Z" transform="translate(-32.5 -36.62)"/></g><g class="cls-2"><path d="M565.1,361.4v-1.3h-.7v-1.3h-.7v-1.3H563v-.7h-1.3v4.7h-1.3V350.8h4v.7h.7v.7h.7v3.3h-.7v.7h-.7v1.3h.7v1.3h.7v1.3h.7v1.3Zm-.7-8.7h-.7V352h-2v3.3h2v-.7h.7Z" transform="translate(-32.5 -36.62)"/></g><g class="cls-2"><path d="M572.4,359.4v.7h-.7v.7H571v.7h-3.3V350.8H571v.7h.7v.7h.7v.7h.7v6.7l-.7-.2Zm-.6-6h-.7v-.7h-.7V352h-1.3v8h1.3v-.7h.7v-.7h.7Z" transform="translate(-32.5 -36.62)"/></g><g class="cls-2"><path d="M579.8,360.1v.7h-.7v.7h-4V350.8h4v.7h.7v.7h.7v2.7h-.7v.7h-.7v.7h.7v.7h.7v3.4l-.7-.3Zm-.7-7.4h-.7V352h-2v3.3h2v-.7h.7Zm0,4.7h-.7v-.7h-2v3.4h2v-.7h.7Z" transform="translate(-32.5 -36.62)"/></g><g class="cls-2"><path d="M587.1,360.1v.7h-.7v.7h-2.7v-.7H583v-.7h-.7v-8h.7v-.7h.7v-.7h2.7v.7h.7v.7h.7v8Zm-.7-7.4h-.7V352h-1.3v.7h-.7v6.7h.7v.7h1.3v-.7h.7Z" transform="translate(-32.5 -36.62)"/></g><g class="cls-2"><path d="M593.8,361.4v-4h-2.7v4h-1.3v-9.3h.7v-.7h.7v-.7h2.7v.7h.7v.7h.7v9.3Zm0-8.7h-.7V352h-1.3v.7h-.7v3.4h2.7Z" transform="translate(-32.5 -36.62)"/></g><g class="cls-2"><path d="M601.7,361.4v-1.3H601v-1.3h-.7v-1.3h-.7v-.7h-1.3v4.7H597V350.8h4v.7h.7v.7h.7v3.3h-.7v.7H601v1.3h.7v1.3h.7v1.3h.7v1.3Zm-.6-8.7h-.7V352h-2v3.3h2v-.7h.7Z" transform="translate(-32.5 -36.62)"/></g><g class="cls-2"><path d="M609.1,359.4v.7h-.7v.7h-.7v.7h-3.3V350.8h3.3v.7h.7v.7h.7v.7h.7v6.7l-.7-.2Zm-.7-6h-.7v-.7H607V352h-1.3v8H607v-.7h.7v-.7h.7Z" transform="translate(-32.5 -36.62)"/></g><path class="cls-8" d="M140.5,158.5a105.26,105.26,0,0,1,16.9-12.8c1.4-.9,2.8-1.7,4.2-2.5,28.4-16.4,65.7-24.6,103-24.6s74.6,8.2,103,24.6q44.1,25.5,88.3,51a108.72,108.72,0,0,1,26,20.3" transform="translate(-32.5 -36.62)"/><path class="cls-4" d="M481.8,298.9c11.1,12.2,16.7,25.7,16.7,39.2,0,21.5-14.2,43-42.7,59.5-28.3,16-65.6,24.2-102.8,24.2" transform="translate(-32.5 -36.62)"/><path class="cls-8" d="M140.5,242.9a105.26,105.26,0,0,1,16.9-12.8c1.4-.9,2.8-1.7,4.2-2.5,28.4-16.4,65.7-24.6,103-24.6s74.6,8.2,103,24.6q44.1,25.5,88.3,51a108.72,108.72,0,0,1,26,20.3" transform="translate(-32.5 -36.62)"/><path class="cls-4" d="M353,421.8c-1.8,0-3.7,0-5.5-.1h-.9a21.75,21.75,0,0,1-2.6-.1h-.5c-1,0-2-.1-3-.1a4.1,4.1,0,0,1-1.1-.1,20.9,20.9,0,0,0-2.5-.1h-.5c-1-.1-2.1-.1-3.1-.2h-.5c-2.9-.2-5.7-.5-8.5-.8h-.4l-2.7-.3c-.3,0-.7-.1-1-.1a20.24,20.24,0,0,1-2.6-.4h-.1c-.2,0-.4-.1-.6-.1-1.7-.2-3.3-.5-5-.8h-.3c-.9-.2-1.9-.3-2.8-.5a4.33,4.33,0,0,1-.5-.1c-2.8-.5-5.5-1.1-8.2-1.7-.3-.1-.6-.1-1-.2-1.5-.4-3-.7-4.5-1.1-.1,0-.2-.1-.4-.1-2.8-.7-5.5-1.5-8.3-2.3-.3-.1-.5-.1-.8-.2-1.5-.5-3.1-.9-4.6-1.4-.2-.1-.3-.1-.5-.2-1.6-.5-3.2-1.1-4.8-1.7a1.45,1.45,0,0,0-.7-.2,158.22,158.22,0,0,1-24.6-11.4q-44.1-25.5-88.3-51h0a115.24,115.24,0,0,1-12.9-8.5c-19.9-15-29.8-33-29.8-51,0-15.3,7.2-30.6,21.5-44.1" transform="translate(-32.5 -36.62)"/><g class="cls-9"><g class="cls-10"><polyline points="246.6 235.38 234.5 228.38 234 228.38 234.1 228.68 246.1 235.57 246.6 235.68 246.6 235.38"/></g></g><g class="cls-9"><g class="cls-10"><polyline points="262.6 244.57 261.6 243.97 261 243.97 261.1 244.28 262.1 244.88 262.5 244.88 262.6 244.57"/></g></g><g class="cls-9"><g class="cls-10"><path d="M335,304.3l-25-14.4h-.5v.2l25,14.4h.5v-.2m16,9.2-1-.6h-.5v.3l1,.6h.4l.1-.3m40,23.1-25-14.4h-.5v.2l25,14.4h.4l.1-.2m15.9,9.2-1-.6h-.5v.2l1,.6h.5v-.2m40,23.1-25-14.4h-.5v.3l25,14.4h.4l.1-.3m16,9.2-1-.6h-.5v.2l1,.6h.5v-.2m40,23.1-25-14.4h-.5v.3l25,14.4h.4l.1-.3m15.9,9.2-1-.6h-.5v.3l1,.6h.5v-.3" transform="translate(-32.5 -36.62)"/></g></g><g class="cls-9"><g class="cls-10"><polyline points="513.3 389.38 501.3 382.48 500.8 382.48 500.9 382.68 512.9 389.68 513.3 389.68 513.3 389.38"/></g></g><g class="cls-9"><g class="cls-10"><polyline points="264.7 258.07 252.6 251.18 252.1 251.18 252.1 251.47 264.2 258.38 264.7 258.38 264.7 258.07"/></g></g><g class="cls-9"><g class="cls-10"><polyline points="280.7 267.38 279.7 266.77 279.2 266.77 279.2 267.07 280.2 267.68 280.6 267.68 280.7 267.38"/></g></g><g class="cls-9"><g class="cls-10"><path d="M353.1,327.1l-25-14.4h-.5v.2l25,14.4h.4l.1-.2m16,9.2-1-.6h-.5v.2l1,.6h.5v-.2m40,23.1-25-14.4h-.5v.3l25,14.4h.4l.1-.3m15.9,9.2-1-.6h-.5v.2l1,.6h.5v-.2m40,23.1-25-14.4h-.5v.3l25,14.4h.4l.1-.3m16,9.2-1-.6h-.5v.2l1,.6h.5v-.2m39.9,23L496,409.5h-.5v.3l24.9,14.4h.5v-.3m16,9.3-1-.6h-.5v.3l1,.6h.4l.1-.3" transform="translate(-32.5 -36.62)"/></g></g><g class="cls-9"><g class="cls-10"><polyline points="531.5 412.18 519.4 405.18 518.9 405.18 518.9 405.48 531 412.48 531.5 412.48 531.5 412.18"/></g></g><g class="cls-9"><g class="cls-10"><polyline points="225.3 247.68 213.3 240.78 212.7 240.78 212.8 241.07 224.8 247.97 225.3 247.97 225.3 247.68"/></g></g><g class="cls-9"><g class="cls-10"><polyline points="241.3 256.98 240.3 256.38 239.8 256.38 239.8 256.68 240.8 257.18 241.2 257.18 241.3 256.98"/></g></g><g class="cls-9"><g class="cls-10"><path d="M313.7,316.6l-25-14.4h-.5v.2l25,14.4h.5v-.2m16,9.3-1-.6h-.5v.3l1,.6h.4l.1-.3m40,23-25-14.4h-.5v.2l25,14.4h.4l.1-.2m15.9,9.3-1-.6h-.5v.2l1,.6h.5v-.2m40,23-25-14.4h-.5v.3l25,14.4h.4l.1-.3m16,9.3-1-.6h-.5v.2l1,.6h.5v-.2m40,23-25-14.4h-.5v.3l25,14.4h.4l.1-.3m15.9,9.3-1-.6H496v.3l1,.6h.5v-.3" transform="translate(-32.5 -36.62)"/></g></g><g class="cls-9"><g class="cls-10"><polyline points="492.1 401.77 480 394.77 479.5 394.77 479.6 395.07 491.6 401.98 492.1 402.07 492.1 401.77"/></g></g><g class="cls-9"><g class="cls-10"><polyline points="243.4 270.48 231.3 263.57 230.9 263.57 230.9 263.77 242.9 270.77 243.4 270.77 243.4 270.48"/></g></g><g class="cls-9"><g class="cls-10"><polyline points="259.4 279.77 258.4 279.18 257.9 279.18 257.9 279.48 258.9 279.98 259.4 279.98 259.4 279.77"/></g></g><g class="cls-9"><g class="cls-10"><path d="M331.8,339.4l-25-14.4h-.4v.3l25,14.4h.5l-.1-.3m16,9.2-1-.6h-.4v.3l1,.6h.5l-.1-.3m40,23.1-25-14.4h-.5v.3l25,14.4h.5v-.3m16,9.2-1-.6h-.4v.3l1,.6h.5l-.1-.3M443.7,404l-25-14.4h-.5v.3l25,14.4h.5V404m16,9.2-1-.6h-.4v.3l1,.6h.5l-.1-.3m39.9,23.1-24.9-14.4h-.5v.3l24.9,14.4h.5v-.3m16.1,9.3-1-.6h-.5v.3l1,.6h.5v-.3" transform="translate(-32.5 -36.62)"/></g></g><g class="cls-9"><g class="cls-10"><polyline points="510.2 424.57 498.1 417.57 497.7 417.57 497.7 417.88 509.7 424.77 510.2 424.77 510.2 424.57"/></g></g><g class="cls-9"><g class="cls-10"><polyline points="204 260.07 192 253.18 191.5 253.07 191.5 253.38 203.5 260.38 204 260.38 204 260.07"/></g></g><g class="cls-9"><g class="cls-10"><polyline points="220 269.27 219 268.77 218.5 268.68 218.5 268.98 219.5 269.57 220 269.57 220 269.27"/></g></g><g class="cls-9"><g class="cls-10"><path d="M292.4,329l-25-14.4H267v.3l25,14.4h.5l-.1-.3m16,9.2-1-.6h-.5v.3l1,.6h.5v-.3m40,23.1-25-14.4H323v.3l25,14.4h.5l-.1-.3m16,9.2-1-.6H363v.3l1,.6h.5l-.1-.3m39.9,23.1-25-14.4h-.5v.3l25,14.4h.5v-.3m16,9.2-1-.6h-.4v.3l1,.6h.5l-.1-.3m40,23.1-25-14.4h-.5v.3l25,14.4h.5v-.3m16,9.2-1-.6h-.5v.3l1,.6h.5v-.3" transform="translate(-32.5 -36.62)"/></g></g><g class="cls-9"><g class="cls-10"><polyline points="470.8 414.07 458.8 407.18 458.3 407.18 458.3 407.48 470.3 414.38 470.8 414.38 470.8 414.07"/></g></g><g class="cls-9"><g class="cls-10"><polyline points="222.1 282.88 210 275.88 209.6 275.88 209.6 276.18 221.6 283.18 222.1 283.18 222.1 282.88"/></g></g><g class="cls-9"><g class="cls-10"><polyline points="238.1 292.07 237.1 291.57 236.6 291.48 236.6 291.77 237.6 292.38 238.1 292.38 238.1 292.07"/></g></g><g class="cls-9"><g class="cls-10"><path d="M310.5,351.8l-25-14.4h-.4v.3l25,14.4h.5l-.1-.3m16,9.2-1-.6h-.4v.3l1,.6h.5l-.1-.3m40,23.1-25-14.4H341v.3l25,14.4h.5v-.3m16,9.2-1-.6H381v.3l1,.6h.5v-.3m40,23.1-25-14.4H397v.3l25,14.4h.5v-.3m15.9,9.2-1-.6H437v.3l1,.6h.5l-.1-.3m40,23.1-24.9-14.4H453v.3L477.9,449h.5v-.3m16,9.2-1-.6h-.5v.3l1,.6h.5v-.3" transform="translate(-32.5 -36.62)"/></g></g><g class="cls-9"><g class="cls-10"><polyline points="488.9 436.88 476.8 429.98 476.4 429.98 476.4 430.18 488.4 437.18 488.9 437.18 488.9 436.88"/></g></g><g class="cls-9"><g class="cls-10"><polyline points="182.7 272.48 170.7 265.48 170.2 265.48 170.2 265.77 182.2 272.68 182.7 272.68 182.7 272.48"/></g></g><g class="cls-9"><g class="cls-10"><polyline points="198.7 281.68 197.7 281.07 197.2 281.07 197.2 281.38 198.2 281.98 198.7 281.98 198.7 281.68"/></g></g><g class="cls-9"><g class="cls-10"><path d="M271.1,341.4l-25-14.4h-.4v.3l25,14.4h.5l-.1-.3m16,9.2-1-.6h-.5v.3l1,.6h.5v-.3m40,23.1-25-14.4h-.4v.3l25,14.4h.5l-.1-.3m16,9.2-1-.6h-.4v.3l1,.6h.5l-.1-.3M383,406l-25-14.4h-.5v.3l25,14.4h.5V406m16,9.2-1-.6h-.4v.3l1,.6h.5l-.1-.3m40,23.1-25-14.4h-.5v.3l25,14.4h.5v-.3m16,9.2-1-.6h-.5v.3l1,.6h.5v-.3" transform="translate(-32.5 -36.62)"/></g></g><g class="cls-9"><g class="cls-10"><polyline points="449.5 426.48 437.5 419.57 437 419.48 437 419.77 449 426.77 449.5 426.77 449.5 426.48"/></g></g><g class="cls-9"><g class="cls-10"><polyline points="200.8 295.27 188.7 288.27 188.3 288.27 188.3 288.57 200.3 295.48 200.9 295.48 200.8 295.27"/></g></g><g class="cls-9"><g class="cls-10"><polyline points="216.8 304.48 215.8 303.88 215.3 303.88 215.3 304.18 216.3 304.77 216.8 304.77 216.8 304.48"/></g></g><g class="cls-9"><g class="cls-10"><path d="M289.3,364.2l-25-14.4h-.4v.3l25,14.4h.5l-.1-.3m15.9,9.2-1-.6h-.4v.3l1,.6h.5l-.1-.3m40,23.1-25-14.4h-.5v.3l25,14.4h.5v-.3m16,9.2-1-.6h-.4v.3l1,.6h.5l-.1-.3m40,23.1-25-14.4h-.5v.3l25,14.4h.5v-.3m15.9,9.2-1-.6h-.4v.3l1,.6h.5l-.1-.3m40,23.1-24.9-14.4h-.5v.3l24.9,14.4h.5v-.3m16,9.2-1-.6h-.5v.3l1,.6h.5v-.3" transform="translate(-32.5 -36.62)"/></g></g><g class="cls-9"><g class="cls-10"><polyline points="467.6 449.27 455.5 442.27 455.1 442.27 455.1 442.57 467.1 449.57 467.6 449.57 467.6 449.27"/></g></g><g class="cls-9"><g class="cls-10"><polyline points="161.4 284.77 149.4 277.88 148.9 277.88 148.9 278.18 160.9 285.07 161.4 285.07 161.4 284.77"/></g></g><g class="cls-9"><g class="cls-10"><polyline points="177.5 294.07 176.5 293.48 175.9 293.48 175.9 293.77 176.9 294.38 177.4 294.27 177.5 294.07"/></g></g><g class="cls-9"><g class="cls-10"><path d="M249.9,353.7l-25-14.4h-.5v.3l25,14.4h.5v-.3m16,9.3-1-.6h-.5v.3l1,.6h.5V363m40,23-25-14.4h-.5v.3l25,14.4h.5V386m15.9,9.2-1-.6h-.5v.3l1,.6h.5v-.3m40,23.1-25-14.4h-.5v.3l25,14.4h.5v-.3m16,9.2-1-.6h-.5v.3l1,.6h.5v-.3m40,23.1-25-14.4h-.5v.3l25,14.4h.5v-.3m15.9,9.3-1-.6h-.5v.3l1,.6h.5v-.3" transform="translate(-32.5 -36.62)"/></g></g><g class="cls-9"><g class="cls-10"><polyline points="428.3 438.88 416.2 431.88 415.7 431.88 415.7 432.18 427.7 439.18 428.3 439.18 428.3 438.88"/></g></g><g class="cls-9"><g class="cls-10"><polyline points="179.6 307.57 167.5 300.57 167 300.68 167 300.88 179.1 307.88 179.6 307.88 179.6 307.57"/></g></g><g class="cls-9"><g class="cls-10"><polyline points="195.6 316.77 194.6 316.27 194.1 316.27 194.1 316.57 195.1 317.07 195.5 317.07 195.6 316.77"/></g></g><g class="cls-9"><g class="cls-10"><path d="M268,376.5l-25-14.4h-.5v.3l25,14.4h.5v-.3m16,9.2-1-.6h-.5v.3l1,.6h.5v-.3m40,23.1-25-14.4h-.5v.3l25,14.4h.5v-.3m15.9,9.2-1-.6h-.5v.3l1,.6h.5V418m40,23.1-25-14.4h-.5v.3l25,14.4h.5v-.3m16,9.2-1-.6h-.5v.3l1,.6h.5v-.3m39.9,23.1L410.9,459h-.5v.3l24.9,14.4h.5v-.3m16,9.2-1-.6h-.5v.3l1,.6h.5v-.3" transform="translate(-32.5 -36.62)"/></g></g><g class="cls-9"><g class="cls-10"><polyline points="446.4 461.57 434.3 454.68 433.8 454.68 433.8 454.98 445.8 461.88 446.4 461.88 446.4 461.57"/></g></g><g class="cls-9"><g class="cls-10"><polyline points="140.2 297.18 128.1 290.27 127.6 290.27 127.7 290.48 139.7 297.48 140.2 297.48 140.2 297.18"/></g></g><g class="cls-9"><g class="cls-10"><polyline points="156.2 306.38 155.2 305.88 154.6 305.88 154.7 306.07 155.7 306.68 156.1 306.68 156.2 306.38"/></g></g><g class="cls-9"><g class="cls-10"><path d="M228.6,366.1l-25-14.4h-.5v.2l25,14.4h.5v-.2m16,9.2-1-.6h-.5l.1.3,1,.6h.4v-.3m40,23.1-25-14.4h-.5v.2l25,14.4h.4l.1-.2m15.9,9.2-1-.6H299v.2l1,.6h.5v-.2m40,23.1-25-14.4H315v.3L340,431h.4l.1-.3m16,9.2-1-.6H355v.2l1,.6h.5v-.2m40,23.1-25-14.4H371v.3l25,14.4h.4l.1-.3m15.9,9.2-1-.6h-.5v.3l1,.6h.5v-.3" transform="translate(-32.5 -36.62)"/></g></g><g class="cls-9"><g class="cls-10"><polyline points="407 451.18 394.9 444.27 394.4 444.27 394.5 444.57 406.5 451.48 407 451.48 407 451.18"/></g></g><g class="cls-9"><g class="cls-10"><polyline points="158.3 319.98 146.2 312.98 145.7 312.98 145.7 313.27 157.8 320.27 158.3 320.27 158.3 319.98"/></g></g><g class="cls-9"><g class="cls-10"><polyline points="174.3 329.18 173.3 328.57 172.8 328.57 172.8 328.88 173.8 329.48 174.2 329.48 174.3 329.18"/></g></g><g class="cls-9"><g class="cls-10"><path d="M246.7,388.9l-25-14.4h-.5v.2l25,14.4h.4l.1-.2m16,9.2-1-.6h-.5v.2l1,.6h.5v-.2m40,23.1-25-14.4h-.5v.3l25,14.4h.4l.1-.3m15.9,9.2-1-.6h-.5v.2l1,.6h.5v-.2m40,23.1-25-14.4h-.5v.3l25,14.4h.4l.1-.3m16,9.2-1-.6h-.5v.2l1,.6h.5v-.2m39.9,23.1-24.9-14.4h-.5v.3L414,486.1h.5v-.3m16,9.2-1-.6H429v.3l1,.6h.4l.1-.3" transform="translate(-32.5 -36.62)"/></g></g><g class="cls-9"><g class="cls-10"><polyline points="425.1 473.98 413 467.07 412.5 467.07 412.5 467.27 424.6 474.27 425.1 474.27 425.1 473.98"/></g></g><g class="cls-9"><g class="cls-10"><polyline points="118.9 309.57 106.9 302.57 106.3 302.57 106.4 302.88 118.4 309.77 118.9 309.88 118.9 309.57"/></g></g><g class="cls-9"><g class="cls-10"><polyline points="134.9 318.77 133.9 318.18 133.4 318.18 133.4 318.48 134.4 319.07 134.8 319.07 134.9 318.77"/></g></g><g class="cls-9"><g class="cls-10"><path d="M207.3,378.5l-25-14.4h-.5v.2l25,14.4h.5v-.2m16,9.2-1-.6h-.5l.1.3,1,.6h.4v-.3m40,23.1-25-14.4h-.5v.2l25,14.4h.4l.1-.2m15.9,9.2-1-.6h-.5v.2l1,.6h.5V420m40,23.1-25-14.4h-.5v.3l25,14.4h.4l.1-.3m16,9.2-1-.6h-.5v.2l1,.6h.5v-.2m40,23.1-25-14.4h-.5v.3l25,14.4h.4l.1-.3m15.9,9.2-1-.6h-.5v.3l1,.6h.5v-.3" transform="translate(-32.5 -36.62)"/></g></g><g class="cls-9"><g class="cls-10"><polyline points="385.7 463.57 373.7 456.68 373.1 456.68 373.2 456.88 385.2 463.88 385.7 463.88 385.7 463.57"/></g></g><g class="cls-9"><g class="cls-10"><polyline points="137 332.38 124.9 325.38 124.4 325.38 124.5 325.68 136.5 332.57 137 332.68 137 332.38"/></g></g><g class="cls-9"><g class="cls-10"><polyline points="153 341.57 152 340.98 151.5 340.98 151.5 341.27 152.5 341.88 152.9 341.88 153 341.57"/></g></g><g class="cls-9"><g class="cls-10"><path d="M225.4,401.3l-25-14.4h-.5v.2l25,14.4h.4l.1-.2m16,9.2-1-.6h-.5v.2l1,.6h.5v-.2m40,23.1-25-14.4h-.5v.3l25,14.4h.4l.1-.3m16,9.2-1-.6h-.5v.2l1,.6h.5v-.2m40,23.1-25-14.4h-.5v.3l25,14.4h.4l.1-.3m15.9,9.2-1-.6h-.5v.2l1,.6h.5v-.2m40,23-24.9-14.4h-.5v.3l24.9,14.4h.5v-.3m16,9.3-1-.6h-.5v.3l1,.6h.4l.1-.3" transform="translate(-32.5 -36.62)"/></g></g><g class="cls-9"><g class="cls-10"><polyline points="403.8 486.38 391.7 479.38 391.3 479.38 391.3 479.68 403.3 486.68 403.8 486.68 403.8 486.38"/></g></g><g class="cls-9"><g class="cls-10"><polyline points="97.6 321.88 85.6 314.98 85.1 314.98 85.1 315.27 97.1 322.18 97.6 322.18 97.6 321.88"/></g></g><g class="cls-9"><g class="cls-10"><polyline points="113.6 331.18 112.6 330.57 112.1 330.57 112.1 330.88 113.1 331.38 113.6 331.38 113.6 331.18"/></g></g><g class="cls-9"><g class="cls-10"><path d="M186,390.8l-25-14.4h-.4v.3l25,14.4h.5l-.1-.3m16.1,9.3-1-.6h-.5v.3l1,.6h.5v-.3m39.9,23-25-14.4h-.4v.3l25,14.4h.5l-.1-.3m16,9.3-1-.6h-.4v.3l1,.6h.5l-.1-.3m40,23L273,441h-.5v.3l25,14.4h.5v-.3m15.9,9.3-1-.6h-.4v.3l1,.6h.5l-.1-.3m40,23-25-14.4h-.5v.3l25,14.4h.5v-.3m16,9.3-1-.6h-.5v.3l1,.6h.5V497" transform="translate(-32.5 -36.62)"/></g></g><g class="cls-9"><g class="cls-10"><polyline points="364.4 475.98 352.4 468.98 351.9 468.98 351.9 469.27 363.9 476.18 364.4 476.18 364.4 475.98"/></g></g><g class="cls-9"><g class="cls-10"><polyline points="115.7 344.68 103.6 337.77 103.2 337.77 103.2 337.98 115.2 344.98 115.7 344.98 115.7 344.68"/></g></g><g class="cls-9"><g class="cls-10"><polyline points="131.7 353.98 130.7 353.38 130.2 353.38 130.2 353.68 131.2 354.18 131.7 354.18 131.7 353.98"/></g></g><g class="cls-9"><g class="cls-10"><path d="M204.1,413.6l-25-14.4h-.4v.3l25,14.4h.5l-.1-.3m16,9.2-1-.6h-.4v.3l1,.6h.5l-.1-.3m40,23.1-25-14.4h-.5v.3l25,14.4h.5v-.3m16,9.2-1-.6h-.4v.3l1,.6h.5l-.1-.3m40,23.1-25-14.4h-.5v.3l25,14.4h.5v-.3m15.9,9.3-1-.6h-.4v.3l1,.6h.5l-.1-.3m40,23-25-14.4h-.5v.3l24.9,14.4h.5l.1-.3m16,9.3-1-.6h-.5v.3l1,.6h.5v-.3" transform="translate(-32.5 -36.62)"/></g></g><g class="cls-9"><g class="cls-10"><polyline points="382.5 498.68 370.4 491.77 370 491.77 370 492.07 382 498.98 382.5 498.98 382.5 498.68"/></g></g><g class="cls-9"><g class="cls-10"><polyline points="76.3 334.27 64.3 327.38 63.8 327.27 63.8 327.57 75.8 334.57 76.3 334.57 76.3 334.27"/></g></g><g class="cls-9"><g class="cls-10"><polyline points="92.3 343.48 91.3 342.98 90.8 342.88 90.8 343.18 91.8 343.77 92.3 343.77 92.3 343.48"/></g></g><g class="cls-9"><g class="cls-10"><path d="M164.8,403.2l-25-14.4h-.4v.3l25,14.4h.5l-.1-.3m16,9.2-1-.6h-.5v.3l1,.6h.5v-.3m39.9,23.1-25-14.4h-.4v.3l25,14.4h.5l-.1-.3m16,9.2-1-.6h-.4v.3l1,.6h.5l-.1-.3m40,23.1-25-14.4h-.5v.3l25,14.4h.5v-.3m15.9,9.2-1-.6h-.4v.3l1,.6h.5l-.1-.3m40,23.1-25-14.4h-.5v.3l25,14.4h.5v-.3m16,9.2-1-.6h-.5v.3l1,.6h.5v-.3" transform="translate(-32.5 -36.62)"/></g></g><g class="cls-9"><g class="cls-10"><polyline points="343.1 488.27 331.1 481.38 330.6 481.38 330.6 481.68 342.6 488.57 343.1 488.57 343.1 488.27"/></g></g><g class="cls-9"><g class="cls-10"><polyline points="94.4 357.07 82.4 350.07 81.9 350.07 81.9 350.38 93.9 357.38 94.5 357.38 94.4 357.07"/></g></g><g class="cls-9"><g class="cls-10"><polyline points="110.4 366.27 109.4 365.77 108.9 365.68 108.9 365.98 109.9 366.57 110.4 366.57 110.4 366.27"/></g></g><g class="cls-9"><g class="cls-10"><path d="M182.9,426l-25-14.4h-.4v.3l25,14.4h.5l-.1-.3m15.9,9.2-1-.6h-.4v.3l1,.6h.5l-.1-.3m40,23.1-25-14.4h-.5v.3l25,14.4h.5v-.3m16,9.2-1-.6h-.4v.3l1,.6h.5l-.1-.3m40,23.1-25-14.4h-.5v.3l25,14.4h.5v-.3m15.9,9.2-1-.6h-.4v.3l1,.6h.5l-.1-.3m40,23.1-24.9-14.4h-.5v.3l24.9,14.4h.5v-.3m16,9.2-1-.6h-.5v.3l1,.6h.5v-.3" transform="translate(-32.5 -36.62)"/></g></g><g class="cls-9"><g class="cls-10"><polyline points="361.2 511.07 349.1 504.18 348.7 504.18 348.7 504.38 360.7 511.38 361.3 511.38 361.2 511.07"/></g></g><g class="cls-9"><g class="cls-10"><polyline points="55 346.68 43 339.68 42.5 339.68 42.5 339.98 54.5 346.98 55.1 346.88 55 346.68"/></g></g><g class="cls-9"><g class="cls-10"><polyline points="71 355.88 70 355.27 69.5 355.27 69.6 355.57 70.5 356.18 71 356.18 71 355.88"/></g></g><g class="cls-9"><g class="cls-10"><path d="M143.5,415.6l-25-14.4h-.4v.3l25,14.4h.5l-.1-.3m16,9.2-1-.6H158v.3l1,.6h.5v-.3m39.9,23.1-25-14.4H174v.3l25,14.4h.5l-.1-.3m16,9.2-1-.6H214v.3l1,.6h.5l-.1-.3m40,23.1-25-14.4h-.5v.3l25,14.4h.5v-.3m15.9,9.2-1-.6h-.4v.3l1,.6h.5l-.1-.3m40,23.1-25-14.4h-.5v.3l25,14.4h.5v-.3m16,9.2-1-.6h-.5v.3l1,.6h.5v-.3" transform="translate(-32.5 -36.62)"/></g></g><g class="cls-9"><g class="cls-10"><polyline points="321.8 500.68 309.8 493.77 309.3 493.68 309.3 493.98 321.3 500.98 321.9 500.98 321.8 500.68"/></g></g><g class="cls-9"><g class="cls-10"><polyline points="73.1 369.48 61.1 362.48 60.6 362.48 60.6 362.77 72.7 369.68 73.2 369.68 73.1 369.48"/></g></g><g class="cls-9"><g class="cls-10"><polyline points="89.1 378.68 88.1 378.07 87.7 378.07 87.7 378.38 88.7 378.98 89.1 378.98 89.1 378.68"/></g></g><g class="cls-9"><g class="cls-10"><path d="M161.6,438.4l-25-14.4h-.4v.3l25,14.4h.5l-.1-.3m15.9,9.2-1-.6h-.4v.3l1,.6h.5l-.1-.3m40,23.1-25-14.4H192v.3L217,471h.5v-.3m16,9.2-1-.6h-.4v.3l1,.6h.5l-.1-.3m40,23.1-25-14.4H248v.3l25,14.4h.5V503m16,9.2-1-.6H288v.3l1,.6h.5v-.3m39.9,23-24.9-14.4H304v.3l24.9,14.4h.5v-.3m16,9.3-1-.6h-.5v.3l1,.6h.5v-.3" transform="translate(-32.5 -36.62)"/></g></g><g class="cls-9"><g class="cls-10"><polyline points="339.9 523.48 327.9 516.48 327.4 516.48 327.4 516.77 339.5 523.77 340 523.77 339.9 523.48"/></g></g><g class="cls-9"><g class="cls-10"><polyline points="33.8 358.98 21.7 352.07 21.2 352.07 21.2 352.38 33.3 359.27 33.8 359.27 33.8 358.98"/></g></g><g class="cls-9"><g class="cls-10"><polyline points="49.8 368.27 48.8 367.68 48.3 367.68 48.3 367.98 49.3 368.57 49.7 368.48 49.8 368.27"/></g></g><g class="cls-9"><g class="cls-10"><path d="M122.2,427.9l-25-14.4h-.5v.3l25,14.4h.5v-.3m16,9.3-1-.6h-.5v.3l1,.6h.5v-.3m40,23-25-14.4h-.5v.3l25,14.4h.5v-.3m15.9,9.2-1-.6h-.5v.3l1,.6h.5v-.3m40,23.1-25-14.4h-.5v.3l25,14.4h.5v-.3m16,9.2-1-.6h-.5v.3l1,.6h.5v-.3m40,23.1-25-14.4h-.5v.3l25,14.4h.5v-.3M306,534l-1-.6h-.5v.3l1,.6h.5V534" transform="translate(-32.5 -36.62)"/></g></g><g class="cls-9"><g class="cls-10"><polyline points="300.6 513.08 288.5 506.07 288 506.07 288 506.38 300 513.38 300.6 513.38 300.6 513.08"/></g></g><g class="cls-9"><g class="cls-10"><polyline points="51.9 381.77 39.8 374.77 39.3 374.88 39.3 375.07 51.4 382.07 51.9 382.07 51.9 381.77"/></g></g><g class="cls-9"><g class="cls-10"><polyline points="67.9 390.98 66.9 390.48 66.4 390.48 66.4 390.68 67.4 391.27 67.8 391.27 67.9 390.98"/></g></g><g class="cls-9"><g class="cls-10"><path d="M140.3,450.7l-25-14.4h-.5v.2l25,14.4h.4l.1-.2m16,9.2-1-.6h-.5v.2l1,.6h.5v-.2m40,23.1-25-14.4h-.5v.3l25,14.4h.4l.1-.3m15.9,9.2-1-.6h-.5v.2l1,.6h.5v-.2m40,23.1-25-14.4h-.5v.3l25,14.4h.4l.1-.3m16,9.2-1-.6h-.5v.2l1,.6h.5v-.2m39.9,23.1-24.9-14.4h-.5v.3l24.9,14.4h.5v-.3m16,9.2-1-.6h-.5v.3l1,.6h.4l.1-.3" transform="translate(-32.5 -36.62)"/></g></g><g class="cls-9"><g class="cls-10"><polyline points="318.7 535.77 306.6 528.88 306.1 528.88 306.1 529.17 318.2 536.08 318.7 536.08 318.7 535.77"/></g></g><g class="cls-9"><g class="cls-10"><polyline points="12.5 371.38 0.5 364.48 0 364.48 0 364.68 12 371.68 12.5 371.68 12.5 371.38"/></g></g><g class="cls-9"><g class="cls-10"><polyline points="28.5 380.57 27.5 380.07 27 380.07 27 380.27 28 380.88 28.4 380.88 28.5 380.57"/></g></g><g class="cls-9"><g class="cls-10"><path d="M100.9,440.3l-25-14.4h-.5v.2l25,14.4h.5v-.2m16,9.2-1-.6h-.5l.1.3,1,.6h.4v-.3m40,23.1-25-14.4h-.5v.2l25,14.4h.4l.1-.2m16,9.2-1-.6h-.5v.2l1,.6h.5v-.2m39.9,23.1-25-14.4h-.5v.3l25,14.4h.4l.1-.3m16,9.2-1-.6h-.5v.2l1,.6h.5v-.2m40,23.1-25-14.4h-.5l.1.3,25,14.4h.4v-.3m16,9.2-1-.6h-.5v.3l1,.6h.5v-.3" transform="translate(-32.5 -36.62)"/></g></g><g class="cls-9"><g class="cls-10"><polyline points="279.3 525.38 267.3 518.48 266.7 518.48 266.8 518.77 278.8 525.67 279.3 525.67 279.3 525.38"/></g></g><g class="cls-9"><g class="cls-10"><polyline points="30.6 394.18 18.5 387.18 18.1 387.18 18.1 387.48 30.1 394.48 30.6 394.48 30.6 394.18"/></g></g><g class="cls-9"><g class="cls-10"><polyline points="46.6 403.38 45.6 402.77 45.1 402.77 45.1 403.07 46.1 403.68 46.6 403.68 46.6 403.38"/></g></g><g class="cls-9"><g class="cls-10"><path d="M119.1,463.1l-25-14.4h-.5v.2l25,14.4h.4l.1-.2m15.9,9.2-1-.6h-.5v.2l1,.6h.5v-.2m40,23.1L150,481h-.5v.3l25,14.4h.4l.1-.3m16,9.2-1-.6h-.5v.2l1,.6h.5v-.2m39.9,23.1-25-14.4h-.5v.3l25,14.4h.4l.1-.3m16,9.2-1-.6h-.5v.2l1,.6h.5v-.2m40,23.1L262,545.6h-.5v.3l24.9,14.4h.5V560m16,9.2-1-.6h-.5v.3l1,.6h.4l.1-.3" transform="translate(-32.5 -36.62)"/></g></g><g class="cls-9"><g class="cls-10"><polyline points="297.4 548.17 285.3 541.17 284.9 541.27 284.9 541.48 296.9 548.48 297.4 548.48 297.4 548.17"/></g></g><path id="SVGID" class="cls-4" d="M355.4,531.2c-1.8,0-3.7,0-5.5-.1H349a21.75,21.75,0,0,1-2.6-.1h-.5c-1,0-2-.1-3-.1a4.1,4.1,0,0,1-1.1-.1,20.9,20.9,0,0,0-2.5-.1h-.5c-1-.1-2.1-.1-3.1-.2h-.5c-2.9-.2-5.7-.5-8.5-.8h-.4l-2.7-.3c-.3,0-.7-.1-1-.1a20.24,20.24,0,0,1-2.6-.4h-.1c-.2,0-.4-.1-.6-.1-1.7-.2-3.3-.5-5-.8H314c-.9-.2-1.9-.3-2.8-.5a4.33,4.33,0,0,1-.5-.1c-2.8-.5-5.5-1.1-8.2-1.7-.3-.1-.6-.1-1-.2-1.5-.4-3-.7-4.5-1.1-.1,0-.2-.1-.4-.1-2.8-.7-5.5-1.5-8.3-2.3-.3-.1-.5-.1-.8-.2-1.5-.5-3.1-.9-4.6-1.4-.2-.1-.3-.1-.5-.2-1.6-.5-3.2-1.1-4.8-1.7a1.45,1.45,0,0,0-.7-.2,158.22,158.22,0,0,1-24.6-11.4q-44.1-25.5-88.3-51h0a115.24,115.24,0,0,1-12.9-8.5c-19.9-15-29.8-33-29.8-51,0-20.4,12.8-40.9,38.4-56.9,1.4-.9,2.8-1.7,4.2-2.5,28.4-16.4,65.7-24.6,103-24.6s74.6,8.2,103,24.6q44.1,25.5,88.3,51c28.4,16.4,42.7,37.9,42.7,59.5s-14.2,43-42.7,59.5c-28.3,16-65.6,24.2-102.8,24.2" transform="translate(-32.5 -36.62)"/><path class="cls-11" d="M353,421.8c-1.8,0-3.7,0-5.5-.1h-.9a21.75,21.75,0,0,1-2.6-.1h-.5c-1,0-2-.1-3-.1a4.1,4.1,0,0,1-1.1-.1,20.9,20.9,0,0,0-2.5-.1h-.5c-1-.1-2.1-.1-3.1-.2h-.5c-2.9-.2-5.7-.5-8.5-.8h-.4l-2.7-.3c-.3,0-.7-.1-1-.1a20.24,20.24,0,0,1-2.6-.4h-.1c-.2,0-.4-.1-.6-.1-1.7-.2-3.3-.5-5-.8h-.3c-.9-.2-1.9-.3-2.8-.5a4.33,4.33,0,0,1-.5-.1c-2.8-.5-5.5-1.1-8.2-1.7-.3-.1-.6-.1-1-.2-1.5-.4-3-.7-4.5-1.1-.1,0-.2-.1-.4-.1-2.8-.7-5.5-1.5-8.3-2.3-.3-.1-.5-.1-.8-.2-1.5-.5-3.1-.9-4.6-1.4-.2-.1-.3-.1-.5-.2-1.6-.5-3.2-1.1-4.8-1.7a1.45,1.45,0,0,0-.7-.2,158.22,158.22,0,0,1-24.6-11.4q-44.1-25.5-88.3-51h0a115.24,115.24,0,0,1-12.9-8.5c-19.9-15-29.8-33-29.8-51,0-20.4,12.8-40.9,38.4-56.9,1.4-.9,2.8-1.7,4.2-2.5,28.4-16.4,65.7-24.6,103-24.6s74.6,8.2,103,24.6q44.1,25.5,88.3,51c28.4,16.4,42.7,37.9,42.7,59.5s-14.2,43-42.7,59.5c-28.3,16-65.6,24.2-102.8,24.2" transform="translate(-32.5 -36.62)"/><g class="cls-12"><g class="cls-13"><polyline points="246.6 45.98 234.5 39.08 234 39.08 234.1 39.38 246.1 46.27 246.6 46.27 246.6 45.98"/></g></g><g class="cls-12"><g class="cls-13"><polyline points="262.6 55.27 261.6 54.67 261 54.67 261.1 54.98 262.1 55.58 262.5 55.58 262.6 55.27"/></g></g><g class="cls-12"><g class="cls-13"><path d="M335,114.9l-25-14.4h-.5v.2l25,14.4h.5v-.2m16,9.3-1-.6h-.5v.3l1,.6h.4l.1-.3m40,23.1-25-14.4h-.5v.2l25,14.4h.4l.1-.2m15.9,9.2-1-.6h-.5v.2l1,.6h.5v-.2m40,23.1-25-14.4h-.5v.3l25,14.4h.4l.1-.3m16,9.2-1-.6h-.5v.2l1,.6h.5v-.2m40,23.1-25-14.4h-.5v.3l25,14.4h.4l.1-.3m15.9,9.2-1-.6h-.5v.3l1,.6h.5v-.3" transform="translate(-32.5 -36.62)"/></g></g><g class="cls-12"><g class="cls-13"><polyline points="513.3 200.07 501.3 193.07 500.8 193.07 500.9 193.38 512.9 200.38 513.3 200.38 513.3 200.07"/></g></g><g class="cls-12"><g class="cls-13"><polyline points="264.7 68.78 252.6 61.88 252.1 61.88 252.1 62.08 264.2 69.08 264.7 69.08 264.7 68.78"/></g></g><g class="cls-12"><g class="cls-13"><polyline points="280.7 78.08 279.7 77.47 279.2 77.47 279.2 77.78 280.2 78.28 280.6 78.28 280.7 78.08"/></g></g><g class="cls-12"><g class="cls-13"><path d="M353.1,137.7l-25-14.4h-.5v.2l25,14.4h.4l.1-.2m16,9.3-1-.6h-.5v.2l1,.6h.5V147m40,23-25-14.4h-.5v.3l25,14.4h.4l.1-.3m15.9,9.3-1-.6h-.5v.2l1,.6h.5v-.2m40,23-25-14.4h-.5v.3l25,14.4h.4l.1-.3m16,9.3-1-.6h-.5v.2l1,.6h.5v-.2m39.9,23L496,220.2h-.5v.3l24.9,14.4h.5v-.3m16,9.3-1-.6h-.5v.3l1,.6h.4l.1-.3" transform="translate(-32.5 -36.62)"/></g></g><g class="cls-12"><g class="cls-13"><polyline points="531.5 222.88 519.4 215.88 518.9 215.88 518.9 216.18 531 223.07 531.5 223.18 531.5 222.88"/></g></g><g class="cls-12"><g class="cls-13"><polyline points="225.3 58.38 213.3 51.48 212.7 51.48 212.8 51.77 224.8 58.67 225.3 58.67 225.3 58.38"/></g></g><g class="cls-12"><g class="cls-13"><polyline points="241.3 67.67 240.3 67.08 239.8 67.08 239.8 67.38 240.8 67.88 241.2 67.88 241.3 67.67"/></g></g><g class="cls-12"><g class="cls-13"><path d="M313.7,127.3l-25-14.4h-.5v.2l25,14.4h.5v-.2m16,9.3-1-.6h-.5v.3l1,.6h.4l.1-.3m40,23-25-14.4h-.5v.2l25,14.4h.4l.1-.2m15.9,9.2-1-.6h-.5v.2l1,.6h.5v-.2m40,23.1-25-14.4h-.5v.3l25,14.4h.4l.1-.3m16,9.2-1-.6h-.5v.2l1,.6h.5v-.2m40,23.1-25-14.4h-.5v.3l25,14.4h.4l.1-.3m15.9,9.2-1-.6H496v.3l1,.6h.5v-.3" transform="translate(-32.5 -36.62)"/></g></g><g class="cls-12"><g class="cls-13"><polyline points="492.1 212.38 480 205.47 479.5 205.47 479.6 205.78 491.6 212.68 492.1 212.68 492.1 212.38"/></g></g><g class="cls-12"><g class="cls-13"><polyline points="243.4 81.17 231.3 74.17 230.9 74.17 230.9 74.47 242.9 81.47 243.4 81.47 243.4 81.17"/></g></g><g class="cls-12"><g class="cls-13"><polyline points="259.4 90.38 258.4 89.88 257.9 89.78 257.9 90.08 258.9 90.67 259.4 90.67 259.4 90.38"/></g></g><g class="cls-12"><g class="cls-13"><path d="M331.8,150.1l-25-14.4h-.4v.3l25,14.4h.5l-.1-.3m16,9.2-1-.6h-.4v.3l1,.6h.5l-.1-.3m40,23.1-25-14.4h-.5v.3l25,14.4h.5v-.3m16,9.2-1-.6h-.4v.3l1,.6h.5l-.1-.3m39.9,23.1-25-14.4h-.5v.3l25,14.4h.5v-.3m16,9.2-1-.6h-.4v.3l1,.6h.5l-.1-.3M499.6,247l-24.9-14.4h-.5v.3l24.9,14.4h.5V247m16.1,9.2-1-.6h-.5v.3l1,.6h.5v-.3" transform="translate(-32.5 -36.62)"/></g></g><g class="cls-12"><g class="cls-13"><polyline points="510.2 235.18 498.1 228.28 497.7 228.28 497.7 228.57 509.7 235.47 510.2 235.47 510.2 235.18"/></g></g><g class="cls-12"><g class="cls-13"><polyline points="204 70.78 192 63.77 191.5 63.77 191.5 64.08 203.5 71.08 204 71.08 204 70.78"/></g></g><g class="cls-12"><g class="cls-13"><polyline points="220 79.97 219 79.38 218.5 79.38 218.5 79.67 219.5 80.28 220 80.28 220 79.97"/></g></g><g class="cls-12"><g class="cls-13"><path d="M292.4,139.7l-25-14.4H267v.3L292,140h.5l-.1-.3m16,9.2-1-.6h-.5v.3l1,.6h.5v-.3m40,23.1-25-14.4H323v.3l25,14.4h.5l-.1-.3m16,9.2-1-.6H363v.3l1,.6h.5l-.1-.3m39.9,23.1-25-14.4h-.5v.3l25,14.4h.5v-.3m16,9.2-1-.6h-.4v.3l1,.6h.5l-.1-.3m40,23.1-25-14.4h-.5v.3l25,14.4h.5v-.3m16,9.2-1-.6h-.5v.3l1,.6h.5v-.3" transform="translate(-32.5 -36.62)"/></g></g><g class="cls-12"><g class="cls-13"><polyline points="470.8 224.78 458.8 217.88 458.3 217.88 458.3 218.18 470.3 225.07 470.8 225.07 470.8 224.78"/></g></g><g class="cls-12"><g class="cls-13"><polyline points="222.1 93.58 210 86.58 209.6 86.58 209.6 86.88 221.6 93.78 222.1 93.78 222.1 93.58"/></g></g><g class="cls-12"><g class="cls-13"><polyline points="238.1 102.78 237.1 102.17 236.6 102.17 236.6 102.47 237.6 103.08 238.1 103.08 238.1 102.78"/></g></g><g class="cls-12"><g class="cls-13"><path d="M310.5,162.5l-25-14.4h-.4v.3l25,14.4h.5l-.1-.3m16,9.2-1-.6h-.4v.3l1,.6h.5l-.1-.3m40,23.1-25-14.4H341v.3l25,14.4h.5v-.3m16,9.2-1-.6H381v.3l1,.6h.5V204m40,23.1-25-14.4H397v.3l25,14.4h.5v-.3m15.9,9.2-1-.6H437v.3l1,.6h.5l-.1-.3m40,23.1-25-14.4h-.5v.3l24.9,14.4h.5l.1-.3m16,9.2-1-.6h-.5v.3l1,.6h.5v-.3" transform="translate(-32.5 -36.62)"/></g></g><g class="cls-12"><g class="cls-13"><polyline points="488.9 247.57 476.8 240.57 476.4 240.57 476.4 240.88 488.4 247.88 488.9 247.88 488.9 247.57"/></g></g><g class="cls-12"><g class="cls-13"><polyline points="182.7 83.17 170.7 76.17 170.2 76.17 170.2 76.47 182.2 83.38 182.7 83.38 182.7 83.17"/></g></g><g class="cls-12"><g class="cls-13"><polyline points="198.7 92.38 197.7 91.78 197.2 91.78 197.2 92.08 198.2 92.67 198.7 92.58 198.7 92.38"/></g></g><g class="cls-12"><g class="cls-13"><path d="M271.1,152.1l-25-14.4h-.4v.3l25,14.4h.5l-.1-.3m16,9.2-1-.6h-.5v.3l1,.6h.5v-.3m40,23.1-25-14.4h-.4v.3l25,14.4h.5l-.1-.3m16,9.2-1-.6h-.4v.3l1,.6h.5l-.1-.3M383,216.7l-25-14.4h-.5v.3l25,14.4h.5v-.3m16,9.2-1-.6h-.4v.3l1,.6h.5l-.1-.3M439,249l-25-14.4h-.5v.3l25,14.4h.5V249m16,9.2-1-.6h-.5v.3l1,.6h.5v-.3" transform="translate(-32.5 -36.62)"/></g></g><g class="cls-12"><g class="cls-13"><polyline points="449.5 237.18 437.5 230.28 437 230.18 437 230.47 449 237.47 449.5 237.47 449.5 237.18"/></g></g><g class="cls-12"><g class="cls-13"><polyline points="200.8 105.88 188.7 98.97 188.3 98.97 188.3 99.28 200.3 106.17 200.9 106.17 200.8 105.88"/></g></g><g class="cls-12"><g class="cls-13"><polyline points="216.8 115.17 215.8 114.58 215.3 114.58 215.3 114.88 216.3 115.47 216.8 115.38 216.8 115.17"/></g></g><g class="cls-12"><g class="cls-13"><path d="M289.3,174.8l-25-14.4h-.4v.3l25,14.4h.5l-.1-.3m15.9,9.3-1-.6h-.4v.3l1,.6h.5l-.1-.3m40,23.1-25-14.4h-.5v.3l25,14.4h.5v-.3m16,9.2-1-.6h-.4v.3l1,.6h.5l-.1-.3m40,23.1-25-14.4h-.5v.3l25,14.4h.5v-.3m15.9,9.2-1-.6h-.4v.3l1,.6h.5l-.1-.3m40,23-24.9-14.4h-.5v.3L456.6,272h.5v-.3m16,9.3-1-.6h-.5v.3l1,.6h.5V281" transform="translate(-32.5 -36.62)"/></g></g><g class="cls-12"><g class="cls-13"><polyline points="467.6 259.98 455.5 252.97 455.1 252.97 455.1 253.28 467.1 260.27 467.6 260.27 467.6 259.98"/></g></g><g class="cls-12"><g class="cls-13"><polyline points="161.4 95.47 149.4 88.58 148.9 88.58 148.9 88.88 160.9 95.78 161.4 95.78 161.4 95.47"/></g></g><g class="cls-12"><g class="cls-13"><polyline points="177.5 104.67 176.5 104.17 175.9 104.17 175.9 104.47 176.9 104.97 177.4 104.97 177.5 104.67"/></g></g><g class="cls-12"><g class="cls-13"><path d="M249.9,164.4l-25-14.4h-.5v.3l25,14.4h.5v-.3m16,9.2-1-.6h-.5v.3l1,.6h.5v-.3m40,23.1-25-14.4h-.5v.3l25,14.4h.5v-.3m15.9,9.2-1-.6h-.5v.3l1,.6h.5v-.3m40,23.1-25-14.4h-.5v.3l25,14.4h.5V229m16,9.2-1-.6h-.5v.3l1,.6h.5v-.3m40,23.1-25-14.4h-.5v.3l25,14.4h.5v-.3m15.9,9.2-1-.6h-.5v.3l1,.6h.5v-.3" transform="translate(-32.5 -36.62)"/></g></g><g class="cls-12"><g class="cls-13"><polyline points="428.3 249.47 416.2 242.57 415.7 242.57 415.7 242.88 427.7 249.78 428.3 249.78 428.3 249.47"/></g></g><g class="cls-12"><g class="cls-13"><polyline points="179.6 118.28 167.5 111.28 167 111.38 167 111.58 179.1 118.58 179.6 118.58 179.6 118.28"/></g></g><g class="cls-12"><g class="cls-13"><polyline points="195.6 127.47 194.6 126.97 194.1 126.97 194.1 127.28 195.1 127.78 195.5 127.78 195.6 127.47"/></g></g><g class="cls-12"><g class="cls-13"><path d="M268,187.2l-25-14.4h-.5v.3l25,14.4h.5v-.3m16,9.2-1-.6h-.5v.3l1,.6h.5v-.3m40,23.1-25-14.4h-.5v.3l25,14.4h.5v-.3m15.9,9.2-1-.6h-.5v.3l1,.6h.5v-.3m40,23.1-25-14.4h-.5v.3l25,14.4h.5v-.3m16,9.2-1-.6h-.5v.3l1,.6h.5V261m39.9,23.1-24.9-14.4h-.5v.3l24.9,14.4h.5v-.3m16,9.2-1-.6h-.5v.3l1,.6h.5v-.3" transform="translate(-32.5 -36.62)"/></g></g><g class="cls-12"><g class="cls-13"><polyline points="446.4 272.27 434.3 265.38 433.8 265.38 433.8 265.68 445.8 272.57 446.4 272.57 446.4 272.27"/></g></g><g class="cls-12"><g class="cls-13"><polyline points="140.2 107.88 128.1 100.88 127.6 100.88 127.7 101.17 139.7 108.08 140.2 108.17 140.2 107.88"/></g></g><g class="cls-12"><g class="cls-13"><polyline points="156.2 117.08 155.2 116.47 154.6 116.47 154.7 116.78 155.7 117.38 156.1 117.38 156.2 117.08"/></g></g><g class="cls-12"><g class="cls-13"><path d="M228.6,176.8l-25-14.4h-.5v.2l25,14.4h.5v-.2m16,9.2-1-.6h-.5l.1.3,1,.6h.4V186m40,23.1-25-14.4h-.5v.2l25,14.4h.4l.1-.2m15.9,9.2-1-.6H299v.2l1,.6h.5v-.2m40,23.1-25-14.4H315v.3l25,14.4h.4l.1-.3m16,9.2-1-.6H355v.2l1,.6h.5v-.2m40,23.1-25-14.4H371v.3L396,274h.4l.1-.3m15.9,9.2-1-.6h-.5v.3l1,.6h.5v-.3" transform="translate(-32.5 -36.62)"/></g></g><g class="cls-12"><g class="cls-13"><polyline points="407 261.88 394.9 254.97 394.4 254.97 394.5 255.18 406.5 262.18 407 262.18 407 261.88"/></g></g><g class="cls-12"><g class="cls-13"><polyline points="158.3 130.68 146.2 123.67 145.7 123.67 145.7 123.97 157.8 130.88 158.3 130.97 158.3 130.68"/></g></g><g class="cls-12"><g class="cls-13"><polyline points="174.3 139.88 173.3 139.28 172.8 139.28 172.8 139.57 173.8 140.18 174.2 140.18 174.3 139.88"/></g></g><g class="cls-12"><g class="cls-13"><path d="M246.7,199.6l-25-14.4h-.5v.2l25,14.4h.4l.1-.2m16,9.2-1-.6h-.5v.2l1,.6h.5v-.2m40,23.1-25-14.4h-.5v.3l25,14.4h.4l.1-.3m15.9,9.2-1-.6h-.5v.2l1,.6h.5v-.2m40,23.1-25-14.4h-.5v.3l25,14.4h.4l.1-.3m16,9.2-1-.6h-.5v.2l1,.6h.5v-.2m39.9,23.1-24.9-14.4h-.5v.3L414,296.8h.5v-.3m16,9.2-1-.6H429v.3l1,.6h.4l.1-.3" transform="translate(-32.5 -36.62)"/></g></g><g class="cls-12"><g class="cls-13"><polyline points="425.1 284.68 413 277.68 412.5 277.77 412.5 277.98 424.6 284.98 425.1 284.98 425.1 284.68"/></g></g><g class="cls-12"><g class="cls-13"><polyline points="118.9 120.17 106.9 113.28 106.3 113.28 106.4 113.58 118.4 120.47 118.9 120.47 118.9 120.17"/></g></g><g class="cls-12"><g class="cls-13"><polyline points="134.9 129.47 133.9 128.88 133.4 128.88 133.4 129.18 134.4 129.78 134.8 129.78 134.9 129.47"/></g></g><g class="cls-12"><g class="cls-13"><path d="M207.3,189.1l-25-14.4h-.5v.2l25,14.4h.5v-.2m16,9.3-1-.6h-.5l.1.3,1,.6h.4v-.3m40,23.1-25-14.4h-.5v.2l25,14.4h.4l.1-.2m15.9,9.2-1-.6h-.5v.2l1,.6h.5v-.2m40,23.1-25-14.4h-.5v.3l25,14.4h.4l.1-.3m16,9.2-1-.6h-.5v.2l1,.6h.5V263m40,23.1-25-14.4h-.5v.3l25,14.4h.4l.1-.3m15.9,9.2-1-.6h-.5v.3l1,.6h.5v-.3" transform="translate(-32.5 -36.62)"/></g></g><g class="cls-12"><g class="cls-13"><polyline points="385.7 274.27 373.7 267.27 373.1 267.27 373.2 267.57 385.2 274.57 385.7 274.57 385.7 274.27"/></g></g><g class="cls-12"><g class="cls-13"><polyline points="137 142.97 124.9 136.07 124.4 136.07 124.5 136.28 136.5 143.28 137 143.28 137 142.97"/></g></g><g class="cls-12"><g class="cls-13"><polyline points="153 152.28 152 151.68 151.5 151.68 151.5 151.97 152.5 152.47 152.9 152.47 153 152.28"/></g></g><g class="cls-12"><g class="cls-13"><path d="M225.4,211.9l-25-14.4h-.5v.2l25,14.4h.4l.1-.2m16,9.3-1-.6h-.5v.2l1,.6h.5v-.2m40,23-25-14.4h-.5v.3l25,14.4h.4l.1-.3m16,9.3-1-.6h-.5v.2l1,.6h.5v-.2m40,23-25-14.4h-.5v.3l25,14.4h.4l.1-.3m15.9,9.3-1-.6h-.5v.2l1,.6h.5v-.2m40,23-24.9-14.4h-.5v.3l24.9,14.4h.5v-.3m16,9.3-1-.6h-.5v.3l1,.6h.4l.1-.3" transform="translate(-32.5 -36.62)"/></g></g><g class="cls-12"><g class="cls-13"><polyline points="403.8 297.07 391.7 290.07 391.3 290.07 391.3 290.38 403.3 297.27 403.8 297.38 403.8 297.07"/></g></g><g class="cls-12"><g class="cls-13"><polyline points="97.6 132.57 85.6 125.67 85.1 125.67 85.1 125.97 97.1 132.88 97.6 132.88 97.6 132.57"/></g></g><g class="cls-12"><g class="cls-13"><polyline points="113.6 141.88 112.6 141.28 112.1 141.28 112.1 141.57 113.1 142.07 113.6 142.07 113.6 141.88"/></g></g><g class="cls-12"><g class="cls-13"><path d="M186,201.5l-25-14.4h-.4v.3l25,14.4h.5l-.1-.3m16.1,9.3-1-.6h-.5v.3l1,.6h.5v-.3m39.9,23-25-14.4h-.4v.3l25,14.4h.5l-.1-.3m16,9.2-1-.6h-.4v.3l1,.6h.5l-.1-.3m40,23.1-25-14.4h-.5v.3l25,14.4h.5v-.3m15.9,9.2-1-.6h-.4v.3l1,.6h.5l-.1-.3m40,23.1-25-14.4h-.5v.3l25,14.4h.5v-.3m16,9.2-1-.6h-.5v.3l1,.6h.5v-.3" transform="translate(-32.5 -36.62)"/></g></g><g class="cls-12"><g class="cls-13"><polyline points="364.4 286.57 352.4 279.68 351.9 279.68 351.9 279.98 363.9 286.88 364.4 286.88 364.4 286.57"/></g></g><g class="cls-12"><g class="cls-13"><polyline points="115.7 155.38 103.6 148.38 103.2 148.38 103.2 148.68 115.2 155.68 115.7 155.68 115.7 155.38"/></g></g><g class="cls-12"><g class="cls-13"><polyline points="131.7 164.57 130.7 164.07 130.2 163.97 130.2 164.28 131.2 164.88 131.7 164.88 131.7 164.57"/></g></g><g class="cls-12"><g class="cls-13"><path d="M204.1,224.3l-25-14.4h-.4v.3l25,14.4h.5l-.1-.3m16,9.2-1-.6h-.4v.3l1,.6h.5l-.1-.3m40,23.1-25-14.4h-.5v.3l25,14.4h.5v-.3m16,9.2-1-.6h-.4v.3l1,.6h.5l-.1-.3m40,23.1-25-14.4h-.5v.3l25,14.4h.5v-.3m15.9,9.2-1-.6h-.4v.3l1,.6h.5l-.1-.3m40,23.1-25-14.4h-.5v.3l24.9,14.4h.5l.1-.3m16,9.2-1-.6h-.5v.3l1,.6h.5v-.3" transform="translate(-32.5 -36.62)"/></g></g><g class="cls-12"><g class="cls-13"><polyline points="382.5 309.38 370.4 302.48 370 302.48 370 302.77 382 309.68 382.5 309.68 382.5 309.38"/></g></g><g class="cls-12"><g class="cls-13"><polyline points="76.3 144.97 64.3 137.97 63.8 137.97 63.8 138.28 75.8 145.28 76.3 145.28 76.3 144.97"/></g></g><g class="cls-12"><g class="cls-13"><polyline points="92.3 154.18 91.3 153.68 90.8 153.57 90.8 153.88 91.8 154.47 92.3 154.47 92.3 154.18"/></g></g><g class="cls-12"><g class="cls-13"><path d="M164.8,213.9l-25-14.4h-.4v.3l25,14.4h.5l-.1-.3m16,9.2-1-.6h-.5v.3l1,.6h.5v-.3m39.9,23.1-25-14.4h-.4v.3l25,14.4h.5l-.1-.3m16,9.2-1-.6h-.4v.3l1,.6h.5l-.1-.3m40,23.1-25-14.4h-.5v.3l25,14.4h.5v-.3m15.9,9.2-1-.6h-.4v.3l1,.6h.5l-.1-.3m40,23.1-25-14.4h-.5v.3l25,14.4h.5v-.3m16,9.2-1-.6h-.5v.3l1,.6h.5V320" transform="translate(-32.5 -36.62)"/></g></g><g class="cls-12"><g class="cls-13"><polyline points="343.1 298.98 331.1 292.07 330.6 292.07 330.6 292.38 342.6 299.27 343.1 299.27 343.1 298.98"/></g></g><g class="cls-12"><g class="cls-13"><polyline points="94.4 167.78 82.4 160.78 81.9 160.78 81.9 161.07 93.9 168.07 94.5 168.07 94.4 167.78"/></g></g><g class="cls-12"><g class="cls-13"><polyline points="110.4 176.97 109.4 176.38 108.9 176.38 108.9 176.68 109.9 177.28 110.4 177.28 110.4 176.97"/></g></g><g class="cls-12"><g class="cls-13"><path d="M182.9,236.7l-25-14.4h-.4v.3l25,14.4h.5l-.1-.3m15.9,9.2-1-.6h-.4v.3l1,.6h.5l-.1-.3m40,23.1-25-14.4h-.5v.3l25,14.4h.5V269m16,9.2-1-.6h-.4v.3l1,.6h.5l-.1-.3m40,23.1-25-14.4h-.5v.3l25,14.4h.5v-.3m15.9,9.2-1-.6h-.4v.3l1,.6h.5l-.1-.3m40,23.1-24.9-14.4h-.5v.3l24.9,14.4h.5v-.3m16,9.2-1-.6h-.5v.3l1,.6h.5v-.3" transform="translate(-32.5 -36.62)"/></g></g><g class="cls-12"><g class="cls-13"><polyline points="361.2 321.77 349.1 314.77 348.7 314.77 348.7 315.07 360.7 322.07 361.3 322.07 361.2 321.77"/></g></g><g class="cls-12"><g class="cls-13"><polyline points="55 157.38 43 150.38 42.5 150.38 42.5 150.68 54.5 157.57 55.1 157.57 55 157.38"/></g></g><g class="cls-12"><g class="cls-13"><polyline points="71 166.57 70 165.97 69.5 165.97 69.6 166.28 70.5 166.88 71 166.78 71 166.57"/></g></g><g class="cls-12"><g class="cls-13"><path d="M143.5,226.3l-25-14.4h-.4v.3l25,14.4h.5l-.1-.3m16,9.2-1-.6H158v.3l1,.6h.5v-.3m39.9,23.1-25-14.4H174v.3l25,14.4h.5l-.1-.3m16,9.2-1-.6H214v.3l1,.6h.5l-.1-.3m40,23.1-25-14.4h-.5v.3l25,14.4h.5v-.3m15.9,9.2-1-.6h-.4v.3l1,.6h.5l-.1-.3m40,23.1-25-14.4h-.5v.3l25,14.4h.5v-.3m16,9.2-1-.6h-.5v.3l1,.6h.5v-.3" transform="translate(-32.5 -36.62)"/></g></g><g class="cls-12"><g class="cls-13"><polyline points="321.8 311.38 309.8 304.48 309.3 304.38 309.3 304.68 321.3 311.68 321.9 311.68 321.8 311.38"/></g></g><g class="cls-12"><g class="cls-13"><polyline points="73.1 180.07 61.1 173.18 60.6 173.18 60.6 173.47 72.7 180.38 73.2 180.38 73.1 180.07"/></g></g><g class="cls-12"><g class="cls-13"><polyline points="89.1 189.38 88.1 188.78 87.7 188.78 87.7 189.07 88.7 189.68 89.1 189.57 89.1 189.38"/></g></g><g class="cls-12"><g class="cls-13"><path d="M161.6,249l-25-14.4h-.4v.3l25,14.4h.5l-.1-.3m15.9,9.3-1-.6h-.4v.3l1,.6h.5l-.1-.3m40,23.1-25-14.4H192v.3l25,14.4h.5v-.3m16,9.2-1-.6h-.4v.3l1,.6h.5l-.1-.3m40,23.1-25-14.4H248v.3L273,314h.5v-.3m16,9.2-1-.6H288v.3l1,.6h.5v-.3m39.9,23-24.9-14.4H304v.3l24.9,14.4h.5v-.3m16,9.3-1-.6h-.5v.3l1,.6h.5v-.3" transform="translate(-32.5 -36.62)"/></g></g><g class="cls-12"><g class="cls-13"><polyline points="339.9 334.18 327.9 327.18 327.4 327.18 327.4 327.48 339.5 334.48 340 334.48 339.9 334.18"/></g></g><g class="cls-12"><g class="cls-13"><polyline points="33.8 169.68 21.7 162.78 21.2 162.78 21.2 163.07 33.3 169.97 33.8 169.97 33.8 169.68"/></g></g><g class="cls-12"><g class="cls-13"><polyline points="49.8 178.88 48.8 178.38 48.3 178.38 48.3 178.68 49.3 179.18 49.7 179.18 49.8 178.88"/></g></g><g class="cls-12"><g class="cls-13"><path d="M122.2,238.6l-25-14.4h-.5v.3l25,14.4h.5v-.3m16,9.2-1-.6h-.5v.3l1,.6h.5v-.3m40,23.1-25-14.4h-.5v.3l25,14.4h.5v-.3m15.9,9.2-1-.6h-.5v.3l1,.6h.5v-.3m40,23.1-25-14.4h-.5v.3l25,14.4h.5v-.3m16,9.2-1-.6h-.5v.3l1,.6h.5v-.3m40,23.1-25-14.4h-.5v.3l25,14.4h.5v-.3m15.9,9.2-1-.6h-.5v.3l1,.6h.5v-.3" transform="translate(-32.5 -36.62)"/></g></g><g class="cls-12"><g class="cls-13"><polyline points="300.6 323.68 288.5 316.77 288 316.77 288 317.07 300 323.98 300.6 323.98 300.6 323.68"/></g></g><g class="cls-12"><g class="cls-13"><polyline points="51.9 192.47 39.8 185.47 39.3 185.57 39.3 185.78 51.4 192.78 51.9 192.78 51.9 192.47"/></g></g><g class="cls-12"><g class="cls-13"><polyline points="67.9 201.68 66.9 201.18 66.4 201.18 66.4 201.38 67.4 201.97 67.8 201.97 67.9 201.68"/></g></g><g class="cls-12"><g class="cls-13"><path d="M140.3,261.4l-25-14.4h-.5v.2l25,14.4h.4l.1-.2m16,9.2-1-.6h-.5v.2l1,.6h.5v-.2m40,23.1-25-14.4h-.5v.3l25,14.4h.4l.1-.3m15.9,9.2-1-.6h-.5v.2l1,.6h.5v-.2m40,23.1-25-14.4h-.5v.3l25,14.4h.4l.1-.3m16,9.2-1-.6h-.5v.2l1,.6h.5v-.2m39.9,23.1-24.9-14.4h-.5v.3l24.9,14.4h.5v-.3m16,9.2-1-.6h-.5v.3l1,.6h.4l.1-.3" transform="translate(-32.5 -36.62)"/></g></g><g class="cls-12"><g class="cls-13"><polyline points="318.7 346.48 306.6 339.57 306.1 339.57 306.1 339.77 318.2 346.77 318.7 346.77 318.7 346.48"/></g></g><g class="cls-12"><g class="cls-13"><polyline points="12.5 182.07 0.5 175.07 0 175.07 0 175.38 12 182.28 12.5 182.38 12.5 182.07"/></g></g><g class="cls-12"><g class="cls-13"><polyline points="28.5 191.28 27.5 190.68 27 190.68 27 190.97 28 191.57 28.4 191.57 28.5 191.28"/></g></g><g class="cls-12"><g class="cls-13"><path d="M100.9,251l-25-14.4h-.5v.2l25,14.4h.5V251m16,9.2-1-.6h-.5l.1.3,1,.6h.4v-.3m40,23.1-25-14.4h-.5v.2l25,14.4h.4l.1-.2m16,9.2-1-.6h-.5v.2l1,.6h.5v-.2m39.9,23.1-25-14.4h-.5v.3l25,14.4h.4l.1-.3m16,9.2-1-.6h-.5v.2l1,.6h.5v-.2m40,23.1-25-14.4h-.5l.1.3,25,14.4h.4v-.3m16,9.2-1-.6h-.5v.3l1,.6h.5v-.3" transform="translate(-32.5 -36.62)"/></g></g><g class="cls-12"><g class="cls-13"><polyline points="279.3 336.07 267.3 329.18 266.7 329.18 266.8 329.38 278.8 336.38 279.3 336.38 279.3 336.07"/></g></g><g class="cls-12"><g class="cls-13"><polyline points="30.6 204.88 18.5 197.88 18.1 197.88 18.1 198.18 30.1 205.07 30.6 205.18 30.6 204.88"/></g></g><g class="cls-12"><g class="cls-13"><polyline points="46.6 214.07 45.6 213.47 45.1 213.47 45.1 213.78 46.1 214.38 46.6 214.38 46.6 214.07"/></g></g><g class="cls-12"><g class="cls-13"><path d="M119.1,273.8l-25-14.4h-.5v.2l25,14.4h.4l.1-.2M135,283l-1-.6h-.5v.2l1,.6h.5V283m40,23.1-25-14.4h-.5v.3l25,14.4h.4l.1-.3m16,9.2-1-.6h-.5v.2l1,.6h.5v-.2m39.9,23.1L206,324h-.5v.3l25,14.4h.4v-.3m16,9.2-1-.6h-.5v.2l1,.6h.5v-.2m40,23.1L262,356.3h-.5v.3L286.4,371h.5v-.3m16,9.2-1-.6h-.5v.3l1,.6h.4l.1-.3" transform="translate(-32.5 -36.62)"/></g></g><g class="cls-12"><g class="cls-13"><polyline points="297.4 358.88 285.3 351.88 284.9 351.98 284.9 352.18 296.9 359.18 297.4 359.18 297.4 358.88"/></g></g><path id="SVGID-2" data-name="SVGID" class="cls-4" d="M355.4,341.9c-1.8,0-3.7,0-5.5-.1H349a21.75,21.75,0,0,1-2.6-.1h-.5c-1,0-2-.1-3-.1a4.1,4.1,0,0,1-1.1-.1,20.9,20.9,0,0,0-2.5-.1h-.5c-1-.1-2.1-.1-3.1-.2h-.5c-2.9-.2-5.7-.5-8.5-.8h-.4l-2.7-.3c-.3,0-.7-.1-1-.1a20.24,20.24,0,0,1-2.6-.4h-.1c-.2,0-.4-.1-.6-.1-1.7-.2-3.3-.5-5-.8H314c-.9-.2-1.9-.3-2.8-.5a4.33,4.33,0,0,1-.5-.1c-2.8-.5-5.5-1.1-8.2-1.7-.3-.1-.6-.1-1-.2-1.5-.4-3-.7-4.5-1.1-.1,0-.2-.1-.4-.1-2.8-.7-5.5-1.5-8.3-2.3-.3-.1-.5-.1-.8-.2-1.5-.5-3.1-.9-4.6-1.4-.2-.1-.3-.1-.5-.2-1.6-.5-3.2-1.1-4.8-1.7a1.45,1.45,0,0,0-.7-.2,158.22,158.22,0,0,1-24.6-11.4q-44.1-25.5-88.3-51h0a115.24,115.24,0,0,1-12.9-8.5c-19.9-15-29.8-33-29.8-51,0-20.4,12.8-40.9,38.4-56.9,1.4-.9,2.8-1.7,4.2-2.5,28.4-16.4,65.7-24.6,103-24.6s74.6,8.2,103,24.6q44.1,25.5,88.3,51c28.4,16.4,42.7,37.9,42.7,59.5s-14.2,43-42.7,59.5c-28.3,16-65.6,24.2-102.8,24.2" transform="translate(-32.5 -36.62)"/><path class="cls-3" d="M359.3,255.8c-1.8,0-3.7,0-5.5-.1h-.9a21.75,21.75,0,0,1-2.6-.1h-.5c-1,0-2-.1-3-.1a4.1,4.1,0,0,1-1.1-.1,20.9,20.9,0,0,0-2.5-.1h-.5c-1-.1-2.1-.1-3.1-.2h-.5c-2.9-.2-5.7-.5-8.5-.8h-.4l-2.7-.3c-.3,0-.7-.1-1-.1a20.24,20.24,0,0,1-2.6-.4h-.1c-.2,0-.4-.1-.6-.1-1.7-.2-3.3-.5-5-.8h-.3c-.9-.2-1.9-.3-2.8-.5a4.33,4.33,0,0,1-.5-.1c-2.8-.5-5.5-1.1-8.2-1.7-.3-.1-.6-.1-1-.2-1.5-.4-3-.7-4.5-1.1-.1,0-.2-.1-.4-.1-2.8-.7-5.5-1.5-8.3-2.3-.3-.1-.5-.1-.8-.2-1.5-.5-3.1-.9-4.6-1.4-.2-.1-.3-.1-.5-.2-1.6-.5-3.2-1.1-4.8-1.7a1.45,1.45,0,0,0-.7-.2,158.22,158.22,0,0,1-24.6-11.4q-44.1-25.5-88.3-51h0A115.24,115.24,0,0,1,155,172c-19.9-15-29.8-33-29.8-51,0-20.4,12.8-40.9,38.4-56.9,1.4-.9,2.8-1.7,4.2-2.5C196.2,45.2,233.5,37,270.8,37s74.6,8.2,103,24.6q44.1,25.5,88.3,51c28.4,16.4,42.7,37.9,42.7,59.5s-14.2,43-42.7,59.5c-28.3,16-65.6,24.2-102.8,24.2" transform="translate(-32.5 -36.62)"/><g class="cls-14"><path d="M808.81,485.31V484h2V477.3h-.67V478h-.67v.66h-.66v-2h.66V476h.67v-.67h.67v-.67h1.33V484h2v1.33Z" transform="translate(-32.5 -36.62)"/><path d="M820.8,483.3V484h-.66v.65h-.67v.68h-1.33v-.68h-.67V484h-.67v-.68h-.66v-6.67h.66V476h.67v-.67h.67v-.67h1.33v.67h.67V476h.66v.66h.67v6.67Zm-.66-6h-.67v-.67h-1.33v.67h-.67v5.33h.67v.67h1.33v-.67h.67Z" transform="translate(-32.5 -36.62)"/><path d="M834.8,485.31v-6.68h-.68V480H832.8v-1.35h-.68v6.68H830.8V474.63h1.32V476h.68v1.33h1.32V476h.68v-1.34h1.33v10.68Z" transform="translate(-32.5 -36.62)"/><path d="M842.12,485.31v-6.68h-.67V480h-1.33v-1.35h-.67v6.68h-1.33V474.63h1.33V476h.67v1.33h1.33V476h.67v-1.34h1.33v10.68Z" transform="translate(-32.5 -36.62)"/></g><polygon class="cls-1" points="710 262.48 736.3 262.48 736.3 262.48 710 262.48"/><line class="cls-1" x1="817.6" y1="444.28" x2="826.1" y2="444.28"/><line class="cls-15" x1="817.8" y1="444.28" x2="825.9" y2="444.28"/><rect x="817.6" y="443.18" width="0.3" height="2.3"/><rect x="825.7" y="443.18" width="0.4" height="2.3"/></svg>