<svg id="Layer_1" data-name="Layer 1" xmlns="http://www.w3.org/2000/svg" viewBox="0 0 797.27 184.86"><defs><style>.cls-1,.cls-3,.cls-4,.cls-5,.cls-6,.cls-7,.cls-8,.cls-9{fill:none;}.cls-2{isolation:isolate;}.cls-3,.cls-4,.cls-5,.cls-6,.cls-7,.cls-8,.cls-9{stroke:#000;}.cls-3,.cls-4,.cls-6{stroke-width:0.75px;}.cls-4,.cls-5,.cls-6,.cls-7,.cls-8,.cls-9{stroke-linecap:round;stroke-linejoin:round;}.cls-5,.cls-7{stroke-width:0.35px;}.cls-6{stroke-dasharray:5.13 5.13;}.cls-7{stroke-dasharray:5.24 5.24;}.cls-8,.cls-9{stroke-width:0.61px;}.cls-9{stroke-dasharray:4.09 4.09;}</style></defs><title>WEB__17_SPK-L CUTTING THE PVC</title><g id="SPK-P_cutting_tube" data-name="SPK-P cutting tube"><rect class="cls-1" x="199.37" y="171.59" width="40.57" height="13.27"/><g class="cls-2"><path d="M322.39,158.4v.66h-.66v.67h-2.67v-.67h-.67v-.66h-.66v-4h.66v-1.34h-.66V150.4h.66v-.67h.67v-.68h2.67v.68h.66v.67h.67v2.66h-.67v1.34h.67v4Zm-.66-7.34h-.67v-.66h-1.33v.66h-.67v1.34h.67v.66h1.33v-.66h.67Zm0,4h-.67v-.66h-1.33v.66h-.67v2.67h.67v.67h1.33v-.67h.67Z" transform="translate(-115.72 22.53)"/><path d="M329.72,158.4v.66h-.66v.67h-2.67v-.67h-.68v-.66h-.65v-1.34h1.33v.67h.67v.67h1.33v-.67h.67v-2.67h-.67v-.66h-2.68v-5.35h4v1.35h-2.66v2.66h2v.67h.66v.67h.67v4Z" transform="translate(-115.72 22.53)"/><path d="M344.37,158.4v.66h-.66v.67H341v-.67h-.67v-.66h-.66v-8h.66v-.67H341v-.68h2.67v.68h.66v.67H345v2.66h-1.33v-2H343v-.66h-1.33v.66H341v6.67h.67v.67H343v-.67h.67v-2H345v2.67Z" transform="translate(-115.72 22.53)"/><path d="M351,159.73v-6.67h-.67v1.34H349v-1.34h-.67v6.67H347V149.05h1.33v1.35H349v1.33h1.33V150.4H351v-1.35h1.33v10.68Z" transform="translate(-115.72 22.53)"/></g><line class="cls-3" x1="0.74" y1="159.9" x2="426.89" y2="159.9"/><rect x="0.37" y="157.46" width="0.75" height="4.88"/><rect x="426.52" y="157.46" width="0.75" height="4.88"/><path class="cls-4" d="M543,114.51c-2.54,0-4.6-3.65-4.6-8.15s2.06-8.15,4.6-8.15" transform="translate(-115.72 22.53)"/><path class="cls-4" d="M543,98.21c2.54,0,4.6,3.65,4.6,8.15s-2.06,8.15-4.6,8.15" transform="translate(-115.72 22.53)"/><path class="cls-5" d="M543,113c-1.46,0-3.1-2.84-3.1-6.65s1.64-6.65,3.1-6.65,3.1,2.84,3.1,6.65S544.45,113,543,113Z" transform="translate(-115.72 22.53)"/><path class="cls-4" d="M543,98.21H120.69c-2.54,0-4.6,3.65-4.6,8.15s2.06,8.15,4.6,8.15H543" transform="translate(-115.72 22.53)"/><path class="cls-4" d="M908,114.51a3.21,3.21,0,0,1-2.22-1" transform="translate(-115.72 22.53)"/><path class="cls-6" d="M903.64,108.92a13.93,13.93,0,0,1-.23-2.56,12.57,12.57,0,0,1,1-5" transform="translate(-115.72 22.53)"/><path class="cls-4" d="M905.79,99.22a3.19,3.19,0,0,1,2.22-1" transform="translate(-115.72 22.53)"/><path class="cls-4" d="M908,98.21a3.21,3.21,0,0,1,2.22,1" transform="translate(-115.72 22.53)"/><path class="cls-6" d="M912.38,103.8a13.93,13.93,0,0,1,.23,2.56,12.57,12.57,0,0,1-1,5" transform="translate(-115.72 22.53)"/><path class="cls-4" d="M910.23,113.5a3.19,3.19,0,0,1-2.22,1" transform="translate(-115.72 22.53)"/><path class="cls-7" d="M908,113c-1.46,0-3.1-2.84-3.1-6.65s1.64-6.65,3.1-6.65,3.1,2.84,3.1,6.65S909.48,113,908,113Z" transform="translate(-115.72 22.53)"/><line class="cls-8" x1="792.3" y1="120.74" x2="790.26" y2="120.74"/><path class="cls-9" d="M901.89,98.21H628c-2.54,0-4.6,3.65-4.6,8.15s2.06,8.15,4.6,8.15H903.93" transform="translate(-115.72 22.53)"/><line class="cls-8" x1="790.26" y1="137.04" x2="792.3" y2="137.04"/><path d="M631.22,51.56l1.35-.61h0a3.4,3.4,0,0,0,3.55-5.61L624.4,33.62a3.77,3.77,0,0,1,0-5.33c2.47-2.47,4.7-1.74,6.13-.69l.62-.84h0l-.62.84,16.24,11.89,7.57-7.57-23-16.82a7.27,7.27,0,0,0-4-1.43c-1.92.13-3.68,2.13-3.73,2.18L607.28,32.21l1.15,1.15L571,70.76A17.17,17.17,0,0,0,571,95l6.8,6.8a3,3,0,0,0,4.29,0,3,3,0,0,0,.86-1.89Zm-18.49-13.9,1.15,1.15.37-.37a3.77,3.77,0,0,1,5.33,0l9.1,9.1L580.4,95.82l-5.07-5.07a11.1,11.1,0,0,1,0-15.69Z" transform="translate(-115.72 22.53)"/><rect class="cls-1" x="549.93" y="0.72" width="112.25" height="112.25" transform="translate(21.6 467.73) rotate(-45)"/></g></svg>