<?xml version="1.0" encoding="utf-8"?>
<!-- Generator: Adobe Illustrator 24.0.1, SVG Export Plug-In . SVG Version: 6.00 Build 0)  -->
<svg version="1.1" id="Layer_1" xmlns="http://www.w3.org/2000/svg" xmlns:xlink="http://www.w3.org/1999/xlink" x="0px" y="0px"
	 viewBox="0 0 1200 500" style="enable-background:new 0 0 1200 500;" xml:space="preserve">
<style type="text/css">
	.st0{fill:none;}
	.st1{fill-rule:evenodd;clip-rule:evenodd;}
	.st2{fill:none;stroke:#000000;stroke-width:0.75;stroke-linecap:round;stroke-linejoin:round;}
	.st3{fill:none;stroke:#000000;stroke-width:0.35;stroke-linecap:round;stroke-linejoin:round;}
	.st4{fill:none;stroke:#000000;stroke-width:0.75;}
	.st5{enable-background:new    ;}
</style>
<g id="_x33_0px_margins">
</g>
<g id="SPK-P_assembly_of_the_upper_part">
</g>
<g id="SPK-P_assembly_of_the_base">
</g>
<g id="SPK-P_soldering_of_the_bms">
</g>
<g id="SPK-P_making_of_the_slots">
</g>
<g id="SPK-P_step_membrane_4">
</g>
<g id="SPK-P_step_membrane_3">
</g>
<g id="SPK-P_step_membrane_2">
</g>
<g id="SPK-P_step_membrane_1">
</g>
<g id="SPK-P_step_cable_base_print_assembly">
</g>
<g id="SPK-P_hero">
</g>
<g id="SPK-P_component_overviw">
</g>
<g id="SPK-P_printing">
</g>
<g id="SPK-P_printing_holders">
</g>
<g id="SPK-P_step_cable_base_holes">
</g>
<g id="SPK-P_step_choose_a_base">
</g>
<g id="SPK-P_step_drilling_holes">
	<path d="M516.1,297.4v-1.8c0-0.8,0.7-1.5,1.5-1.5h8.2v-3.4h5.9v17.9h-5.9v-3.4h-8.2c-0.8,0-1.5-0.7-1.5-1.5v-1.9h-2.4v-4.5
		L516.1,297.4L516.1,297.4z"/>
	<rect x="493.1" y="298.5" width="20" height="2.2"/>
	<path d="M585.2,358.2l-1,0.2c-0.1,0-0.1,0-0.1-0.1l-0.9-4.8l0,0c-1.2,0.2-2.4-0.6-2.6-1.8l-0.2-1l-1.7,0.3
		c-1.5,0.3-2.9-0.7-3.1-2.2l-4.8-25.8l0,0l-6.1,1.1c-0.8,0.2-1.6-0.4-1.8-1.2l-1.1-6.1h-18.7l0,0v-26.6l0,0h36.6
		c2.8,0,5.1,2.3,5.1,5.1v5.8l8.3,44.5c0.3,1.5-0.7,2.9-2.2,3.1l-1.8,0.3l0,0l0.2,1c0.2,1.2-0.6,2.4-1.7,2.6l0,0l0.9,4.8l-1.1,0.2"/>
	<path d="M542,317c-5,0-9.1-4.1-9.1-9.1v-17.7h9.1V317z"/>
	<path d="M585.8,356.2c0.5-0.1,1,0.2,1,0.7l0.4,1.7c0.9,4.9,5.5,8.1,10.3,7.4c-0.3,0.7-1,1.3-1.9,1.9c-5-0.3-9.3-3.9-10.2-8.9
		l-0.3-1.7C585,356.7,585.4,356.3,585.8,356.2z"/>
	<polygon class="st0" points="630.5,110 518.2,110 489.2,385.2 601.5,385.2 	"/>
	<path class="st1" d="M993.9,164l-39.8-39.8c-0.5-0.5-2-0.4-3.5,1.1c-1.6,1.6-1.7,3-1.1,3.5l39.7,39.7c0,0,1.1-3.5,1.1-3.5
		C990.5,165,993.9,164,993.9,164"/>
	<path class="st1" d="M1017,189.1c0.7,0.7,0.7,1.8,0,2.6s-1.8,0.7-2.5,0l-2.5-2.5c-0.7-0.7-0.7-1.8,0-2.6s1.8-0.7,2.5,0L1017,189.1z
		"/>
	<path class="st1" d="M1010,177.6c-5.4-4.2-11-8.5-13.8-13.5l-4.8,2l-2,4.8c5,2.8,9.3,8.3,13.5,13.8c4.2,5.5,8.6,11.2,12.5,11.5
		c1.3,0.1,2.7-0.6,4.1-2c1.4-1.4,2-2.8,1.9-4C1021.2,186.3,1015.5,181.9,1010,177.6L1010,177.6z"/>
	
		<rect x="928.9" y="103.6" transform="matrix(0.7071 -0.7071 0.7071 0.7071 175.5845 743.3487)" class="st0" width="112.3" height="112.3"/>
	<path class="st2" d="M471.9,126.2c0,20.5-30.7,37-68.5,37s-68.5-16.6-68.5-37"/>
	<path class="st2" d="M471.9,126.2c0-20.5-30.7-37-68.5-37s-68.5,16.6-68.5,37v251.2c19.2,44.2,116.4,45.3,137,0V126.2z"/>
	<path class="st2" d="M440.4,303c-8.5,8.2-8.7,18.7-3.6,24c7,7.2,17.9,4,23.8-8.4c5.1-10.7,7-23,0.8-27.1
		C456,287.9,448.2,295.4,440.4,303z"/>
	<path class="st2" d="M440.8,338.6c-8.5,8.2-8.7,18.7-3.6,24c7,7.2,17.9,4,23.8-8.4c5.1-10.7,7-23,0.8-27.1
		C456.4,323.5,448.6,331,440.8,338.6z"/>
	<path class="st2" d="M454.6,397.1c2.1-1.9,4-4.5,5.5-7.8c4.9-10.3,6.8-22.2,0.9-26.1c-5.2-3.5-12.7,3.8-20.3,11.2
		c-8.2,8-8.5,18-3.5,23.1c3.3,3.4,7.5,4.4,11.6,3.1"/>
	<path class="st3" d="M456.4,290.8c1.7,21.6-4.8,33.6-19.6,36.2"/>
	<path class="st3" d="M456.4,326.2c1.7,21.6-4.6,33.6-19.4,36.2"/>
	<path class="st3" d="M456.4,362.7c1.7,21.3-4.1,33.1-18.2,35.6"/>
	<path class="st2" d="M903.2,126.2c0,20.5-30.7,37-68.5,37s-68.5-16.6-68.5-37"/>
	<polyline class="st3" points="896.7,387.5 888.8,383.7 889.2,290.5 	"/>
	<path class="st2" d="M896.7,387.5v-89.2c-0.7-14.8-22-7.5-30.4,13.6c-0.5,1.3-0.7,2.7-0.7,4.1v90.5l0,0
		c-36.6,11.1-86.2,1-99.3-29.2V126.1c0-20.5,30.7-37,68.5-37s68.5,16.6,68.5,37v251.2C901.5,381.1,899.3,384.5,896.7,387.5"/>
	<g>
		<g>
			<line class="st4" x1="194.8" y1="330" x2="309.9" y2="330"/>
			<g>
				<circle cx="309.9" cy="330" r="2.8"/>
			</g>
		</g>
	</g>
	<rect x="194.8" y="311.3" class="st0" width="69.2" height="13.6"/>
	<g class="st5">
		<path d="M199.4,322v-2h-0.7v-1.3h-0.7v-1.3h-0.7V316h-0.7v6h-1.3v-10.7h1.3v2h0.7v1.3h0.7v1.3h0.7v1.3h0.7v-6h1.3V322H199.4z"/>
		<path d="M207.4,320.7v0.7h-0.7v0.7h-2.7v-0.7h-0.7v-0.7h-0.7v-8h0.7V312h0.7v-0.7h2.7v0.7h0.7v0.7h0.7v8H207.4z M206.8,313.3h-0.7
			v-0.7h-1.3v0.7h-0.7v6.7h0.7v0.7h1.3V320h0.7V313.3z"/>
		<path d="M221.4,322v-4.7h-2.7v4.7h-1.3v-10.7h1.3v4.7h2.7v-4.7h1.3V322H221.4z"/>
		<path d="M229.4,320.7v0.7h-0.7v0.7h-2.7v-0.7h-0.7v-0.7h-0.7v-8h0.7V312h0.7v-0.7h2.7v0.7h0.7v0.7h0.7v8H229.4z M228.7,313.3h-0.7
			v-0.7h-1.3v0.7h-0.7v6.7h0.7v0.7h1.3V320h0.7V313.3z"/>
		<path d="M232.1,322v-10.7h1.3v9.3h4v1.3H232.1z"/>
		<path d="M239.4,322v-10.7h5.3v1.3h-4v3.3h2.7v1.3h-2.7v3.3h4v1.3H239.4z"/>
		<path d="M251.4,320.7v0.7h-0.7v0.7H248v-0.7h-0.7v-0.7h-0.7v-2h1.3v1.3h0.7v0.7h1.3V320h0.7v-2H250v-0.7h-2v-0.7h-0.7V316h-0.7
			v-3.3h0.7V312h0.7v-0.7h2.7v0.7h0.7v0.7h0.7v1.3h-1.3v-0.7H250v-0.7h-1.3v0.7H248v2h0.7v0.7h2v0.7h0.7v0.7h0.7v3.3H251.4z"/>
		<path d="M256,318.7v-7.3h1.3v7.3H256z M256,322v-2h1.3v2H256z"/>
	</g>
	<rect x="482.5" y="339.7" class="st0" width="79.4" height="20.9"/>
	<g class="st5">
		<path d="M487.9,349.1v0.7h-0.7v0.7h-2.7v-0.7h-0.7v-0.7h-0.7v-4h0.7v-1.3h-0.7v-2.7h0.7v-0.7h0.7v-0.7h2.7v0.7h0.7v0.7h0.7v2.7
			h-0.7v1.3h0.7v4H487.9z M487.2,341.7h-0.7v-0.7h-1.3v0.7h-0.7v1.3h0.7v0.7h1.3v-0.7h0.7V341.7z M487.2,345.7h-0.7v-0.7h-1.3v0.7
			h-0.7v2.7h0.7v0.7h1.3v-0.7h0.7V345.7z"/>
		<path d="M501.9,350.4v-6.7h-0.7v1.3h-1.3v-1.3h-0.7v6.7h-1.3v-10.7h1.3v1.3h0.7v1.3h1.3v-1.3h0.7v-1.3h1.3v10.7H501.9z"/>
		<path d="M509.2,350.4v-6.7h-0.7v1.3h-1.3v-1.3h-0.7v6.7h-1.3v-10.7h1.3v1.3h0.7v1.3h1.3v-1.3h0.7v-1.3h1.3v10.7H509.2z"/>
		<path d="M523.8,350.4v-4.7h-2.7v4.7h-1.3v-10.7h1.3v4.7h2.7v-4.7h1.3v10.7H523.8z"/>
		<path d="M531.8,349.1v0.7h-0.7v0.7h-2.7v-0.7h-0.7v-0.7h-0.7v-8h0.7v-0.7h0.7v-0.7h2.7v0.7h0.7v0.7h0.7v8H531.8z M531.2,341.7
			h-0.7v-0.7h-1.3v0.7h-0.7v6.7h0.7v0.7h1.3v-0.7h0.7V341.7z"/>
		<path d="M534.5,350.4v-10.7h1.3v9.3h4v1.3H534.5z"/>
		<path d="M541.8,350.4v-10.7h5.3v1.3h-4v3.3h2.7v1.3h-2.7v3.3h4v1.3H541.8z"/>
	</g>
</g>
<g id="SPK-P_step_exciters_1">
</g>
<g id="SPK-P_step_exciters_2">
</g>
<g id="SPK-P_cable_base_print_cable">
</g>
<g id="SPK-P_cable_base_print">
</g>
<g id="SPK-P_cutting_tube">
</g>
<g id="Layer_23">
</g>
<g id="TOOLS_MATERIALS">
</g>
<g id="SOUND__x26__ORDER">
</g>
<g id="Layer_26">
</g>
<g id="Layer_27">
</g>
</svg>
