<svg id="Layer_1" data-name="Layer 1" xmlns="http://www.w3.org/2000/svg" viewBox="0 0 653.9 628.05"><defs><style>.cls-1,.cls-2,.cls-3,.cls-4{fill:none;}.cls-1,.cls-3,.cls-4{stroke:#000;}.cls-1,.cls-4{stroke-linecap:round;stroke-linejoin:round;}.cls-1,.cls-3{stroke-width:0.75px;}.cls-4{stroke-width:0.35px;}</style></defs><title>WEB_19_SPK-M PREPARING THE BASE</title><g id="SPK-P_step_cable_base_holes" data-name="SPK-P step cable base holes"><path class="cls-1" d="M747.81,184.45c-17-21.2-43.4-35.5-68-44.3-25.6-9.2-53.4-14-80.4-15.2" transform="translate(-245.49 -35.98)"/><path class="cls-1" d="M599.41,124.85V84.75a13.2,13.2,0,1,0-26.4,0v40.1" transform="translate(-245.49 -35.98)"/><path class="cls-1" d="M596.81,303v-33.6a11.1,11.1,0,1,0-22.2,0V303" transform="translate(-245.49 -35.98)"/><path class="cls-1" d="M574.61,303a61.29,61.29,0,0,0-6.1,1.8v29.6c-34.3-1.9-70.9-9.7-102-25.3-28.7-14.5-62.3-41.3-62.3-79v-88.9c0-20,9.6-37.1,22.8-50.9s30.1-24.1,47.2-31.8c34.3-15.4,74.3-22.1,111.5-22.1s77.1,6.7,111.5,22.1c17.1,7.7,34,18.1,47.2,31.8s22.8,30.9,22.8,50.9v88.9c0,37.7-33.5,64.5-62.2,79-31.1,15.7-67.7,23.4-102.1,25.3v-29.6a32.81,32.81,0,0,0-6.1-1.8" transform="translate(-245.49 -35.98)"/><path class="cls-1" d="M602.91,245.45a30.92,30.92,0,0,0,6.5-3.4" transform="translate(-245.49 -35.98)"/><path class="cls-1" d="M562,242.05a30.92,30.92,0,0,0,6.5,3.4" transform="translate(-245.49 -35.98)"/><path class="cls-1" d="M568.51,245.45l-9.1-.6" transform="translate(-245.49 -35.98)"/><path class="cls-1" d="M612,244.85c-3,.3-6.1.5-9.1.6" transform="translate(-245.49 -35.98)"/><path class="cls-1" d="M609.41,242.05c8.8-6.1,9.9-15.1,1.3-21.9-6.8-5.4-16.8-7.3-25-7.3s-18.2,2-25,7.3c-8.6,6.8-7.5,15.8,1.3,21.9" transform="translate(-245.49 -35.98)"/><path class="cls-1" d="M559.41,244.85c-32.7-2.8-67.6-11.1-96.9-26.8-27.4-14.6-58.2-40.8-58.2-76.9" transform="translate(-245.49 -35.98)"/><line class="cls-1" x1="323.02" y1="209.47" x2="323.02" y2="268.77"/><line class="cls-1" x1="357.42" y1="209.47" x2="357.42" y2="268.77"/><path class="cls-1" d="M767.21,141.15c0,36-30.8,62.2-58.2,76.9-29.4,15.7-64.2,24-97,26.8" transform="translate(-245.49 -35.98)"/><path class="cls-1" d="M573.11,124.85c-27.2,1.1-55.2,5.9-81,15-24.7,8.8-51.4,23.2-68.5,44.5" transform="translate(-245.49 -35.98)"/><rect class="cls-2" x="541.6" y="4.7" width="112.3" height="112.3"/><line class="cls-3" y1="488" x2="119.32" y2="488"/><circle cx="119.32" cy="488" r="2.82"/><line class="cls-3" x1="4.22" y1="158.7" x2="119.32" y2="158.7"/><circle cx="119.32" cy="158.7" r="2.82"/><path class="cls-1" d="M602.81,574.75a30.92,30.92,0,0,0,6.5-3.4" transform="translate(-245.49 -35.98)"/><path class="cls-1" d="M559.71,572.45c-34.1-2.9-70.9-11.9-101.1-29.5-17-9.9-33.3-23.4-43.2-41.2-7.5-13.7-10.4-28.7-7-44.2,3.3-15.2,12-28.2,22.7-38.9,14.2-14.2,32.4-24.6,50.7-32.2,32.3-13.3,69.1-19.2,103.8-19.2s71.4,5.9,103.8,19.2c18.3,7.5,36.4,18,50.7,32.2,10.7,10.7,19.4,23.7,22.7,38.9,3.4,15.5.5,30.5-7.1,44.2-9.8,17.8-26.2,31.3-43.2,41.2-30.1,17.6-66.9,26.6-101.1,29.5,9.6-6.6,10.8-16.5,1.4-23.9-7.4-5.9-18.4-8-27.3-8s-19.9,2.2-27.3,8C548.91,556.05,550.11,565.85,559.71,572.45Z" transform="translate(-245.49 -35.98)"/><path class="cls-4" d="M571.91,411.25c.08.47.16.95.29,1.47" transform="translate(-245.49 -35.98)"/><path class="cls-4" d="M572.2,412.72a8.8,8.8,0,0,0,3.11,5,14.15,14.15,0,0,0,3.5,2.3,16.2,16.2,0,0,0,4.3,1.2,23.46,23.46,0,0,0,5.3,0,17.42,17.42,0,0,0,2.2-.5,18,18,0,0,0,2.1-.8,11.81,11.81,0,0,0,3.5-2.3,10.91,10.91,0,0,0,2.3-2.9,4.6,4.6,0,0,0,.31-.63" transform="translate(-245.49 -35.98)"/><path class="cls-4" d="M599.34,412.63a11.87,11.87,0,0,0,.27-1.48" transform="translate(-245.49 -35.98)"/><path class="cls-1" d="M767.11,559.35c0,37.7-33.5,64.5-62.2,79-31.1,15.7-67.7,23.4-102.1,25.3v-29.6a50.52,50.52,0,0,0-34.3,0v29.6c-34.3-1.9-70.9-9.7-102-25.3-28.7-14.5-62.3-41.3-62.3-79v-88.9c0-20,9.6-37.1,22.8-50.9s30.1-24.1,47.2-31.8c34.3-15.4,74.3-22.1,111.5-22.1s77.1,6.7,111.5,22.1c17.1,7.7,34,18.1,47.2,31.8s22.8,30.9,22.8,50.9Q767.06,515,767.11,559.35Z" transform="translate(-245.49 -35.98)"/><path class="cls-1" d="M767.11,470.45c0,36-30.8,62.2-58.2,76.9-29.4,15.7-64.2,24-97,26.8" transform="translate(-245.49 -35.98)"/><line class="cls-1" x1="357.32" y1="538.77" x2="357.32" y2="598.07"/><line class="cls-1" x1="322.92" y1="538.77" x2="322.92" y2="598.07"/><path class="cls-1" d="M559.31,574.15c-32.7-2.8-67.6-11.1-96.9-26.8-27.4-14.6-58.2-40.8-58.2-76.9" transform="translate(-245.49 -35.98)"/><line class="cls-1" x1="306.42" y1="535.77" x2="306.42" y2="524.07"/><line class="cls-1" x1="373.92" y1="524.07" x2="373.92" y2="535.77"/><path class="cls-4" d="M599.21,604.85a11.63,11.63,0,0,1-.4,1.8,8.86,8.86,0,0,1-.8,1.7,5.26,5.26,0,0,1-1.2,1.4,10.1,10.1,0,0,1-1.6,1.3,17.38,17.38,0,0,1-1.9,1,20.94,20.94,0,0,1-2.3.8,20,20,0,0,1-2.6.5,18.33,18.33,0,0,1-5.4,0,23.81,23.81,0,0,1-2.6-.5,15.55,15.55,0,0,1-2.3-.8,11.4,11.4,0,0,1-1.9-1,10.1,10.1,0,0,1-1.6-1.3,8.06,8.06,0,0,1-1.2-1.4,8.86,8.86,0,0,1-.8-1.7,11.63,11.63,0,0,1-.4-1.8" transform="translate(-245.49 -35.98)"/><path class="cls-1" d="M572,605.75a9.08,9.08,0,0,1,.3-2.3,10.64,10.64,0,0,1,.9-2.5,15.92,15.92,0,0,1,1.3-2.2,16.8,16.8,0,0,1,1.8-2.1,15.51,15.51,0,0,1,4.3-2.9,19.75,19.75,0,0,1,2.6-.8,9.74,9.74,0,0,1,2.4-.2,19.42,19.42,0,0,1,2.4.2,11.22,11.22,0,0,1,2.6.8,14.17,14.17,0,0,1,4.3,2.9,9.09,9.09,0,0,1,1.8,2.1A15.92,15.92,0,0,1,598,601a12.54,12.54,0,0,1,.9,2.5,8.52,8.52,0,0,1,.3,2.3,12.25,12.25,0,0,1-.2,1.9,10.66,10.66,0,0,1-.7,1.9,14.31,14.31,0,0,1-1.1,1.5,10.7,10.7,0,0,1-1.6,1.4,12.81,12.81,0,0,1-2,1.1,22.5,22.5,0,0,1-2.4.8,25.58,25.58,0,0,1-2.7.5c-1,.1-2,.2-3,.2s-2-.1-3-.2a25.58,25.58,0,0,1-2.7-.5,22.5,22.5,0,0,1-2.4-.8,12.81,12.81,0,0,1-2-1.1,10.7,10.7,0,0,1-1.6-1.4,8.28,8.28,0,0,1-1.1-1.5,6.19,6.19,0,0,1-.7-1.9Z" transform="translate(-245.49 -35.98)"/><path class="cls-1" d="M582.91,422.85c-6-.9-12.1-5.4-11-12.3,1.1-6.5,7.7-10.1,13.7-10.1s12.6,3.7,13.7,10.1c1.2,6.9-5,11.4-11,12.3a23.48,23.48,0,0,1-5.3,0Z" transform="translate(-245.49 -35.98)"/><path class="cls-1" d="M609.31,571.45c8.8-6.1,9.9-15.1,1.3-21.9-6.8-5.4-16.8-7.3-25-7.3s-18.2,2-25,7.3c-8.6,6.8-7.5,15.8,1.3,21.9" transform="translate(-245.49 -35.98)"/><path class="cls-1" d="M747.71,513.75c-18.4-23-47.7-37.9-74.4-46.6-28-9.1-58.4-13.3-87.6-13.3s-59.7,4.2-87.7,13.3c-26.7,8.7-56,23.6-74.4,46.5" transform="translate(-245.49 -35.98)"/><path class="cls-1" d="M611.91,574.15c-3,.3-6.1.5-9.1.6" transform="translate(-245.49 -35.98)"/><path class="cls-1" d="M568.41,574.75l-9.1-.6" transform="translate(-245.49 -35.98)"/><path class="cls-1" d="M561.91,571.45a30.92,30.92,0,0,0,6.5,3.4" transform="translate(-245.49 -35.98)"/><line class="cls-3" x1="413.81" y1="468.84" x2="354.41" y2="468.84"/><polyline class="cls-3" points="354.41 468.85 340.27 482.99 340.27 546.57"/><polygon points="337.2 544.09 337.75 543.58 340.27 546.27 342.79 543.58 343.34 544.09 340.27 547.38 337.2 544.09"/><polyline class="cls-3" points="354.41 468.85 340.27 454.7 340.27 396.3"/><polygon points="343.34 398.77 342.79 399.3 340.27 396.58 337.75 399.3 337.2 398.77 340.27 395.49 343.34 398.77"/><line class="cls-3" x1="414.51" y1="135.58" x2="355.11" y2="135.58"/><polyline class="cls-3" points="355.11 135.59 340.97 149.72 340.97 213.31"/><polygon points="337.9 210.82 338.45 210.31 340.97 213.03 343.49 210.31 344.04 210.82 340.97 214.13 337.9 210.82"/><polyline class="cls-3" points="355.11 135.59 340.97 121.44 340.97 63.03"/><polygon points="344.04 65.53 343.49 66.03 340.97 63.33 338.45 66.03 337.9 65.53 340.97 62.23 344.04 65.53"/></g><g id="Layer_26" data-name="Layer 26"><path d="M815,112.88a1.63,1.63,0,0,1,0-2.4l.4-.4-.9-.9,2.7-2.7,8.9,8.8-2.7,2.7-.9-.9-.4.4a1.63,1.63,0,0,1-2.4,0Z" transform="translate(-245.49 -35.98)"/><polygon points="571.7 81.2 552.4 100.81 548.8 100.81 570 79.41 571.7 81.2"/><path d="M870.39,63l1,1-6.5,6.6a5.18,5.18,0,0,1-1.2,5l-35.4,35.8.9.9-2.7,2.7-8.9-8.8,2.7-2.7.9.9,35.4-35.8a4.87,4.87,0,0,1,4.7-1.3l6.6-6.7.7.7" transform="translate(-245.49 -35.98)"/><path d="M890.79,66.68l-4.6-4.8a10.26,10.26,0,0,0-14.5-.3l-1.4,1.3a1,1,0,1,1-1.4-1.4l1.4-1.3a12.41,12.41,0,0,1,17.4.3l4.6,4.8" transform="translate(-245.49 -35.98)"/><rect class="cls-2" y="469.28" width="94.99" height="16.98"/><path d="M250.82,514.61v.66h-.66v.67h-4V505.26h4v.67h.66v.67h.67v2.66h-.67v.67h-.66v.67h.66v.66h.67v3.34h-.67Zm-.65-7.35h-.67v-.66h-2v3.33h2v-.67h.67Zm0,4.67h-.67v-.67h-2v3.34h2v-.67h.67Z" transform="translate(-245.49 -35.98)"/><path d="M258.15,514.61v.66h-.66v.67h-2.67v-.67h-.67v-.66h-.66v-8h.66v-.67h.67v-.67h2.67v.67h.66v.67h.67v8Zm-.65-7.35h-.67v-.66H255.5v.66h-.67v6.67h.67v.67h1.33v-.67h.67Z" transform="translate(-245.49 -35.98)"/><path d="M264.15,506.6v9.33h-1.33V506.6h-2.67v-1.34h6.67v1.34Z" transform="translate(-245.49 -35.98)"/><path d="M271.48,506.6v9.33h-1.33V506.6h-2.67v-1.34h6.67v1.34Z" transform="translate(-245.49 -35.98)"/><path d="M280.14,514.61v.66h-.66v.67h-2.67v-.67h-.67v-.66h-.66v-8h.66v-.67h.67v-.67h2.67v.67h.66v.67h.67v8Zm-.66-7.35h-.67v-.66h-1.33v.66h-.67v6.67h.67v.67h1.33v-.67h.67Z" transform="translate(-245.49 -35.98)"/><path d="M286.81,515.93v-6.68h-.67v1.35h-1.33v-1.35h-.67v6.68h-1.33V505.25h1.33v1.34h.67v1.33h1.33v-1.33h.67v-1.34h1.33v10.68Z" transform="translate(-245.49 -35.98)"/><path d="M302.12,510.6v.66h-.66v.67h-2.67v4h-1.33V505.25h4v.67h.66v.67h.67v4h-.67Zm-.66-3.34h-.67v-.66h-2v4h2v-.67h.67Z" transform="translate(-245.49 -35.98)"/><path d="M304.79,515.93V514.6h2v-8h-2v-1.34h5.33v1.34h-2v8h2v1.33Z" transform="translate(-245.49 -35.98)"/><path d="M312.12,515.93V505.25h5.33v1.34h-4v3.33h2.67v1.33h-2.67v3.34h4v1.33h-5.33Z" transform="translate(-245.49 -35.98)"/><path d="M324.11,514.61v.66h-.66v.67h-2.67v-.67h-.67v-.66h-.66v-8h.66v-.67h.67v-.67h2.67v.67h.66v.67h.67v2.66h-1.33v-2h-.67v-.66h-1.33v.66h-.67v6.67h.67v.67h1.33v-.67h.67v-2h1.33v2.67Z" transform="translate(-245.49 -35.98)"/><path d="M326.78,515.93V505.25h5.33v1.34h-4v3.33h2.67v1.33h-2.67v3.34h4v1.33h-5.33Z" transform="translate(-245.49 -35.98)"/><rect class="cls-2" x="4.22" y="140.04" width="67.88" height="15.57"/><path d="M253.72,177.37v9.33h-1.33v-9.33h-2.67V176h6.67v1.35Z" transform="translate(-245.49 -35.98)"/><path d="M262.37,185.37V186h-.66v.67H259V186h-.67v-.66h-.66v-8h.66v-.67H259V176h2.67v.67h.66v.67H263v8Zm-.65-7.35h-.67v-.66h-1.33V178h-.67v6.67h.67v.67h1.33v-.67h.67Z" transform="translate(-245.49 -35.98)"/><path d="M269.7,181.37V182H269v.67h-2.67v4H265V176h4v.67h.66v.67h.67v4h-.67ZM269,178h-.67v-.66h-2v4h2v-.67H269Z" transform="translate(-245.49 -35.98)"/><path d="M284.36,181.37V182h-.66v.67H281v4H279.7V176h4v.67h.66v.67H285v4h-.67ZM283.7,178H283v-.66h-2v4h2v-.67h.67Z" transform="translate(-245.49 -35.98)"/><path d="M287,186.7v-1.33h2v-8h-2V176h5.33v1.35h-2v8h2v1.33Z" transform="translate(-245.49 -35.98)"/><path d="M294.36,186.7V176h5.33v1.35h-4v3.33h2.67V182h-2.67v3.34h4v1.33Z" transform="translate(-245.49 -35.98)"/><path d="M306.34,185.37V186h-.66v.67H303V186h-.67v-.66h-.66v-8h.66v-.67H303V176h2.67v.67h.66v.67H307V180h-1.33v-2H305v-.66h-1.33V178H303v6.67h.67v.67H305v-.67h.67v-2H307v2.67Z" transform="translate(-245.49 -35.98)"/><path d="M309,186.7V176h5.33v1.35h-4v3.33H313V182h-2.67v3.34h4v1.33Z" transform="translate(-245.49 -35.98)"/><polygon points="382.57 454.42 381.25 454.42 381.25 455.08 380.57 455.08 380.57 455.76 379.9 455.76 379.9 456.42 379.25 456.42 379.25 458.42 379.9 458.42 379.9 457.76 380.57 457.76 380.57 457.08 381.25 457.08 381.25 463.76 379.25 463.76 379.25 465.1 384.58 465.1 384.58 463.76 382.57 463.76 382.57 454.42"/><polygon points="391.23 455.08 390.58 455.08 390.58 454.42 387.9 454.42 387.9 455.08 387.23 455.08 387.23 455.76 386.57 455.76 386.57 457.76 387.9 457.76 387.9 456.42 388.57 456.42 388.57 455.76 389.9 455.76 389.9 456.42 390.58 456.42 390.58 458.42 389.9 458.42 389.9 459.08 389.23 459.08 389.23 459.76 388.57 459.76 388.57 460.42 387.9 460.42 387.9 461.1 387.23 461.1 387.23 461.76 386.57 461.76 386.57 465.1 391.9 465.1 391.9 463.76 387.9 463.76 387.9 462.42 388.57 462.42 388.57 461.76 389.23 461.76 389.23 461.1 389.9 461.1 389.9 460.42 390.58 460.42 390.58 459.76 391.23 459.76 391.23 459.08 391.9 459.08 391.9 455.76 391.23 455.76 391.23 455.08"/><polygon points="405.23 455.76 404.56 455.76 404.56 457.08 403.23 457.08 403.23 455.76 402.56 455.76 402.56 454.42 401.23 454.42 401.23 465.1 402.56 465.1 402.56 458.42 403.23 458.42 403.23 459.76 404.56 459.76 404.56 458.42 405.23 458.42 405.23 465.1 406.56 465.1 406.56 454.42 405.23 454.42 405.23 455.76"/><polygon points="412.56 454.42 412.56 455.76 411.89 455.76 411.89 457.08 410.56 457.08 410.56 455.76 409.89 455.76 409.89 454.42 408.56 454.42 408.56 465.1 409.89 465.1 409.89 458.42 410.56 458.42 410.56 459.76 411.89 459.76 411.89 458.42 412.56 458.42 412.56 465.1 413.89 465.1 413.89 454.42 412.56 454.42"/><path d="M613.48,490.39H611.4v.67h-.67v.67h-.66v8h.4v.94h-.74v.76H612v-.37h2.09v-.67h.66v-.66h.67v-8H615v-1.55h.76v-.76h-2.25v1Zm-1.4,2v-.66h.65v2.19H612v2.25h-.58v-3.79h.67Zm1.33,6.68v.67h-1.33v-.55h.65v-2.25h.76v-2.25h.6v4.38Z" transform="translate(-245.49 -35.98)"/><polygon points="382.24 119.69 380.92 119.69 380.92 120.36 380.24 120.36 380.24 121.03 379.57 121.03 379.57 121.69 378.92 121.69 378.92 123.69 379.57 123.69 379.57 123.03 380.24 123.03 380.24 122.36 380.92 122.36 380.92 129.03 378.92 129.03 378.92 130.37 384.25 130.37 384.25 129.03 382.24 129.03 382.24 119.69"/><polygon points="390.9 120.36 390.25 120.36 390.25 119.69 387.57 119.69 387.57 120.36 386.9 120.36 386.9 121.03 386.24 121.03 386.24 123.03 387.57 123.03 387.57 121.69 388.24 121.69 388.24 121.03 389.57 121.03 389.57 121.69 390.25 121.69 390.25 123.69 389.57 123.69 389.57 124.36 388.9 124.36 388.9 125.03 388.24 125.03 388.24 125.69 387.57 125.69 387.57 126.36 386.9 126.36 386.9 127.03 386.24 127.03 386.24 130.37 391.57 130.37 391.57 129.03 387.57 129.03 387.57 127.69 388.24 127.69 388.24 127.03 388.9 127.03 388.9 126.36 389.57 126.36 389.57 125.69 390.25 125.69 390.25 125.03 390.9 125.03 390.9 124.36 391.57 124.36 391.57 121.03 390.9 121.03 390.9 120.36"/><polygon points="404.9 121.03 404.23 121.03 404.23 122.36 402.9 122.36 402.9 121.03 402.23 121.03 402.23 119.69 400.9 119.69 400.9 130.37 402.23 130.37 402.23 123.69 402.9 123.69 402.9 125.03 404.23 125.03 404.23 123.69 404.9 123.69 404.9 130.37 406.23 130.37 406.23 119.69 404.9 119.69 404.9 121.03"/><polygon points="412.23 119.69 412.23 121.03 411.56 121.03 411.56 122.36 410.23 122.36 410.23 121.03 409.56 121.03 409.56 119.69 408.23 119.69 408.23 130.37 409.56 130.37 409.56 123.69 410.23 123.69 410.23 125.03 411.56 125.03 411.56 123.69 412.23 123.69 412.23 130.37 413.56 130.37 413.56 119.69 412.23 119.69"/><path d="M613.15,155.66h-2.08v.67h-.67V157h-.66v8h.4v.94h-.74v.76h2.25v-.37h2.09v-.67h.66V165h.67v-8h-.43v-1.55h.76v-.76h-2.25v1Zm-1.4,2V157h.65v2.19h-.74v2.25h-.58v-3.79h.67Zm1.33,6.67V165h-1.33v-.55h.65v-2.25h.76V160h.6v4.38Z" transform="translate(-245.49 -35.98)"/></g></svg>